<svg xmlns="http://www.w3.org/2000/svg" width="400" height="351" viewBox="0 0 400 351">
  <g id="Group_1075347" data-name="Group 1075347" transform="translate(7001 -3171)">
    <path id="Path_614869" data-name="Path 614869" d="M0,0H400V351H0Z" transform="translate(-7001 3171)" fill="#fff"/>
    <path id="Path_614870" data-name="Path 614870" d="M0,0H100V32H0Z" transform="translate(-6801 3478)" fill="#03386e"/>
    <path id="Path_614871" data-name="Path 614871" d="M-66.258-3.609A4.185,4.185,0,0,1-67.59-.824a4.365,4.365,0,0,1-2.98.98A4.008,4.008,0,0,1-73.8-1.289a5.815,5.815,0,0,1-1.215-3.867V-6.25a6.481,6.481,0,0,1,.566-2.789,4.231,4.231,0,0,1,1.605-1.848,4.47,4.47,0,0,1,2.406-.645,4.11,4.11,0,0,1,2.906,1.012,4.235,4.235,0,0,1,1.273,2.8h-1.508a3.268,3.268,0,0,0-.848-1.975,2.565,2.565,0,0,0-1.824-.611,2.684,2.684,0,0,0-2.254,1.063,4.882,4.882,0,0,0-.816,3.026v1.1a5.018,5.018,0,0,0,.773,2.948A2.5,2.5,0,0,0-70.57-1.07a2.886,2.886,0,0,0,1.918-.566,3.143,3.143,0,0,0,.887-1.973ZM-59.219,0a3.036,3.036,0,0,1-.2-.891A3.225,3.225,0,0,1-61.828.156a2.984,2.984,0,0,1-2.051-.707,2.288,2.288,0,0,1-.8-1.793,2.39,2.39,0,0,1,1-2.051,4.733,4.733,0,0,1,2.824-.73h1.406v-.664A1.623,1.623,0,0,0-59.9-7a1.821,1.821,0,0,0-1.336-.449,2.107,2.107,0,0,0-1.3.391,1.151,1.151,0,0,0-.523.945h-1.453a2,2,0,0,1,.449-1.223,3.066,3.066,0,0,1,1.219-.934,4.1,4.1,0,0,1,1.691-.344,3.342,3.342,0,0,1,2.289.73A2.635,2.635,0,0,1-58-5.867v3.891a4.757,4.757,0,0,0,.3,1.852V0Zm-2.4-1.1a2.54,2.54,0,0,0,1.289-.352,2.127,2.127,0,0,0,.883-.914V-4.1h-1.133q-2.656,0-2.656,1.555a1.316,1.316,0,0,0,.453,1.063A1.742,1.742,0,0,0-61.617-1.1Zm10.8-1.141a1.064,1.064,0,0,0-.441-.91,4.249,4.249,0,0,0-1.539-.559,7.277,7.277,0,0,1-1.742-.562,2.479,2.479,0,0,1-.953-.781A1.869,1.869,0,0,1-55.8-6.133a2.193,2.193,0,0,1,.879-1.758,3.432,3.432,0,0,1,2.246-.719,3.532,3.532,0,0,1,2.332.742,2.357,2.357,0,0,1,.895,1.9H-50.9a1.3,1.3,0,0,0-.5-1.023,1.888,1.888,0,0,0-1.27-.43,1.976,1.976,0,0,0-1.234.344,1.082,1.082,0,0,0-.445.9.877.877,0,0,0,.414.789,5.1,5.1,0,0,0,1.5.508,7.8,7.8,0,0,1,1.754.578,2.558,2.558,0,0,1,1,.809,1.988,1.988,0,0,1,.324,1.152,2.163,2.163,0,0,1-.906,1.816,3.8,3.8,0,0,1-2.352.684,4.257,4.257,0,0,1-1.8-.359,2.922,2.922,0,0,1-1.223-1A2.42,2.42,0,0,1-56.086-2.6h1.445a1.5,1.5,0,0,0,.582,1.152,2.258,2.258,0,0,0,1.434.426,2.331,2.331,0,0,0,1.316-.332A1.02,1.02,0,0,0-50.812-2.242ZM-45.914,0h-1.445V-8.453h1.445Zm-1.562-10.7a.863.863,0,0,1,.215-.594.807.807,0,0,1,.637-.242.819.819,0,0,1,.641.242.854.854,0,0,1,.219.594.826.826,0,0,1-.219.586.834.834,0,0,1-.641.234.821.821,0,0,1-.637-.234A.834.834,0,0,1-47.477-10.7ZM-36.25-1.023A2.082,2.082,0,0,0-34.9-1.492a1.649,1.649,0,0,0,.641-1.172h1.367a2.621,2.621,0,0,1-.5,1.383,3.293,3.293,0,0,1-1.23,1.047A3.55,3.55,0,0,1-36.25.156,3.482,3.482,0,0,1-39-1a4.59,4.59,0,0,1-1.02-3.152v-.242a5.089,5.089,0,0,1,.453-2.2,3.451,3.451,0,0,1,1.3-1.492,3.7,3.7,0,0,1,2-.531,3.39,3.39,0,0,1,2.363.852,3.043,3.043,0,0,1,1,2.211h-1.367a1.992,1.992,0,0,0-.621-1.348,1.932,1.932,0,0,0-1.379-.527,2.023,2.023,0,0,0-1.707.793,3.724,3.724,0,0,0-.605,2.293v.273a3.65,3.65,0,0,0,.6,2.25A2.033,2.033,0,0,0-36.25-1.023ZM-29.7,0h-1.445V-8.453H-29.7Zm-1.562-10.7a.863.863,0,0,1,.215-.594.807.807,0,0,1,.637-.242.819.819,0,0,1,.641.242.854.854,0,0,1,.219.594.826.826,0,0,1-.219.586.834.834,0,0,1-.641.234.821.821,0,0,1-.637-.234A.834.834,0,0,1-31.258-10.7ZM-23.875.156a3.693,3.693,0,0,1-2.8-1.129,4.19,4.19,0,0,1-1.078-3.02v-.266A5.073,5.073,0,0,1-27.27-6.5a3.748,3.748,0,0,1,1.344-1.547,3.378,3.378,0,0,1,1.871-.559,3.166,3.166,0,0,1,2.563,1.086,4.7,4.7,0,0,1,.914,3.109v.6H-26.3a3,3,0,0,0,.73,2.02,2.3,2.3,0,0,0,1.777.77,2.517,2.517,0,0,0,1.3-.312,3.259,3.259,0,0,0,.93-.828l.883.688A3.55,3.55,0,0,1-23.875.156Zm-.18-7.578a1.928,1.928,0,0,0-1.469.637A3.1,3.1,0,0,0-26.258-5h4.234v-.109a2.753,2.753,0,0,0-.594-1.707A1.815,1.815,0,0,0-24.055-7.422Zm9.234.266a4.331,4.331,0,0,0-.711-.055A1.9,1.9,0,0,0-17.461-6V0h-1.445V-8.453H-17.5l.023.977a2.251,2.251,0,0,1,2.016-1.133,1.477,1.477,0,0,1,.641.109Zm3.68-3.344v2.047h1.578v1.117h-1.578v5.249a1.173,1.173,0,0,0,.211.763.888.888,0,0,0,.719.254,3.5,3.5,0,0,0,.688-.094V0a4.215,4.215,0,0,1-1.109.155A1.8,1.8,0,0,1-12.094-.43a2.517,2.517,0,0,1-.492-1.664V-7.336h-1.539V-8.453h1.539V-10.5Zm2.727,6.2a4.993,4.993,0,0,1,.488-2.234A3.643,3.643,0,0,1-6.566-8.07a3.7,3.7,0,0,1,1.988-.539,3.565,3.565,0,0,1,2.793,1.2A4.6,4.6,0,0,1-.719-4.234v.1a5.036,5.036,0,0,1-.473,2.215A3.589,3.589,0,0,1-2.543-.391a3.743,3.743,0,0,1-2.02.547,3.556,3.556,0,0,1-2.785-1.2A4.575,4.575,0,0,1-8.414-4.2Zm1.453.172a3.616,3.616,0,0,0,.652,2.258,2.088,2.088,0,0,0,1.746.852,2.075,2.075,0,0,0,1.75-.863A3.955,3.955,0,0,0-2.164-4.3a3.61,3.61,0,0,0-.66-2.254,2.1,2.1,0,0,0-1.754-.863A2.075,2.075,0,0,0-6.3-6.57,3.925,3.925,0,0,0-6.961-4.133Z" transform="translate(-6862 3249)" fill="#12263f"/>
    <path id="Path_614872" data-name="Path 614872" d="M-60.672-4.453V0h-1.5V-11.375h4.2a4.215,4.215,0,0,1,2.926.953A3.231,3.231,0,0,1-53.992-7.9a3.189,3.189,0,0,1-1.035,2.551,4.4,4.4,0,0,1-2.965.895Zm0-1.227h2.7a2.7,2.7,0,0,0,1.844-.567,2.075,2.075,0,0,0,.641-1.64,2.143,2.143,0,0,0-.641-1.628,2.525,2.525,0,0,0-1.758-.634h-2.781Zm12.453-1.477a4.331,4.331,0,0,0-.711-.055A1.9,1.9,0,0,0-50.859-6V0H-52.3V-8.453H-50.9l.023.977a2.251,2.251,0,0,1,2.016-1.133,1.477,1.477,0,0,1,.641.109ZM-47.43-4.3a4.993,4.993,0,0,1,.488-2.234A3.643,3.643,0,0,1-45.582-8.07a3.7,3.7,0,0,1,1.988-.539,3.565,3.565,0,0,1,2.793,1.2,4.6,4.6,0,0,1,1.066,3.18v.1a5.036,5.036,0,0,1-.473,2.215A3.589,3.589,0,0,1-41.559-.391a3.743,3.743,0,0,1-2.02.547,3.556,3.556,0,0,1-2.785-1.2A4.575,4.575,0,0,1-47.43-4.2Zm1.453.172a3.616,3.616,0,0,0,.652,2.258,2.088,2.088,0,0,0,1.746.852,2.075,2.075,0,0,0,1.75-.863A3.955,3.955,0,0,0-41.18-4.3a3.61,3.61,0,0,0-.66-2.254,2.1,2.1,0,0,0-1.754-.863,2.075,2.075,0,0,0-1.727.852A3.925,3.925,0,0,0-45.977-4.133Zm15.211,0a5.026,5.026,0,0,1-.891,3.113A2.846,2.846,0,0,1-34.047.156,2.947,2.947,0,0,1-36.523-.977l-.07.977h-1.328V-12h1.445v4.477a2.93,2.93,0,0,1,2.414-1.086,2.863,2.863,0,0,1,2.418,1.164,5.177,5.177,0,0,1,.879,3.188ZM-32.211-4.3a3.906,3.906,0,0,0-.57-2.281,1.888,1.888,0,0,0-1.641-.8,2.122,2.122,0,0,0-2.055,1.328V-2.4a2.181,2.181,0,0,0,2.07,1.328,1.878,1.878,0,0,0,1.617-.8A4.153,4.153,0,0,0-32.211-4.3ZM-23.727,0a3.036,3.036,0,0,1-.2-.891A3.225,3.225,0,0,1-26.336.156a2.984,2.984,0,0,1-2.051-.707,2.287,2.287,0,0,1-.8-1.793,2.39,2.39,0,0,1,1-2.051,4.733,4.733,0,0,1,2.824-.73h1.406v-.664A1.623,1.623,0,0,0-24.406-7a1.821,1.821,0,0,0-1.336-.449,2.108,2.108,0,0,0-1.3.391,1.151,1.151,0,0,0-.523.945h-1.453a2,2,0,0,1,.449-1.223,3.066,3.066,0,0,1,1.219-.934,4.1,4.1,0,0,1,1.691-.344,3.342,3.342,0,0,1,2.289.73,2.635,2.635,0,0,1,.859,2.012v3.891a4.757,4.757,0,0,0,.3,1.852V0Zm-2.4-1.1a2.54,2.54,0,0,0,1.289-.352,2.127,2.127,0,0,0,.883-.914V-4.1h-1.133q-2.656,0-2.656,1.555a1.316,1.316,0,0,0,.453,1.063A1.742,1.742,0,0,0-26.125-1.1Zm13.039-3.031a5.026,5.026,0,0,1-.891,3.113A2.846,2.846,0,0,1-16.367.156,2.947,2.947,0,0,1-18.844-.977l-.07.977h-1.328V-12H-18.8v4.477a2.93,2.93,0,0,1,2.414-1.086,2.863,2.863,0,0,1,2.418,1.164,5.177,5.177,0,0,1,.879,3.188ZM-14.531-4.3a3.906,3.906,0,0,0-.57-2.281,1.888,1.888,0,0,0-1.641-.8A2.122,2.122,0,0,0-18.8-6.055V-2.4a2.181,2.181,0,0,0,2.07,1.328,1.878,1.878,0,0,0,1.617-.8A4.153,4.153,0,0,0-14.531-4.3ZM-9.7,0h-1.445V-12H-9.7Zm5.82.156a3.693,3.693,0,0,1-2.8-1.129A4.19,4.19,0,0,1-7.75-3.992v-.266A5.073,5.073,0,0,1-7.27-6.5,3.748,3.748,0,0,1-5.926-8.051a3.378,3.378,0,0,1,1.871-.559A3.166,3.166,0,0,1-1.492-7.523,4.7,4.7,0,0,1-.578-4.414v.6H-6.3a3,3,0,0,0,.73,2.02,2.3,2.3,0,0,0,1.777.77,2.517,2.517,0,0,0,1.3-.312,3.259,3.259,0,0,0,.93-.828l.883.688A3.55,3.55,0,0,1-3.875.156Zm-.18-7.578a1.928,1.928,0,0,0-1.469.637A3.1,3.1,0,0,0-6.258-5h4.234v-.109a2.753,2.753,0,0,0-.594-1.707A1.815,1.815,0,0,0-4.055-7.422Z" transform="translate(-6862 3283)" fill="#12263f"/>
    <path id="Path_614873" data-name="Path 614873" d="M-69.289-11.375l3.719,9.281,3.719-9.281h1.945V0h-1.5V-4.43l.141-4.781L-65,0h-1.148l-3.727-9.187.148,4.758V0h-1.5V-11.375ZM-57.867-4.3a4.993,4.993,0,0,1,.488-2.234A3.643,3.643,0,0,1-56.02-8.07a3.7,3.7,0,0,1,1.988-.539,3.565,3.565,0,0,1,2.793,1.2,4.6,4.6,0,0,1,1.066,3.18v.1a5.036,5.036,0,0,1-.473,2.215A3.589,3.589,0,0,1-52-.391a3.743,3.743,0,0,1-2.02.547,3.556,3.556,0,0,1-2.785-1.2A4.575,4.575,0,0,1-57.867-4.2Zm1.453.172a3.616,3.616,0,0,0,.652,2.258,2.088,2.088,0,0,0,1.746.852,2.075,2.075,0,0,0,1.75-.863A3.955,3.955,0,0,0-51.617-4.3a3.61,3.61,0,0,0-.66-2.254,2.1,2.1,0,0,0-1.754-.863,2.075,2.075,0,0,0-1.727.852A3.925,3.925,0,0,0-56.414-4.133Zm7.7-.164a4.952,4.952,0,0,1,.922-3.129,2.915,2.915,0,0,1,2.414-1.184,2.932,2.932,0,0,1,2.352,1.016V-12h1.445V0h-1.328l-.07-.906A2.943,2.943,0,0,1-45.391.156a2.887,2.887,0,0,1-2.395-1.2,5.008,5.008,0,0,1-.926-3.141Zm1.445.164a3.749,3.749,0,0,0,.594,2.25,1.92,1.92,0,0,0,1.641.813A2.108,2.108,0,0,0-43.023-2.3V-6.187a2.125,2.125,0,0,0-1.992-1.2,1.929,1.929,0,0,0-1.656.82A4.128,4.128,0,0,0-47.266-4.133ZM-35.828.156a3.693,3.693,0,0,1-2.8-1.129A4.19,4.19,0,0,1-39.7-3.992v-.266a5.073,5.073,0,0,1,.48-2.246,3.748,3.748,0,0,1,1.344-1.547,3.378,3.378,0,0,1,1.871-.559,3.166,3.166,0,0,1,2.563,1.086,4.7,4.7,0,0,1,.914,3.109v.6h-5.727a3,3,0,0,0,.73,2.02,2.3,2.3,0,0,0,1.777.77,2.517,2.517,0,0,0,1.3-.312,3.259,3.259,0,0,0,.93-.828l.883.688A3.55,3.55,0,0,1-35.828.156Zm-.18-7.578a1.928,1.928,0,0,0-1.469.637A3.1,3.1,0,0,0-38.211-5h4.234v-.109a2.753,2.753,0,0,0-.594-1.707A1.815,1.815,0,0,0-36.008-7.422Zm9.234.266a4.331,4.331,0,0,0-.711-.055A1.9,1.9,0,0,0-29.414-6V0h-1.445V-8.453h1.406l.023.977a2.251,2.251,0,0,1,2.016-1.133,1.477,1.477,0,0,1,.641.109ZM-20.539,0a3.036,3.036,0,0,1-.2-.891A3.225,3.225,0,0,1-23.148.156,2.984,2.984,0,0,1-25.2-.551,2.287,2.287,0,0,1-26-2.344a2.39,2.39,0,0,1,1-2.051,4.733,4.733,0,0,1,2.824-.73h1.406v-.664A1.623,1.623,0,0,0-21.219-7a1.821,1.821,0,0,0-1.336-.449,2.108,2.108,0,0,0-1.3.391,1.151,1.151,0,0,0-.523.945h-1.453a2,2,0,0,1,.449-1.223,3.066,3.066,0,0,1,1.219-.934,4.1,4.1,0,0,1,1.691-.344,3.342,3.342,0,0,1,2.289.73,2.635,2.635,0,0,1,.859,2.012v3.891a4.757,4.757,0,0,0,.3,1.852V0Zm-2.4-1.1a2.54,2.54,0,0,0,1.289-.352,2.127,2.127,0,0,0,.883-.914V-4.1H-21.9q-2.656,0-2.656,1.555A1.316,1.316,0,0,0-24.1-1.484,1.742,1.742,0,0,0-22.937-1.1Zm5.531-3.2a4.952,4.952,0,0,1,.922-3.129A2.915,2.915,0,0,1-14.07-8.609a2.932,2.932,0,0,1,2.352,1.016V-12h1.445V0H-11.6l-.07-.906A2.943,2.943,0,0,1-14.086.156a2.887,2.887,0,0,1-2.395-1.2,5.008,5.008,0,0,1-.926-3.141Zm1.445.164a3.749,3.749,0,0,0,.594,2.25,1.92,1.92,0,0,0,1.641.813A2.108,2.108,0,0,0-11.719-2.3V-6.187a2.125,2.125,0,0,0-1.992-1.2,1.929,1.929,0,0,0-1.656.82A4.128,4.128,0,0,0-15.961-4.133ZM-8.414-4.3a4.993,4.993,0,0,1,.488-2.234A3.643,3.643,0,0,1-6.566-8.07a3.7,3.7,0,0,1,1.988-.539,3.565,3.565,0,0,1,2.793,1.2A4.6,4.6,0,0,1-.719-4.234v.1a5.036,5.036,0,0,1-.473,2.215A3.589,3.589,0,0,1-2.543-.391a3.743,3.743,0,0,1-2.02.547,3.556,3.556,0,0,1-2.785-1.2A4.575,4.575,0,0,1-8.414-4.2Zm1.453.172a3.616,3.616,0,0,0,.652,2.258,2.088,2.088,0,0,0,1.746.852,2.075,2.075,0,0,0,1.75-.863A3.955,3.955,0,0,0-2.164-4.3a3.61,3.61,0,0,0-.66-2.254,2.1,2.1,0,0,0-1.754-.863A2.075,2.075,0,0,0-6.3-6.57,3.925,3.925,0,0,0-6.961-4.133Z" transform="translate(-6862 3314)" fill="#12263f"/>
    <path id="Path_614874" data-name="Path 614874" d="M-100.133-4.453V0h-1.5V-11.375h4.2a4.215,4.215,0,0,1,2.926.953A3.231,3.231,0,0,1-93.453-7.9a3.189,3.189,0,0,1-1.035,2.551,4.4,4.4,0,0,1-2.965.895Zm0-1.227h2.7a2.7,2.7,0,0,0,1.844-.567,2.075,2.075,0,0,0,.641-1.64,2.143,2.143,0,0,0-.641-1.628,2.525,2.525,0,0,0-1.758-.634h-2.781ZM-92.25-4.3a4.993,4.993,0,0,1,.488-2.234A3.643,3.643,0,0,1-90.4-8.07a3.7,3.7,0,0,1,1.988-.539,3.565,3.565,0,0,1,2.793,1.2,4.6,4.6,0,0,1,1.066,3.18v.1a5.036,5.036,0,0,1-.473,2.215A3.589,3.589,0,0,1-86.379-.391,3.743,3.743,0,0,1-88.4.156a3.556,3.556,0,0,1-2.785-1.2A4.575,4.575,0,0,1-92.25-4.2Zm1.453.172a3.616,3.616,0,0,0,.652,2.258,2.088,2.088,0,0,0,1.746.852,2.075,2.075,0,0,0,1.75-.863A3.955,3.955,0,0,0-86-4.3a3.61,3.61,0,0,0-.66-2.254,2.1,2.1,0,0,0-1.754-.863,2.075,2.075,0,0,0-1.727.852A3.925,3.925,0,0,0-90.8-4.133Zm11.445,3.109A2.082,2.082,0,0,0-78-1.492a1.649,1.649,0,0,0,.641-1.172h1.367a2.621,2.621,0,0,1-.5,1.383,3.293,3.293,0,0,1-1.23,1.047,3.55,3.55,0,0,1-1.629.391A3.482,3.482,0,0,1-82.1-1a4.59,4.59,0,0,1-1.02-3.152v-.242a5.089,5.089,0,0,1,.453-2.2,3.451,3.451,0,0,1,1.3-1.492,3.7,3.7,0,0,1,2-.531A3.39,3.39,0,0,1-77-7.758a3.043,3.043,0,0,1,1,2.211h-1.367a1.992,1.992,0,0,0-.621-1.348,1.932,1.932,0,0,0-1.379-.527,2.023,2.023,0,0,0-1.707.793,3.724,3.724,0,0,0-.605,2.293v.273a3.65,3.65,0,0,0,.6,2.25A2.033,2.033,0,0,0-79.352-1.023Zm4.6-3.281a4.993,4.993,0,0,1,.488-2.234A3.643,3.643,0,0,1-72.9-8.07a3.7,3.7,0,0,1,1.988-.539,3.565,3.565,0,0,1,2.793,1.2,4.6,4.6,0,0,1,1.066,3.18v.1a5.036,5.036,0,0,1-.473,2.215A3.589,3.589,0,0,1-68.879-.391,3.743,3.743,0,0,1-70.9.156a3.556,3.556,0,0,1-2.785-1.2A4.575,4.575,0,0,1-74.75-4.2Zm1.453.172a3.616,3.616,0,0,0,.652,2.258,2.088,2.088,0,0,0,1.746.852,2.075,2.075,0,0,0,1.75-.863A3.955,3.955,0,0,0-68.5-4.3a3.61,3.61,0,0,0-.66-2.254,2.1,2.1,0,0,0-1.754-.863,2.075,2.075,0,0,0-1.727.852A3.925,3.925,0,0,0-73.3-4.133Zm19.156,0a5.062,5.062,0,0,1-.883,3.109A2.829,2.829,0,0,1-57.414.156,3.1,3.1,0,0,1-59.836-.82V3.25h-1.445v-11.7h1.32l.07.938a2.977,2.977,0,0,1,2.453-1.094,2.882,2.882,0,0,1,2.41,1.148,5.117,5.117,0,0,1,.887,3.2ZM-55.586-4.3A3.735,3.735,0,0,0-56.2-6.555a1.963,1.963,0,0,0-1.672-.828,2.125,2.125,0,0,0-1.969,1.164V-2.18a2.129,2.129,0,0,0,1.984,1.156A1.954,1.954,0,0,0-56.2-1.848,4.077,4.077,0,0,0-55.586-4.3Zm7.367-2.859a4.331,4.331,0,0,0-.711-.055A1.9,1.9,0,0,0-50.859-6V0H-52.3V-8.453H-50.9l.023.977a2.251,2.251,0,0,1,2.016-1.133,1.477,1.477,0,0,1,.641.109ZM-47.43-4.3a4.993,4.993,0,0,1,.488-2.234A3.643,3.643,0,0,1-45.582-8.07a3.7,3.7,0,0,1,1.988-.539,3.565,3.565,0,0,1,2.793,1.2,4.6,4.6,0,0,1,1.066,3.18v.1a5.036,5.036,0,0,1-.473,2.215A3.589,3.589,0,0,1-41.559-.391a3.743,3.743,0,0,1-2.02.547,3.556,3.556,0,0,1-2.785-1.2A4.575,4.575,0,0,1-47.43-4.2Zm1.453.172a3.616,3.616,0,0,0,.652,2.258,2.088,2.088,0,0,0,1.746.852,2.075,2.075,0,0,0,1.75-.863A3.955,3.955,0,0,0-41.18-4.3a3.61,3.61,0,0,0-.66-2.254,2.1,2.1,0,0,0-1.754-.863,2.075,2.075,0,0,0-1.727.852A3.925,3.925,0,0,0-45.977-4.133Zm15.211,0a5.026,5.026,0,0,1-.891,3.113A2.846,2.846,0,0,1-34.047.156,2.947,2.947,0,0,1-36.523-.977l-.07.977h-1.328V-12h1.445v4.477a2.93,2.93,0,0,1,2.414-1.086,2.863,2.863,0,0,1,2.418,1.164,5.177,5.177,0,0,1,.879,3.188ZM-32.211-4.3a3.906,3.906,0,0,0-.57-2.281,1.888,1.888,0,0,0-1.641-.8,2.122,2.122,0,0,0-2.055,1.328V-2.4a2.181,2.181,0,0,0,2.07,1.328,1.878,1.878,0,0,0,1.617-.8A4.153,4.153,0,0,0-32.211-4.3ZM-23.727,0a3.036,3.036,0,0,1-.2-.891A3.225,3.225,0,0,1-26.336.156a2.984,2.984,0,0,1-2.051-.707,2.287,2.287,0,0,1-.8-1.793,2.39,2.39,0,0,1,1-2.051,4.733,4.733,0,0,1,2.824-.73h1.406v-.664A1.623,1.623,0,0,0-24.406-7a1.821,1.821,0,0,0-1.336-.449,2.108,2.108,0,0,0-1.3.391,1.151,1.151,0,0,0-.523.945h-1.453a2,2,0,0,1,.449-1.223,3.066,3.066,0,0,1,1.219-.934,4.1,4.1,0,0,1,1.691-.344,3.342,3.342,0,0,1,2.289.73,2.635,2.635,0,0,1,.859,2.012v3.891a4.757,4.757,0,0,0,.3,1.852V0Zm-2.4-1.1a2.54,2.54,0,0,0,1.289-.352,2.127,2.127,0,0,0,.883-.914V-4.1h-1.133q-2.656,0-2.656,1.555a1.316,1.316,0,0,0,.453,1.063A1.742,1.742,0,0,0-26.125-1.1Zm13.039-3.031a5.026,5.026,0,0,1-.891,3.113A2.846,2.846,0,0,1-16.367.156,2.947,2.947,0,0,1-18.844-.977l-.07.977h-1.328V-12H-18.8v4.477a2.93,2.93,0,0,1,2.414-1.086,2.863,2.863,0,0,1,2.418,1.164,5.177,5.177,0,0,1,.879,3.188ZM-14.531-4.3a3.906,3.906,0,0,0-.57-2.281,1.888,1.888,0,0,0-1.641-.8A2.122,2.122,0,0,0-18.8-6.055V-2.4a2.181,2.181,0,0,0,2.07,1.328,1.878,1.878,0,0,0,1.617-.8A4.153,4.153,0,0,0-14.531-4.3ZM-9.7,0h-1.445V-12H-9.7Zm5.82.156a3.693,3.693,0,0,1-2.8-1.129A4.19,4.19,0,0,1-7.75-3.992v-.266A5.073,5.073,0,0,1-7.27-6.5,3.748,3.748,0,0,1-5.926-8.051a3.378,3.378,0,0,1,1.871-.559A3.166,3.166,0,0,1-1.492-7.523,4.7,4.7,0,0,1-.578-4.414v.6H-6.3a3,3,0,0,0,.73,2.02,2.3,2.3,0,0,0,1.777.77,2.517,2.517,0,0,0,1.3-.312,3.259,3.259,0,0,0,.93-.828l.883.688A3.55,3.55,0,0,1-3.875.156Zm-.18-7.578a1.928,1.928,0,0,0-1.469.637A3.1,3.1,0,0,0-6.258-5h4.234v-.109a2.753,2.753,0,0,0-.594-1.707A1.815,1.815,0,0,0-4.055-7.422Z" transform="translate(-6862 3345)" fill="#12263f"/>
    <path id="Path_614875" data-name="Path 614875" d="M-105.8-3.609a4.185,4.185,0,0,1-1.332,2.785,4.365,4.365,0,0,1-2.98.98,4.008,4.008,0,0,1-3.23-1.445,5.815,5.815,0,0,1-1.215-3.867V-6.25A6.481,6.481,0,0,1-114-9.039a4.231,4.231,0,0,1,1.605-1.848,4.47,4.47,0,0,1,2.406-.645,4.11,4.11,0,0,1,2.906,1.012,4.235,4.235,0,0,1,1.273,2.8h-1.508a3.268,3.268,0,0,0-.848-1.975,2.565,2.565,0,0,0-1.824-.611,2.684,2.684,0,0,0-2.254,1.063,4.882,4.882,0,0,0-.816,3.026v1.1a5.018,5.018,0,0,0,.773,2.948,2.5,2.5,0,0,0,2.164,1.095,2.886,2.886,0,0,0,1.918-.566,3.143,3.143,0,0,0,.887-1.973ZM-98.766,0a3.036,3.036,0,0,1-.2-.891A3.225,3.225,0,0,1-101.375.156a2.984,2.984,0,0,1-2.051-.707,2.288,2.288,0,0,1-.8-1.793,2.39,2.39,0,0,1,1-2.051,4.733,4.733,0,0,1,2.824-.73h1.406v-.664A1.623,1.623,0,0,0-99.445-7a1.821,1.821,0,0,0-1.336-.449,2.108,2.108,0,0,0-1.3.391,1.151,1.151,0,0,0-.523.945h-1.453a2,2,0,0,1,.449-1.223,3.066,3.066,0,0,1,1.219-.934,4.1,4.1,0,0,1,1.691-.344,3.342,3.342,0,0,1,2.289.73,2.635,2.635,0,0,1,.859,2.012v3.891a4.757,4.757,0,0,0,.3,1.852V0Zm-2.4-1.1a2.54,2.54,0,0,0,1.289-.352,2.127,2.127,0,0,0,.883-.914V-4.1h-1.133q-2.656,0-2.656,1.555a1.316,1.316,0,0,0,.453,1.063A1.742,1.742,0,0,0-101.164-1.1Zm10.8-1.141a1.064,1.064,0,0,0-.441-.91,4.249,4.249,0,0,0-1.539-.559,7.277,7.277,0,0,1-1.742-.562,2.479,2.479,0,0,1-.953-.781,1.869,1.869,0,0,1-.309-1.078,2.193,2.193,0,0,1,.879-1.758,3.432,3.432,0,0,1,2.246-.719,3.532,3.532,0,0,1,2.332.742,2.357,2.357,0,0,1,.895,1.9h-1.453a1.3,1.3,0,0,0-.5-1.023,1.888,1.888,0,0,0-1.27-.43,1.976,1.976,0,0,0-1.234.344,1.082,1.082,0,0,0-.445.9.877.877,0,0,0,.414.789,5.1,5.1,0,0,0,1.5.508,7.8,7.8,0,0,1,1.754.578,2.558,2.558,0,0,1,1,.809,1.988,1.988,0,0,1,.324,1.152A2.163,2.163,0,0,1-89.82-.527a3.8,3.8,0,0,1-2.352.684,4.257,4.257,0,0,1-1.8-.359,2.922,2.922,0,0,1-1.223-1A2.42,2.42,0,0,1-95.633-2.6h1.445a1.5,1.5,0,0,0,.582,1.152,2.258,2.258,0,0,0,1.434.426,2.331,2.331,0,0,0,1.316-.332A1.02,1.02,0,0,0-90.359-2.242ZM-85.461,0h-1.445V-8.453h1.445Zm-1.562-10.7a.863.863,0,0,1,.215-.594.807.807,0,0,1,.637-.242.819.819,0,0,1,.641.242.854.854,0,0,1,.219.594.826.826,0,0,1-.219.586.834.834,0,0,1-.641.234.821.821,0,0,1-.637-.234A.834.834,0,0,1-87.023-10.7ZM-77.617,0h-1.445V-8.453h1.445ZM-79.18-10.7a.863.863,0,0,1,.215-.594.807.807,0,0,1,.637-.242.819.819,0,0,1,.641.242.854.854,0,0,1,.219.594.826.826,0,0,1-.219.586.834.834,0,0,1-.641.234.821.821,0,0,1-.637-.234A.834.834,0,0,1-79.18-10.7Zm5.234,2.242.039.938A3.122,3.122,0,0,1-71.4-8.609,2.417,2.417,0,0,1-68.984-7.25a3.2,3.2,0,0,1,1.1-.984,3.242,3.242,0,0,1,1.6-.375q2.781,0,2.828,2.945V0h-1.445V-5.578a1.941,1.941,0,0,0-.414-1.355,1.823,1.823,0,0,0-1.391-.449,1.916,1.916,0,0,0-1.336.48,1.949,1.949,0,0,0-.617,1.293V0h-1.453V-5.539a1.613,1.613,0,0,0-1.8-1.844,1.934,1.934,0,0,0-1.945,1.211V0h-1.445V-8.453Zm19.8,4.32a5.062,5.062,0,0,1-.883,3.109A2.829,2.829,0,0,1-57.414.156,3.1,3.1,0,0,1-59.836-.82V3.25h-1.445v-11.7h1.32l.07.938a2.977,2.977,0,0,1,2.453-1.094,2.882,2.882,0,0,1,2.41,1.148,5.117,5.117,0,0,1,.887,3.2ZM-55.586-4.3A3.735,3.735,0,0,0-56.2-6.555a1.963,1.963,0,0,0-1.672-.828,2.125,2.125,0,0,0-1.969,1.164V-2.18a2.129,2.129,0,0,0,1.984,1.156A1.954,1.954,0,0,0-56.2-1.848,4.077,4.077,0,0,0-55.586-4.3Zm7.367-2.859a4.331,4.331,0,0,0-.711-.055A1.9,1.9,0,0,0-50.859-6V0H-52.3V-8.453H-50.9l.023.977a2.251,2.251,0,0,1,2.016-1.133,1.477,1.477,0,0,1,.641.109ZM-47.43-4.3a4.993,4.993,0,0,1,.488-2.234A3.643,3.643,0,0,1-45.582-8.07a3.7,3.7,0,0,1,1.988-.539,3.565,3.565,0,0,1,2.793,1.2,4.6,4.6,0,0,1,1.066,3.18v.1a5.036,5.036,0,0,1-.473,2.215A3.589,3.589,0,0,1-41.559-.391a3.743,3.743,0,0,1-2.02.547,3.556,3.556,0,0,1-2.785-1.2A4.575,4.575,0,0,1-47.43-4.2Zm1.453.172a3.616,3.616,0,0,0,.652,2.258,2.088,2.088,0,0,0,1.746.852,2.075,2.075,0,0,0,1.75-.863A3.955,3.955,0,0,0-41.18-4.3a3.61,3.61,0,0,0-.66-2.254,2.1,2.1,0,0,0-1.754-.863,2.075,2.075,0,0,0-1.727.852A3.925,3.925,0,0,0-45.977-4.133Zm15.211,0a5.026,5.026,0,0,1-.891,3.113A2.846,2.846,0,0,1-34.047.156,2.947,2.947,0,0,1-36.523-.977l-.07.977h-1.328V-12h1.445v4.477a2.93,2.93,0,0,1,2.414-1.086,2.863,2.863,0,0,1,2.418,1.164,5.177,5.177,0,0,1,.879,3.188ZM-32.211-4.3a3.906,3.906,0,0,0-.57-2.281,1.888,1.888,0,0,0-1.641-.8,2.122,2.122,0,0,0-2.055,1.328V-2.4a2.181,2.181,0,0,0,2.07,1.328,1.878,1.878,0,0,0,1.617-.8A4.153,4.153,0,0,0-32.211-4.3ZM-23.727,0a3.036,3.036,0,0,1-.2-.891A3.225,3.225,0,0,1-26.336.156a2.984,2.984,0,0,1-2.051-.707,2.287,2.287,0,0,1-.8-1.793,2.39,2.39,0,0,1,1-2.051,4.733,4.733,0,0,1,2.824-.73h1.406v-.664A1.623,1.623,0,0,0-24.406-7a1.821,1.821,0,0,0-1.336-.449,2.108,2.108,0,0,0-1.3.391,1.151,1.151,0,0,0-.523.945h-1.453a2,2,0,0,1,.449-1.223,3.066,3.066,0,0,1,1.219-.934,4.1,4.1,0,0,1,1.691-.344,3.342,3.342,0,0,1,2.289.73,2.635,2.635,0,0,1,.859,2.012v3.891a4.757,4.757,0,0,0,.3,1.852V0Zm-2.4-1.1a2.54,2.54,0,0,0,1.289-.352,2.127,2.127,0,0,0,.883-.914V-4.1h-1.133q-2.656,0-2.656,1.555a1.316,1.316,0,0,0,.453,1.063A1.742,1.742,0,0,0-26.125-1.1Zm13.039-3.031a5.026,5.026,0,0,1-.891,3.113A2.846,2.846,0,0,1-16.367.156,2.947,2.947,0,0,1-18.844-.977l-.07.977h-1.328V-12H-18.8v4.477a2.93,2.93,0,0,1,2.414-1.086,2.863,2.863,0,0,1,2.418,1.164,5.177,5.177,0,0,1,.879,3.188ZM-14.531-4.3a3.906,3.906,0,0,0-.57-2.281,1.888,1.888,0,0,0-1.641-.8A2.122,2.122,0,0,0-18.8-6.055V-2.4a2.181,2.181,0,0,0,2.07,1.328,1.878,1.878,0,0,0,1.617-.8A4.153,4.153,0,0,0-14.531-4.3ZM-9.7,0h-1.445V-12H-9.7Zm5.82.156a3.693,3.693,0,0,1-2.8-1.129A4.19,4.19,0,0,1-7.75-3.992v-.266A5.073,5.073,0,0,1-7.27-6.5,3.748,3.748,0,0,1-5.926-8.051a3.378,3.378,0,0,1,1.871-.559A3.166,3.166,0,0,1-1.492-7.523,4.7,4.7,0,0,1-.578-4.414v.6H-6.3a3,3,0,0,0,.73,2.02,2.3,2.3,0,0,0,1.777.77,2.517,2.517,0,0,0,1.3-.312,3.259,3.259,0,0,0,.93-.828l.883.688A3.55,3.55,0,0,1-3.875.156Zm-.18-7.578a1.928,1.928,0,0,0-1.469.637A3.1,3.1,0,0,0-6.258-5h4.234v-.109a2.753,2.753,0,0,0-.594-1.707A1.815,1.815,0,0,0-4.055-7.422Z" transform="translate(-6862 3376)" fill="#12263f"/>
    <path id="Path_614876" data-name="Path 614876" d="M7.75-5.258H2.82v4.031H8.547V0H1.32V-11.375H8.469v1.227H2.82v3.664H7.75Zm5.273-.109L14.9-8.453h1.688L13.82-4.273,16.672,0H15L13.047-3.164,11.094,0H9.414l2.852-4.273L9.5-8.453h1.672ZM20.078-10.5v2.047h1.578v1.117H20.078v5.249a1.173,1.173,0,0,0,.211.763.888.888,0,0,0,.719.254,3.5,3.5,0,0,0,.688-.094V0a4.215,4.215,0,0,1-1.109.155A1.8,1.8,0,0,1,19.125-.43a2.517,2.517,0,0,1-.492-1.664V-7.336H17.094V-8.453h1.539V-10.5ZM27.43-7.156a4.331,4.331,0,0,0-.711-.055A1.9,1.9,0,0,0,24.789-6V0H23.344V-8.453H24.75l.023.977a2.251,2.251,0,0,1,2.016-1.133,1.477,1.477,0,0,1,.641.109ZM32.117.156a3.693,3.693,0,0,1-2.8-1.129,4.19,4.19,0,0,1-1.078-3.02v-.266a5.073,5.073,0,0,1,.48-2.246,3.748,3.748,0,0,1,1.344-1.547,3.378,3.378,0,0,1,1.871-.559A3.166,3.166,0,0,1,34.5-7.523a4.7,4.7,0,0,1,.914,3.109v.6H29.688a3,3,0,0,0,.73,2.02,2.3,2.3,0,0,0,1.777.77,2.517,2.517,0,0,0,1.3-.312,3.259,3.259,0,0,0,.93-.828l.883.688A3.55,3.55,0,0,1,32.117.156Zm-.18-7.578a1.928,1.928,0,0,0-1.469.637A3.1,3.1,0,0,0,29.734-5h4.234v-.109a2.753,2.753,0,0,0-.594-1.707A1.815,1.815,0,0,0,31.938-7.422Zm6.508-1.031.039.938a3.122,3.122,0,0,1,2.508-1.094A2.417,2.417,0,0,1,43.406-7.25a3.2,3.2,0,0,1,1.1-.984,3.242,3.242,0,0,1,1.6-.375q2.781,0,2.828,2.945V0H47.484V-5.578a1.941,1.941,0,0,0-.414-1.355,1.823,1.823,0,0,0-1.391-.449,1.917,1.917,0,0,0-1.336.48,1.949,1.949,0,0,0-.617,1.293V0H42.273V-5.539a1.613,1.613,0,0,0-1.8-1.844,1.934,1.934,0,0,0-1.945,1.211V0H37.078V-8.453ZM50.727-4.3a4.993,4.993,0,0,1,.488-2.234A3.643,3.643,0,0,1,52.574-8.07a3.7,3.7,0,0,1,1.988-.539,3.565,3.565,0,0,1,2.793,1.2,4.6,4.6,0,0,1,1.066,3.18v.1a5.036,5.036,0,0,1-.473,2.215A3.589,3.589,0,0,1,56.6-.391a3.743,3.743,0,0,1-2.02.547,3.556,3.556,0,0,1-2.785-1.2A4.575,4.575,0,0,1,50.727-4.2Zm1.453.172a3.616,3.616,0,0,0,.652,2.258,2.088,2.088,0,0,0,1.746.852,2.075,2.075,0,0,0,1.75-.863A3.955,3.955,0,0,0,56.977-4.3a3.61,3.61,0,0,0-.66-2.254,2.1,2.1,0,0,0-1.754-.863,2.075,2.075,0,0,0-1.727.852A3.925,3.925,0,0,0,52.18-4.133Z" transform="translate(-6875 3417)" fill="#12263f"/>
    <path id="Path_614877" data-name="Path 614877" d="M3.258-11.375,6.977-2.094,10.7-11.375h1.945V0h-1.5V-4.43l.141-4.781L7.547,0H6.4L2.672-9.187,2.82-4.43V0H1.32V-11.375ZM20.281-.836A3.07,3.07,0,0,1,17.8.156a2.628,2.628,0,0,1-2.059-.785,3.4,3.4,0,0,1-.715-2.324v-5.5h1.445v5.461q0,1.922,1.563,1.922a2.163,2.163,0,0,0,2.2-1.234V-8.453h1.445V0H20.313Zm6.367-1.281,1.969-6.336h1.547L26.766,1.3q-.789,2.109-2.508,2.109l-.273-.023-.539-.1V2.117l.391.031a1.923,1.923,0,0,0,1.145-.3A2.148,2.148,0,0,0,25.656.766l.32-.859L22.961-8.453h1.578ZM40.633,0a3.036,3.036,0,0,1-.2-.891A3.225,3.225,0,0,1,38.023.156a2.984,2.984,0,0,1-2.051-.707,2.287,2.287,0,0,1-.8-1.793,2.39,2.39,0,0,1,1-2.051A4.733,4.733,0,0,1,39-5.125h1.406v-.664A1.623,1.623,0,0,0,39.953-7a1.821,1.821,0,0,0-1.336-.449,2.107,2.107,0,0,0-1.3.391,1.151,1.151,0,0,0-.523.945H35.344a2,2,0,0,1,.449-1.223,3.066,3.066,0,0,1,1.219-.934A4.1,4.1,0,0,1,38.7-8.609a3.342,3.342,0,0,1,2.289.73,2.635,2.635,0,0,1,.859,2.012v3.891a4.757,4.757,0,0,0,.3,1.852V0Zm-2.4-1.1a2.54,2.54,0,0,0,1.289-.352,2.127,2.127,0,0,0,.883-.914V-4.1H39.273q-2.656,0-2.656,1.555a1.316,1.316,0,0,0,.453,1.063A1.742,1.742,0,0,0,38.234-1.1ZM45.688,0H44.242V-12h1.445Zm4.273-10.5v2.047h1.578v1.117H49.961v5.249a1.173,1.173,0,0,0,.211.763.888.888,0,0,0,.719.254,3.5,3.5,0,0,0,.688-.094V0a4.215,4.215,0,0,1-1.109.155A1.8,1.8,0,0,1,49.008-.43a2.517,2.517,0,0,1-.492-1.664V-7.336H46.977V-8.453h1.539V-10.5Zm2.727,6.2a4.993,4.993,0,0,1,.488-2.234A3.643,3.643,0,0,1,54.535-8.07a3.7,3.7,0,0,1,1.988-.539,3.565,3.565,0,0,1,2.793,1.2,4.6,4.6,0,0,1,1.066,3.18v.1a5.036,5.036,0,0,1-.473,2.215A3.589,3.589,0,0,1,58.559-.391a3.743,3.743,0,0,1-2.02.547,3.556,3.556,0,0,1-2.785-1.2A4.575,4.575,0,0,1,52.688-4.2Zm1.453.172a3.616,3.616,0,0,0,.652,2.258,2.088,2.088,0,0,0,1.746.852,2.075,2.075,0,0,0,1.75-.863A3.955,3.955,0,0,0,58.938-4.3a3.61,3.61,0,0,0-.66-2.254,2.1,2.1,0,0,0-1.754-.863A2.075,2.075,0,0,0,54.8-6.57,3.925,3.925,0,0,0,54.141-4.133Z" transform="translate(-6826 3440)" fill="#12263f"/>
    <path id="Path_614878" data-name="Path 614878" d="M3.258-11.375,6.977-2.094,10.7-11.375h1.945V0h-1.5V-4.43l.141-4.781L7.547,0H6.4L2.672-9.187,2.82-4.43V0H1.32V-11.375ZM18.57.156a3.693,3.693,0,0,1-2.8-1.129A4.19,4.19,0,0,1,14.7-3.992v-.266a5.073,5.073,0,0,1,.48-2.246A3.748,3.748,0,0,1,16.52-8.051a3.378,3.378,0,0,1,1.871-.559,3.166,3.166,0,0,1,2.563,1.086,4.7,4.7,0,0,1,.914,3.109v.6H16.141a3,3,0,0,0,.73,2.02,2.3,2.3,0,0,0,1.777.77,2.517,2.517,0,0,0,1.3-.312,3.259,3.259,0,0,0,.93-.828l.883.688A3.55,3.55,0,0,1,18.57.156Zm-.18-7.578a1.928,1.928,0,0,0-1.469.637A3.1,3.1,0,0,0,16.188-5h4.234v-.109a2.753,2.753,0,0,0-.594-1.707A1.815,1.815,0,0,0,18.391-7.422Zm4.8,3.125a4.952,4.952,0,0,1,.922-3.129,2.915,2.915,0,0,1,2.414-1.184,2.932,2.932,0,0,1,2.352,1.016V-12H30.32V0H28.992l-.07-.906A2.943,2.943,0,0,1,26.508.156a2.887,2.887,0,0,1-2.395-1.2,5.008,5.008,0,0,1-.926-3.141Zm1.445.164a3.749,3.749,0,0,0,.594,2.25,1.92,1.92,0,0,0,1.641.813A2.108,2.108,0,0,0,28.875-2.3V-6.187a2.125,2.125,0,0,0-1.992-1.2,1.929,1.929,0,0,0-1.656.82A4.128,4.128,0,0,0,24.633-4.133ZM34.133,0H32.688V-8.453h1.445ZM32.57-10.7a.863.863,0,0,1,.215-.594.807.807,0,0,1,.637-.242.819.819,0,0,1,.641.242.854.854,0,0,1,.219.594.826.826,0,0,1-.219.586.834.834,0,0,1-.641.234.821.821,0,0,1-.637-.234A.834.834,0,0,1,32.57-10.7ZM36.063-4.3a4.993,4.993,0,0,1,.488-2.234A3.643,3.643,0,0,1,37.91-8.07,3.7,3.7,0,0,1,39.9-8.609a3.565,3.565,0,0,1,2.793,1.2,4.6,4.6,0,0,1,1.066,3.18v.1a5.036,5.036,0,0,1-.473,2.215A3.589,3.589,0,0,1,41.934-.391a3.743,3.743,0,0,1-2.02.547,3.556,3.556,0,0,1-2.785-1.2A4.575,4.575,0,0,1,36.063-4.2Zm1.453.172a3.616,3.616,0,0,0,.652,2.258,2.088,2.088,0,0,0,1.746.852,2.075,2.075,0,0,0,1.75-.863A3.955,3.955,0,0,0,42.313-4.3a3.61,3.61,0,0,0-.66-2.254A2.1,2.1,0,0,0,39.9-7.422a2.075,2.075,0,0,0-1.727.852A3.925,3.925,0,0,0,37.516-4.133Z" transform="translate(-6765 3417)" fill="#12263f"/>
    <path id="Path_614879" data-name="Path 614879" d="M1.32,0V-11.375H5.039a4.317,4.317,0,0,1,2.785.766,2.759,2.759,0,0,1,.934,2.266A2.31,2.31,0,0,1,8.3-6.934a2.938,2.938,0,0,1-1.234.949A2.638,2.638,0,0,1,8.527-5a2.814,2.814,0,0,1,.535,1.723A3.042,3.042,0,0,1,8.07-.875,4.1,4.1,0,0,1,5.266,0Zm1.5-5.32v4.094H5.3A2.385,2.385,0,0,0,6.949-1.77a1.907,1.907,0,0,0,.605-1.5q0-2.055-2.234-2.055Zm0-1.2H5.086A2.375,2.375,0,0,0,6.66-7.017a1.654,1.654,0,0,0,.59-1.339A1.626,1.626,0,0,0,6.7-9.722a2.686,2.686,0,0,0-1.664-.427H2.82ZM16.273,0a3.036,3.036,0,0,1-.2-.891A3.225,3.225,0,0,1,13.664.156a2.984,2.984,0,0,1-2.051-.707,2.287,2.287,0,0,1-.8-1.793,2.39,2.39,0,0,1,1-2.051,4.733,4.733,0,0,1,2.824-.73h1.406v-.664A1.623,1.623,0,0,0,15.594-7a1.821,1.821,0,0,0-1.336-.449,2.107,2.107,0,0,0-1.3.391,1.151,1.151,0,0,0-.523.945H10.984a2,2,0,0,1,.449-1.223,3.066,3.066,0,0,1,1.219-.934,4.1,4.1,0,0,1,1.691-.344,3.342,3.342,0,0,1,2.289.73,2.635,2.635,0,0,1,.859,2.012v3.891a4.757,4.757,0,0,0,.3,1.852V0Zm-2.4-1.1a2.54,2.54,0,0,0,1.289-.352,2.127,2.127,0,0,0,.883-.914V-4.1H14.914q-2.656,0-2.656,1.555a1.316,1.316,0,0,0,.453,1.063A1.742,1.742,0,0,0,13.875-1.1ZM21.25-8.453V.977q0,2.437-2.211,2.438a2.7,2.7,0,0,1-.883-.14V2.125a2.794,2.794,0,0,0,.656.063.982.982,0,0,0,.738-.262,1.3,1.3,0,0,0,.254-.911V-8.453ZM19.656-10.7a.867.867,0,0,1,.215-.59.79.79,0,0,1,.629-.246.819.819,0,0,1,.641.242.854.854,0,0,1,.219.594.826.826,0,0,1-.219.586.834.834,0,0,1-.641.234.808.808,0,0,1-.633-.234A.843.843,0,0,1,19.656-10.7ZM23.2-4.3a4.993,4.993,0,0,1,.488-2.234A3.643,3.643,0,0,1,25.043-8.07a3.7,3.7,0,0,1,1.988-.539,3.565,3.565,0,0,1,2.793,1.2,4.6,4.6,0,0,1,1.066,3.18v.1a5.036,5.036,0,0,1-.473,2.215A3.589,3.589,0,0,1,29.066-.391a3.743,3.743,0,0,1-2.02.547,3.556,3.556,0,0,1-2.785-1.2A4.575,4.575,0,0,1,23.2-4.2Zm1.453.172A3.616,3.616,0,0,0,25.3-1.875a2.088,2.088,0,0,0,1.746.852,2.075,2.075,0,0,0,1.75-.863A3.955,3.955,0,0,0,29.445-4.3a3.61,3.61,0,0,0-.66-2.254,2.1,2.1,0,0,0-1.754-.863A2.075,2.075,0,0,0,25.3-6.57,3.925,3.925,0,0,0,24.648-4.133Z" transform="translate(-6706 3442)" fill="#12263f"/>
    <path id="Path_614880" data-name="Path 614880" d="M3.258-11.375,6.977-2.094,10.7-11.375h1.945V0h-1.5V-4.43l.141-4.781L7.547,0H6.4L2.672-9.187,2.82-4.43V0H1.32V-11.375ZM16.633,0H15.18V-8.453h1.453Zm.016-11.992H18.4L16.3-9.7l-1.164,0Zm3.734,3.539.047,1.063a3.08,3.08,0,0,1,2.531-1.219q2.68,0,2.7,3.023V0H24.219V-5.594A1.946,1.946,0,0,0,23.8-6.945a1.675,1.675,0,0,0-1.277-.437,2.086,2.086,0,0,0-1.234.375,2.546,2.546,0,0,0-.828.984V0H19.016V-8.453ZM29.414,0H27.969V-8.453h1.445ZM27.852-10.7a.863.863,0,0,1,.215-.594.807.807,0,0,1,.637-.242.819.819,0,0,1,.641.242.854.854,0,0,1,.219.594.826.826,0,0,1-.219.586.834.834,0,0,1-.641.234.821.821,0,0,1-.637-.234A.834.834,0,0,1,27.852-10.7Zm5.234,2.242.039.938a3.122,3.122,0,0,1,2.508-1.094A2.417,2.417,0,0,1,38.047-7.25a3.2,3.2,0,0,1,1.1-.984,3.242,3.242,0,0,1,1.6-.375q2.781,0,2.828,2.945V0H42.125V-5.578a1.941,1.941,0,0,0-.414-1.355,1.823,1.823,0,0,0-1.391-.449,1.917,1.917,0,0,0-1.336.48,1.949,1.949,0,0,0-.617,1.293V0H36.914V-5.539a1.613,1.613,0,0,0-1.8-1.844,1.934,1.934,0,0,0-1.945,1.211V0H31.719V-8.453ZM45.367-4.3a4.993,4.993,0,0,1,.488-2.234A3.643,3.643,0,0,1,47.215-8.07,3.7,3.7,0,0,1,49.2-8.609,3.565,3.565,0,0,1,52-7.414a4.6,4.6,0,0,1,1.066,3.18v.1a5.036,5.036,0,0,1-.473,2.215A3.589,3.589,0,0,1,51.238-.391a3.743,3.743,0,0,1-2.02.547,3.556,3.556,0,0,1-2.785-1.2A4.575,4.575,0,0,1,45.367-4.2Zm1.453.172a3.616,3.616,0,0,0,.652,2.258,2.088,2.088,0,0,0,1.746.852,2.075,2.075,0,0,0,1.75-.863A3.955,3.955,0,0,0,51.617-4.3a3.61,3.61,0,0,0-.66-2.254A2.1,2.1,0,0,0,49.2-7.422a2.075,2.075,0,0,0-1.727.852A3.925,3.925,0,0,0,46.82-4.133Z" transform="translate(-6664 3415)" fill="#12263f"/>
    <path id="Path_614741" data-name="Path 614741" d="M-8189.632-5151v154.8h246.249" transform="translate(1333.632 8383.871)" fill="none" stroke="#03386e" stroke-width="3"/>
    <path id="Path_614881" data-name="Path 614881" d="M8.9,0H6.628V-15.051L2.075-13.379V-15.43l6.47-2.429H8.9Z" transform="translate(-6668 3278)" fill="#fff"/>
    <path id="Path_614882" data-name="Path 614882" d="M3.242,0H1.273V-11.375H3.242ZM7.273-8.453l.055.883A3.042,3.042,0,0,1,9.766-8.609a2.337,2.337,0,0,1,2.32,1.3,3,3,0,0,1,2.594-1.3,2.636,2.636,0,0,1,2.082.773,3.405,3.405,0,0,1,.7,2.281V0h-1.9V-5.5a1.681,1.681,0,0,0-.352-1.18,1.539,1.539,0,0,0-1.164-.375,1.581,1.581,0,0,0-1.059.348,1.833,1.833,0,0,0-.574.91L12.422,0h-1.9V-5.562A1.354,1.354,0,0,0,9-7.055a1.671,1.671,0,0,0-1.617.93V0h-1.9V-8.453ZM26.813-4.141a5.033,5.033,0,0,1-.891,3.129A2.852,2.852,0,0,1,23.531.156,2.871,2.871,0,0,1,21.3-.758V3.25h-1.9v-11.7h1.75l.078.859a2.788,2.788,0,0,1,2.273-1.016,2.881,2.881,0,0,1,2.426,1.152,5.167,5.167,0,0,1,.879,3.2ZM24.922-4.3a3.526,3.526,0,0,0-.5-2.008,1.638,1.638,0,0,0-1.441-.742,1.747,1.747,0,0,0-1.672.961v3.75a1.763,1.763,0,0,0,1.688.984,1.636,1.636,0,0,0,1.418-.73A3.881,3.881,0,0,0,24.922-4.3ZM33.469,0a2.93,2.93,0,0,1-.219-.789,2.955,2.955,0,0,1-2.219.945A2.982,2.982,0,0,1,28.953-.57a2.325,2.325,0,0,1-.8-1.8,2.4,2.4,0,0,1,1-2.074,4.865,4.865,0,0,1,2.871-.723h1.164v-.555A1.481,1.481,0,0,0,32.82-6.77,1.456,1.456,0,0,0,31.7-7.164a1.672,1.672,0,0,0-1.062.324,1,1,0,0,0-.414.824h-1.9a2.107,2.107,0,0,1,.461-1.3,3.071,3.071,0,0,1,1.254-.949,4.4,4.4,0,0,1,1.77-.344,3.547,3.547,0,0,1,2.367.746,2.661,2.661,0,0,1,.906,2.1v3.813a4.321,4.321,0,0,0,.32,1.82V0ZM31.383-1.367a2.16,2.16,0,0,0,1.059-.273,1.827,1.827,0,0,0,.746-.734V-3.969H32.164a2.8,2.8,0,0,0-1.586.367,1.189,1.189,0,0,0-.531,1.039,1.109,1.109,0,0,0,.363.871A1.407,1.407,0,0,0,31.383-1.367Zm9.164.008a1.716,1.716,0,0,0,1.18-.414,1.415,1.415,0,0,0,.5-1.023h1.789a2.789,2.789,0,0,1-.492,1.473,3.228,3.228,0,0,1-1.25,1.082,3.725,3.725,0,0,1-1.7.4A3.6,3.6,0,0,1,37.758-.992a4.555,4.555,0,0,1-1.039-3.172v-.2a4.479,4.479,0,0,1,1.031-3.09,3.571,3.571,0,0,1,2.813-1.16,3.473,3.473,0,0,1,2.457.879,3.148,3.148,0,0,1,1,2.309H42.227a1.738,1.738,0,0,0-.5-1.2,1.6,1.6,0,0,0-1.184-.469,1.671,1.671,0,0,0-1.422.668,3.408,3.408,0,0,0-.508,2.027v.3a3.465,3.465,0,0,0,.5,2.051A1.669,1.669,0,0,0,40.547-1.359Zm7.281-9.148v2.055H49.32v1.406H47.828v4.719a1.039,1.039,0,0,0,.191.7.888.888,0,0,0,.684.215,2.924,2.924,0,0,0,.664-.078V-.023a4.676,4.676,0,0,1-1.25.18q-2.187,0-2.187-2.414V-7.047H44.539V-8.453H45.93v-2.055ZM50.18-4.3a4.984,4.984,0,0,1,.492-2.238,3.6,3.6,0,0,1,1.383-1.531A3.9,3.9,0,0,1,54.1-8.609a3.692,3.692,0,0,1,2.777,1.1,4.333,4.333,0,0,1,1.152,2.922l.008.445a5.029,5.029,0,0,1-.48,2.234A3.551,3.551,0,0,1,56.184-.383a3.925,3.925,0,0,1-2.066.539,3.667,3.667,0,0,1-2.863-1.191A4.563,4.563,0,0,1,50.18-4.211Zm1.9.164A3.406,3.406,0,0,0,52.617-2.1a1.752,1.752,0,0,0,1.5.738,1.733,1.733,0,0,0,1.5-.75,3.762,3.762,0,0,0,.535-2.2A3.362,3.362,0,0,0,55.6-6.336a1.759,1.759,0,0,0-1.5-.75,1.743,1.743,0,0,0-1.477.738A3.691,3.691,0,0,0,52.078-4.141Z" transform="translate(-6781 3500)" fill="#fff"/>
    <path id="Path_614883" data-name="Path 614883" d="M4,0,8,8H0Z" transform="translate(-6604 3384) rotate(90)" fill="#03386e"/>
    <path id="Path_614742" data-name="Path 614742" d="M-6931.25-4864h-11.382v159.458h11.382" transform="translate(-39.059 8094)" fill="none" stroke="#0c5e46" stroke-width="2" stroke-dasharray="2"/>
    <path id="Path_614745" data-name="Path 614745" d="M-6931.25-4864h-11.382v268.159h11.382" transform="translate(-2019 -3483.25) rotate(-90)" fill="none" stroke="#0c5e46" stroke-width="2" stroke-dasharray="2"/>
    <path id="Path_614743" data-name="Path 614743" d="M-6928.691-4781.227h-9.751V-4879.7" transform="translate(-53 8094)" fill="none" stroke="#0c5e46" stroke-width="2" stroke-dasharray="2"/>
    <path id="Path_614744" data-name="Path 614744" d="M-6919.825-4781.227h-18.618" transform="translate(-1969.273 -3460.443) rotate(-90)" fill="none" stroke="#0c5e46" stroke-width="2" stroke-dasharray="2"/>
    <path id="Path_614746" data-name="Path 614746" d="M-6928.691-4781.227h-9.751" transform="translate(-1962.273 -3540.691) rotate(-90)" fill="none" stroke="#03386e" stroke-width="2"/>
    <path id="Path_614749" data-name="Path 614749" d="M34.869,0H0" transform="translate(-6690 3422.869) rotate(-90)" fill="none" stroke="#03386e" stroke-width="2"/>
    <path id="Path_614750" data-name="Path 614750" d="M-6928.691-4781.227h-9.751" transform="translate(-1855.273 -3540.691) rotate(-90)" fill="none" stroke="#03386e" stroke-width="2"/>
    <path id="Path_614747" data-name="Path 614747" d="M34.869,0H0" transform="translate(-6797 3422.869) rotate(-90)" fill="none" stroke="#03386e" stroke-width="2"/>
    <path id="Path_614748" data-name="Path 614748" d="M-6928.691-4781.227h-9.751" transform="translate(-2064.273 -3540.691) rotate(-90)" fill="none" stroke="#03386e" stroke-width="2"/>
    <path id="Path_614884" data-name="Path 614884" d="M0,0H100V32H0Z" transform="translate(-7001 3183)" fill="#03386e"/>
    <path id="Path_614885" data-name="Path 614885" d="M3.133-4.219V0H1.156V-11.375H5.508a4.4,4.4,0,0,1,3.027.993A3.34,3.34,0,0,1,9.656-7.754a3.229,3.229,0,0,1-1.1,2.6,4.613,4.613,0,0,1-3.074.931Zm0-1.594H5.508a2.339,2.339,0,0,0,1.609-.5,1.823,1.823,0,0,0,.555-1.434,1.967,1.967,0,0,0-.562-1.473,2.168,2.168,0,0,0-1.547-.566H3.133Zm12.492-.906a4.7,4.7,0,0,0-.773-.062,1.741,1.741,0,0,0-1.758,1V0H11.2V-8.453h1.813l.047.945a2.139,2.139,0,0,1,1.906-1.1,1.777,1.777,0,0,1,.672.109ZM16.188-4.3a4.984,4.984,0,0,1,.492-2.238,3.6,3.6,0,0,1,1.383-1.531,3.9,3.9,0,0,1,2.047-.535,3.692,3.692,0,0,1,2.777,1.1,4.333,4.333,0,0,1,1.152,2.922l.008.445a5.029,5.029,0,0,1-.48,2.234A3.551,3.551,0,0,1,22.191-.383a3.925,3.925,0,0,1-2.066.539,3.667,3.667,0,0,1-2.863-1.191,4.563,4.563,0,0,1-1.074-3.176Zm1.9.164A3.406,3.406,0,0,0,18.625-2.1a1.752,1.752,0,0,0,1.5.738,1.733,1.733,0,0,0,1.5-.75,3.762,3.762,0,0,0,.535-2.2,3.362,3.362,0,0,0-.551-2.031,1.759,1.759,0,0,0-1.5-.75,1.743,1.743,0,0,0-1.477.738A3.691,3.691,0,0,0,18.086-4.141Zm14.984,0a5.078,5.078,0,0,1-.879,3.133A2.863,2.863,0,0,1,29.773.156a2.758,2.758,0,0,1-2.312-1.07L27.367,0H25.648V-12h1.9v4.359a2.748,2.748,0,0,1,2.211-.969,2.9,2.9,0,0,1,2.43,1.148A5.162,5.162,0,0,1,33.07-4.25Zm-1.9-.164a3.589,3.589,0,0,0-.484-2.062,1.613,1.613,0,0,0-1.406-.687,1.763,1.763,0,0,0-1.734,1.078v3.484a1.781,1.781,0,0,0,1.75,1.1,1.6,1.6,0,0,0,1.375-.664,3.477,3.477,0,0,0,.5-2.008ZM39.711,0a2.93,2.93,0,0,1-.219-.789,2.955,2.955,0,0,1-2.219.945A2.982,2.982,0,0,1,35.2-.57a2.325,2.325,0,0,1-.8-1.8,2.4,2.4,0,0,1,1-2.074,4.865,4.865,0,0,1,2.871-.723H39.43v-.555a1.481,1.481,0,0,0-.367-1.051,1.456,1.456,0,0,0-1.117-.395,1.672,1.672,0,0,0-1.062.324,1,1,0,0,0-.414.824h-1.9a2.107,2.107,0,0,1,.461-1.3,3.071,3.071,0,0,1,1.254-.949,4.4,4.4,0,0,1,1.77-.344,3.547,3.547,0,0,1,2.367.746,2.661,2.661,0,0,1,.906,2.1v3.813a4.321,4.321,0,0,0,.32,1.82V0ZM37.625-1.367a2.16,2.16,0,0,0,1.059-.273,1.827,1.827,0,0,0,.746-.734V-3.969H38.406A2.8,2.8,0,0,0,36.82-3.6a1.189,1.189,0,0,0-.531,1.039,1.109,1.109,0,0,0,.363.871A1.407,1.407,0,0,0,37.625-1.367ZM50.734-4.141a5.078,5.078,0,0,1-.879,3.133A2.863,2.863,0,0,1,47.438.156a2.758,2.758,0,0,1-2.312-1.07L45.031,0H43.313V-12h1.9v4.359a2.748,2.748,0,0,1,2.211-.969,2.9,2.9,0,0,1,2.43,1.148,5.162,5.162,0,0,1,.883,3.211Zm-1.9-.164a3.589,3.589,0,0,0-.484-2.062,1.613,1.613,0,0,0-1.406-.687,1.763,1.763,0,0,0-1.734,1.078v3.484a1.781,1.781,0,0,0,1.75,1.1,1.6,1.6,0,0,0,1.375-.664,3.477,3.477,0,0,0,.5-2.008ZM54.344,0h-1.9V-8.453h1.9ZM52.328-10.648a1.008,1.008,0,0,1,.277-.727,1.048,1.048,0,0,1,.793-.289,1.061,1.061,0,0,1,.8.289,1,1,0,0,1,.281.727.977.977,0,0,1-.281.715,1.069,1.069,0,0,1-.8.285,1.056,1.056,0,0,1-.793-.285A.984.984,0,0,1,52.328-10.648ZM58.43,0h-1.9V-12h1.9Zm4.086,0h-1.9V-8.453h1.9ZM60.5-10.648a1.008,1.008,0,0,1,.277-.727,1.048,1.048,0,0,1,.793-.289,1.061,1.061,0,0,1,.8.289,1,1,0,0,1,.281.727.977.977,0,0,1-.281.715,1.069,1.069,0,0,1-.8.285,1.056,1.056,0,0,1-.793-.285A.984.984,0,0,1,60.5-10.648Zm3.727,6.359a5.026,5.026,0,0,1,.906-3.137,2.9,2.9,0,0,1,2.43-1.184,2.759,2.759,0,0,1,2.172.938V-12h1.9V0H69.914L69.82-.875A2.8,2.8,0,0,1,67.547.156a2.887,2.887,0,0,1-2.4-1.2A5.21,5.21,0,0,1,64.227-4.289Zm1.9.164a3.519,3.519,0,0,0,.5,2.012,1.61,1.61,0,0,0,1.41.723,1.793,1.793,0,0,0,1.7-1.039V-6.039a1.766,1.766,0,0,0-1.687-1.016,1.622,1.622,0,0,0-1.422.73A3.918,3.918,0,0,0,66.125-4.125ZM78.664,0a2.93,2.93,0,0,1-.219-.789,2.955,2.955,0,0,1-2.219.945A2.982,2.982,0,0,1,74.148-.57a2.325,2.325,0,0,1-.8-1.8,2.4,2.4,0,0,1,1-2.074,4.865,4.865,0,0,1,2.871-.723h1.164v-.555a1.481,1.481,0,0,0-.367-1.051A1.456,1.456,0,0,0,76.9-7.164a1.672,1.672,0,0,0-1.062.324,1,1,0,0,0-.414.824h-1.9a2.107,2.107,0,0,1,.461-1.3,3.071,3.071,0,0,1,1.254-.949,4.4,4.4,0,0,1,1.77-.344,3.547,3.547,0,0,1,2.367.746,2.661,2.661,0,0,1,.906,2.1v3.813a4.321,4.321,0,0,0,.32,1.82V0ZM76.578-1.367a2.159,2.159,0,0,0,1.059-.273,1.827,1.827,0,0,0,.746-.734V-3.969H77.359a2.8,2.8,0,0,0-1.586.367,1.189,1.189,0,0,0-.531,1.039,1.109,1.109,0,0,0,.363.871A1.407,1.407,0,0,0,76.578-1.367Zm5.336-2.922a5.026,5.026,0,0,1,.906-3.137,2.9,2.9,0,0,1,2.43-1.184,2.759,2.759,0,0,1,2.172.938V-12h1.9V0H87.6l-.094-.875A2.8,2.8,0,0,1,85.234.156a2.887,2.887,0,0,1-2.4-1.2A5.21,5.21,0,0,1,81.914-4.289Zm1.9.164a3.519,3.519,0,0,0,.5,2.012,1.61,1.61,0,0,0,1.41.723,1.793,1.793,0,0,0,1.7-1.039V-6.039a1.766,1.766,0,0,0-1.687-1.016,1.622,1.622,0,0,0-1.422.73A3.918,3.918,0,0,0,83.813-4.125Z" transform="translate(-6997 3205)" fill="#fff"/>
    <path id="Path_614886" data-name="Path 614886" d="M0,90.458V30.152H96.137V60.3H48.069V90.458ZM48.069,30.152V0h96.137V30.152Z" transform="translate(-6757.206 3234)" fill="#5fc6c3"/>
    <path id="Path_614887" data-name="Path 614887" d="M0,119.084V0H144.206V30.019H96.137V90.055H48.069v29.029Z" transform="translate(-6853 3234)" fill="#0c5e46"/>
    <path id="Path_614888" data-name="Path 614888" d="M48,90.458H0v-60.3H48V0H96V90.458Z" transform="translate(-6709 3293.542)" fill="#b0c0d2"/>
    <path id="Path_614889" data-name="Path 614889" d="M0,0H48V30H0Z" transform="translate(-6709 3294)" fill="#6dfefe"/>
    <path id="Path_614890" data-name="Path 614890" d="M0,0H48V30H0Z" transform="translate(-6661 3264)" fill="#6dfefe"/>
    <path id="Path_614891" data-name="Path 614891" d="M0,0H48V60H0Z" transform="translate(-6757 3324)" fill="#6dfefe"/>
    <path id="Path_614892" data-name="Path 614892" d="M0,60V29.011H48V0H96V60Z" transform="translate(-6853 3324)" fill="#5fc6c3"/>
    <path id="Path_614893" data-name="Path 614893" d="M-11.448,0h-.942l-3.579-5.479V0h-.942V-7.109h.942l3.589,5.5v-5.5h.933Zm2.5,0h-.9V-5.283h.9Zm-.977-6.685a.539.539,0,0,1,.134-.371.5.5,0,0,1,.4-.151.512.512,0,0,1,.4.151.534.534,0,0,1,.137.371.516.516,0,0,1-.137.366.521.521,0,0,1-.4.146.513.513,0,0,1-.4-.146A.521.521,0,0,1-9.919-6.685Zm4.165,5.459,1.309-4.058h.923L-5.417,0h-.688L-8.02-5.283H-7.1ZM-.525.1A2.308,2.308,0,0,1-2.273-.608,2.619,2.619,0,0,1-2.947-2.5v-.166a3.17,3.17,0,0,1,.3-1.4,2.343,2.343,0,0,1,.84-.967A2.112,2.112,0,0,1-.637-5.381a1.979,1.979,0,0,1,1.6.679,2.939,2.939,0,0,1,.571,1.943v.376H-2.043a1.878,1.878,0,0,0,.457,1.262A1.435,1.435,0,0,0-.476-.64a1.573,1.573,0,0,0,.811-.2,2.037,2.037,0,0,0,.581-.518l.552.43A2.219,2.219,0,0,1-.525.1ZM-.637-4.639a1.2,1.2,0,0,0-.918.4,1.934,1.934,0,0,0-.459,1.116H.632v-.068A1.721,1.721,0,0,0,.261-4.26,1.134,1.134,0,0,0-.637-4.639ZM3.562,0h-.9V-7.5h.9Zm3.7-2.686a3.1,3.1,0,0,1,.576-1.956,1.822,1.822,0,0,1,1.509-.74,1.832,1.832,0,0,1,1.47.635V-7.5h.9V0h-.83l-.044-.566A1.84,1.84,0,0,1,9.338.1a1.8,1.8,0,0,1-1.5-.752,3.13,3.13,0,0,1-.579-1.963Zm.9.1a2.343,2.343,0,0,0,.371,1.406,1.2,1.2,0,0,0,1.025.508,1.318,1.318,0,0,0,1.255-.771V-3.867a1.328,1.328,0,0,0-1.245-.747A1.205,1.205,0,0,0,8.538-4.1,2.58,2.58,0,0,0,8.167-2.583ZM15.315.1a2.308,2.308,0,0,1-1.748-.706A2.619,2.619,0,0,1,12.893-2.5v-.166a3.17,3.17,0,0,1,.3-1.4,2.343,2.343,0,0,1,.84-.967A2.112,2.112,0,0,1,15.2-5.381a1.979,1.979,0,0,1,1.6.679,2.939,2.939,0,0,1,.571,1.943v.376H13.8a1.878,1.878,0,0,0,.457,1.262,1.435,1.435,0,0,0,1.111.481,1.573,1.573,0,0,0,.811-.2,2.037,2.037,0,0,0,.581-.518l.552.43A2.219,2.219,0,0,1,15.315.1ZM15.2-4.639a1.2,1.2,0,0,0-.918.4,1.934,1.934,0,0,0-.459,1.116h2.646v-.068A1.721,1.721,0,0,0,16.1-4.26,1.134,1.134,0,0,0,15.2-4.639ZM-20.159,5.527a2.707,2.707,0,0,0-.444-.034,1.19,1.19,0,0,0-1.206.757V10h-.9V4.717h.879l.015.61a1.407,1.407,0,0,1,1.26-.708.923.923,0,0,1,.4.068ZM-18.347,10h-.9V4.717h.9Zm-.977-6.685a.539.539,0,0,1,.134-.371.5.5,0,0,1,.4-.151.512.512,0,0,1,.4.151.534.534,0,0,1,.137.371.516.516,0,0,1-.137.366.521.521,0,0,1-.4.146.513.513,0,0,1-.4-.146A.521.521,0,0,1-19.324,3.315Zm4.614,6.782a2.308,2.308,0,0,1-1.748-.706A2.619,2.619,0,0,1-17.131,7.5V7.339a3.17,3.17,0,0,1,.3-1.4,2.343,2.343,0,0,1,.84-.967,2.112,2.112,0,0,1,1.169-.349,1.979,1.979,0,0,1,1.6.679,2.939,2.939,0,0,1,.571,1.943v.376h-3.579a1.878,1.878,0,0,0,.457,1.262,1.435,1.435,0,0,0,1.111.481,1.573,1.573,0,0,0,.811-.2,2.037,2.037,0,0,0,.581-.518l.552.43A2.219,2.219,0,0,1-14.709,10.1Zm-.112-4.736a1.2,1.2,0,0,0-.918.4A1.934,1.934,0,0,0-16.2,6.875h2.646V6.807a1.721,1.721,0,0,0-.371-1.067A1.134,1.134,0,0,0-14.822,5.361ZM-8.528,8.6A.665.665,0,0,0-8.8,8.03a2.655,2.655,0,0,0-.962-.349,4.548,4.548,0,0,1-1.089-.352,1.549,1.549,0,0,1-.6-.488,1.168,1.168,0,0,1-.193-.674,1.37,1.37,0,0,1,.549-1.1,2.145,2.145,0,0,1,1.4-.449,2.208,2.208,0,0,1,1.458.464A1.473,1.473,0,0,1-7.673,6.27h-.908A.815.815,0,0,0-8.9,5.63a1.18,1.18,0,0,0-.793-.269,1.235,1.235,0,0,0-.771.215.676.676,0,0,0-.278.562.548.548,0,0,0,.259.493,3.184,3.184,0,0,0,.935.317,4.872,4.872,0,0,1,1.1.361,1.6,1.6,0,0,1,.623.505,1.243,1.243,0,0,1,.2.72A1.352,1.352,0,0,1-8.191,9.67a2.376,2.376,0,0,1-1.47.427,2.66,2.66,0,0,1-1.123-.225,1.827,1.827,0,0,1-.764-.627,1.512,1.512,0,0,1-.276-.872h.9a.935.935,0,0,0,.364.72,1.411,1.411,0,0,0,.9.266,1.457,1.457,0,0,0,.823-.208A.638.638,0,0,0-8.528,8.6Zm1.865-1.284a3.105,3.105,0,0,1,.571-1.965,1.827,1.827,0,0,1,1.514-.73A1.817,1.817,0,0,1-3.069,5.3l.044-.586H-2.2V9.873a2.149,2.149,0,0,1-.608,1.616,2.243,2.243,0,0,1-1.633.591,2.717,2.717,0,0,1-1.118-.244,1.925,1.925,0,0,1-.835-.669l.469-.542a1.766,1.766,0,0,0,1.421.718,1.384,1.384,0,0,0,1.028-.371,1.418,1.418,0,0,0,.369-1.045V9.473a1.857,1.857,0,0,1-1.479.625,1.8,1.8,0,0,1-1.5-.747A3.265,3.265,0,0,1-6.663,7.314Zm.908.1a2.369,2.369,0,0,0,.366,1.4,1.19,1.19,0,0,0,1.025.51,1.323,1.323,0,0,0,1.255-.776V6.143a1.339,1.339,0,0,0-1.245-.757,1.2,1.2,0,0,0-1.03.513A2.58,2.58,0,0,0-5.754,7.417Zm4.678-.107a3.121,3.121,0,0,1,.305-1.4,2.277,2.277,0,0,1,.85-.957,2.313,2.313,0,0,1,1.243-.337,2.228,2.228,0,0,1,1.746.747,2.874,2.874,0,0,1,.667,1.987v.063a3.148,3.148,0,0,1-.3,1.384,2.243,2.243,0,0,1-.845.955,2.339,2.339,0,0,1-1.262.342A2.222,2.222,0,0,1-.41,9.351a2.86,2.86,0,0,1-.667-1.978Zm.908.107A2.26,2.26,0,0,0,.239,8.828a1.3,1.3,0,0,0,1.091.532,1.3,1.3,0,0,0,1.094-.54A2.472,2.472,0,0,0,2.83,7.31,2.256,2.256,0,0,0,2.417,5.9a1.312,1.312,0,0,0-1.1-.54,1.3,1.3,0,0,0-1.079.532A2.453,2.453,0,0,0-.168,7.417ZM10.6,10a1.9,1.9,0,0,1-.127-.557,2.015,2.015,0,0,1-1.5.654A1.865,1.865,0,0,1,7.69,9.656a1.43,1.43,0,0,1-.5-1.121,1.494,1.494,0,0,1,.627-1.282A2.958,2.958,0,0,1,9.583,6.8h.879V6.382a1.015,1.015,0,0,0-.283-.754,1.138,1.138,0,0,0-.835-.281,1.317,1.317,0,0,0-.811.244.719.719,0,0,0-.327.591H7.3a1.247,1.247,0,0,1,.281-.764,1.916,1.916,0,0,1,.762-.583A2.563,2.563,0,0,1,9.4,4.619a2.089,2.089,0,0,1,1.431.457,1.647,1.647,0,0,1,.537,1.257V8.765a2.973,2.973,0,0,0,.186,1.157V10ZM9.1,9.312a1.588,1.588,0,0,0,.806-.22,1.329,1.329,0,0,0,.552-.571V7.437H9.753q-1.66,0-1.66.972a.822.822,0,0,0,.283.664A1.089,1.089,0,0,0,9.1,9.312ZM13.762,10h-.9V2.5h.9Zm2.671-6.562V4.717h.986v.7h-.986V8.7a.733.733,0,0,0,.132.477.555.555,0,0,0,.449.159,2.187,2.187,0,0,0,.43-.059V10a2.634,2.634,0,0,1-.693.1,1.125,1.125,0,0,1-.913-.366,1.573,1.573,0,0,1-.308-1.04V5.415h-.962v-.7h.962V3.438Zm1.7,3.872a3.121,3.121,0,0,1,.305-1.4,2.277,2.277,0,0,1,.85-.957,2.313,2.313,0,0,1,1.243-.337,2.228,2.228,0,0,1,1.746.747,2.874,2.874,0,0,1,.667,1.987v.063a3.148,3.148,0,0,1-.3,1.384,2.243,2.243,0,0,1-.845.955,2.339,2.339,0,0,1-1.262.342A2.222,2.222,0,0,1,18.8,9.351a2.86,2.86,0,0,1-.667-1.978Zm.908.107a2.26,2.26,0,0,0,.408,1.411,1.382,1.382,0,0,0,2.185-.007,2.472,2.472,0,0,0,.405-1.511A2.256,2.256,0,0,0,21.631,5.9a1.312,1.312,0,0,0-1.1-.54,1.3,1.3,0,0,0-1.079.532A2.453,2.453,0,0,0,19.045,7.417Z" transform="translate(-6805 3263)" fill="#fff"/>
    <path id="Path_614894" data-name="Path 614894" d="M-11.448,0h-.942l-3.579-5.479V0h-.942V-7.109h.942l3.589,5.5v-5.5h.933Zm2.5,0h-.9V-5.283h.9Zm-.977-6.685a.539.539,0,0,1,.134-.371.5.5,0,0,1,.4-.151.512.512,0,0,1,.4.151.534.534,0,0,1,.137.371.516.516,0,0,1-.137.366.521.521,0,0,1-.4.146.513.513,0,0,1-.4-.146A.521.521,0,0,1-9.919-6.685Zm4.165,5.459,1.309-4.058h.923L-5.417,0h-.688L-8.02-5.283H-7.1ZM-.525.1A2.308,2.308,0,0,1-2.273-.608,2.619,2.619,0,0,1-2.947-2.5v-.166a3.17,3.17,0,0,1,.3-1.4,2.343,2.343,0,0,1,.84-.967A2.112,2.112,0,0,1-.637-5.381a1.979,1.979,0,0,1,1.6.679,2.939,2.939,0,0,1,.571,1.943v.376H-2.043a1.878,1.878,0,0,0,.457,1.262A1.435,1.435,0,0,0-.476-.64a1.573,1.573,0,0,0,.811-.2,2.037,2.037,0,0,0,.581-.518l.552.43A2.219,2.219,0,0,1-.525.1ZM-.637-4.639a1.2,1.2,0,0,0-.918.4,1.934,1.934,0,0,0-.459,1.116H.632v-.068A1.721,1.721,0,0,0,.261-4.26,1.134,1.134,0,0,0-.637-4.639ZM3.562,0h-.9V-7.5h.9Zm3.7-2.686a3.1,3.1,0,0,1,.576-1.956,1.822,1.822,0,0,1,1.509-.74,1.832,1.832,0,0,1,1.47.635V-7.5h.9V0h-.83l-.044-.566A1.84,1.84,0,0,1,9.338.1a1.8,1.8,0,0,1-1.5-.752,3.13,3.13,0,0,1-.579-1.963Zm.9.1a2.343,2.343,0,0,0,.371,1.406,1.2,1.2,0,0,0,1.025.508,1.318,1.318,0,0,0,1.255-.771V-3.867a1.328,1.328,0,0,0-1.245-.747A1.205,1.205,0,0,0,8.538-4.1,2.58,2.58,0,0,0,8.167-2.583ZM15.315.1a2.308,2.308,0,0,1-1.748-.706A2.619,2.619,0,0,1,12.893-2.5v-.166a3.17,3.17,0,0,1,.3-1.4,2.343,2.343,0,0,1,.84-.967A2.112,2.112,0,0,1,15.2-5.381a1.979,1.979,0,0,1,1.6.679,2.939,2.939,0,0,1,.571,1.943v.376H13.8a1.878,1.878,0,0,0,.457,1.262,1.435,1.435,0,0,0,1.111.481,1.573,1.573,0,0,0,.811-.2,2.037,2.037,0,0,0,.581-.518l.552.43A2.219,2.219,0,0,1,15.315.1ZM15.2-4.639a1.2,1.2,0,0,0-.918.4,1.934,1.934,0,0,0-.459,1.116h2.646v-.068A1.721,1.721,0,0,0,16.1-4.26,1.134,1.134,0,0,0,15.2-4.639ZM-36.25,5.527a2.707,2.707,0,0,0-.444-.034A1.19,1.19,0,0,0-37.9,6.25V10h-.9V4.717h.879l.015.61a1.407,1.407,0,0,1,1.26-.708.923.923,0,0,1,.4.068ZM-34.438,10h-.9V4.717h.9Zm-.977-6.685a.539.539,0,0,1,.134-.371.5.5,0,0,1,.4-.151.512.512,0,0,1,.4.151.534.534,0,0,1,.137.371.516.516,0,0,1-.137.366.521.521,0,0,1-.4.146.513.513,0,0,1-.4-.146A.521.521,0,0,1-35.415,3.315ZM-30.8,10.1a2.308,2.308,0,0,1-1.748-.706A2.619,2.619,0,0,1-33.223,7.5V7.339a3.17,3.17,0,0,1,.3-1.4,2.343,2.343,0,0,1,.84-.967,2.112,2.112,0,0,1,1.169-.349,1.979,1.979,0,0,1,1.6.679,2.939,2.939,0,0,1,.571,1.943v.376h-3.579a1.878,1.878,0,0,0,.457,1.262,1.435,1.435,0,0,0,1.111.481,1.573,1.573,0,0,0,.811-.2,2.037,2.037,0,0,0,.581-.518l.552.43A2.219,2.219,0,0,1-30.8,10.1Zm-.112-4.736a1.2,1.2,0,0,0-.918.4,1.934,1.934,0,0,0-.459,1.116h2.646V6.807a1.721,1.721,0,0,0-.371-1.067A1.134,1.134,0,0,0-30.913,5.361ZM-24.619,8.6A.665.665,0,0,0-24.9,8.03a2.655,2.655,0,0,0-.962-.349,4.548,4.548,0,0,1-1.089-.352,1.549,1.549,0,0,1-.6-.488,1.168,1.168,0,0,1-.193-.674,1.37,1.37,0,0,1,.549-1.1,2.145,2.145,0,0,1,1.4-.449,2.208,2.208,0,0,1,1.458.464,1.473,1.473,0,0,1,.559,1.187h-.908a.815.815,0,0,0-.315-.64,1.18,1.18,0,0,0-.793-.269,1.235,1.235,0,0,0-.771.215.676.676,0,0,0-.278.562.548.548,0,0,0,.259.493,3.184,3.184,0,0,0,.935.317,4.872,4.872,0,0,1,1.1.361,1.6,1.6,0,0,1,.623.505,1.243,1.243,0,0,1,.2.72,1.352,1.352,0,0,1-.566,1.135,2.376,2.376,0,0,1-1.47.427,2.66,2.66,0,0,1-1.123-.225,1.827,1.827,0,0,1-.764-.627,1.512,1.512,0,0,1-.276-.872h.9a.935.935,0,0,0,.364.72,1.411,1.411,0,0,0,.9.266,1.457,1.457,0,0,0,.823-.208A.638.638,0,0,0-24.619,8.6Zm1.865-1.284a3.105,3.105,0,0,1,.571-1.965,1.827,1.827,0,0,1,1.514-.73A1.817,1.817,0,0,1-19.16,5.3l.044-.586h.825V9.873a2.149,2.149,0,0,1-.608,1.616,2.243,2.243,0,0,1-1.633.591,2.717,2.717,0,0,1-1.118-.244,1.925,1.925,0,0,1-.835-.669l.469-.542a1.766,1.766,0,0,0,1.421.718,1.384,1.384,0,0,0,1.028-.371A1.418,1.418,0,0,0-19.2,9.927V9.473a1.857,1.857,0,0,1-1.479.625,1.8,1.8,0,0,1-1.5-.747A3.265,3.265,0,0,1-22.754,7.314Zm.908.1a2.369,2.369,0,0,0,.366,1.4,1.19,1.19,0,0,0,1.025.51A1.323,1.323,0,0,0-19.2,8.555V6.143a1.339,1.339,0,0,0-1.245-.757,1.2,1.2,0,0,0-1.03.513A2.58,2.58,0,0,0-21.846,7.417Zm4.678-.107a3.121,3.121,0,0,1,.305-1.4,2.277,2.277,0,0,1,.85-.957,2.313,2.313,0,0,1,1.243-.337,2.228,2.228,0,0,1,1.746.747,2.874,2.874,0,0,1,.667,1.987v.063a3.148,3.148,0,0,1-.3,1.384,2.243,2.243,0,0,1-.845.955,2.339,2.339,0,0,1-1.262.342A2.222,2.222,0,0,1-16.5,9.351a2.86,2.86,0,0,1-.667-1.978Zm.908.107a2.26,2.26,0,0,0,.408,1.411,1.3,1.3,0,0,0,1.091.532,1.3,1.3,0,0,0,1.094-.54,2.472,2.472,0,0,0,.405-1.511A2.256,2.256,0,0,0-13.674,5.9a1.312,1.312,0,0,0-1.1-.54,1.3,1.3,0,0,0-1.079.532A2.453,2.453,0,0,0-16.26,7.417ZM-7.769,10h-.9V4.717h.9Zm-.977-6.685a.539.539,0,0,1,.134-.371.5.5,0,0,1,.4-.151.512.512,0,0,1,.4.151.534.534,0,0,1,.137.371.516.516,0,0,1-.137.366.521.521,0,0,1-.4.146.513.513,0,0,1-.4-.146A.521.521,0,0,1-8.745,3.315Zm3.271,1.4.024.586a1.951,1.951,0,0,1,1.567-.684,1.51,1.51,0,0,1,1.509.85,2,2,0,0,1,.686-.615,2.026,2.026,0,0,1,1-.234q1.738,0,1.768,1.841V10h-.9V6.514a1.213,1.213,0,0,0-.259-.847,1.14,1.14,0,0,0-.869-.281,1.2,1.2,0,0,0-.835.3,1.218,1.218,0,0,0-.386.808V10h-.908V6.538A1.008,1.008,0,0,0-4.209,5.386a1.209,1.209,0,0,0-1.216.757V10h-.9V4.717ZM6.9,7.417A3.163,3.163,0,0,1,6.353,9.36a1.768,1.768,0,0,1-1.494.737,1.938,1.938,0,0,1-1.514-.61v2.544h-.9V4.717h.825l.044.586a1.861,1.861,0,0,1,1.533-.684,1.8,1.8,0,0,1,1.506.718,3.2,3.2,0,0,1,.554,2Zm-.9-.1A2.334,2.334,0,0,0,5.62,5.9a1.227,1.227,0,0,0-1.045-.518,1.328,1.328,0,0,0-1.23.728V8.638a1.33,1.33,0,0,0,1.24.723,1.221,1.221,0,0,0,1.033-.515A2.548,2.548,0,0,0,6,7.314Zm1.812,0a3.121,3.121,0,0,1,.305-1.4,2.277,2.277,0,0,1,.85-.957,2.313,2.313,0,0,1,1.243-.337,2.228,2.228,0,0,1,1.746.747,2.874,2.874,0,0,1,.667,1.987v.063a3.148,3.148,0,0,1-.3,1.384,2.243,2.243,0,0,1-.845.955,2.339,2.339,0,0,1-1.262.342,2.222,2.222,0,0,1-1.741-.747,2.86,2.86,0,0,1-.667-1.978Zm.908.107a2.26,2.26,0,0,0,.408,1.411,1.382,1.382,0,0,0,2.185-.007,2.472,2.472,0,0,0,.405-1.511A2.256,2.256,0,0,0,11.306,5.9a1.312,1.312,0,0,0-1.1-.54,1.3,1.3,0,0,0-1.079.532A2.453,2.453,0,0,0,8.721,7.417Zm7.588-1.89a2.707,2.707,0,0,0-.444-.034,1.19,1.19,0,0,0-1.206.757V10h-.9V4.717h.879l.015.61a1.407,1.407,0,0,1,1.26-.708.923.923,0,0,1,.4.068Zm2.3-2.09V4.717h.986v.7h-.986V8.7a.733.733,0,0,0,.132.477.555.555,0,0,0,.449.159,2.187,2.187,0,0,0,.43-.059V10a2.634,2.634,0,0,1-.693.1,1.125,1.125,0,0,1-.913-.366,1.573,1.573,0,0,1-.308-1.04V5.415h-.962v-.7h.962V3.438ZM23.911,10a1.9,1.9,0,0,1-.127-.557,2.015,2.015,0,0,1-1.5.654A1.865,1.865,0,0,1,21,9.656a1.43,1.43,0,0,1-.5-1.121,1.494,1.494,0,0,1,.627-1.282A2.958,2.958,0,0,1,22.891,6.8h.879V6.382a1.015,1.015,0,0,0-.283-.754,1.138,1.138,0,0,0-.835-.281,1.317,1.317,0,0,0-.811.244.719.719,0,0,0-.327.591h-.908a1.247,1.247,0,0,1,.281-.764,1.916,1.916,0,0,1,.762-.583,2.563,2.563,0,0,1,1.057-.215,2.089,2.089,0,0,1,1.431.457,1.647,1.647,0,0,1,.537,1.257V8.765a2.973,2.973,0,0,0,.186,1.157V10Zm-1.5-.688a1.588,1.588,0,0,0,.806-.22,1.329,1.329,0,0,0,.552-.571V7.437h-.708q-1.66,0-1.66.972a.822.822,0,0,0,.283.664A1.089,1.089,0,0,0,22.412,9.312Zm4.531-4.595.029.664a1.925,1.925,0,0,1,1.582-.762q1.675,0,1.689,1.89V10h-.9V6.5a1.216,1.216,0,0,0-.261-.845,1.047,1.047,0,0,0-.8-.273,1.3,1.3,0,0,0-.771.234,1.592,1.592,0,0,0-.518.615V10h-.9V4.717Zm5.889-1.279V4.717h.986v.7h-.986V8.7a.733.733,0,0,0,.132.477.555.555,0,0,0,.449.159,2.187,2.187,0,0,0,.43-.059V10a2.634,2.634,0,0,1-.693.1,1.125,1.125,0,0,1-.913-.366,1.573,1.573,0,0,1-.308-1.04V5.415h-.962v-.7h.962V3.438Zm4.233,6.66a2.308,2.308,0,0,1-1.748-.706A2.619,2.619,0,0,1,34.644,7.5V7.339a3.17,3.17,0,0,1,.3-1.4,2.343,2.343,0,0,1,.84-.967,2.112,2.112,0,0,1,1.169-.349,1.979,1.979,0,0,1,1.6.679,2.939,2.939,0,0,1,.571,1.943v.376H35.547A1.878,1.878,0,0,0,36,8.879a1.435,1.435,0,0,0,1.111.481,1.573,1.573,0,0,0,.811-.2,2.037,2.037,0,0,0,.581-.518l.552.43A2.219,2.219,0,0,1,37.065,10.1Zm-.112-4.736a1.2,1.2,0,0,0-.918.4,1.934,1.934,0,0,0-.459,1.116h2.646V6.807a1.721,1.721,0,0,0-.371-1.067A1.134,1.134,0,0,0,36.953,5.361Z" transform="translate(-6802 3365)" fill="#12263f"/>
    <path id="Path_614895" data-name="Path 614895" d="M2.036-7.109l2.324,5.8,2.324-5.8H7.9V0H6.963V-2.769l.088-2.988L4.717,0H4L1.67-5.742l.093,2.974V0H.825V-7.109ZM11.606.1A2.308,2.308,0,0,1,9.858-.608,2.619,2.619,0,0,1,9.185-2.5v-.166a3.17,3.17,0,0,1,.3-1.4,2.343,2.343,0,0,1,.84-.967,2.112,2.112,0,0,1,1.169-.349,1.979,1.979,0,0,1,1.6.679,2.939,2.939,0,0,1,.571,1.943v.376H10.088a1.878,1.878,0,0,0,.457,1.262,1.435,1.435,0,0,0,1.111.481,1.573,1.573,0,0,0,.811-.2,2.037,2.037,0,0,0,.581-.518l.552.43A2.219,2.219,0,0,1,11.606.1Zm-.112-4.736a1.2,1.2,0,0,0-.918.4,1.934,1.934,0,0,0-.459,1.116h2.646v-.068a1.721,1.721,0,0,0-.371-1.067A1.134,1.134,0,0,0,11.494-4.639Zm3,1.953a3.1,3.1,0,0,1,.576-1.956,1.822,1.822,0,0,1,1.509-.74,1.832,1.832,0,0,1,1.47.635V-7.5h.9V0h-.83l-.044-.566A1.84,1.84,0,0,1,16.567.1a1.8,1.8,0,0,1-1.5-.752,3.13,3.13,0,0,1-.579-1.963Zm.9.1a2.343,2.343,0,0,0,.371,1.406,1.2,1.2,0,0,0,1.025.508,1.318,1.318,0,0,0,1.255-.771V-3.867A1.328,1.328,0,0,0,16.8-4.614a1.205,1.205,0,0,0-1.035.513A2.58,2.58,0,0,0,15.4-2.583ZM21.333,0h-.9V-5.283h.9Zm-.977-6.685a.539.539,0,0,1,.134-.371.5.5,0,0,1,.4-.151.512.512,0,0,1,.4.151.534.534,0,0,1,.137.371.516.516,0,0,1-.137.366.521.521,0,0,1-.4.146.513.513,0,0,1-.4-.146A.521.521,0,0,1,20.356-6.685ZM22.539-2.69a3.121,3.121,0,0,1,.305-1.4,2.277,2.277,0,0,1,.85-.957,2.313,2.313,0,0,1,1.243-.337,2.228,2.228,0,0,1,1.746.747,2.874,2.874,0,0,1,.667,1.987v.063a3.148,3.148,0,0,1-.3,1.384,2.243,2.243,0,0,1-.845.955A2.339,2.339,0,0,1,24.946.1a2.222,2.222,0,0,1-1.741-.747,2.86,2.86,0,0,1-.667-1.978Zm.908.107a2.26,2.26,0,0,0,.408,1.411,1.3,1.3,0,0,0,1.091.532,1.3,1.3,0,0,0,1.094-.54,2.472,2.472,0,0,0,.405-1.511A2.256,2.256,0,0,0,26.033-4.1a1.312,1.312,0,0,0-1.1-.54,1.3,1.3,0,0,0-1.079.532A2.453,2.453,0,0,0,23.447-2.583Z" transform="translate(-6747 3357)" fill="#12263f"/>
    <path id="Path_614896" data-name="Path 614896" d="M2.036-7.109l2.324,5.8,2.324-5.8H7.9V0H6.963V-2.769l.088-2.988L4.717,0H4L1.67-5.742l.093,2.974V0H.825V-7.109ZM11.606.1A2.308,2.308,0,0,1,9.858-.608,2.619,2.619,0,0,1,9.185-2.5v-.166a3.17,3.17,0,0,1,.3-1.4,2.343,2.343,0,0,1,.84-.967,2.112,2.112,0,0,1,1.169-.349,1.979,1.979,0,0,1,1.6.679,2.939,2.939,0,0,1,.571,1.943v.376H10.088a1.878,1.878,0,0,0,.457,1.262,1.435,1.435,0,0,0,1.111.481,1.573,1.573,0,0,0,.811-.2,2.037,2.037,0,0,0,.581-.518l.552.43A2.219,2.219,0,0,1,11.606.1Zm-.112-4.736a1.2,1.2,0,0,0-.918.4,1.934,1.934,0,0,0-.459,1.116h2.646v-.068a1.721,1.721,0,0,0-.371-1.067A1.134,1.134,0,0,0,11.494-4.639Zm3,1.953a3.1,3.1,0,0,1,.576-1.956,1.822,1.822,0,0,1,1.509-.74,1.832,1.832,0,0,1,1.47.635V-7.5h.9V0h-.83l-.044-.566A1.84,1.84,0,0,1,16.567.1a1.8,1.8,0,0,1-1.5-.752,3.13,3.13,0,0,1-.579-1.963Zm.9.1a2.343,2.343,0,0,0,.371,1.406,1.2,1.2,0,0,0,1.025.508,1.318,1.318,0,0,0,1.255-.771V-3.867A1.328,1.328,0,0,0,16.8-4.614a1.205,1.205,0,0,0-1.035.513A2.58,2.58,0,0,0,15.4-2.583ZM21.333,0h-.9V-5.283h.9Zm-.977-6.685a.539.539,0,0,1,.134-.371.5.5,0,0,1,.4-.151.512.512,0,0,1,.4.151.534.534,0,0,1,.137.371.516.516,0,0,1-.137.366.521.521,0,0,1-.4.146.513.513,0,0,1-.4-.146A.521.521,0,0,1,20.356-6.685ZM22.539-2.69a3.121,3.121,0,0,1,.305-1.4,2.277,2.277,0,0,1,.85-.957,2.313,2.313,0,0,1,1.243-.337,2.228,2.228,0,0,1,1.746.747,2.874,2.874,0,0,1,.667,1.987v.063a3.148,3.148,0,0,1-.3,1.384,2.243,2.243,0,0,1-.845.955A2.339,2.339,0,0,1,24.946.1a2.222,2.222,0,0,1-1.741-.747,2.86,2.86,0,0,1-.667-1.978Zm.908.107a2.26,2.26,0,0,0,.408,1.411,1.3,1.3,0,0,0,1.091.532,1.3,1.3,0,0,0,1.094-.54,2.472,2.472,0,0,0,.405-1.511A2.256,2.256,0,0,0,26.033-4.1a1.312,1.312,0,0,0-1.1-.54,1.3,1.3,0,0,0-1.079.532A2.453,2.453,0,0,0,23.447-2.583Z" transform="translate(-6699 3313)" fill="#12263f"/>
    <path id="Path_614897" data-name="Path 614897" d="M2.036-7.109l2.324,5.8,2.324-5.8H7.9V0H6.963V-2.769l.088-2.988L4.717,0H4L1.67-5.742l.093,2.974V0H.825V-7.109ZM11.606.1A2.308,2.308,0,0,1,9.858-.608,2.619,2.619,0,0,1,9.185-2.5v-.166a3.17,3.17,0,0,1,.3-1.4,2.343,2.343,0,0,1,.84-.967,2.112,2.112,0,0,1,1.169-.349,1.979,1.979,0,0,1,1.6.679,2.939,2.939,0,0,1,.571,1.943v.376H10.088a1.878,1.878,0,0,0,.457,1.262,1.435,1.435,0,0,0,1.111.481,1.573,1.573,0,0,0,.811-.2,2.037,2.037,0,0,0,.581-.518l.552.43A2.219,2.219,0,0,1,11.606.1Zm-.112-4.736a1.2,1.2,0,0,0-.918.4,1.934,1.934,0,0,0-.459,1.116h2.646v-.068a1.721,1.721,0,0,0-.371-1.067A1.134,1.134,0,0,0,11.494-4.639Zm3,1.953a3.1,3.1,0,0,1,.576-1.956,1.822,1.822,0,0,1,1.509-.74,1.832,1.832,0,0,1,1.47.635V-7.5h.9V0h-.83l-.044-.566A1.84,1.84,0,0,1,16.567.1a1.8,1.8,0,0,1-1.5-.752,3.13,3.13,0,0,1-.579-1.963Zm.9.1a2.343,2.343,0,0,0,.371,1.406,1.2,1.2,0,0,0,1.025.508,1.318,1.318,0,0,0,1.255-.771V-3.867A1.328,1.328,0,0,0,16.8-4.614a1.205,1.205,0,0,0-1.035.513A2.58,2.58,0,0,0,15.4-2.583ZM21.333,0h-.9V-5.283h.9Zm-.977-6.685a.539.539,0,0,1,.134-.371.5.5,0,0,1,.4-.151.512.512,0,0,1,.4.151.534.534,0,0,1,.137.371.516.516,0,0,1-.137.366.521.521,0,0,1-.4.146.513.513,0,0,1-.4-.146A.521.521,0,0,1,20.356-6.685ZM22.539-2.69a3.121,3.121,0,0,1,.305-1.4,2.277,2.277,0,0,1,.85-.957,2.313,2.313,0,0,1,1.243-.337,2.228,2.228,0,0,1,1.746.747,2.874,2.874,0,0,1,.667,1.987v.063a3.148,3.148,0,0,1-.3,1.384,2.243,2.243,0,0,1-.845.955A2.339,2.339,0,0,1,24.946.1a2.222,2.222,0,0,1-1.741-.747,2.86,2.86,0,0,1-.667-1.978Zm.908.107a2.26,2.26,0,0,0,.408,1.411,1.3,1.3,0,0,0,1.091.532,1.3,1.3,0,0,0,1.094-.54,2.472,2.472,0,0,0,.405-1.511A2.256,2.256,0,0,0,26.033-4.1a1.312,1.312,0,0,0-1.1-.54,1.3,1.3,0,0,0-1.079.532A2.453,2.453,0,0,0,23.447-2.583Z" transform="translate(-6651 3283)" fill="#12263f"/>
    <path id="Path_614898" data-name="Path 614898" d="M-11.448,0h-.942l-3.579-5.479V0h-.942V-7.109h.942l3.589,5.5v-5.5h.933Zm2.5,0h-.9V-5.283h.9Zm-.977-6.685a.539.539,0,0,1,.134-.371.5.5,0,0,1,.4-.151.512.512,0,0,1,.4.151.534.534,0,0,1,.137.371.516.516,0,0,1-.137.366.521.521,0,0,1-.4.146.513.513,0,0,1-.4-.146A.521.521,0,0,1-9.919-6.685Zm4.165,5.459,1.309-4.058h.923L-5.417,0h-.688L-8.02-5.283H-7.1ZM-.525.1A2.308,2.308,0,0,1-2.273-.608,2.619,2.619,0,0,1-2.947-2.5v-.166a3.17,3.17,0,0,1,.3-1.4,2.343,2.343,0,0,1,.84-.967A2.112,2.112,0,0,1-.637-5.381a1.979,1.979,0,0,1,1.6.679,2.939,2.939,0,0,1,.571,1.943v.376H-2.043a1.878,1.878,0,0,0,.457,1.262A1.435,1.435,0,0,0-.476-.64a1.573,1.573,0,0,0,.811-.2,2.037,2.037,0,0,0,.581-.518l.552.43A2.219,2.219,0,0,1-.525.1ZM-.637-4.639a1.2,1.2,0,0,0-.918.4,1.934,1.934,0,0,0-.459,1.116H.632v-.068A1.721,1.721,0,0,0,.261-4.26,1.134,1.134,0,0,0-.637-4.639ZM3.562,0h-.9V-7.5h.9Zm3.7-2.686a3.1,3.1,0,0,1,.576-1.956,1.822,1.822,0,0,1,1.509-.74,1.832,1.832,0,0,1,1.47.635V-7.5h.9V0h-.83l-.044-.566A1.84,1.84,0,0,1,9.338.1a1.8,1.8,0,0,1-1.5-.752,3.13,3.13,0,0,1-.579-1.963Zm.9.1a2.343,2.343,0,0,0,.371,1.406,1.2,1.2,0,0,0,1.025.508,1.318,1.318,0,0,0,1.255-.771V-3.867a1.328,1.328,0,0,0-1.245-.747A1.205,1.205,0,0,0,8.538-4.1,2.58,2.58,0,0,0,8.167-2.583ZM15.315.1a2.308,2.308,0,0,1-1.748-.706A2.619,2.619,0,0,1,12.893-2.5v-.166a3.17,3.17,0,0,1,.3-1.4,2.343,2.343,0,0,1,.84-.967A2.112,2.112,0,0,1,15.2-5.381a1.979,1.979,0,0,1,1.6.679,2.939,2.939,0,0,1,.571,1.943v.376H13.8a1.878,1.878,0,0,0,.457,1.262,1.435,1.435,0,0,0,1.111.481,1.573,1.573,0,0,0,.811-.2,2.037,2.037,0,0,0,.581-.518l.552.43A2.219,2.219,0,0,1,15.315.1ZM15.2-4.639a1.2,1.2,0,0,0-.918.4,1.934,1.934,0,0,0-.459,1.116h2.646v-.068A1.721,1.721,0,0,0,16.1-4.26,1.134,1.134,0,0,0,15.2-4.639ZM-36.25,5.527a2.707,2.707,0,0,0-.444-.034A1.19,1.19,0,0,0-37.9,6.25V10h-.9V4.717h.879l.015.61a1.407,1.407,0,0,1,1.26-.708.923.923,0,0,1,.4.068ZM-34.438,10h-.9V4.717h.9Zm-.977-6.685a.539.539,0,0,1,.134-.371.5.5,0,0,1,.4-.151.512.512,0,0,1,.4.151.534.534,0,0,1,.137.371.516.516,0,0,1-.137.366.521.521,0,0,1-.4.146.513.513,0,0,1-.4-.146A.521.521,0,0,1-35.415,3.315ZM-30.8,10.1a2.308,2.308,0,0,1-1.748-.706A2.619,2.619,0,0,1-33.223,7.5V7.339a3.17,3.17,0,0,1,.3-1.4,2.343,2.343,0,0,1,.84-.967,2.112,2.112,0,0,1,1.169-.349,1.979,1.979,0,0,1,1.6.679,2.939,2.939,0,0,1,.571,1.943v.376h-3.579a1.878,1.878,0,0,0,.457,1.262,1.435,1.435,0,0,0,1.111.481,1.573,1.573,0,0,0,.811-.2,2.037,2.037,0,0,0,.581-.518l.552.43A2.219,2.219,0,0,1-30.8,10.1Zm-.112-4.736a1.2,1.2,0,0,0-.918.4,1.934,1.934,0,0,0-.459,1.116h2.646V6.807a1.721,1.721,0,0,0-.371-1.067A1.134,1.134,0,0,0-30.913,5.361ZM-24.619,8.6A.665.665,0,0,0-24.9,8.03a2.655,2.655,0,0,0-.962-.349,4.548,4.548,0,0,1-1.089-.352,1.549,1.549,0,0,1-.6-.488,1.168,1.168,0,0,1-.193-.674,1.37,1.37,0,0,1,.549-1.1,2.145,2.145,0,0,1,1.4-.449,2.208,2.208,0,0,1,1.458.464,1.473,1.473,0,0,1,.559,1.187h-.908a.815.815,0,0,0-.315-.64,1.18,1.18,0,0,0-.793-.269,1.235,1.235,0,0,0-.771.215.676.676,0,0,0-.278.562.548.548,0,0,0,.259.493,3.184,3.184,0,0,0,.935.317,4.872,4.872,0,0,1,1.1.361,1.6,1.6,0,0,1,.623.505,1.243,1.243,0,0,1,.2.72,1.352,1.352,0,0,1-.566,1.135,2.376,2.376,0,0,1-1.47.427,2.66,2.66,0,0,1-1.123-.225,1.827,1.827,0,0,1-.764-.627,1.512,1.512,0,0,1-.276-.872h.9a.935.935,0,0,0,.364.72,1.411,1.411,0,0,0,.9.266,1.457,1.457,0,0,0,.823-.208A.638.638,0,0,0-24.619,8.6Zm1.865-1.284a3.105,3.105,0,0,1,.571-1.965,1.827,1.827,0,0,1,1.514-.73A1.817,1.817,0,0,1-19.16,5.3l.044-.586h.825V9.873a2.149,2.149,0,0,1-.608,1.616,2.243,2.243,0,0,1-1.633.591,2.717,2.717,0,0,1-1.118-.244,1.925,1.925,0,0,1-.835-.669l.469-.542a1.766,1.766,0,0,0,1.421.718,1.384,1.384,0,0,0,1.028-.371A1.418,1.418,0,0,0-19.2,9.927V9.473a1.857,1.857,0,0,1-1.479.625,1.8,1.8,0,0,1-1.5-.747A3.265,3.265,0,0,1-22.754,7.314Zm.908.1a2.369,2.369,0,0,0,.366,1.4,1.19,1.19,0,0,0,1.025.51A1.323,1.323,0,0,0-19.2,8.555V6.143a1.339,1.339,0,0,0-1.245-.757,1.2,1.2,0,0,0-1.03.513A2.58,2.58,0,0,0-21.846,7.417Zm4.678-.107a3.121,3.121,0,0,1,.305-1.4,2.277,2.277,0,0,1,.85-.957,2.313,2.313,0,0,1,1.243-.337,2.228,2.228,0,0,1,1.746.747,2.874,2.874,0,0,1,.667,1.987v.063a3.148,3.148,0,0,1-.3,1.384,2.243,2.243,0,0,1-.845.955,2.339,2.339,0,0,1-1.262.342A2.222,2.222,0,0,1-16.5,9.351a2.86,2.86,0,0,1-.667-1.978Zm.908.107a2.26,2.26,0,0,0,.408,1.411,1.3,1.3,0,0,0,1.091.532,1.3,1.3,0,0,0,1.094-.54,2.472,2.472,0,0,0,.405-1.511A2.256,2.256,0,0,0-13.674,5.9a1.312,1.312,0,0,0-1.1-.54,1.3,1.3,0,0,0-1.079.532A2.453,2.453,0,0,0-16.26,7.417ZM-7.769,10h-.9V4.717h.9Zm-.977-6.685a.539.539,0,0,1,.134-.371.5.5,0,0,1,.4-.151.512.512,0,0,1,.4.151.534.534,0,0,1,.137.371.516.516,0,0,1-.137.366.521.521,0,0,1-.4.146.513.513,0,0,1-.4-.146A.521.521,0,0,1-8.745,3.315Zm3.271,1.4.024.586a1.951,1.951,0,0,1,1.567-.684,1.51,1.51,0,0,1,1.509.85,2,2,0,0,1,.686-.615,2.026,2.026,0,0,1,1-.234q1.738,0,1.768,1.841V10h-.9V6.514a1.213,1.213,0,0,0-.259-.847,1.14,1.14,0,0,0-.869-.281,1.2,1.2,0,0,0-.835.3,1.218,1.218,0,0,0-.386.808V10h-.908V6.538A1.008,1.008,0,0,0-4.209,5.386a1.209,1.209,0,0,0-1.216.757V10h-.9V4.717ZM6.9,7.417A3.163,3.163,0,0,1,6.353,9.36a1.768,1.768,0,0,1-1.494.737,1.938,1.938,0,0,1-1.514-.61v2.544h-.9V4.717h.825l.044.586a1.861,1.861,0,0,1,1.533-.684,1.8,1.8,0,0,1,1.506.718,3.2,3.2,0,0,1,.554,2Zm-.9-.1A2.334,2.334,0,0,0,5.62,5.9a1.227,1.227,0,0,0-1.045-.518,1.328,1.328,0,0,0-1.23.728V8.638a1.33,1.33,0,0,0,1.24.723,1.221,1.221,0,0,0,1.033-.515A2.548,2.548,0,0,0,6,7.314Zm1.812,0a3.121,3.121,0,0,1,.305-1.4,2.277,2.277,0,0,1,.85-.957,2.313,2.313,0,0,1,1.243-.337,2.228,2.228,0,0,1,1.746.747,2.874,2.874,0,0,1,.667,1.987v.063a3.148,3.148,0,0,1-.3,1.384,2.243,2.243,0,0,1-.845.955,2.339,2.339,0,0,1-1.262.342,2.222,2.222,0,0,1-1.741-.747,2.86,2.86,0,0,1-.667-1.978Zm.908.107a2.26,2.26,0,0,0,.408,1.411,1.382,1.382,0,0,0,2.185-.007,2.472,2.472,0,0,0,.405-1.511A2.256,2.256,0,0,0,11.306,5.9a1.312,1.312,0,0,0-1.1-.54,1.3,1.3,0,0,0-1.079.532A2.453,2.453,0,0,0,8.721,7.417Zm7.588-1.89a2.707,2.707,0,0,0-.444-.034,1.19,1.19,0,0,0-1.206.757V10h-.9V4.717h.879l.015.61a1.407,1.407,0,0,1,1.26-.708.923.923,0,0,1,.4.068Zm2.3-2.09V4.717h.986v.7h-.986V8.7a.733.733,0,0,0,.132.477.555.555,0,0,0,.449.159,2.187,2.187,0,0,0,.43-.059V10a2.634,2.634,0,0,1-.693.1,1.125,1.125,0,0,1-.913-.366,1.573,1.573,0,0,1-.308-1.04V5.415h-.962v-.7h.962V3.438ZM23.911,10a1.9,1.9,0,0,1-.127-.557,2.015,2.015,0,0,1-1.5.654A1.865,1.865,0,0,1,21,9.656a1.43,1.43,0,0,1-.5-1.121,1.494,1.494,0,0,1,.627-1.282A2.958,2.958,0,0,1,22.891,6.8h.879V6.382a1.015,1.015,0,0,0-.283-.754,1.138,1.138,0,0,0-.835-.281,1.317,1.317,0,0,0-.811.244.719.719,0,0,0-.327.591h-.908a1.247,1.247,0,0,1,.281-.764,1.916,1.916,0,0,1,.762-.583,2.563,2.563,0,0,1,1.057-.215,2.089,2.089,0,0,1,1.431.457,1.647,1.647,0,0,1,.537,1.257V8.765a2.973,2.973,0,0,0,.186,1.157V10Zm-1.5-.688a1.588,1.588,0,0,0,.806-.22,1.329,1.329,0,0,0,.552-.571V7.437h-.708q-1.66,0-1.66.972a.822.822,0,0,0,.283.664A1.089,1.089,0,0,0,22.412,9.312Zm4.531-4.595.029.664a1.925,1.925,0,0,1,1.582-.762q1.675,0,1.689,1.89V10h-.9V6.5a1.216,1.216,0,0,0-.261-.845,1.047,1.047,0,0,0-.8-.273,1.3,1.3,0,0,0-.771.234,1.592,1.592,0,0,0-.518.615V10h-.9V4.717Zm5.889-1.279V4.717h.986v.7h-.986V8.7a.733.733,0,0,0,.132.477.555.555,0,0,0,.449.159,2.187,2.187,0,0,0,.43-.059V10a2.634,2.634,0,0,1-.693.1,1.125,1.125,0,0,1-.913-.366,1.573,1.573,0,0,1-.308-1.04V5.415h-.962v-.7h.962V3.438Zm4.233,6.66a2.308,2.308,0,0,1-1.748-.706A2.619,2.619,0,0,1,34.644,7.5V7.339a3.17,3.17,0,0,1,.3-1.4,2.343,2.343,0,0,1,.84-.967,2.112,2.112,0,0,1,1.169-.349,1.979,1.979,0,0,1,1.6.679,2.939,2.939,0,0,1,.571,1.943v.376H35.547A1.878,1.878,0,0,0,36,8.879a1.435,1.435,0,0,0,1.111.481,1.573,1.573,0,0,0,.811-.2,2.037,2.037,0,0,0,.581-.518l.552.43A2.219,2.219,0,0,1,37.065,10.1Zm-.112-4.736a1.2,1.2,0,0,0-.918.4,1.934,1.934,0,0,0-.459,1.116h2.646V6.807a1.721,1.721,0,0,0-.371-1.067A1.134,1.134,0,0,0,36.953,5.361Z" transform="translate(-6710 3276)" fill="#12263f"/>
    <path id="Path_614899" data-name="Path 614899" d="M-11.448,0h-.942l-3.579-5.479V0h-.942V-7.109h.942l3.589,5.5v-5.5h.933Zm2.5,0h-.9V-5.283h.9Zm-.977-6.685a.539.539,0,0,1,.134-.371.5.5,0,0,1,.4-.151.512.512,0,0,1,.4.151.534.534,0,0,1,.137.371.516.516,0,0,1-.137.366.521.521,0,0,1-.4.146.513.513,0,0,1-.4-.146A.521.521,0,0,1-9.919-6.685Zm4.165,5.459,1.309-4.058h.923L-5.417,0h-.688L-8.02-5.283H-7.1ZM-.525.1A2.308,2.308,0,0,1-2.273-.608,2.619,2.619,0,0,1-2.947-2.5v-.166a3.17,3.17,0,0,1,.3-1.4,2.343,2.343,0,0,1,.84-.967A2.112,2.112,0,0,1-.637-5.381a1.979,1.979,0,0,1,1.6.679,2.939,2.939,0,0,1,.571,1.943v.376H-2.043a1.878,1.878,0,0,0,.457,1.262A1.435,1.435,0,0,0-.476-.64a1.573,1.573,0,0,0,.811-.2,2.037,2.037,0,0,0,.581-.518l.552.43A2.219,2.219,0,0,1-.525.1ZM-.637-4.639a1.2,1.2,0,0,0-.918.4,1.934,1.934,0,0,0-.459,1.116H.632v-.068A1.721,1.721,0,0,0,.261-4.26,1.134,1.134,0,0,0-.637-4.639ZM3.562,0h-.9V-7.5h.9Zm3.7-2.686a3.1,3.1,0,0,1,.576-1.956,1.822,1.822,0,0,1,1.509-.74,1.832,1.832,0,0,1,1.47.635V-7.5h.9V0h-.83l-.044-.566A1.84,1.84,0,0,1,9.338.1a1.8,1.8,0,0,1-1.5-.752,3.13,3.13,0,0,1-.579-1.963Zm.9.1a2.343,2.343,0,0,0,.371,1.406,1.2,1.2,0,0,0,1.025.508,1.318,1.318,0,0,0,1.255-.771V-3.867a1.328,1.328,0,0,0-1.245-.747A1.205,1.205,0,0,0,8.538-4.1,2.58,2.58,0,0,0,8.167-2.583ZM15.315.1a2.308,2.308,0,0,1-1.748-.706A2.619,2.619,0,0,1,12.893-2.5v-.166a3.17,3.17,0,0,1,.3-1.4,2.343,2.343,0,0,1,.84-.967A2.112,2.112,0,0,1,15.2-5.381a1.979,1.979,0,0,1,1.6.679,2.939,2.939,0,0,1,.571,1.943v.376H13.8a1.878,1.878,0,0,0,.457,1.262,1.435,1.435,0,0,0,1.111.481,1.573,1.573,0,0,0,.811-.2,2.037,2.037,0,0,0,.581-.518l.552.43A2.219,2.219,0,0,1,15.315.1ZM15.2-4.639a1.2,1.2,0,0,0-.918.4,1.934,1.934,0,0,0-.459,1.116h2.646v-.068A1.721,1.721,0,0,0,16.1-4.26,1.134,1.134,0,0,0,15.2-4.639ZM-21.36,5.527a2.707,2.707,0,0,0-.444-.034,1.19,1.19,0,0,0-1.206.757V10h-.9V4.717h.879l.015.61a1.407,1.407,0,0,1,1.26-.708.923.923,0,0,1,.4.068ZM-19.548,10h-.9V4.717h.9Zm-.977-6.685a.539.539,0,0,1,.134-.371.5.5,0,0,1,.4-.151.512.512,0,0,1,.4.151.534.534,0,0,1,.137.371.516.516,0,0,1-.137.366.521.521,0,0,1-.4.146.513.513,0,0,1-.4-.146A.521.521,0,0,1-20.525,3.315Zm4.614,6.782a2.308,2.308,0,0,1-1.748-.706A2.619,2.619,0,0,1-18.333,7.5V7.339a3.17,3.17,0,0,1,.3-1.4,2.343,2.343,0,0,1,.84-.967,2.112,2.112,0,0,1,1.169-.349,1.979,1.979,0,0,1,1.6.679,2.939,2.939,0,0,1,.571,1.943v.376h-3.579a1.878,1.878,0,0,0,.457,1.262,1.435,1.435,0,0,0,1.111.481,1.573,1.573,0,0,0,.811-.2,2.037,2.037,0,0,0,.581-.518l.552.43A2.219,2.219,0,0,1-15.911,10.1Zm-.112-4.736a1.2,1.2,0,0,0-.918.4A1.934,1.934,0,0,0-17.4,6.875h2.646V6.807a1.721,1.721,0,0,0-.371-1.067A1.134,1.134,0,0,0-16.023,5.361ZM-9.729,8.6A.665.665,0,0,0-10,8.03a2.655,2.655,0,0,0-.962-.349,4.548,4.548,0,0,1-1.089-.352,1.549,1.549,0,0,1-.6-.488,1.168,1.168,0,0,1-.193-.674,1.37,1.37,0,0,1,.549-1.1,2.145,2.145,0,0,1,1.4-.449,2.208,2.208,0,0,1,1.458.464A1.473,1.473,0,0,1-8.875,6.27h-.908a.815.815,0,0,0-.315-.64,1.18,1.18,0,0,0-.793-.269,1.235,1.235,0,0,0-.771.215.676.676,0,0,0-.278.562.548.548,0,0,0,.259.493,3.184,3.184,0,0,0,.935.317,4.872,4.872,0,0,1,1.1.361,1.6,1.6,0,0,1,.623.505,1.243,1.243,0,0,1,.2.72A1.352,1.352,0,0,1-9.392,9.67a2.376,2.376,0,0,1-1.47.427,2.66,2.66,0,0,1-1.123-.225,1.827,1.827,0,0,1-.764-.627,1.512,1.512,0,0,1-.276-.872h.9a.935.935,0,0,0,.364.72,1.411,1.411,0,0,0,.9.266,1.457,1.457,0,0,0,.823-.208A.638.638,0,0,0-9.729,8.6Zm1.865-1.284a3.105,3.105,0,0,1,.571-1.965,1.827,1.827,0,0,1,1.514-.73A1.817,1.817,0,0,1-4.27,5.3l.044-.586H-3.4V9.873a2.149,2.149,0,0,1-.608,1.616,2.243,2.243,0,0,1-1.633.591,2.717,2.717,0,0,1-1.118-.244,1.925,1.925,0,0,1-.835-.669l.469-.542a1.766,1.766,0,0,0,1.421.718,1.384,1.384,0,0,0,1.028-.371,1.418,1.418,0,0,0,.369-1.045V9.473a1.857,1.857,0,0,1-1.479.625,1.8,1.8,0,0,1-1.5-.747A3.265,3.265,0,0,1-7.864,7.314Zm.908.1a2.369,2.369,0,0,0,.366,1.4,1.19,1.19,0,0,0,1.025.51,1.323,1.323,0,0,0,1.255-.776V6.143a1.339,1.339,0,0,0-1.245-.757,1.2,1.2,0,0,0-1.03.513A2.58,2.58,0,0,0-6.956,7.417Zm4.678-.107a3.121,3.121,0,0,1,.305-1.4,2.277,2.277,0,0,1,.85-.957A2.313,2.313,0,0,1,.12,4.619a2.228,2.228,0,0,1,1.746.747,2.874,2.874,0,0,1,.667,1.987v.063a3.148,3.148,0,0,1-.3,1.384,2.243,2.243,0,0,1-.845.955A2.339,2.339,0,0,1,.129,10.1a2.222,2.222,0,0,1-1.741-.747,2.86,2.86,0,0,1-.667-1.978Zm.908.107A2.26,2.26,0,0,0-.962,8.828,1.3,1.3,0,0,0,.129,9.36a1.3,1.3,0,0,0,1.094-.54A2.472,2.472,0,0,0,1.628,7.31,2.256,2.256,0,0,0,1.216,5.9a1.312,1.312,0,0,0-1.1-.54,1.3,1.3,0,0,0-1.079.532A2.453,2.453,0,0,0-1.37,7.417Zm11.982,0a3.141,3.141,0,0,1-.557,1.946,1.779,1.779,0,0,1-1.494.735A1.842,1.842,0,0,1,7.014,9.39L6.97,10H6.14V2.5h.9V5.3a1.831,1.831,0,0,1,1.509-.679,1.789,1.789,0,0,1,1.511.728,3.236,3.236,0,0,1,.549,1.992Zm-.9-.1a2.441,2.441,0,0,0-.356-1.426,1.18,1.18,0,0,0-1.025-.5,1.326,1.326,0,0,0-1.284.83V8.5a1.363,1.363,0,0,0,1.294.83,1.173,1.173,0,0,0,1.011-.5A2.6,2.6,0,0,0,9.709,7.314ZM15.012,10a1.9,1.9,0,0,1-.127-.557,2.015,2.015,0,0,1-1.5.654A1.865,1.865,0,0,1,12.1,9.656a1.43,1.43,0,0,1-.5-1.121,1.494,1.494,0,0,1,.627-1.282A2.958,2.958,0,0,1,13.992,6.8h.879V6.382a1.015,1.015,0,0,0-.283-.754,1.138,1.138,0,0,0-.835-.281,1.317,1.317,0,0,0-.811.244.719.719,0,0,0-.327.591h-.908a1.247,1.247,0,0,1,.281-.764,1.916,1.916,0,0,1,.762-.583,2.563,2.563,0,0,1,1.057-.215,2.089,2.089,0,0,1,1.431.457,1.647,1.647,0,0,1,.537,1.257V8.765a2.973,2.973,0,0,0,.186,1.157V10Zm-1.5-.688a1.588,1.588,0,0,0,.806-.22,1.329,1.329,0,0,0,.552-.571V7.437h-.708q-1.66,0-1.66.972a.822.822,0,0,0,.283.664A1.089,1.089,0,0,0,13.513,9.312Zm4.609-4.595V10.61q0,1.523-1.382,1.523a1.685,1.685,0,0,1-.552-.087v-.718a1.746,1.746,0,0,0,.41.039.614.614,0,0,0,.461-.164.81.81,0,0,0,.159-.569V4.717Zm-1-1.4a.542.542,0,0,1,.134-.369.494.494,0,0,1,.393-.154.512.512,0,0,1,.4.151.534.534,0,0,1,.137.371.516.516,0,0,1-.137.366.521.521,0,0,1-.4.146.505.505,0,0,1-.4-.146A.527.527,0,0,1,17.126,3.315ZM19.338,7.31a3.121,3.121,0,0,1,.305-1.4,2.277,2.277,0,0,1,.85-.957,2.313,2.313,0,0,1,1.243-.337,2.228,2.228,0,0,1,1.746.747,2.874,2.874,0,0,1,.667,1.987v.063a3.148,3.148,0,0,1-.3,1.384,2.243,2.243,0,0,1-.845.955,2.339,2.339,0,0,1-1.262.342A2.222,2.222,0,0,1,20,9.351a2.86,2.86,0,0,1-.667-1.978Zm.908.107a2.26,2.26,0,0,0,.408,1.411,1.382,1.382,0,0,0,2.185-.007,2.472,2.472,0,0,0,.405-1.511A2.256,2.256,0,0,0,22.832,5.9a1.312,1.312,0,0,0-1.1-.54,1.3,1.3,0,0,0-1.079.532A2.453,2.453,0,0,0,20.247,7.417Z" transform="translate(-6659 3350)" fill="#12263f"/>
  </g>
</svg>
