<svg xmlns="http://www.w3.org/2000/svg" width="400" height="378" viewBox="0 0 400 378">
  <g id="Group_1075349" data-name="Group 1075349" transform="translate(6948 519)">
    <path id="Path_614911" data-name="Path 614911" d="M0,0H400V378H0Z" transform="translate(-6948 -519)" fill="#fff"/>
    <path id="Path_614912" data-name="Path 614912" d="M0,101.7,348.092,0" transform="translate(-6917.254 -421.246)" fill="none" stroke="#000" stroke-width="5"/>
    <path id="Path_614684" data-name="Path 614684" d="M492,461.258v49.871h64.283V442.707Z" transform="translate(-7346.496 -792.884)" fill="#fbe83b"/>
    <path id="Path_614685" data-name="Path 614685" d="M1170,264.951v99.585h65.045V246.18Z" transform="translate(-7852.229 -646.291)" fill="#fbe83b"/>
    <path id="Path_614686" data-name="Path 614686" d="M245,533.83v31.76h62.758V515.719Z" transform="translate(-7162.254 -847.345)" fill="#c1272d"/>
    <path id="Path_614687" data-name="Path 614687" d="M745,351.221v68.422H852.985V320.058Z" transform="translate(-7535.213 -701.398)" fill="#39b54a"/>
    <path id="Path_614688" data-name="Path 614688" d="M1479.865,185,1426,200.545V318.9h53.865Z" transform="translate(-8043.184 -600.656)" fill="#c1272d"/>
    <path id="Path_614913" data-name="Path 614913" d="M0,0H11.888" transform="translate(-6839.388 -249.5)" fill="none" stroke="#39b54a" stroke-width="5"/>
    <path id="Path_614914" data-name="Path 614914" d="M0,0H69.872" transform="translate(-6660.5 -217.5)" fill="none" stroke="#fbe83b" stroke-width="5"/>
    <path id="Path_614915" data-name="Path 614915" d="M0,0H99.468" transform="translate(-6660.5 -185.5)" fill="none" stroke="#c1272d" stroke-width="5"/>
    <path id="Path_614916" data-name="Path 614916" d="M69.872,0H0" transform="translate(-6897.373 -217.5)" fill="none" stroke="#fbe83b" stroke-width="5"/>
    <path id="Path_614917" data-name="Path 614917" d="M97.631,0H0" transform="translate(-6925.131 -185.5)" fill="none" stroke="#c1272d" stroke-width="5"/>
    <path id="Path_614918" data-name="Path 614918" d="M-14.273,0V-11.375h3.719a4.317,4.317,0,0,1,2.785.766,2.759,2.759,0,0,1,.934,2.266,2.31,2.31,0,0,1-.453,1.41,2.937,2.937,0,0,1-1.234.949A2.638,2.638,0,0,1-7.066-5a2.814,2.814,0,0,1,.535,1.723A3.042,3.042,0,0,1-7.523-.875a4.1,4.1,0,0,1-2.8.875Zm1.5-5.32v4.094H-10.3A2.385,2.385,0,0,0-8.645-1.77a1.907,1.907,0,0,0,.605-1.5q0-2.055-2.234-2.055Zm0-1.2h2.266a2.375,2.375,0,0,0,1.574-.493,1.654,1.654,0,0,0,.59-1.339,1.626,1.626,0,0,0-.547-1.366,2.686,2.686,0,0,0-1.664-.427h-2.219ZM.68,0a3.036,3.036,0,0,1-.2-.891A3.225,3.225,0,0,1-1.93.156,2.984,2.984,0,0,1-3.98-.551a2.287,2.287,0,0,1-.8-1.793,2.39,2.39,0,0,1,1-2.051,4.733,4.733,0,0,1,2.824-.73H.453v-.664A1.623,1.623,0,0,0,0-7a1.821,1.821,0,0,0-1.336-.449,2.107,2.107,0,0,0-1.3.391,1.151,1.151,0,0,0-.523.945H-4.609A2,2,0,0,1-4.16-7.332a3.066,3.066,0,0,1,1.219-.934A4.1,4.1,0,0,1-1.25-8.609a3.342,3.342,0,0,1,2.289.73A2.635,2.635,0,0,1,1.9-5.867v3.891A4.757,4.757,0,0,0,2.2-.125V0Zm-2.4-1.1A2.54,2.54,0,0,0-.43-1.453a2.127,2.127,0,0,0,.883-.914V-4.1H-.68q-2.656,0-2.656,1.555a1.316,1.316,0,0,0,.453,1.063A1.742,1.742,0,0,0-1.719-1.1ZM5.656-8.453V.977q0,2.437-2.211,2.438a2.7,2.7,0,0,1-.883-.14V2.125a2.794,2.794,0,0,0,.656.063.982.982,0,0,0,.738-.262,1.3,1.3,0,0,0,.254-.911V-8.453ZM4.063-10.7a.867.867,0,0,1,.215-.59.79.79,0,0,1,.629-.246.819.819,0,0,1,.641.242.854.854,0,0,1,.219.594.826.826,0,0,1-.219.586.834.834,0,0,1-.641.234.808.808,0,0,1-.633-.234A.843.843,0,0,1,4.063-10.7ZM13.2,0A3.036,3.036,0,0,1,13-.891,3.225,3.225,0,0,1,10.594.156,2.984,2.984,0,0,1,8.543-.551a2.287,2.287,0,0,1-.8-1.793,2.39,2.39,0,0,1,1-2.051,4.733,4.733,0,0,1,2.824-.73h1.406v-.664A1.623,1.623,0,0,0,12.523-7a1.821,1.821,0,0,0-1.336-.449,2.107,2.107,0,0,0-1.3.391,1.151,1.151,0,0,0-.523.945H7.914a2,2,0,0,1,.449-1.223,3.066,3.066,0,0,1,1.219-.934,4.1,4.1,0,0,1,1.691-.344,3.342,3.342,0,0,1,2.289.73,2.635,2.635,0,0,1,.859,2.012v3.891a4.757,4.757,0,0,0,.3,1.852V0ZM10.8-1.1a2.54,2.54,0,0,0,1.289-.352,2.127,2.127,0,0,0,.883-.914V-4.1H11.844q-2.656,0-2.656,1.555a1.316,1.316,0,0,0,.453,1.063A1.742,1.742,0,0,0,10.8-1.1Z" transform="translate(-6904 -478)" fill="#12263f"/>
    <path id="Path_614919" data-name="Path 614919" d="M-30.984-5.258h-4.93v4.031h5.727V0h-7.227V-11.375h7.148v1.227h-5.648v3.664h4.93Zm5.273-.109,1.875-3.086h1.688l-2.766,4.18L-22.062,0h-1.672l-1.953-3.164L-27.641,0h-1.68l2.852-4.273-2.766-4.18h1.672Zm12.234,1.234a5.062,5.062,0,0,1-.883,3.109A2.829,2.829,0,0,1-16.75.156,3.1,3.1,0,0,1-19.172-.82V3.25h-1.445v-11.7h1.32l.07.938a2.977,2.977,0,0,1,2.453-1.094,2.882,2.882,0,0,1,2.41,1.148,5.117,5.117,0,0,1,.887,3.2ZM-14.922-4.3a3.735,3.735,0,0,0-.609-2.258A1.963,1.963,0,0,0-17.2-7.383a2.125,2.125,0,0,0-1.969,1.164V-2.18a2.129,2.129,0,0,0,1.984,1.156,1.954,1.954,0,0,0,1.652-.824A4.077,4.077,0,0,0-14.922-4.3Zm2.9-.008a4.993,4.993,0,0,1,.488-2.234A3.643,3.643,0,0,1-10.176-8.07a3.7,3.7,0,0,1,1.988-.539,3.565,3.565,0,0,1,2.793,1.2,4.6,4.6,0,0,1,1.066,3.18v.1A5.036,5.036,0,0,1-4.8-1.918,3.589,3.589,0,0,1-6.152-.391a3.743,3.743,0,0,1-2.02.547,3.556,3.556,0,0,1-2.785-1.2A4.575,4.575,0,0,1-12.023-4.2Zm1.453.172a3.616,3.616,0,0,0,.652,2.258,2.088,2.088,0,0,0,1.746.852,2.075,2.075,0,0,0,1.75-.863A3.955,3.955,0,0,0-5.773-4.3a3.61,3.61,0,0,0-.66-2.254,2.1,2.1,0,0,0-1.754-.863,2.075,2.075,0,0,0-1.727.852A3.925,3.925,0,0,0-10.57-4.133ZM2.406-2.242a1.064,1.064,0,0,0-.441-.91A4.249,4.249,0,0,0,.426-3.711a7.277,7.277,0,0,1-1.742-.562,2.479,2.479,0,0,1-.953-.781,1.869,1.869,0,0,1-.309-1.078A2.193,2.193,0,0,1-1.7-7.891,3.432,3.432,0,0,1,.547-8.609a3.532,3.532,0,0,1,2.332.742,2.357,2.357,0,0,1,.895,1.9H2.32a1.3,1.3,0,0,0-.5-1.023,1.888,1.888,0,0,0-1.27-.43,1.976,1.976,0,0,0-1.234.344,1.082,1.082,0,0,0-.445.9.877.877,0,0,0,.414.789,5.1,5.1,0,0,0,1.5.508A7.8,7.8,0,0,1,2.531-4.3a2.558,2.558,0,0,1,1,.809,1.988,1.988,0,0,1,.324,1.152A2.163,2.163,0,0,1,2.945-.527,3.8,3.8,0,0,1,.594.156,4.257,4.257,0,0,1-1.2-.2a2.922,2.922,0,0,1-1.223-1A2.42,2.42,0,0,1-2.867-2.6h1.445A1.5,1.5,0,0,0-.84-1.449a2.258,2.258,0,0,0,1.434.426A2.331,2.331,0,0,0,1.91-1.355,1.02,1.02,0,0,0,2.406-2.242ZM7.3,0H5.859V-8.453H7.3ZM5.742-10.7a.863.863,0,0,1,.215-.594.807.807,0,0,1,.637-.242.819.819,0,0,1,.641.242.854.854,0,0,1,.219.594.826.826,0,0,1-.219.586.834.834,0,0,1-.641.234.821.821,0,0,1-.637-.234A.834.834,0,0,1,5.742-10.7Zm7.266,9.672a2.082,2.082,0,0,0,1.352-.469A1.649,1.649,0,0,0,15-2.664h1.367a2.621,2.621,0,0,1-.5,1.383,3.293,3.293,0,0,1-1.23,1.047,3.55,3.55,0,0,1-1.629.391A3.482,3.482,0,0,1,10.262-1a4.59,4.59,0,0,1-1.02-3.152v-.242a5.089,5.089,0,0,1,.453-2.2A3.451,3.451,0,0,1,11-8.078a3.7,3.7,0,0,1,2-.531,3.39,3.39,0,0,1,2.363.852,3.043,3.043,0,0,1,1,2.211H15a1.992,1.992,0,0,0-.621-1.348A1.932,1.932,0,0,0,13-7.422a2.023,2.023,0,0,0-1.707.793,3.724,3.724,0,0,0-.605,2.293v.273a3.65,3.65,0,0,0,.6,2.25A2.033,2.033,0,0,0,13.008-1.023ZM19.563,0H18.117V-8.453h1.445ZM18-10.7a.863.863,0,0,1,.215-.594.807.807,0,0,1,.637-.242.819.819,0,0,1,.641.242.854.854,0,0,1,.219.594.826.826,0,0,1-.219.586.834.834,0,0,1-.641.234.821.821,0,0,1-.637-.234A.834.834,0,0,1,18-10.7ZM21.492-4.3a4.993,4.993,0,0,1,.488-2.234A3.643,3.643,0,0,1,23.34-8.07a3.7,3.7,0,0,1,1.988-.539,3.565,3.565,0,0,1,2.793,1.2,4.6,4.6,0,0,1,1.066,3.18v.1a5.036,5.036,0,0,1-.473,2.215A3.589,3.589,0,0,1,27.363-.391a3.743,3.743,0,0,1-2.02.547,3.556,3.556,0,0,1-2.785-1.2A4.575,4.575,0,0,1,21.492-4.2Zm1.453.172A3.616,3.616,0,0,0,23.6-1.875a2.088,2.088,0,0,0,1.746.852,2.075,2.075,0,0,0,1.75-.863A3.955,3.955,0,0,0,27.742-4.3a3.61,3.61,0,0,0-.66-2.254,2.1,2.1,0,0,0-1.754-.863A2.075,2.075,0,0,0,23.6-6.57,3.925,3.925,0,0,0,22.945-4.133ZM25.984-12h1.75L25.641-9.7l-1.164,0Zm6.383,3.547.047,1.063a3.08,3.08,0,0,1,2.531-1.219q2.68,0,2.7,3.023V0H36.2V-5.594a1.946,1.946,0,0,0-.418-1.352,1.675,1.675,0,0,0-1.277-.437,2.086,2.086,0,0,0-1.234.375,2.546,2.546,0,0,0-.828.984V0H31V-8.453Z" transform="translate(-6743 -478)" fill="#12263f"/>
    <path id="Path_614920" data-name="Path 614920" d="M-52.77-2.977h-4.766L-58.605,0h-1.547l4.344-11.375H-54.5L-50.145,0h-1.539ZM-57.082-4.2h3.867l-1.937-5.32Zm15.383.07a5.062,5.062,0,0,1-.883,3.109A2.829,2.829,0,0,1-44.973.156,3.1,3.1,0,0,1-47.395-.82V3.25H-48.84v-11.7h1.32l.07.938A2.977,2.977,0,0,1-45-8.609a2.882,2.882,0,0,1,2.41,1.148,5.117,5.117,0,0,1,.887,3.2ZM-43.145-4.3a3.735,3.735,0,0,0-.609-2.258,1.963,1.963,0,0,0-1.672-.828,2.125,2.125,0,0,0-1.969,1.164V-2.18A2.129,2.129,0,0,0-45.41-1.023a1.954,1.954,0,0,0,1.652-.824A4.077,4.077,0,0,0-43.145-4.3ZM-36.355.156a3.693,3.693,0,0,1-2.8-1.129,4.19,4.19,0,0,1-1.078-3.02v-.266A5.073,5.073,0,0,1-39.75-6.5a3.748,3.748,0,0,1,1.344-1.547,3.378,3.378,0,0,1,1.871-.559,3.166,3.166,0,0,1,2.563,1.086,4.7,4.7,0,0,1,.914,3.109v.6h-5.727a3,3,0,0,0,.73,2.02,2.3,2.3,0,0,0,1.777.77,2.517,2.517,0,0,0,1.3-.312,3.259,3.259,0,0,0,.93-.828l.883.688A3.55,3.55,0,0,1-36.355.156Zm-.18-7.578A1.928,1.928,0,0,0-38-6.785,3.1,3.1,0,0,0-38.738-5H-34.5v-.109A2.753,2.753,0,0,0-35.1-6.816,1.815,1.815,0,0,0-36.535-7.422Zm7.109-3.078v2.047h1.578v1.117h-1.578v5.249a1.173,1.173,0,0,0,.211.763.888.888,0,0,0,.719.254,3.5,3.5,0,0,0,.688-.094V0a4.215,4.215,0,0,1-1.109.155A1.8,1.8,0,0,1-30.379-.43a2.517,2.517,0,0,1-.492-1.664V-7.336H-32.41V-8.453h1.539V-10.5ZM-24.59,0h-1.445V-8.453h1.445Zm-1.562-10.7a.863.863,0,0,1,.215-.594.807.807,0,0,1,.637-.242.819.819,0,0,1,.641.242.854.854,0,0,1,.219.594.826.826,0,0,1-.219.586.834.834,0,0,1-.641.234.821.821,0,0,1-.637-.234A.834.834,0,0,1-26.152-10.7Zm5.836.2v2.047h1.578v1.117h-1.578v5.249a1.173,1.173,0,0,0,.211.763.888.888,0,0,0,.719.254,3.5,3.5,0,0,0,.688-.094V0a4.215,4.215,0,0,1-1.109.155A1.8,1.8,0,0,1-21.27-.43a2.517,2.517,0,0,1-.492-1.664V-7.336H-23.3V-8.453h1.539V-10.5Zm2.727,6.2A4.993,4.993,0,0,1-17.1-6.539,3.643,3.643,0,0,1-15.742-8.07a3.7,3.7,0,0,1,1.988-.539,3.565,3.565,0,0,1,2.793,1.2,4.6,4.6,0,0,1,1.066,3.18v.1a5.036,5.036,0,0,1-.473,2.215A3.589,3.589,0,0,1-11.719-.391a3.743,3.743,0,0,1-2.02.547,3.556,3.556,0,0,1-2.785-1.2A4.575,4.575,0,0,1-17.59-4.2Zm1.453.172a3.616,3.616,0,0,0,.652,2.258,2.088,2.088,0,0,0,1.746.852,2.075,2.075,0,0,0,1.75-.863A3.955,3.955,0,0,0-11.34-4.3,3.61,3.61,0,0,0-12-6.559a2.1,2.1,0,0,0-1.754-.863,2.075,2.075,0,0,0-1.727.852A3.925,3.925,0,0,0-16.137-4.133ZM-4.473-4.3a4.952,4.952,0,0,1,.922-3.129A2.915,2.915,0,0,1-1.137-8.609,2.932,2.932,0,0,1,1.215-7.594V-12H2.66V0H1.332l-.07-.906A2.943,2.943,0,0,1-1.152.156a2.887,2.887,0,0,1-2.395-1.2,5.008,5.008,0,0,1-.926-3.141Zm1.445.164a3.749,3.749,0,0,0,.594,2.25A1.92,1.92,0,0,0-.793-1.07,2.108,2.108,0,0,0,1.215-2.3V-6.187a2.125,2.125,0,0,0-1.992-1.2,1.929,1.929,0,0,0-1.656.82A4.128,4.128,0,0,0-3.027-4.133ZM8.41.156a3.693,3.693,0,0,1-2.8-1.129,4.19,4.19,0,0,1-1.078-3.02v-.266A5.073,5.073,0,0,1,5.016-6.5,3.748,3.748,0,0,1,6.359-8.051,3.378,3.378,0,0,1,8.23-8.609a3.166,3.166,0,0,1,2.563,1.086,4.7,4.7,0,0,1,.914,3.109v.6H5.98a3,3,0,0,0,.73,2.02,2.3,2.3,0,0,0,1.777.77,2.517,2.517,0,0,0,1.3-.312,3.259,3.259,0,0,0,.93-.828l.883.688A3.55,3.55,0,0,1,8.41.156ZM8.23-7.422a1.928,1.928,0,0,0-1.469.637A3.1,3.1,0,0,0,6.027-5h4.234v-.109a2.753,2.753,0,0,0-.594-1.707A1.815,1.815,0,0,0,8.23-7.422Zm13.2.266a4.331,4.331,0,0,0-.711-.055A1.9,1.9,0,0,0,18.785-6V0H17.34V-8.453h1.406l.023.977a2.251,2.251,0,0,1,2.016-1.133,1.477,1.477,0,0,1,.641.109ZM24.324,0H22.879V-8.453h1.445ZM22.762-10.7a.863.863,0,0,1,.215-.594.807.807,0,0,1,.637-.242.819.819,0,0,1,.641.242.854.854,0,0,1,.219.594.826.826,0,0,1-.219.586.834.834,0,0,1-.641.234.821.821,0,0,1-.637-.234A.834.834,0,0,1,22.762-10.7ZM30.145.156a3.693,3.693,0,0,1-2.8-1.129,4.19,4.19,0,0,1-1.078-3.02v-.266A5.073,5.073,0,0,1,26.75-6.5a3.748,3.748,0,0,1,1.344-1.547,3.378,3.378,0,0,1,1.871-.559,3.166,3.166,0,0,1,2.563,1.086,4.7,4.7,0,0,1,.914,3.109v.6H27.715a3,3,0,0,0,.73,2.02,2.3,2.3,0,0,0,1.777.77,2.517,2.517,0,0,0,1.3-.312,3.259,3.259,0,0,0,.93-.828l.883.688A3.55,3.55,0,0,1,30.145.156Zm-.18-7.578a1.928,1.928,0,0,0-1.469.637A3.1,3.1,0,0,0,27.762-5H32v-.109A2.753,2.753,0,0,0,31.4-6.816,1.815,1.815,0,0,0,29.965-7.422Zm10.07,5.18a1.064,1.064,0,0,0-.441-.91,4.249,4.249,0,0,0-1.539-.559,7.277,7.277,0,0,1-1.742-.562,2.479,2.479,0,0,1-.953-.781,1.869,1.869,0,0,1-.309-1.078,2.193,2.193,0,0,1,.879-1.758,3.432,3.432,0,0,1,2.246-.719,3.532,3.532,0,0,1,2.332.742,2.357,2.357,0,0,1,.895,1.9H39.949a1.3,1.3,0,0,0-.5-1.023,1.888,1.888,0,0,0-1.27-.43,1.976,1.976,0,0,0-1.234.344,1.082,1.082,0,0,0-.445.9.877.877,0,0,0,.414.789,5.1,5.1,0,0,0,1.5.508A7.8,7.8,0,0,1,40.16-4.3a2.558,2.558,0,0,1,1,.809,1.988,1.988,0,0,1,.324,1.152,2.163,2.163,0,0,1-.906,1.816,3.8,3.8,0,0,1-2.352.684,4.257,4.257,0,0,1-1.8-.359,2.922,2.922,0,0,1-1.223-1A2.42,2.42,0,0,1,34.762-2.6h1.445a1.5,1.5,0,0,0,.582,1.152,2.258,2.258,0,0,0,1.434.426,2.331,2.331,0,0,0,1.316-.332A1.02,1.02,0,0,0,40.035-2.242ZM43.02-4.3a4.968,4.968,0,0,1,.914-3.145,2.923,2.923,0,0,1,2.422-1.168A2.908,2.908,0,0,1,48.77-7.516l.07-.937h1.32V-.2a3.439,3.439,0,0,1-.973,2.586,3.589,3.589,0,0,1-2.613.945,4.348,4.348,0,0,1-1.789-.391,3.08,3.08,0,0,1-1.336-1.07L44.2,1a2.826,2.826,0,0,0,2.273,1.148,2.214,2.214,0,0,0,1.645-.594,2.269,2.269,0,0,0,.59-1.672V-.844a2.971,2.971,0,0,1-2.367,1,2.887,2.887,0,0,1-2.4-1.2A5.224,5.224,0,0,1,43.02-4.3Zm1.453.164a3.79,3.79,0,0,0,.586,2.246A1.9,1.9,0,0,0,46.7-1.07a2.117,2.117,0,0,0,2.008-1.242V-6.172a2.142,2.142,0,0,0-1.992-1.211,1.921,1.921,0,0,0-1.648.82A4.128,4.128,0,0,0,44.473-4.133ZM51.957-4.3a4.993,4.993,0,0,1,.488-2.234A3.643,3.643,0,0,1,53.8-8.07a3.7,3.7,0,0,1,1.988-.539,3.565,3.565,0,0,1,2.793,1.2,4.6,4.6,0,0,1,1.066,3.18v.1a5.036,5.036,0,0,1-.473,2.215A3.589,3.589,0,0,1,57.828-.391a3.743,3.743,0,0,1-2.02.547,3.556,3.556,0,0,1-2.785-1.2A4.575,4.575,0,0,1,51.957-4.2Zm1.453.172a3.616,3.616,0,0,0,.652,2.258,2.088,2.088,0,0,0,1.746.852,2.075,2.075,0,0,0,1.75-.863A3.955,3.955,0,0,0,58.207-4.3a3.61,3.61,0,0,0-.66-2.254,2.1,2.1,0,0,0-1.754-.863,2.075,2.075,0,0,0-1.727.852A3.925,3.925,0,0,0,53.41-4.133Z" transform="translate(-6743 -244)" fill="#12263f"/>
    <path id="Path_614921" data-name="Path 614921" d="M-62.52-10.148h-3.656V0h-1.492V-10.148h-3.648v-1.227h8.8Zm.3,5.844a4.993,4.993,0,0,1,.488-2.234A3.643,3.643,0,0,1-60.367-8.07a3.7,3.7,0,0,1,1.988-.539,3.565,3.565,0,0,1,2.793,1.2,4.6,4.6,0,0,1,1.066,3.18v.1a5.036,5.036,0,0,1-.473,2.215A3.589,3.589,0,0,1-56.344-.391a3.743,3.743,0,0,1-2.02.547,3.556,3.556,0,0,1-2.785-1.2A4.575,4.575,0,0,1-62.215-4.2Zm1.453.172a3.616,3.616,0,0,0,.652,2.258,2.088,2.088,0,0,0,1.746.852,2.075,2.075,0,0,0,1.75-.863A3.955,3.955,0,0,0-55.965-4.3a3.61,3.61,0,0,0-.66-2.254,2.1,2.1,0,0,0-1.754-.863,2.075,2.075,0,0,0-1.727.852A3.925,3.925,0,0,0-60.762-4.133ZM-51.137,0h-1.445V-12h1.445Zm5.82.156a3.693,3.693,0,0,1-2.8-1.129,4.19,4.19,0,0,1-1.078-3.02v-.266a5.073,5.073,0,0,1,.48-2.246,3.748,3.748,0,0,1,1.344-1.547A3.378,3.378,0,0,1-45.5-8.609a3.166,3.166,0,0,1,2.563,1.086,4.7,4.7,0,0,1,.914,3.109v.6h-5.727a3,3,0,0,0,.73,2.02,2.3,2.3,0,0,0,1.777.77,2.517,2.517,0,0,0,1.3-.312,3.259,3.259,0,0,0,.93-.828l.883.688A3.55,3.55,0,0,1-45.316.156Zm-.18-7.578a1.928,1.928,0,0,0-1.469.637A3.1,3.1,0,0,0-47.7-5h4.234v-.109a2.753,2.753,0,0,0-.594-1.707A1.815,1.815,0,0,0-45.5-7.422Zm9.234.266a4.331,4.331,0,0,0-.711-.055A1.9,1.9,0,0,0-38.9-6V0h-1.445V-8.453h1.406l.023.977A2.251,2.251,0,0,1-36.9-8.609a1.477,1.477,0,0,1,.641.109ZM-30.027,0a3.036,3.036,0,0,1-.2-.891A3.225,3.225,0,0,1-32.637.156a2.984,2.984,0,0,1-2.051-.707,2.287,2.287,0,0,1-.8-1.793,2.39,2.39,0,0,1,1-2.051,4.733,4.733,0,0,1,2.824-.73h1.406v-.664A1.623,1.623,0,0,0-30.707-7a1.821,1.821,0,0,0-1.336-.449,2.107,2.107,0,0,0-1.3.391,1.151,1.151,0,0,0-.523.945h-1.453a2,2,0,0,1,.449-1.223,3.066,3.066,0,0,1,1.219-.934,4.1,4.1,0,0,1,1.691-.344,3.342,3.342,0,0,1,2.289.73,2.635,2.635,0,0,1,.859,2.012v3.891a4.757,4.757,0,0,0,.3,1.852V0Zm-2.4-1.1a2.54,2.54,0,0,0,1.289-.352,2.127,2.127,0,0,0,.883-.914V-4.1h-1.133q-2.656,0-2.656,1.555a1.316,1.316,0,0,0,.453,1.063A1.742,1.742,0,0,0-32.426-1.1Zm7.25-7.352.047,1.063A3.08,3.08,0,0,1-22.6-8.609q2.68,0,2.7,3.023V0H-21.34V-5.594a1.946,1.946,0,0,0-.418-1.352,1.675,1.675,0,0,0-1.277-.437,2.086,2.086,0,0,0-1.234.375,2.546,2.546,0,0,0-.828.984V0h-1.445V-8.453Zm10.852,7.43a2.082,2.082,0,0,0,1.352-.469,1.649,1.649,0,0,0,.641-1.172h1.367a2.621,2.621,0,0,1-.5,1.383A3.293,3.293,0,0,1-12.7-.234a3.55,3.55,0,0,1-1.629.391A3.482,3.482,0,0,1-17.07-1a4.59,4.59,0,0,1-1.02-3.152v-.242a5.089,5.089,0,0,1,.453-2.2,3.451,3.451,0,0,1,1.3-1.492,3.7,3.7,0,0,1,2-.531,3.39,3.39,0,0,1,2.363.852,3.043,3.043,0,0,1,1,2.211h-1.367a1.992,1.992,0,0,0-.621-1.348,1.932,1.932,0,0,0-1.379-.527,2.023,2.023,0,0,0-1.707.793,3.724,3.724,0,0,0-.605,2.293v.273a3.65,3.65,0,0,0,.6,2.25A2.033,2.033,0,0,0-14.324-1.023ZM-7.77,0H-9.215V-8.453H-7.77ZM-9.332-10.7a.863.863,0,0,1,.215-.594.807.807,0,0,1,.637-.242.819.819,0,0,1,.641.242.854.854,0,0,1,.219.594.826.826,0,0,1-.219.586.834.834,0,0,1-.641.234.821.821,0,0,1-.637-.234A.834.834,0,0,1-9.332-10.7ZM-.238,0a3.036,3.036,0,0,1-.2-.891A3.225,3.225,0,0,1-2.848.156,2.984,2.984,0,0,1-4.9-.551a2.287,2.287,0,0,1-.8-1.793,2.39,2.39,0,0,1,1-2.051,4.733,4.733,0,0,1,2.824-.73H-.465v-.664A1.623,1.623,0,0,0-.918-7a1.821,1.821,0,0,0-1.336-.449,2.107,2.107,0,0,0-1.3.391,1.151,1.151,0,0,0-.523.945H-5.527a2,2,0,0,1,.449-1.223,3.066,3.066,0,0,1,1.219-.934,4.1,4.1,0,0,1,1.691-.344,3.342,3.342,0,0,1,2.289.73A2.635,2.635,0,0,1,.98-5.867v3.891a4.757,4.757,0,0,0,.3,1.852V0Zm-2.4-1.1a2.54,2.54,0,0,0,1.289-.352,2.127,2.127,0,0,0,.883-.914V-4.1H-1.6q-2.656,0-2.656,1.555A1.316,1.316,0,0,0-3.8-1.484,1.742,1.742,0,0,0-2.637-1.1ZM6.855-4.3a4.952,4.952,0,0,1,.922-3.129,2.915,2.915,0,0,1,2.414-1.184,2.932,2.932,0,0,1,2.352,1.016V-12h1.445V0H12.66l-.07-.906A2.943,2.943,0,0,1,10.176.156a2.887,2.887,0,0,1-2.395-1.2,5.008,5.008,0,0,1-.926-3.141ZM8.3-4.133a3.749,3.749,0,0,0,.594,2.25,1.92,1.92,0,0,0,1.641.813A2.108,2.108,0,0,0,12.543-2.3V-6.187a2.125,2.125,0,0,0-1.992-1.2,1.929,1.929,0,0,0-1.656.82A4.128,4.128,0,0,0,8.3-4.133ZM19.738.156a3.693,3.693,0,0,1-2.8-1.129,4.19,4.19,0,0,1-1.078-3.02v-.266a5.073,5.073,0,0,1,.48-2.246,3.748,3.748,0,0,1,1.344-1.547,3.378,3.378,0,0,1,1.871-.559,3.166,3.166,0,0,1,2.563,1.086,4.7,4.7,0,0,1,.914,3.109v.6H17.309a3,3,0,0,0,.73,2.02,2.3,2.3,0,0,0,1.777.77,2.517,2.517,0,0,0,1.3-.312,3.259,3.259,0,0,0,.93-.828l.883.688A3.55,3.55,0,0,1,19.738.156Zm-.18-7.578a1.928,1.928,0,0,0-1.469.637A3.1,3.1,0,0,0,17.355-5H21.59v-.109A2.753,2.753,0,0,0,21-6.816,1.815,1.815,0,0,0,19.559-7.422Zm13.2.266a4.331,4.331,0,0,0-.711-.055A1.9,1.9,0,0,0,30.113-6V0H28.668V-8.453h1.406l.023.977a2.251,2.251,0,0,1,2.016-1.133,1.477,1.477,0,0,1,.641.109ZM35.652,0H34.207V-8.453h1.445ZM34.09-10.7a.863.863,0,0,1,.215-.594.807.807,0,0,1,.637-.242.819.819,0,0,1,.641.242.854.854,0,0,1,.219.594.826.826,0,0,1-.219.586.834.834,0,0,1-.641.234.821.821,0,0,1-.637-.234A.834.834,0,0,1,34.09-10.7ZM41.473.156a3.693,3.693,0,0,1-2.8-1.129A4.19,4.19,0,0,1,37.6-3.992v-.266a5.073,5.073,0,0,1,.48-2.246,3.748,3.748,0,0,1,1.344-1.547,3.378,3.378,0,0,1,1.871-.559,3.166,3.166,0,0,1,2.563,1.086,4.7,4.7,0,0,1,.914,3.109v.6H39.043a3,3,0,0,0,.73,2.02,2.3,2.3,0,0,0,1.777.77,2.517,2.517,0,0,0,1.3-.312,3.259,3.259,0,0,0,.93-.828l.883.688A3.55,3.55,0,0,1,41.473.156Zm-.18-7.578a1.928,1.928,0,0,0-1.469.637A3.1,3.1,0,0,0,39.09-5h4.234v-.109a2.753,2.753,0,0,0-.594-1.707A1.815,1.815,0,0,0,41.293-7.422Zm10.07,5.18a1.064,1.064,0,0,0-.441-.91,4.249,4.249,0,0,0-1.539-.559,7.277,7.277,0,0,1-1.742-.562,2.479,2.479,0,0,1-.953-.781,1.869,1.869,0,0,1-.309-1.078,2.193,2.193,0,0,1,.879-1.758A3.432,3.432,0,0,1,49.5-8.609a3.532,3.532,0,0,1,2.332.742,2.357,2.357,0,0,1,.895,1.9H51.277a1.3,1.3,0,0,0-.5-1.023,1.888,1.888,0,0,0-1.27-.43,1.976,1.976,0,0,0-1.234.344,1.082,1.082,0,0,0-.445.9.877.877,0,0,0,.414.789,5.1,5.1,0,0,0,1.5.508,7.8,7.8,0,0,1,1.754.578,2.558,2.558,0,0,1,1,.809,1.988,1.988,0,0,1,.324,1.152A2.163,2.163,0,0,1,51.9-.527a3.8,3.8,0,0,1-2.352.684,4.257,4.257,0,0,1-1.8-.359,2.922,2.922,0,0,1-1.223-1A2.42,2.42,0,0,1,46.09-2.6h1.445a1.5,1.5,0,0,0,.582,1.152,2.258,2.258,0,0,0,1.434.426,2.331,2.331,0,0,0,1.316-.332A1.02,1.02,0,0,0,51.363-2.242ZM54.348-4.3a4.968,4.968,0,0,1,.914-3.145,2.923,2.923,0,0,1,2.422-1.168A2.908,2.908,0,0,1,60.1-7.516l.07-.937h1.32V-.2a3.439,3.439,0,0,1-.973,2.586,3.589,3.589,0,0,1-2.613.945,4.348,4.348,0,0,1-1.789-.391,3.08,3.08,0,0,1-1.336-1.07L55.527,1A2.826,2.826,0,0,0,57.8,2.148a2.214,2.214,0,0,0,1.645-.594,2.269,2.269,0,0,0,.59-1.672V-.844a2.971,2.971,0,0,1-2.367,1,2.887,2.887,0,0,1-2.4-1.2A5.224,5.224,0,0,1,54.348-4.3Zm1.453.164a3.79,3.79,0,0,0,.586,2.246,1.9,1.9,0,0,0,1.641.816,2.117,2.117,0,0,0,2.008-1.242V-6.172a2.142,2.142,0,0,0-1.992-1.211,1.921,1.921,0,0,0-1.648.82A4.128,4.128,0,0,0,55.8-4.133ZM63.285-4.3a4.993,4.993,0,0,1,.488-2.234A3.643,3.643,0,0,1,65.133-8.07a3.7,3.7,0,0,1,1.988-.539,3.565,3.565,0,0,1,2.793,1.2,4.6,4.6,0,0,1,1.066,3.18v.1a5.036,5.036,0,0,1-.473,2.215A3.589,3.589,0,0,1,69.156-.391a3.743,3.743,0,0,1-2.02.547,3.556,3.556,0,0,1-2.785-1.2A4.575,4.575,0,0,1,63.285-4.2Zm1.453.172a3.616,3.616,0,0,0,.652,2.258,2.088,2.088,0,0,0,1.746.852,2.075,2.075,0,0,0,1.75-.863A3.955,3.955,0,0,0,69.535-4.3a3.61,3.61,0,0,0-.66-2.254,2.1,2.1,0,0,0-1.754-.863,2.075,2.075,0,0,0-1.727.852A3.925,3.925,0,0,0,64.738-4.133Z" transform="translate(-6743 -212)" fill="#12263f"/>
    <path id="Path_614922" data-name="Path 614922" d="M-62.988-3.609A4.185,4.185,0,0,1-64.32-.824a4.365,4.365,0,0,1-2.98.98,4.008,4.008,0,0,1-3.23-1.445,5.815,5.815,0,0,1-1.215-3.867V-6.25a6.481,6.481,0,0,1,.566-2.789,4.231,4.231,0,0,1,1.605-1.848,4.47,4.47,0,0,1,2.406-.645,4.11,4.11,0,0,1,2.906,1.012,4.235,4.235,0,0,1,1.273,2.8H-64.5a3.268,3.268,0,0,0-.848-1.975,2.565,2.565,0,0,0-1.824-.611,2.684,2.684,0,0,0-2.254,1.063,4.882,4.882,0,0,0-.816,3.026v1.1a5.018,5.018,0,0,0,.773,2.948A2.5,2.5,0,0,0-67.3-1.07a2.886,2.886,0,0,0,1.918-.566A3.143,3.143,0,0,0-64.5-3.609ZM-55.949,0a3.036,3.036,0,0,1-.2-.891A3.225,3.225,0,0,1-58.559.156a2.984,2.984,0,0,1-2.051-.707,2.287,2.287,0,0,1-.8-1.793,2.39,2.39,0,0,1,1-2.051,4.733,4.733,0,0,1,2.824-.73h1.406v-.664A1.623,1.623,0,0,0-56.629-7a1.821,1.821,0,0,0-1.336-.449,2.107,2.107,0,0,0-1.3.391,1.151,1.151,0,0,0-.523.945h-1.453a2,2,0,0,1,.449-1.223,3.066,3.066,0,0,1,1.219-.934,4.1,4.1,0,0,1,1.691-.344,3.342,3.342,0,0,1,2.289.73,2.635,2.635,0,0,1,.859,2.012v3.891a4.757,4.757,0,0,0,.3,1.852V0Zm-2.4-1.1a2.54,2.54,0,0,0,1.289-.352,2.127,2.127,0,0,0,.883-.914V-4.1h-1.133q-2.656,0-2.656,1.555a1.316,1.316,0,0,0,.453,1.063A1.742,1.742,0,0,0-58.348-1.1Zm13.023-3.031a5.062,5.062,0,0,1-.883,3.109A2.829,2.829,0,0,1-48.6.156,3.1,3.1,0,0,1-51.02-.82V3.25h-1.445v-11.7h1.32l.07.938a2.977,2.977,0,0,1,2.453-1.094,2.882,2.882,0,0,1,2.41,1.148,5.117,5.117,0,0,1,.887,3.2ZM-46.77-4.3a3.735,3.735,0,0,0-.609-2.258,1.963,1.963,0,0,0-1.672-.828A2.125,2.125,0,0,0-51.02-6.219V-2.18a2.129,2.129,0,0,0,1.984,1.156,1.954,1.954,0,0,0,1.652-.824A4.077,4.077,0,0,0-46.77-4.3Zm8.5,4.3a3.036,3.036,0,0,1-.2-.891A3.225,3.225,0,0,1-40.879.156,2.984,2.984,0,0,1-42.93-.551a2.287,2.287,0,0,1-.8-1.793,2.39,2.39,0,0,1,1-2.051,4.733,4.733,0,0,1,2.824-.73H-38.5v-.664A1.623,1.623,0,0,0-38.949-7a1.821,1.821,0,0,0-1.336-.449,2.107,2.107,0,0,0-1.3.391,1.151,1.151,0,0,0-.523.945h-1.453a2,2,0,0,1,.449-1.223,3.066,3.066,0,0,1,1.219-.934A4.1,4.1,0,0,1-40.2-8.609a3.342,3.342,0,0,1,2.289.73,2.635,2.635,0,0,1,.859,2.012v3.891a4.757,4.757,0,0,0,.3,1.852V0Zm-2.4-1.1a2.54,2.54,0,0,0,1.289-.352,2.127,2.127,0,0,0,.883-.914V-4.1h-1.133q-2.656,0-2.656,1.555a1.316,1.316,0,0,0,.453,1.063A1.742,1.742,0,0,0-40.668-1.1Zm9.273.078a2.082,2.082,0,0,0,1.352-.469A1.649,1.649,0,0,0-29.4-2.664h1.367a2.621,2.621,0,0,1-.5,1.383,3.293,3.293,0,0,1-1.23,1.047,3.55,3.55,0,0,1-1.629.391A3.482,3.482,0,0,1-34.141-1a4.59,4.59,0,0,1-1.02-3.152v-.242a5.089,5.089,0,0,1,.453-2.2,3.451,3.451,0,0,1,1.3-1.492,3.7,3.7,0,0,1,2-.531,3.39,3.39,0,0,1,2.363.852,3.043,3.043,0,0,1,1,2.211H-29.4a1.992,1.992,0,0,0-.621-1.348A1.932,1.932,0,0,0-31.4-7.422a2.023,2.023,0,0,0-1.707.793,3.724,3.724,0,0,0-.605,2.293v.273a3.65,3.65,0,0,0,.6,2.25A2.033,2.033,0,0,0-31.395-1.023ZM-24.84,0h-1.445V-8.453h1.445ZM-26.4-10.7a.863.863,0,0,1,.215-.594.807.807,0,0,1,.637-.242.819.819,0,0,1,.641.242.854.854,0,0,1,.219.594.826.826,0,0,1-.219.586.834.834,0,0,1-.641.234.821.821,0,0,1-.637-.234A.834.834,0,0,1-26.4-10.7Zm3.523,6.4a4.952,4.952,0,0,1,.922-3.129,2.915,2.915,0,0,1,2.414-1.184,2.932,2.932,0,0,1,2.352,1.016V-12h1.445V0h-1.328l-.07-.906A2.943,2.943,0,0,1-19.559.156a2.887,2.887,0,0,1-2.395-1.2,5.008,5.008,0,0,1-.926-3.141Zm1.445.164a3.749,3.749,0,0,0,.594,2.25A1.92,1.92,0,0,0-19.2-1.07,2.108,2.108,0,0,0-17.191-2.3V-6.187a2.125,2.125,0,0,0-1.992-1.2,1.929,1.929,0,0,0-1.656.82A4.128,4.128,0,0,0-21.434-4.133ZM-8.285,0a3.036,3.036,0,0,1-.2-.891A3.225,3.225,0,0,1-10.895.156a2.984,2.984,0,0,1-2.051-.707,2.287,2.287,0,0,1-.8-1.793,2.39,2.39,0,0,1,1-2.051,4.733,4.733,0,0,1,2.824-.73h1.406v-.664A1.623,1.623,0,0,0-8.965-7,1.821,1.821,0,0,0-10.3-7.445a2.107,2.107,0,0,0-1.3.391,1.151,1.151,0,0,0-.523.945h-1.453a2,2,0,0,1,.449-1.223,3.066,3.066,0,0,1,1.219-.934,4.1,4.1,0,0,1,1.691-.344,3.342,3.342,0,0,1,2.289.73,2.635,2.635,0,0,1,.859,2.012v3.891a4.757,4.757,0,0,0,.3,1.852V0Zm-2.4-1.1a2.54,2.54,0,0,0,1.289-.352,2.127,2.127,0,0,0,.883-.914V-4.1H-9.645Q-12.3-4.1-12.3-2.547a1.316,1.316,0,0,0,.453,1.063A1.742,1.742,0,0,0-10.684-1.1Zm5.531-3.2A4.952,4.952,0,0,1-4.23-7.426,2.915,2.915,0,0,1-1.816-8.609,2.932,2.932,0,0,1,.535-7.594V-12H1.98V0H.652L.582-.906A2.943,2.943,0,0,1-1.832.156a2.887,2.887,0,0,1-2.395-1.2,5.008,5.008,0,0,1-.926-3.141Zm1.445.164a3.749,3.749,0,0,0,.594,2.25,1.92,1.92,0,0,0,1.641.813A2.108,2.108,0,0,0,.535-2.3V-6.187a2.125,2.125,0,0,0-1.992-1.2,1.929,1.929,0,0,0-1.656.82A4.128,4.128,0,0,0-3.707-4.133ZM7.832-4.3a4.952,4.952,0,0,1,.922-3.129,2.915,2.915,0,0,1,2.414-1.184A2.932,2.932,0,0,1,13.52-7.594V-12h1.445V0H13.637l-.07-.906A2.943,2.943,0,0,1,11.152.156a2.887,2.887,0,0,1-2.395-1.2,5.008,5.008,0,0,1-.926-3.141Zm1.445.164a3.749,3.749,0,0,0,.594,2.25,1.92,1.92,0,0,0,1.641.813A2.108,2.108,0,0,0,13.52-2.3V-6.187a2.125,2.125,0,0,0-1.992-1.2,1.929,1.929,0,0,0-1.656.82A4.128,4.128,0,0,0,9.277-4.133ZM20.715.156a3.693,3.693,0,0,1-2.8-1.129,4.19,4.19,0,0,1-1.078-3.02v-.266A5.073,5.073,0,0,1,17.32-6.5a3.748,3.748,0,0,1,1.344-1.547,3.378,3.378,0,0,1,1.871-.559A3.166,3.166,0,0,1,23.1-7.523a4.7,4.7,0,0,1,.914,3.109v.6H18.285a3,3,0,0,0,.73,2.02,2.3,2.3,0,0,0,1.777.77,2.517,2.517,0,0,0,1.3-.312,3.259,3.259,0,0,0,.93-.828l.883.688A3.55,3.55,0,0,1,20.715.156Zm-.18-7.578a1.928,1.928,0,0,0-1.469.637A3.1,3.1,0,0,0,18.332-5h4.234v-.109a2.753,2.753,0,0,0-.594-1.707A1.815,1.815,0,0,0,20.535-7.422Zm13.2.266a4.331,4.331,0,0,0-.711-.055A1.9,1.9,0,0,0,31.09-6V0H29.645V-8.453h1.406l.023.977A2.251,2.251,0,0,1,33.09-8.609a1.477,1.477,0,0,1,.641.109ZM36.629,0H35.184V-8.453h1.445ZM35.066-10.7a.863.863,0,0,1,.215-.594.807.807,0,0,1,.637-.242.819.819,0,0,1,.641.242.854.854,0,0,1,.219.594.826.826,0,0,1-.219.586.834.834,0,0,1-.641.234.821.821,0,0,1-.637-.234A.834.834,0,0,1,35.066-10.7ZM42.449.156a3.693,3.693,0,0,1-2.8-1.129,4.19,4.19,0,0,1-1.078-3.02v-.266a5.073,5.073,0,0,1,.48-2.246A3.748,3.748,0,0,1,40.4-8.051a3.378,3.378,0,0,1,1.871-.559,3.166,3.166,0,0,1,2.563,1.086,4.7,4.7,0,0,1,.914,3.109v.6H40.02a3,3,0,0,0,.73,2.02,2.3,2.3,0,0,0,1.777.77,2.517,2.517,0,0,0,1.3-.312,3.259,3.259,0,0,0,.93-.828l.883.688A3.55,3.55,0,0,1,42.449.156Zm-.18-7.578a1.928,1.928,0,0,0-1.469.637A3.1,3.1,0,0,0,40.066-5H44.3v-.109a2.753,2.753,0,0,0-.594-1.707A1.815,1.815,0,0,0,42.27-7.422Zm10.07,5.18a1.064,1.064,0,0,0-.441-.91,4.249,4.249,0,0,0-1.539-.559,7.277,7.277,0,0,1-1.742-.562,2.479,2.479,0,0,1-.953-.781,1.869,1.869,0,0,1-.309-1.078,2.193,2.193,0,0,1,.879-1.758,3.432,3.432,0,0,1,2.246-.719,3.532,3.532,0,0,1,2.332.742,2.357,2.357,0,0,1,.895,1.9H52.254a1.3,1.3,0,0,0-.5-1.023,1.888,1.888,0,0,0-1.27-.43,1.976,1.976,0,0,0-1.234.344,1.082,1.082,0,0,0-.445.9.877.877,0,0,0,.414.789,5.1,5.1,0,0,0,1.5.508,7.8,7.8,0,0,1,1.754.578,2.558,2.558,0,0,1,1,.809,1.988,1.988,0,0,1,.324,1.152,2.163,2.163,0,0,1-.906,1.816,3.8,3.8,0,0,1-2.352.684A4.257,4.257,0,0,1,48.73-.2a2.922,2.922,0,0,1-1.223-1A2.42,2.42,0,0,1,47.066-2.6h1.445a1.5,1.5,0,0,0,.582,1.152,2.258,2.258,0,0,0,1.434.426,2.331,2.331,0,0,0,1.316-.332A1.02,1.02,0,0,0,52.34-2.242ZM55.324-4.3a4.968,4.968,0,0,1,.914-3.145A2.923,2.923,0,0,1,58.66-8.609a2.908,2.908,0,0,1,2.414,1.094l.07-.937h1.32V-.2a3.439,3.439,0,0,1-.973,2.586,3.589,3.589,0,0,1-2.613.945,4.348,4.348,0,0,1-1.789-.391,3.08,3.08,0,0,1-1.336-1.07L56.5,1a2.826,2.826,0,0,0,2.273,1.148,2.214,2.214,0,0,0,1.645-.594,2.269,2.269,0,0,0,.59-1.672V-.844a2.971,2.971,0,0,1-2.367,1,2.887,2.887,0,0,1-2.4-1.2A5.224,5.224,0,0,1,55.324-4.3Zm1.453.164a3.79,3.79,0,0,0,.586,2.246A1.9,1.9,0,0,0,59-1.07a2.117,2.117,0,0,0,2.008-1.242V-6.172A2.142,2.142,0,0,0,59.02-7.383a1.921,1.921,0,0,0-1.648.82A4.128,4.128,0,0,0,56.777-4.133ZM64.262-4.3a4.993,4.993,0,0,1,.488-2.234A3.643,3.643,0,0,1,66.109-8.07,3.7,3.7,0,0,1,68.1-8.609a3.565,3.565,0,0,1,2.793,1.2,4.6,4.6,0,0,1,1.066,3.18v.1a5.036,5.036,0,0,1-.473,2.215A3.589,3.589,0,0,1,70.133-.391a3.743,3.743,0,0,1-2.02.547,3.556,3.556,0,0,1-2.785-1.2A4.575,4.575,0,0,1,64.262-4.2Zm1.453.172a3.616,3.616,0,0,0,.652,2.258,2.088,2.088,0,0,0,1.746.852,2.075,2.075,0,0,0,1.75-.863A3.955,3.955,0,0,0,70.512-4.3a3.61,3.61,0,0,0-.66-2.254A2.1,2.1,0,0,0,68.1-7.422a2.075,2.075,0,0,0-1.727.852A3.925,3.925,0,0,0,65.715-4.133Z" transform="translate(-6743 -180)" fill="#12263f"/>
    <path id="Path_614923" data-name="Path 614923" d="M-6.523-2.977h-4.766L-12.359,0h-1.547l4.344-11.375H-8.25L-3.9,0H-5.437ZM-10.836-4.2h3.867l-1.937-5.32ZM-1.023,0H-2.469V-12h1.445ZM3.25-10.5v2.047H4.828v1.117H3.25v5.249a1.173,1.173,0,0,0,.211.763.888.888,0,0,0,.719.254,3.5,3.5,0,0,0,.688-.094V0A4.215,4.215,0,0,1,3.758.156,1.8,1.8,0,0,1,2.3-.43,2.517,2.517,0,0,1,1.8-2.094V-7.336H.266V-8.453H1.8V-10.5ZM11.734,0a3.036,3.036,0,0,1-.2-.891A3.225,3.225,0,0,1,9.125.156,2.984,2.984,0,0,1,7.074-.551a2.287,2.287,0,0,1-.8-1.793,2.39,2.39,0,0,1,1-2.051,4.733,4.733,0,0,1,2.824-.73h1.406v-.664A1.623,1.623,0,0,0,11.055-7a1.821,1.821,0,0,0-1.336-.449,2.107,2.107,0,0,0-1.3.391,1.151,1.151,0,0,0-.523.945H6.445a2,2,0,0,1,.449-1.223,3.066,3.066,0,0,1,1.219-.934A4.1,4.1,0,0,1,9.8-8.609a3.342,3.342,0,0,1,2.289.73,2.635,2.635,0,0,1,.859,2.012v3.891a4.757,4.757,0,0,0,.3,1.852V0Zm-2.4-1.1a2.54,2.54,0,0,0,1.289-.352,2.127,2.127,0,0,0,.883-.914V-4.1H10.375q-2.656,0-2.656,1.555a1.316,1.316,0,0,0,.453,1.063A1.742,1.742,0,0,0,9.336-1.1Z" transform="translate(-6596 -478)" fill="#12263f"/>
    <path id="Path_614735" data-name="Path 614735" d="M-6808.365-465.043V-601.518" transform="translate(-88 140)" fill="none" stroke="#000" stroke-linecap="round" stroke-width="2"/>
    <path id="Path_614738" data-name="Path 614738" d="M-6808.365-548.04v-53.478" transform="translate(194.66 140)" fill="none" stroke="#000" stroke-linecap="round" stroke-width="2"/>
    <path id="Path_614740" data-name="Path 614740" d="M-6808.365-512.959v-88.559" transform="translate(68.928 140)" fill="none" stroke="#000" stroke-linecap="round" stroke-width="2"/>
    <path id="Path_614736" data-name="Path 614736" d="M-6811.928-596.245l3.723-5.5,3.545,5.5" transform="translate(-88 140)" fill="none" stroke="#000" stroke-linecap="round" stroke-width="2"/>
    <path id="Path_614737" data-name="Path 614737" d="M-6811.928-596.245l3.723-5.5,3.545,5.5" transform="translate(194.66 140)" fill="none" stroke="#000" stroke-linecap="round" stroke-width="2"/>
    <path id="Path_614739" data-name="Path 614739" d="M-6811.928-596.245l3.723-5.5,3.545,5.5" transform="translate(68.928 140)" fill="none" stroke="#000" stroke-linecap="round" stroke-width="2"/>
    <path id="Path_614924" data-name="Path 614924" d="M0,0H11.888" transform="translate(-6658.5 -249.5)" fill="none" stroke="#39b54a" stroke-width="5"/>
  </g>
</svg>
