<svg xmlns="http://www.w3.org/2000/svg" xmlns:xlink="http://www.w3.org/1999/xlink" width="70" height="70" viewBox="0 0 70 70">
  <defs>
    <clipPath id="clip-path">
      <rect id="Rectángulo_379703" data-name="Rectángulo 379703" width="26.024" height="41.09" fill="none"/>
    </clipPath>
  </defs>
  <g id="Grupo_1075333" data-name="Grupo 1075333" transform="translate(-1230 -4529.26)">
    <g id="Grupo_1073526" data-name="Grupo 1073526" transform="translate(961 3571.26)">
      <circle id="Elipse_5614" data-name="Elipse 5614" cx="35" cy="35" r="35" transform="translate(269 958)" fill="#03386e"/>
    </g>
    <g id="Grupo_1075126" data-name="Grupo 1075126" transform="translate(223.988 206.454)">
      <g id="Grupo_1075125" data-name="Grupo 1075125" transform="translate(1028 4335)">
        <g id="Grupo_1075124" data-name="Grupo 1075124" clip-path="url(#clip-path)">
          <path id="Trazado_614443" data-name="Trazado 614443" d="M1.764,39.623c1.8.67,5.216,1.468,11.248,1.468s9.446-.8,11.248-1.468a2.739,2.739,0,0,0,1.763-2.561V19.86a2.739,2.739,0,0,0-2.739-2.739H8.218V9.588a4.794,4.794,0,0,1,9.588,0v1.37a.711.711,0,0,0,.3.565,1.027,1.027,0,0,1,.387.8,1.2,1.2,0,0,1-.418.827.685.685,0,0,0-.267.543,2.055,2.055,0,0,0,2.055,2.055h.685A2.054,2.054,0,0,0,22.6,13.7V9.588a9.588,9.588,0,1,0-19.175,0v7.533H2.739A2.739,2.739,0,0,0,0,19.86v17.2a2.739,2.739,0,0,0,1.764,2.561M4.794,9.588a8.218,8.218,0,1,1,16.436,0V13.7a.685.685,0,0,1-.685.685H19.86a.685.685,0,0,1-.64-.441,2.38,2.38,0,0,0-.044-3.295V9.588a6.164,6.164,0,0,0-12.327,0v7.533H4.794ZM1.37,19.86a1.37,1.37,0,0,1,1.37-1.37H23.285a1.37,1.37,0,0,1,1.37,1.37v17.2a1.361,1.361,0,0,1-.871,1.277c-1.389.516-4.636,1.382-10.771,1.382S3.63,38.855,2.241,38.339a1.361,1.361,0,0,1-.871-1.277Z" transform="translate(0)" fill="#fff"/>
          <path id="Trazado_614444" data-name="Trazado 614444" d="M120.545,287.506l-.772,2.808a1.712,1.712,0,0,0,1.647,2.158h2.794a1.708,1.708,0,0,0,1.644-2.161l-.772-2.808a3.426,3.426,0,1,0-4.541,0m.24-2.883a2.062,2.062,0,0,1,1.761-1.723,2.3,2.3,0,0,1,.27-.016,2.055,2.055,0,0,1,1.119,3.779.685.685,0,0,0-.292.759l.894,3.252a.336.336,0,0,1-.058.3.333.333,0,0,1-.267.133H121.42a.333.333,0,0,1-.268-.133.337.337,0,0,1-.058-.3l.9-3.252a.685.685,0,0,0-.292-.759A2.043,2.043,0,0,1,120.785,284.623Z" transform="translate(-109.805 -258.915)" fill="#fff"/>
        </g>
      </g>
    </g>
  </g>
</svg>
