<svg xmlns="http://www.w3.org/2000/svg" xmlns:xlink="http://www.w3.org/1999/xlink" width="153.003" height="170.816" viewBox="0 0 153.003 170.816">
  <defs>
    <linearGradient id="linear-gradient" x1="0.5" x2="0.5" y2="1" gradientUnits="objectBoundingBox">
      <stop offset="0" stop-color="#e1efe3"/>
      <stop offset="1" stop-color="#dbe5f3"/>
    </linearGradient>
    <clipPath id="clip-path">
      <path id="Trazado_614456" data-name="Trazado 614456" d="M700.2,414.05c-2.177-5.85-8.4-10.59-15.753-14.477-13.129,8.96-31.732,14.562-52.38,14.562s-39.249-5.6-52.377-14.56c-7.351,3.887-13.579,8.624-15.756,14.475a176.085,176.085,0,0,0-8.236,30.323H708.435A176.082,176.082,0,0,0,700.2,414.05Z" fill="none"/>
    </clipPath>
  </defs>
  <g id="Grupo_1075335" data-name="Grupo 1075335" transform="translate(-565.999 -8958.058)">
    <g id="Grupo_1075242" data-name="Grupo 1075242" transform="translate(155.563 1459.587)">
      <g id="Grupo_1015374" data-name="Grupo 1015374" transform="translate(425.437 7498.471)">
        <g id="Grupo_1015448" data-name="Grupo 1015448" transform="translate(0 0)">
          <g id="Grupo_1014855" data-name="Grupo 1014855" transform="translate(0)">
            <path id="Unión_12" data-name="Unión 12" d="M62,0A62,62,0,1,1,0,62,62,62,0,0,1,62,0Z" fill="url(#linear-gradient)"/>
          </g>
        </g>
      </g>
    </g>
    <g id="Grupo_1075153" data-name="Grupo 1075153" transform="translate(10.567 8684.501)">
      <g id="Grupo_1075147" data-name="Grupo 1075147">
        <g id="Grupo_1075141" data-name="Grupo 1075141">
          <path id="Trazado_614453" data-name="Trazado 614453" d="M698.879,414.272c-5.946-15.98-42.315-23.612-48.683-28.244-8.176-5.946-5.574-25.642-5.574-25.642l-13.379.352-13.378-.352s2.6,19.7-5.575,25.642c-6.368,4.632-42.737,12.264-48.683,28.244a174.767,174.767,0,0,0-8.175,30.1H707.055A174.827,174.827,0,0,0,698.879,414.272Z" fill="#ffac9d"/>
          <path id="Trazado_614454" data-name="Trazado 614454" d="M615.386,382.358c6.263-.64,12.558-1.909,18.011-4.959a61.41,61.41,0,0,0,10.876-7.8,60.665,60.665,0,0,1,.349-9.21l-13.379.352-13.378-.352S619.716,374.4,615.386,382.358Z" fill="#cc887f"/>
        </g>
        <g id="Grupo_1075146" data-name="Grupo 1075146">
          <path id="Trazado_614455" data-name="Trazado 614455" d="M700.2,414.05c-2.177-5.85-8.4-10.59-15.753-14.477-13.129,8.96-31.732,14.562-52.38,14.562s-39.249-5.6-52.377-14.56c-7.351,3.887-13.579,8.624-15.756,14.475a176.085,176.085,0,0,0-8.236,30.323H708.435A176.082,176.082,0,0,0,700.2,414.05Z" fill="#ffa65b"/>
          <g id="Grupo_1075145" data-name="Grupo 1075145">
            <g id="Grupo_1075144" data-name="Grupo 1075144" clip-path="url(#clip-path)">
              <g id="Grupo_1075142" data-name="Grupo 1075142">
                <circle id="Elipse_6017" data-name="Elipse 6017" cx="9.573" cy="9.573" r="9.573" transform="translate(654.009 405.246)" fill="#352c38"/>
                <circle id="Elipse_6018" data-name="Elipse 6018" cx="9.573" cy="9.573" r="9.573" transform="translate(620.364 405.246)" fill="#352c38"/>
                <circle id="Elipse_6019" data-name="Elipse 6019" cx="9.573" cy="9.573" r="9.573" transform="translate(586.719 405.246)" fill="#352c38"/>
                <circle id="Elipse_6020" data-name="Elipse 6020" cx="9.573" cy="9.573" r="9.573" transform="translate(553.074 405.246)" fill="#352c38"/>
                <circle id="Elipse_6021" data-name="Elipse 6021" cx="9.573" cy="9.573" r="9.573" transform="translate(687.654 405.246)" fill="#352c38"/>
              </g>
              <g id="Grupo_1075143" data-name="Grupo 1075143">
                <circle id="Elipse_6022" data-name="Elipse 6022" cx="9.573" cy="9.573" r="9.573" transform="translate(669.776 431.148)" fill="#352c38"/>
                <circle id="Elipse_6023" data-name="Elipse 6023" cx="9.573" cy="9.573" r="9.573" transform="translate(636.131 431.148)" fill="#352c38"/>
                <circle id="Elipse_6024" data-name="Elipse 6024" cx="9.573" cy="9.573" r="9.573" transform="translate(602.486 431.148)" fill="#352c38"/>
                <circle id="Elipse_6025" data-name="Elipse 6025" cx="9.573" cy="9.573" r="9.573" transform="translate(568.841 431.148)" fill="#352c38"/>
                <circle id="Elipse_6026" data-name="Elipse 6026" cx="9.573" cy="9.573" r="9.573" transform="translate(703.421 431.148)" fill="#352c38"/>
              </g>
            </g>
          </g>
        </g>
      </g>
      <g id="Grupo_1075152" data-name="Grupo 1075152">
        <g id="Grupo_1075148" data-name="Grupo 1075148">
          <path id="Trazado_614457" data-name="Trazado 614457" d="M653.037,329.681c2.161-6.7,7.277-5.151,7.757-4.99.5.059,5.79.844,4.877,7.828-.919,7.025-4.995,10.832-8.818,9.714C652.92,341.609,650.864,336.424,653.037,329.681Z" fill="#cc887f"/>
          <path id="Trazado_614458" data-name="Trazado 614458" d="M657.5,319.136c-2.677-29.388-25.019-27.742-27.126-27.52-2.107-.222-24.448-1.868-27.126,27.52-2.693,29.562,10.474,48.869,27.126,47.807C647.024,368.005,660.192,348.7,657.5,319.136Z" fill="#ffac9d"/>
        </g>
        <g id="Grupo_1075150" data-name="Grupo 1075150">
          <path id="Trazado_614459" data-name="Trazado 614459" d="M633.565,329.169l1.664,11.641-3.374,3.2" fill="none" stroke="#cc887f" stroke-miterlimit="10" stroke-width="1.115"/>
          <path id="Trazado_614460" data-name="Trazado 614460" d="M617.437,348.332l26.513-.278S633.347,358.488,617.437,348.332Z" fill="#fff"/>
          <path id="Trazado_614461" data-name="Trazado 614461" d="M624.235,353.657c5.68,2.689,12.091,2.479,17.137-1.949" fill="none" stroke="#cc887f" stroke-miterlimit="10" stroke-width="1.115"/>
          <g id="Grupo_1075149" data-name="Grupo 1075149">
            <path id="Trazado_614462" data-name="Trazado 614462" d="M616.473,329.612c0,2.214.821,4.008,1.835,4.008s1.834-1.794,1.834-4.008-.821-4.008-1.834-4.008S616.473,327.4,616.473,329.612Z" fill="#352c38"/>
            <path id="Trazado_614463" data-name="Trazado 614463" d="M641.687,329.612c0,2.214.821,4.008,1.835,4.008s1.834-1.794,1.834-4.008-.821-4.008-1.834-4.008S641.687,327.4,641.687,329.612Z" fill="#352c38"/>
          </g>
          <path id="Trazado_614464" data-name="Trazado 614464" d="M611.969,323.054s6.392-7.812,12.784-.532" fill="none" stroke="#352c38" stroke-miterlimit="10" stroke-width="2.131"/>
          <path id="Trazado_614465" data-name="Trazado 614465" d="M637.36,323.054s6.392-7.812,12.785-.532" fill="none" stroke="#352c38" stroke-miterlimit="10" stroke-width="2.131"/>
        </g>
        <g id="Grupo_1075151" data-name="Grupo 1075151">
          <path id="Trazado_614466" data-name="Trazado 614466" d="M612.344,296.456s.663,18.576,22.888,21.893l-7.629-8.956s10.615,9.288,22.557,7.961a27.138,27.138,0,0,0-7.962-11.61s23.553,10.283,8.625,54.734c0,0,17.25-21.562,12.937-47.768-5.127-31.157-31.884-34.313-43.455-28.528C610.353,289.158,612.344,296.456,612.344,296.456Z" fill="#765e69"/>
          <path id="Trazado_614467" data-name="Trazado 614467" d="M615.993,289.49s-17.767-5.275-23.552,20.567c-4.976,22.225,4.975,42.791,22.225,56.392,0,0-9.952-9.62-10.615-34.167s14.595-36.49,20.235-38.812S615.993,289.49,615.993,289.49Z" fill="#765e69"/>
          <path id="Trazado_614468" data-name="Trazado 614468" d="M663.76,312.71a49.858,49.858,0,0,0-2.02-8.116,54.3,54.3,0,0,1-7.579,17.174c2.441,8.377,2.693,20.752-3.338,38.71C650.823,360.478,668.073,338.916,663.76,312.71Z" fill="#352c38" opacity="0.4"/>
          <path id="Trazado_614469" data-name="Trazado 614469" d="M604.051,332.282a50.1,50.1,0,0,1,1.7-14.721q-.861-.527-1.694-1.079c-3.98-2.647-7.73-5.493-10.488-9.452-.084-.12-.159-.245-.241-.366-.318,1.067-.615,2.193-.883,3.392-4.976,22.226,4.975,42.792,22.225,56.393C614.666,366.449,604.714,356.829,604.051,332.282Z" fill="#352c38" opacity="0.4"/>
          <path id="Trazado_614470" data-name="Trazado 614470" d="M597.829,326.222c-1.17,1.112-2.113,3.015-1.684,6.3.686,5.239,3.127,8.685,5.91,9.636A157.357,157.357,0,0,1,597.829,326.222Z" fill="#cc887f"/>
        </g>
      </g>
    </g>
  </g>
</svg>
