<svg xmlns="http://www.w3.org/2000/svg" width="152.738" height="182.13" viewBox="0 0 152.738 182.13">
  <g id="Grupo_1075340" data-name="Grupo 1075340" transform="translate(-566 -9394.404)">
    <g id="Grupo_1075246" data-name="Grupo 1075246" transform="translate(154.562 1895.934)">
      <g id="Grupo_1015374" data-name="Grupo 1015374" transform="translate(425.437 7498.471)">
        <g id="Grupo_1015448" data-name="Grupo 1015448" transform="translate(0 0)">
          <g id="Grupo_1014855" data-name="Grupo 1014855" transform="translate(0)">
            <path id="Unión_12" data-name="Unión 12" d="M62,0A62,62,0,1,1,0,62,62,62,0,0,1,62,0Z" fill="#dadddf"/>
          </g>
        </g>
      </g>
    </g>
    <g id="Grupo_1075162" data-name="Grupo 1075162" transform="translate(182.102 9132.161)">
      <g id="Grupo_1075154" data-name="Grupo 1075154">
        <path id="Trazado_614471" data-name="Trazado 614471" d="M455.51,288.667s12.843-5.739,22.961-.382,16.734,26.781,26.074,35.2,16.6,18.42,11.148,27.985-10.758,8.743-5.31,22.133-17.36,16.587-12.69,26.534c0,0-11.828-21.943-8.325-41.072s-6.227-64.657-21.794-63.127l-14.01-.765Z" fill="#965450"/>
        <path id="Trazado_614472" data-name="Trazado 614472" d="M459.791,283.311s6.361-10.038,19.9-1.008c6.65,4.435,9.486,15.232,21.738,21.285,13.451,6.645,15.77,12.875,10.172,22.572-3.463,6,7.212,4.825,1.936,19.737-4.123,11.653-39.739-51.874-39.739-51.874l-14.788-1.913Z" fill="#965450"/>
        <path id="Trazado_614473" data-name="Trazado 614473" d="M501.185,327.8s10.51,8.482,7.216,18.506-12.706,13.725-6.118,27.759-6.118,17.58-6.118,17.58-30.746-2.158-26.981-34.7,19.691-33.522,19.691-33.522Z" fill="#824846"/>
        <path id="Trazado_614474" data-name="Trazado 614474" d="M501.185,327.8s10.51,8.482,7.216,18.506-12.706,13.725-6.118,27.759-6.118,17.58-6.118,17.58-30.746-2.158-26.981-34.7,19.691-33.522,19.691-33.522Z" fill="#824846"/>
        <path id="Trazado_614475" data-name="Trazado 614475" d="M422.808,303.71s-11.726,11.357-10.949,22.33-2.646,19.235-8.313,24.148-5.423,15.422.024,21.552a20.51,20.51,0,0,1,.436-15.068s-5,28.424,23.814,31.9c0,0-1.032-.429-4.127-8.731,0,0,1.563,7.91,19.2,9.166s26.48-22.428,18.158-47.9S436.2,308.775,436.2,308.775Z" fill="#824846"/>
      </g>
      <g id="Grupo_1075156" data-name="Grupo 1075156">
        <g id="Grupo_1075155" data-name="Grupo 1075155">
          <path id="Trazado_614476" data-name="Trazado 614476" d="M527.345,414.272c-5.946-15.98-42.315-23.612-48.683-28.244-8.176-5.946-5.574-25.642-5.574-25.642l-13.379.352-13.378-.352s2.6,19.7-5.575,25.642c-6.368,4.632-42.737,12.264-48.683,28.244a174.767,174.767,0,0,0-8.175,30.1H535.521A174.825,174.825,0,0,0,527.345,414.272Z" fill="#fddec0"/>
          <path id="Trazado_614477" data-name="Trazado 614477" d="M443.852,382.358c6.263-.64,12.558-1.909,18.011-4.959a61.411,61.411,0,0,0,10.876-7.8,60.665,60.665,0,0,1,.349-9.21l-13.379.352-13.378-.352S448.182,374.4,443.852,382.358Z" fill="#e2c6af"/>
        </g>
        <path id="Trazado_614478" data-name="Trazado 614478" d="M528.4,414.05c-5.792-15.565-40.235-23.268-48.3-27.978a44.9,44.9,0,0,1-22.544,5.891,45.448,45.448,0,0,1-19.969-4.511c-11.311,4.814-40.19,12.464-45.45,26.6a176.135,176.135,0,0,0-8.235,30.323H536.636A176.2,176.2,0,0,0,528.4,414.05Z" fill="#6f96bd"/>
      </g>
      <g id="Grupo_1075161" data-name="Grupo 1075161">
        <g id="Grupo_1075157" data-name="Grupo 1075157">
          <path id="Trazado_614479" data-name="Trazado 614479" d="M437.245,329.681c-2.161-6.7-7.278-5.151-7.757-4.99-.5.059-5.791.844-4.877,7.828.919,7.025,4.995,10.832,8.818,9.714C437.362,341.609,439.418,336.424,437.245,329.681Z" fill="#e2c6af"/>
          <path id="Trazado_614480" data-name="Trazado 614480" d="M481.5,329.681c2.161-6.7,7.278-5.151,7.757-4.99.5.059,5.791.844,4.877,7.828-.919,7.025-4.995,10.832-8.818,9.714C481.386,341.609,479.33,336.424,481.5,329.681Z" fill="#e2c6af"/>
          <path id="Trazado_614481" data-name="Trazado 614481" d="M485.964,319.136c-2.677-29.388-25.019-27.742-27.126-27.52-2.107-.222-24.448-1.868-27.125,27.52-2.694,29.562,10.473,48.869,27.125,47.807C475.49,368.005,488.658,348.7,485.964,319.136Z" fill="#fddec0"/>
        </g>
        <g id="Grupo_1075159" data-name="Grupo 1075159">
          <path id="Trazado_614482" data-name="Trazado 614482" d="M462.031,329.169l1.664,11.641-3.374,3.2" fill="none" stroke="#e2c6af" stroke-miterlimit="10" stroke-width="2"/>
          <path id="Trazado_614483" data-name="Trazado 614483" d="M445.9,348.332l26.513-.278S461.813,358.488,445.9,348.332Z" fill="#fff"/>
          <path id="Trazado_614484" data-name="Trazado 614484" d="M452.7,353.657c5.679,2.689,12.09,2.479,17.137-1.949" fill="none" stroke="#e2c6af" stroke-miterlimit="10" stroke-width="1"/>
          <g id="Grupo_1075158" data-name="Grupo 1075158">
            <path id="Trazado_614485" data-name="Trazado 614485" d="M444.939,329.612c0,2.214.821,4.008,1.835,4.008s1.834-1.794,1.834-4.008-.821-4.008-1.834-4.008S444.939,327.4,444.939,329.612Z" fill="#352c38"/>
            <path id="Trazado_614486" data-name="Trazado 614486" d="M470.153,329.612c0,2.214.821,4.008,1.835,4.008s1.834-1.794,1.834-4.008S473,325.6,471.988,325.6,470.153,327.4,470.153,329.612Z" fill="#352c38"/>
          </g>
          <path id="Trazado_614487" data-name="Trazado 614487" d="M440.435,323.054s6.392-7.812,12.784-.532" fill="none" stroke="#352c38" stroke-miterlimit="10" stroke-width="2.131"/>
          <path id="Trazado_614488" data-name="Trazado 614488" d="M465.826,323.054s6.392-7.812,12.785-.532" fill="none" stroke="#352c38" stroke-miterlimit="10" stroke-width="2.131"/>
        </g>
        <g id="Grupo_1075160" data-name="Grupo 1075160">
          <path id="Trazado_614489" data-name="Trazado 614489" d="M459.859,299.969s-10.622-5.114-15.736,7.081-4.019,29.457-17.743,35.619c-15.541,6.977-9.8,23.392-9.8,23.392s-10.228-8.262-7.081-16.13,18.1-18.49,21.244-33.439S450.024,287.38,459.859,299.969Z" fill="#965450"/>
          <path id="Trazado_614490" data-name="Trazado 614490" d="M460.193,298.968s-11.144-3.368-15.575,8.55-2.384,28.3-15.745,34.97c-15.128,7.549-8.485,22.858-8.485,22.858" fill="none" stroke="#965450" stroke-miterlimit="10" stroke-width="2.535"/>
          <path id="Trazado_614491" data-name="Trazado 614491" d="M460.632,283.2l-.773,16.766s-20.457-9.835-27.932,29.9c0,0-31.567,31.433-24.067,15.933s-8.192-22.621,4.79-33.636,14.163-11.016,21.638-20.457S450.8,274.155,460.632,283.2Z" fill="#965450"/>
          <path id="Trazado_614492" data-name="Trazado 614492" d="M459.859,299.969s10.96-6.076,14.5,5.332,10.638,17.9,12.5,28.667c2.333,13.5-17.323,33.213-14.176,45.015s15.382,8.087,15.382,8.087-11.247-2.6-9.673-10.466,29.254-27.3,28.467-37.136-2.233-5.357-6.167-22.667-22.681-32.44-41.171-26.145C449.036,281.218,459.859,299.969,459.859,299.969Z" fill="#965450"/>
          <path id="Trazado_614493" data-name="Trazado 614493" d="M459.657,299.64s9.343-3.621,12.634,1.976,1.764,9.925,9.166,19.53,1.617,21.536-1.261,27.256a11.859,11.859,0,0,0-.09,10.632" fill="none" stroke="#965450" stroke-miterlimit="10" stroke-width="1.176"/>
          <path id="Trazado_614494" data-name="Trazado 614494" d="M481.36,315.635s5.667,14.166,3.5,24.333c0,0,4-9.5,2.833-18.167S481.36,315.635,481.36,315.635Z" fill="#824846"/>
        </g>
      </g>
    </g>
  </g>
</svg>
