<svg xmlns="http://www.w3.org/2000/svg" xmlns:xlink="http://www.w3.org/1999/xlink" width="152.738" height="171.816" viewBox="0 0 152.738 171.816">
  <defs>
    <clipPath id="clip-path">
      <path id="Trazado_614573" data-name="Trazado 614573" d="M185.332,414.05c-5.4-14.517-35.714-22.193-46.322-26.982l.174-.1c-4.641-2.552-5.8-9.282-5.8-9.282l-33.647,1.625c-1.161,5.105-6.248,8.4-6.248,8.4.052.033.105.06.157.092C81.8,392.646,54.2,400.262,49.066,414.05a176.086,176.086,0,0,0-8.236,30.323H193.568A176.085,176.085,0,0,0,185.332,414.05Z" fill="none"/>
    </clipPath>
  </defs>
  <g id="Grupo_1075336" data-name="Grupo 1075336" transform="translate(-881 -8960.058)">
    <g id="Grupo_1075243" data-name="Grupo 1075243" transform="translate(470.562 1461.587)">
      <g id="Grupo_1015374" data-name="Grupo 1015374" transform="translate(425.437 7498.471)">
        <g id="Grupo_1015448" data-name="Grupo 1015448" transform="translate(0 0)">
          <g id="Grupo_1014855" data-name="Grupo 1014855" transform="translate(0)">
            <path id="Unión_12" data-name="Unión 12" d="M62,0A62,62,0,1,1,0,62,62,62,0,0,1,62,0Z" fill="#03386e"/>
          </g>
        </g>
      </g>
    </g>
    <g id="Grupo_1075196" data-name="Grupo 1075196" transform="translate(840.17 8687.501)">
      <g id="Grupo_1075189" data-name="Grupo 1075189">
        <g id="Grupo_1075177" data-name="Grupo 1075177">
          <path id="Trazado_614514" data-name="Trazado 614514" d="M108.693,376.468s-7.666,2-13.333-2l1,2.667s-12-5.334-13-27,7-21.334,7-21.334S112.36,358.8,108.693,376.468Z" fill="#edcfb7"/>
          <path id="Trazado_614515" data-name="Trazado 614515" d="M159.36,342.8s4.5,19-12.5,27v-6.5s-4,12-21,14-8.5-23.5-8.5-23.5l8.5-22,33.5,9" fill="#edcfb7"/>
        </g>
        <g id="Grupo_1075178" data-name="Grupo 1075178">
          <path id="Trazado_614516" data-name="Trazado 614516" d="M184.277,414.272c-5.946-15.98-42.314-23.612-48.683-28.244-8.176-5.946-5.574-25.642-5.574-25.642l-13.379.352-13.378-.352s2.6,19.7-5.575,25.642c-6.368,4.632-42.736,12.264-48.683,28.244a174.765,174.765,0,0,0-8.175,30.1H192.453A174.827,174.827,0,0,0,184.277,414.272Z" fill="#f19c7c"/>
          <path id="Trazado_614517" data-name="Trazado 614517" d="M100.784,382.358c6.263-.64,12.559-1.909,18.011-4.959a61.411,61.411,0,0,0,10.876-7.8,60.824,60.824,0,0,1,.349-9.21l-13.379.352-13.378-.352S105.114,374.4,100.784,382.358Z" fill="#d88971"/>
        </g>
        <g id="Grupo_1075188" data-name="Grupo 1075188">
          <path id="Trazado_614518" data-name="Trazado 614518" d="M185.332,414.05c-5.4-14.517-35.714-22.193-46.322-26.982l.174-.1c-4.641-2.552-5.8-9.282-5.8-9.282l-33.647,1.625c-1.161,5.105-6.248,8.4-6.248,8.4.052.033.105.06.157.092C81.8,392.646,54.2,400.262,49.066,414.05a176.086,176.086,0,0,0-8.236,30.323H193.568A176.085,176.085,0,0,0,185.332,414.05Z" fill="#765e69"/>
          <g id="Grupo_1075187" data-name="Grupo 1075187">
            <g id="Grupo_1075186" data-name="Grupo 1075186" clip-path="url(#clip-path)">
              <g id="Grupo_1075185" data-name="Grupo 1075185">
                <g id="Grupo_1075179" data-name="Grupo 1075179">
                  <path id="Trazado_614519" data-name="Trazado 614519" d="M155.732,382.311l3.985,3.844,4.783-4.613" fill="none" stroke="#ffa65b" stroke-miterlimit="10" stroke-width="0.51"/>
                  <path id="Trazado_614520" data-name="Trazado 614520" d="M138.821,382.311l3.985,3.844,4.783-4.613" fill="none" stroke="#ffa65b" stroke-miterlimit="10" stroke-width="0.51"/>
                  <path id="Trazado_614521" data-name="Trazado 614521" d="M121.911,382.311l3.986,3.844,4.783-4.613" fill="none" stroke="#ffa65b" stroke-miterlimit="10" stroke-width="0.51"/>
                  <path id="Trazado_614522" data-name="Trazado 614522" d="M105,382.311l3.986,3.844,4.783-4.613" fill="none" stroke="#ffa65b" stroke-miterlimit="10" stroke-width="0.51"/>
                  <path id="Trazado_614523" data-name="Trazado 614523" d="M88.091,382.311l3.986,3.844,4.783-4.613" fill="none" stroke="#ffa65b" stroke-miterlimit="10" stroke-width="0.51"/>
                  <path id="Trazado_614524" data-name="Trazado 614524" d="M71.18,382.311l3.986,3.844,4.783-4.613" fill="none" stroke="#ffa65b" stroke-miterlimit="10" stroke-width="0.51"/>
                  <path id="Trazado_614525" data-name="Trazado 614525" d="M54.27,382.311l3.986,3.844,4.783-4.613" fill="none" stroke="#ffa65b" stroke-miterlimit="10" stroke-width="0.51"/>
                  <path id="Trazado_614526" data-name="Trazado 614526" d="M37.36,382.311l3.986,3.844,4.783-4.613" fill="none" stroke="#ffa65b" stroke-miterlimit="10" stroke-width="0.51"/>
                  <path id="Trazado_614527" data-name="Trazado 614527" d="M172.642,382.311l3.986,3.844,4.783-4.613" fill="none" stroke="#ffa65b" stroke-miterlimit="10" stroke-width="0.51"/>
                </g>
                <g id="Grupo_1075180" data-name="Grupo 1075180">
                  <path id="Trazado_614528" data-name="Trazado 614528" d="M155.732,382.311l3.985,3.844,4.783-4.613" fill="none" stroke="#ffa65b" stroke-miterlimit="10" stroke-width="0.51"/>
                  <path id="Trazado_614529" data-name="Trazado 614529" d="M138.821,382.311l3.985,3.844,4.783-4.613" fill="none" stroke="#ffa65b" stroke-miterlimit="10" stroke-width="0.51"/>
                  <path id="Trazado_614530" data-name="Trazado 614530" d="M121.911,382.311l3.986,3.844,4.783-4.613" fill="none" stroke="#ffa65b" stroke-miterlimit="10" stroke-width="0.51"/>
                  <path id="Trazado_614531" data-name="Trazado 614531" d="M105,382.311l3.986,3.844,4.783-4.613" fill="none" stroke="#ffa65b" stroke-miterlimit="10" stroke-width="0.51"/>
                  <path id="Trazado_614532" data-name="Trazado 614532" d="M88.091,382.311l3.986,3.844,4.783-4.613" fill="none" stroke="#ffa65b" stroke-miterlimit="10" stroke-width="0.51"/>
                  <path id="Trazado_614533" data-name="Trazado 614533" d="M71.18,382.311l3.986,3.844,4.783-4.613" fill="none" stroke="#ffa65b" stroke-miterlimit="10" stroke-width="0.51"/>
                  <path id="Trazado_614534" data-name="Trazado 614534" d="M54.27,382.311l3.986,3.844,4.783-4.613" fill="none" stroke="#ffa65b" stroke-miterlimit="10" stroke-width="0.51"/>
                  <path id="Trazado_614535" data-name="Trazado 614535" d="M37.36,382.311l3.986,3.844,4.783-4.613" fill="none" stroke="#ffa65b" stroke-miterlimit="10" stroke-width="0.51"/>
                  <path id="Trazado_614536" data-name="Trazado 614536" d="M172.642,382.311l3.986,3.844,4.783-4.613" fill="none" stroke="#ffa65b" stroke-miterlimit="10" stroke-width="0.51"/>
                </g>
                <g id="Grupo_1075181" data-name="Grupo 1075181">
                  <path id="Trazado_614537" data-name="Trazado 614537" d="M155.732,438.9l3.985,3.844,4.783-4.613" fill="none" stroke="#ffa65b" stroke-miterlimit="10" stroke-width="0.51"/>
                  <path id="Trazado_614538" data-name="Trazado 614538" d="M138.821,438.9l3.985,3.844,4.783-4.613" fill="none" stroke="#ffa65b" stroke-miterlimit="10" stroke-width="0.51"/>
                  <path id="Trazado_614539" data-name="Trazado 614539" d="M121.911,438.9l3.986,3.844,4.783-4.613" fill="none" stroke="#ffa65b" stroke-miterlimit="10" stroke-width="0.51"/>
                  <path id="Trazado_614540" data-name="Trazado 614540" d="M105,438.9l3.986,3.844,4.783-4.613" fill="none" stroke="#ffa65b" stroke-miterlimit="10" stroke-width="0.51"/>
                  <path id="Trazado_614541" data-name="Trazado 614541" d="M88.091,438.9l3.986,3.844,4.783-4.613" fill="none" stroke="#ffa65b" stroke-miterlimit="10" stroke-width="0.51"/>
                  <path id="Trazado_614542" data-name="Trazado 614542" d="M71.18,438.9l3.986,3.844,4.783-4.613" fill="none" stroke="#ffa65b" stroke-miterlimit="10" stroke-width="0.51"/>
                  <path id="Trazado_614543" data-name="Trazado 614543" d="M54.27,438.9l3.986,3.844,4.783-4.613" fill="none" stroke="#ffa65b" stroke-miterlimit="10" stroke-width="0.51"/>
                  <path id="Trazado_614544" data-name="Trazado 614544" d="M37.36,438.9l3.986,3.844,4.783-4.613" fill="none" stroke="#ffa65b" stroke-miterlimit="10" stroke-width="0.51"/>
                  <path id="Trazado_614545" data-name="Trazado 614545" d="M172.642,438.9l3.986,3.844,4.783-4.613" fill="none" stroke="#ffa65b" stroke-miterlimit="10" stroke-width="0.51"/>
                </g>
                <g id="Grupo_1075182" data-name="Grupo 1075182">
                  <path id="Trazado_614546" data-name="Trazado 614546" d="M164.5,424.136l3.986,3.844,4.783-4.613" fill="none" stroke="#ffa65b" stroke-miterlimit="10" stroke-width="0.51"/>
                  <path id="Trazado_614547" data-name="Trazado 614547" d="M147.589,424.136l3.986,3.844,4.783-4.613" fill="none" stroke="#ffa65b" stroke-miterlimit="10" stroke-width="0.51"/>
                  <path id="Trazado_614548" data-name="Trazado 614548" d="M130.679,424.136l3.986,3.844,4.783-4.613" fill="none" stroke="#ffa65b" stroke-miterlimit="10" stroke-width="0.51"/>
                  <path id="Trazado_614549" data-name="Trazado 614549" d="M113.769,424.136l3.986,3.844,4.783-4.613" fill="none" stroke="#ffa65b" stroke-miterlimit="10" stroke-width="0.51"/>
                  <path id="Trazado_614550" data-name="Trazado 614550" d="M96.859,424.136l3.986,3.844,4.783-4.613" fill="none" stroke="#ffa65b" stroke-miterlimit="10" stroke-width="0.51"/>
                  <path id="Trazado_614551" data-name="Trazado 614551" d="M79.949,424.136l3.986,3.844,4.783-4.613" fill="none" stroke="#ffa65b" stroke-miterlimit="10" stroke-width="0.51"/>
                  <path id="Trazado_614552" data-name="Trazado 614552" d="M63.039,424.136l3.986,3.844,4.783-4.613" fill="none" stroke="#ffa65b" stroke-miterlimit="10" stroke-width="0.51"/>
                  <path id="Trazado_614553" data-name="Trazado 614553" d="M46.128,424.136l3.986,3.844,4.783-4.613" fill="none" stroke="#ffa65b" stroke-miterlimit="10" stroke-width="0.51"/>
                  <path id="Trazado_614554" data-name="Trazado 614554" d="M181.41,424.136l3.986,3.844,4.783-4.613" fill="none" stroke="#ffa65b" stroke-miterlimit="10" stroke-width="0.51"/>
                </g>
                <g id="Grupo_1075183" data-name="Grupo 1075183">
                  <path id="Trazado_614555" data-name="Trazado 614555" d="M155.732,410.6l3.985,3.844,4.783-4.613" fill="none" stroke="#ffa65b" stroke-miterlimit="10" stroke-width="0.51"/>
                  <path id="Trazado_614556" data-name="Trazado 614556" d="M138.821,410.6l3.985,3.844,4.783-4.613" fill="none" stroke="#ffa65b" stroke-miterlimit="10" stroke-width="0.51"/>
                  <path id="Trazado_614557" data-name="Trazado 614557" d="M121.911,410.6l3.986,3.844,4.783-4.613" fill="none" stroke="#ffa65b" stroke-miterlimit="10" stroke-width="0.51"/>
                  <path id="Trazado_614558" data-name="Trazado 614558" d="M105,410.6l3.986,3.844,4.783-4.613" fill="none" stroke="#ffa65b" stroke-miterlimit="10" stroke-width="0.51"/>
                  <path id="Trazado_614559" data-name="Trazado 614559" d="M88.091,410.6l3.986,3.844,4.783-4.613" fill="none" stroke="#ffa65b" stroke-miterlimit="10" stroke-width="0.51"/>
                  <path id="Trazado_614560" data-name="Trazado 614560" d="M71.18,410.6l3.986,3.844,4.783-4.613" fill="none" stroke="#ffa65b" stroke-miterlimit="10" stroke-width="0.51"/>
                  <path id="Trazado_614561" data-name="Trazado 614561" d="M54.27,410.6l3.986,3.844,4.783-4.613" fill="none" stroke="#ffa65b" stroke-miterlimit="10" stroke-width="0.51"/>
                  <path id="Trazado_614562" data-name="Trazado 614562" d="M37.36,410.6l3.986,3.844,4.783-4.613" fill="none" stroke="#ffa65b" stroke-miterlimit="10" stroke-width="0.51"/>
                  <path id="Trazado_614563" data-name="Trazado 614563" d="M172.642,410.6l3.986,3.844,4.783-4.613" fill="none" stroke="#ffa65b" stroke-miterlimit="10" stroke-width="0.51"/>
                </g>
                <g id="Grupo_1075184" data-name="Grupo 1075184">
                  <path id="Trazado_614564" data-name="Trazado 614564" d="M163.873,395.842l3.986,3.844,4.783-4.613" fill="none" stroke="#ffa65b" stroke-miterlimit="10" stroke-width="0.51"/>
                  <path id="Trazado_614565" data-name="Trazado 614565" d="M146.963,395.842l3.986,3.844,4.783-4.613" fill="none" stroke="#ffa65b" stroke-miterlimit="10" stroke-width="0.51"/>
                  <path id="Trazado_614566" data-name="Trazado 614566" d="M130.053,395.842l3.986,3.844,4.783-4.613" fill="none" stroke="#ffa65b" stroke-miterlimit="10" stroke-width="0.51"/>
                  <path id="Trazado_614567" data-name="Trazado 614567" d="M113.143,395.842l3.986,3.844,4.783-4.613" fill="none" stroke="#ffa65b" stroke-miterlimit="10" stroke-width="0.51"/>
                  <path id="Trazado_614568" data-name="Trazado 614568" d="M96.233,395.842l3.986,3.844L105,395.074" fill="none" stroke="#ffa65b" stroke-miterlimit="10" stroke-width="0.51"/>
                  <path id="Trazado_614569" data-name="Trazado 614569" d="M79.322,395.842l3.986,3.844,4.783-4.613" fill="none" stroke="#ffa65b" stroke-miterlimit="10" stroke-width="0.51"/>
                  <path id="Trazado_614570" data-name="Trazado 614570" d="M62.412,395.842l3.985,3.844,4.783-4.613" fill="none" stroke="#ffa65b" stroke-miterlimit="10" stroke-width="0.51"/>
                  <path id="Trazado_614571" data-name="Trazado 614571" d="M45.5,395.842l3.986,3.844,4.783-4.613" fill="none" stroke="#ffa65b" stroke-miterlimit="10" stroke-width="0.51"/>
                  <path id="Trazado_614572" data-name="Trazado 614572" d="M180.784,395.842l3.986,3.844,4.783-4.613" fill="none" stroke="#ffa65b" stroke-miterlimit="10" stroke-width="0.51"/>
                </g>
              </g>
            </g>
          </g>
        </g>
      </g>
      <g id="Grupo_1075195" data-name="Grupo 1075195">
        <g id="Grupo_1075190" data-name="Grupo 1075190">
          <path id="Trazado_614574" data-name="Trazado 614574" d="M106.693,292.135S89.86,276.8,78.36,297.3s3.5,53-8,67c0,0,12,13,16-7s5.5-52.5,5.5-52.5Z" fill="#fddec0"/>
          <path id="Trazado_614575" data-name="Trazado 614575" d="M103.794,294.3s-12.841-16.955-25.347,2.948.858,53.108-11.324,66.519" fill="none" stroke="#fddec0" stroke-miterlimit="10" stroke-width="2"/>
        </g>
        <g id="Grupo_1075191" data-name="Grupo 1075191">
          <path id="Trazado_614576" data-name="Trazado 614576" d="M92.36,328.4c-2.161-6.7-7.277-5.151-7.756-4.99-.5.059-5.791.845-4.877,7.828.919,7.025,5,10.832,8.817,9.714C92.477,340.326,94.534,335.141,92.36,328.4Z" fill="#d88971"/>
          <path id="Trazado_614577" data-name="Trazado 614577" d="M138.435,329.681c2.161-6.7,7.278-5.151,7.757-4.99.5.059,5.791.844,4.877,7.828-.919,7.025-4.995,10.832-8.818,9.714C138.318,341.609,136.262,336.424,138.435,329.681Z" fill="#d88971"/>
          <path id="Trazado_614578" data-name="Trazado 614578" d="M142.9,319.136c-2.677-29.388-25.018-27.742-27.125-27.52-2.108-.222-24.449-1.868-27.126,27.52-2.694,29.562,10.474,48.869,27.126,47.807C132.423,368.005,145.59,348.7,142.9,319.136Z" fill="#f19c7c"/>
        </g>
        <g id="Grupo_1075193" data-name="Grupo 1075193">
          <path id="Trazado_614579" data-name="Trazado 614579" d="M118.963,329.169l1.664,11.641-3.374,3.2" fill="none" stroke="#b26e59" stroke-miterlimit="10" stroke-width="1.115"/>
          <path id="Trazado_614580" data-name="Trazado 614580" d="M102.835,348.332l26.513-.278S118.746,358.488,102.835,348.332Z" fill="#fff"/>
          <path id="Trazado_614581" data-name="Trazado 614581" d="M109.634,353.657c5.679,2.689,12.09,2.479,17.137-1.949" fill="none" stroke="#b26e59" stroke-miterlimit="10" stroke-width="1.115"/>
          <g id="Grupo_1075192" data-name="Grupo 1075192">
            <path id="Trazado_614582" data-name="Trazado 614582" d="M101.871,329.612c0,2.214.821,4.008,1.835,4.008s1.835-1.794,1.835-4.008-.822-4.008-1.835-4.008S101.871,327.4,101.871,329.612Z" fill="#352c38"/>
            <path id="Trazado_614583" data-name="Trazado 614583" d="M127.085,329.612c0,2.214.821,4.008,1.835,4.008s1.835-1.794,1.835-4.008-.822-4.008-1.835-4.008S127.085,327.4,127.085,329.612Z" fill="#352c38"/>
          </g>
          <path id="Trazado_614584" data-name="Trazado 614584" d="M97.367,323.054s6.392-7.812,12.784-.532" fill="none" stroke="#352c38" stroke-miterlimit="10" stroke-width="2.131"/>
          <path id="Trazado_614585" data-name="Trazado 614585" d="M122.758,323.054s6.392-7.812,12.785-.532" fill="none" stroke="#352c38" stroke-miterlimit="10" stroke-width="2.131"/>
        </g>
        <g id="Grupo_1075194" data-name="Grupo 1075194">
          <path id="Trazado_614586" data-name="Trazado 614586" d="M102.36,299.8s11.5-12,18.5-2.5,19,45,39,47.5c0,0,3.833-41.333-14.167-57.333C126.841,270.71,101.86,280.8,102.36,299.8Z" fill="#fddec0"/>
          <path id="Trazado_614587" data-name="Trazado 614587" d="M151.36,345.8c-18.407-2.548-26.23-38.739-32.673-48.424S102.36,298.8,102.36,298.8" fill="none" stroke="#fddec0" stroke-miterlimit="10" stroke-width="2.906"/>
          <path id="Trazado_614588" data-name="Trazado 614588" d="M102.36,299.8s3.055-3.849,1.434-5.506c-3.565-3.646-16.215-6.087-17.934,8.006-2.5,20.5,8,53.5-9.5,71,0,0,5.5,6.5,11.5-2.5,0,0-2,6-5.5,6.5,0,0,8.5,1.5,10.5-10.5S88.86,300.8,102.36,299.8Z" fill="#fddec0"/>
        </g>
      </g>
    </g>
  </g>
</svg>
