<svg xmlns="http://www.w3.org/2000/svg" xmlns:xlink="http://www.w3.org/1999/xlink" width="152.738" height="172.987" viewBox="0 0 152.738 172.987">
  <defs>
    <linearGradient id="linear-gradient" x1="0.5" x2="0.5" y2="1" gradientUnits="objectBoundingBox">
      <stop offset="0" stop-color="#e1efe3"/>
      <stop offset="1" stop-color="#dbe5f3"/>
    </linearGradient>
  </defs>
  <g id="Grupo_1075334" data-name="Grupo 1075334" transform="translate(-251 -8958.058)">
    <g id="Grupo_1075241" data-name="Grupo 1075241" transform="translate(-159.439 1459.587)">
      <g id="Grupo_1015374" data-name="Grupo 1015374" transform="translate(425.437 7498.471)">
        <g id="Grupo_1015448" data-name="Grupo 1015448" transform="translate(0 0)">
          <g id="Grupo_1014855" data-name="Grupo 1014855" transform="translate(0)">
            <path id="Unión_12" data-name="Unión 12" d="M62,0A62,62,0,1,1,0,62,62,62,0,0,1,62,0Z" fill="url(#linear-gradient)"/>
          </g>
        </g>
      </g>
    </g>
    <g id="Grupo_1075240" data-name="Grupo 1075240" transform="translate(209.541 8898.161)">
      <g id="Grupo_1075234" data-name="Grupo 1075234">
        <g id="Grupo_1075232" data-name="Grupo 1075232">
          <path id="Trazado_614638" data-name="Trazado 614638" d="M184.906,202.782c-5.946-15.98-42.314-23.612-48.683-28.243-8.176-5.946-5.574-25.642-5.574-25.642l-13.379.352-13.378-.352s2.6,19.7-5.575,25.642C91.949,179.17,55.58,186.8,49.634,202.782a174.762,174.762,0,0,0-8.175,30.1H193.082A174.824,174.824,0,0,0,184.906,202.782Z" fill="#ffac9d"/>
          <path id="Trazado_614639" data-name="Trazado 614639" d="M101.413,170.869c6.263-.64,12.558-1.91,18.012-4.96a61.439,61.439,0,0,0,10.875-7.8,60.658,60.658,0,0,1,.349-9.209l-13.379.352-13.378-.352S105.743,162.915,101.413,170.869Z" fill="#cc887f"/>
        </g>
        <g id="Grupo_1075233" data-name="Grupo 1075233">
          <path id="Trazado_614640" data-name="Trazado 614640" d="M185.961,202.561c-4.631-12.446-27.566-19.861-40.7-24.743-5.713,6.594-15.858,10.983-27.429,10.983s-21.716-4.389-27.43-10.983c-13.138,4.882-36.073,12.3-40.7,24.743a176.108,176.108,0,0,0-8.235,30.323H194.2A176.06,176.06,0,0,0,185.961,202.561Z" fill="#6f96bd"/>
          <path id="Trazado_614641" data-name="Trazado 614641" d="M117.779,193.9c14.678,0,27.273-5.845,32.673-14.178-1.843-.676-3.593-1.309-5.195-1.905-5.713,6.594-15.858,10.983-27.429,10.983s-21.716-4.389-27.43-10.983c-1.625.6-3.4,1.247-5.272,1.933C90.536,188.069,103.118,193.9,117.779,193.9Z" fill="#85b7e0"/>
        </g>
      </g>
      <g id="Grupo_1075239" data-name="Grupo 1075239">
        <g id="Grupo_1075235" data-name="Grupo 1075235">
          <path id="Trazado_614642" data-name="Trazado 614642" d="M94.806,118.191c-2.161-6.7-7.277-5.151-7.757-4.989-.5.059-5.79.844-4.877,7.827.919,7.025,5,10.833,8.818,9.714C94.923,130.12,96.979,124.935,94.806,118.191Z" fill="#cc887f"/>
          <path id="Trazado_614643" data-name="Trazado 614643" d="M138.064,118.191c2.16-6.7,7.277-5.151,7.756-4.989.5.059,5.791.844,4.877,7.827-.919,7.025-5,10.833-8.817,9.714C137.947,130.12,135.89,124.935,138.064,118.191Z" fill="#cc887f"/>
          <path id="Trazado_614644" data-name="Trazado 614644" d="M143.525,107.646C140.848,78.259,118.506,79.9,116.4,80.126c-2.107-.221-24.448-1.867-27.125,27.52-2.694,29.563,10.473,48.87,27.125,47.808C133.051,156.516,146.219,137.209,143.525,107.646Z" fill="#ffac9d"/>
        </g>
        <g id="Grupo_1075237" data-name="Grupo 1075237">
          <path id="Trazado_614645" data-name="Trazado 614645" d="M119.592,117.68l1.664,11.641-3.374,3.2" fill="none" stroke="#cc887f" stroke-miterlimit="10" stroke-width="1.115"/>
          <path id="Trazado_614646" data-name="Trazado 614646" d="M103.464,136.842l26.513-.277S119.374,147,103.464,136.842Z" fill="#fff"/>
          <path id="Trazado_614647" data-name="Trazado 614647" d="M110.263,142.167c5.679,2.69,12.09,2.479,17.137-1.948" fill="none" stroke="#cc887f" stroke-miterlimit="10" stroke-width="1.115"/>
          <g id="Grupo_1075236" data-name="Grupo 1075236">
            <path id="Trazado_614648" data-name="Trazado 614648" d="M102.5,118.123c0,2.213.821,4.008,1.835,4.008s1.834-1.795,1.834-4.008-.821-4.008-1.834-4.008S102.5,115.909,102.5,118.123Z" fill="#352c38"/>
            <path id="Trazado_614649" data-name="Trazado 614649" d="M127.714,118.123c0,2.213.821,4.008,1.835,4.008s1.834-1.795,1.834-4.008-.821-4.008-1.834-4.008S127.714,115.909,127.714,118.123Z" fill="#352c38"/>
          </g>
          <path id="Trazado_614650" data-name="Trazado 614650" d="M98,111.565s6.392-7.813,12.784-.533" fill="none" stroke="#352c38" stroke-miterlimit="10" stroke-width="2.131"/>
          <path id="Trazado_614651" data-name="Trazado 614651" d="M123.387,111.565s6.392-7.813,12.785-.533" fill="none" stroke="#352c38" stroke-miterlimit="10" stroke-width="2.131"/>
        </g>
        <g id="Grupo_1075238" data-name="Grupo 1075238">
          <path id="Trazado_614652" data-name="Trazado 614652" d="M89.36,122.135s-7-29-3-37.334,8.667-5.666,8.667-5.666,6.333-17.334,19.666-14,21,9.333,28,3.333c0,0,0,5.333-4,7.667,0,0,8.334,0,11.667-8,0,0,4.979,17.1-6.021,23.1,0,0,.825,21.367.022,29.232l-3-.333s-1.667-11.334-2.667-25.667c0,0-17.333,9.333-38.333-7,0,0,3,11-9,18l1,15.333Z" fill="#965450"/>
          <path id="Trazado_614653" data-name="Trazado 614653" d="M132.054,96.568A49.491,49.491,0,0,1,118.1,93.587c-9.015-3.463-16.762-13.731-17.374-23.68a31.031,31.031,0,0,0-5.7,9.228S90.36,76.468,86.36,84.8s3,37.334,3,37.334l3-1.334-1-15.333c12-7,9-18,9-18C113.456,97.654,125.124,97.857,132.054,96.568Z" fill="#76413b"/>
        </g>
      </g>
    </g>
  </g>
</svg>
