<svg xmlns="http://www.w3.org/2000/svg" width="17.488" height="22.619" viewBox="0 0 17.488 22.619">
  <g id="Grupo_1072043" data-name="Grupo 1072043" transform="translate(11743.364 12425.013)">
    <path id="Trazado_609164" data-name="Trazado 609164" d="M-9549.2-13068.74a6.387,6.387,0,0,0-5.372,4.261,18.5,18.5,0,0,0-1.509,6.084s-.845.352-1.2-.89.354-6.969-3.554-8.3-4.7-1.733-4.172-2.221,5.237-1.642,6.126-3.329a27.606,27.606,0,0,0,1.954-6.882c0-.8,1.2-1.512,1.377-.312s.754,6.75,2.708,8.037,4.795,1.554,5.106,2.087S-9548.18-13068.785-9549.2-13068.74Z" transform="translate(-2178.211 655.956)" fill="#eba325"/>
  </g>
</svg>
