<svg xmlns="http://www.w3.org/2000/svg" width="1030" height="547" viewBox="0 0 1030 547">
  <g id="Group_1075348" data-name="Group 1075348" transform="translate(-285 -11005)">
    <path id="Path_614900" data-name="Path 614900" d="M0,0H1030V547H0Z" transform="translate(285 11005)" fill="#fff"/>
    <path id="Path_614666" data-name="Path 614666" d="M325.657,495.126l-1.68-14.911,4.359-1.263a5.45,5.45,0,0,1,3.747-.01,3.206,3.206,0,0,1,1.82,2.446,3.87,3.87,0,0,1-1.616,3.847,2.588,2.588,0,0,1,1.688.745,3.619,3.619,0,0,1,.988,1.859,4.281,4.281,0,0,1-.665,3.537,6.14,6.14,0,0,1-3.437,2.231Zm1.43-9.335,2.215-.637a3.266,3.266,0,0,0,1.775-1.132,2.324,2.324,0,0,0,.44-1.79q-.289-1.893-2.395-1.352l-2.508.722Zm.218,1.9.525,4.66,2.527-.728a3.251,3.251,0,0,0,1.763-1.171,2.505,2.505,0,0,0,.462-1.933,2.119,2.119,0,0,0-.761-1.481,1.9,1.9,0,0,0-1.629-.18Z" transform="translate(96.76 10766.233)"/>
    <path id="Path_614667" data-name="Path 614667" d="M358.884,490.178a3.259,3.259,0,0,1-.385-.956,4.073,4.073,0,0,1-2.472,2,3.365,3.365,0,0,1-2.534-.217,2.832,2.832,0,0,1-1.482-1.941,3.364,3.364,0,0,1,.677-3.044A6.545,6.545,0,0,1,356.073,484l1.507-.419-.074-.761a2.253,2.253,0,0,0-.208-.712,1.322,1.322,0,0,0-1.71-.675,2.191,2.191,0,0,0-1.192.755,1.692,1.692,0,0,0-.378,1.258l-2.3.695a3.009,3.009,0,0,1,.192-1.913,4.272,4.272,0,0,1,1.322-1.629,5.849,5.849,0,0,1,2.069-1.028,3.841,3.841,0,0,1,2.993.252,3.2,3.2,0,0,1,1.555,2.354l.635,5.178.178.9a3.234,3.234,0,0,0,.474,1.078l.041.178Zm-2.874-1a2.652,2.652,0,0,0,1.256-.732,3.716,3.716,0,0,0,.793-1.231l-.223-2.1-1.1.312a4.034,4.034,0,0,0-1.942,1.1,1.881,1.881,0,0,0-.492,1.609,1.241,1.241,0,0,0,.588.944A1.464,1.464,0,0,0,356.01,489.177Z" transform="translate(81.881 10765.82)"/>
    <path id="Path_614668" data-name="Path 614668" d="M372.988,467.89a1.311,1.311,0,0,1,.9-1.691,1.3,1.3,0,0,1,1.039.061,1.238,1.238,0,0,1,.638.792,1.281,1.281,0,0,1-.1,1.023,1.4,1.4,0,0,1-.82.652,1.365,1.365,0,0,1-1.047-.07A1.209,1.209,0,0,1,372.988,467.89ZM375.8,470l1.412,12.038a4.239,4.239,0,0,1-.4,2.84,3.39,3.39,0,0,1-2.138,1.55,6.851,6.851,0,0,1-1.37.2l-.352-1.928a3.685,3.685,0,0,0,.85-.132q1.238-.362,1.067-1.888l-1.381-12.006Z" transform="translate(70.434 10772.956)"/>
    <path id="Path_614669" data-name="Path 614669" d="M392.473,480.365a3.261,3.261,0,0,1-.385-.956,4.073,4.073,0,0,1-2.472,2,3.365,3.365,0,0,1-2.534-.217,2.832,2.832,0,0,1-1.482-1.941,3.362,3.362,0,0,1,.677-3.044,6.543,6.543,0,0,1,3.386-2.026l1.507-.419-.074-.761a2.254,2.254,0,0,0-.208-.712,1.323,1.323,0,0,0-1.71-.675,2.192,2.192,0,0,0-1.191.755,1.692,1.692,0,0,0-.378,1.258l-2.3.695a3.009,3.009,0,0,1,.192-1.913,4.273,4.273,0,0,1,1.322-1.629,5.849,5.849,0,0,1,2.069-1.028,3.841,3.841,0,0,1,2.993.252,3.2,3.2,0,0,1,1.556,2.354l.634,5.178.178.9a3.243,3.243,0,0,0,.474,1.078l.042.178Zm-2.874-1a2.65,2.65,0,0,0,1.256-.733,3.715,3.715,0,0,0,.793-1.231l-.223-2.1-1.1.312a4.034,4.034,0,0,0-1.942,1.1,1.882,1.882,0,0,0-.493,1.609,1.243,1.243,0,0,0,.588.944A1.464,1.464,0,0,0,389.6,479.364Z" transform="translate(63.814 10771.099)"/>
    <g id="Group_1075331" data-name="Group 1075331" transform="translate(526.736 11061.345)">
      <path id="Path_614670" data-name="Path 614670" d="M842.149,336.158,836.5,337.81l.515,4.589,6.608-1.931.234,2.068-9.015,2.634-1.69-14.909,8.957-2.617.23,2.091-6.54,1.911.463,4.117,5.663-1.654Z" transform="translate(-597.846 -243.907)"/>
      <path id="Path_614671" data-name="Path 614671" d="M860.606,334.542l1.477-4.176,2.7-.789-2.486,6.481,3.881,4.558-2.417.706-2.523-3.167-1.542,4.354-2.69.786,2.567-6.674-3.758-4.424,2.417-.706Z" transform="translate(-610.038 -244.946)"/>
      <path id="Path_614672" data-name="Path 614672" d="M888.4,329.462a9.045,9.045,0,0,1-.006,3.112A5.092,5.092,0,0,1,887.315,335a3.964,3.964,0,0,1-2.053,1.282,3.446,3.446,0,0,1-2.935-.412l.521,5.3-2.32.678L878.8,326.5l2.112-.628.144,1.143a3.8,3.8,0,0,1,2.5-2.117,3.219,3.219,0,0,1,1.894,0,3.289,3.289,0,0,1,1.561,1.125,6.157,6.157,0,0,1,1.045,2A13.512,13.512,0,0,1,888.4,329.462Zm-2.341.462-.159-.726a3.6,3.6,0,0,0-.984-1.828,1.583,1.583,0,0,0-1.538-.323,2.8,2.8,0,0,0-1.911,1.86l.557,4.947a1.86,1.86,0,0,0,2.14.7,2.453,2.453,0,0,0,1.672-1.462A5.847,5.847,0,0,0,886.059,329.924Z" transform="translate(-622.398 -242.355)"/>
      <path id="Path_614673" data-name="Path 614673" d="M903,325.339a7.226,7.226,0,0,1,.089-3.083,5.631,5.631,0,0,1,1.343-2.519,4.932,4.932,0,0,1,2.4-1.41,4.082,4.082,0,0,1,4.549,1.537,6.358,6.358,0,0,1,1.108,2.617,7.363,7.363,0,0,1-.046,3.229,5.609,5.609,0,0,1-1.353,2.538,5,5,0,0,1-2.418,1.41,4.075,4.075,0,0,1-4.53-1.527,6.275,6.275,0,0,1-1.113-2.579Zm2.661.672a2.9,2.9,0,0,0,1.021,1.484,1.8,1.8,0,0,0,1.559.248,2.532,2.532,0,0,0,1.726-1.5,5.022,5.022,0,0,0,.254-2.878L910,322.4a3.515,3.515,0,0,0-1.069-1.814,1.819,1.819,0,0,0-1.662-.329,2.631,2.631,0,0,0-1.915,2.136,5.645,5.645,0,0,0-.044,2.276A8.465,8.465,0,0,0,905.665,326.011Z" transform="translate(-635.352 -238.799)"/>
      <path id="Path_614674" data-name="Path 614674" d="M933.537,319.166q-.116-1.013-1.644-.974a16.508,16.508,0,0,1-2.11-.034,2.778,2.778,0,0,1-2.7-2.045,3.09,3.09,0,0,1,.6-2.731A4.932,4.932,0,0,1,930.4,311.6a4.246,4.246,0,0,1,3.01.146,3.142,3.142,0,0,1,1.747,2.124l-2.293.659a1.541,1.541,0,0,0-.734-1.028,1.7,1.7,0,0,0-1.277-.1,2.363,2.363,0,0,0-1.209.766,1.477,1.477,0,0,0-.348,1.181q.123.927,1.608.868a14.3,14.3,0,0,1,2.233.04,2.782,2.782,0,0,1,2.636,2.107,3.038,3.038,0,0,1-.146,1.942,4,4,0,0,1-1.3,1.617,5.823,5.823,0,0,1-2.067,1,4.469,4.469,0,0,1-3.154-.168,3.264,3.264,0,0,1-1.854-2.2l2.235-.642a1.768,1.768,0,0,0,.883,1.139,2.042,2.042,0,0,0,1.466.058,2.764,2.764,0,0,0,1.324-.773A1.42,1.42,0,0,0,933.537,319.166Z" transform="translate(-648.315 -235.168)"/>
      <path id="Path_614675" data-name="Path 614675" d="M947.74,299.964a1.357,1.357,0,0,1,.083-1.019,1.34,1.34,0,0,1,.829-.676,1.279,1.279,0,0,1,1.042.071,1.248,1.248,0,0,1,.636.782,1.283,1.283,0,0,1-.1,1.023,1.4,1.4,0,0,1-.819.652,1.3,1.3,0,0,1-1.034-.063A1.208,1.208,0,0,1,947.74,299.964Zm4.016,13.2-2.31.675L948.2,302.761l2.31-.675Z" transform="translate(-659.448 -228.065)"/>
      <path id="Path_614676" data-name="Path 614676" d="M964.883,311.229a2.353,2.353,0,0,0,1.756-2.46l2.181-.647a3.9,3.9,0,0,1-.2,2.121,4.574,4.574,0,0,1-1.272,1.821,4.814,4.814,0,0,1-1.984,1.067,4.138,4.138,0,0,1-2.514-.027,4.038,4.038,0,0,1-1.945-1.479,6.278,6.278,0,0,1-1.077-2.6l-.071-.35a7.185,7.185,0,0,1,.082-3.033,5.424,5.424,0,0,1,1.317-2.464,4.893,4.893,0,0,1,2.368-1.379,3.843,3.843,0,0,1,3.07.335,4.178,4.178,0,0,1,1.857,2.552l-2.164.632a2.454,2.454,0,0,0-.876-1.352,1.692,1.692,0,0,0-1.461-.24,2.439,2.439,0,0,0-1.8,1.774,6.69,6.69,0,0,0,.141,3.6Q962.991,311.74,964.883,311.229Z" transform="translate(-665.879 -229.914)"/>
      <path id="Path_614677" data-name="Path 614677" d="M980.814,290.3a1.357,1.357,0,0,1,.083-1.019,1.338,1.338,0,0,1,.828-.676,1.281,1.281,0,0,1,1.042.071,1.246,1.246,0,0,1,.636.782,1.28,1.28,0,0,1-.1,1.023,1.392,1.392,0,0,1-.819.652,1.3,1.3,0,0,1-1.034-.063A1.206,1.206,0,0,1,980.814,290.3Zm4.016,13.2-2.31.675L981.271,293.1l2.31-.675Z" transform="translate(-677.237 -222.868)"/>
      <path id="Path_614678" data-name="Path 614678" d="M992.862,292.966a7.227,7.227,0,0,1,.088-3.083,5.637,5.637,0,0,1,1.343-2.519,4.929,4.929,0,0,1,2.4-1.41,4.082,4.082,0,0,1,4.549,1.538,6.359,6.359,0,0,1,1.108,2.617,7.372,7.372,0,0,1-.046,3.229,5.608,5.608,0,0,1-1.353,2.538,5,5,0,0,1-2.418,1.41,4.075,4.075,0,0,1-4.53-1.527,6.277,6.277,0,0,1-1.113-2.579Zm2.661.672a2.9,2.9,0,0,0,1.021,1.484,1.8,1.8,0,0,0,1.559.248,2.532,2.532,0,0,0,1.726-1.5,5.027,5.027,0,0,0,.254-2.878l-.221-.972a3.519,3.519,0,0,0-1.069-1.814,1.819,1.819,0,0,0-1.662-.329,2.631,2.631,0,0,0-1.915,2.136,5.648,5.648,0,0,0-.044,2.276A8.459,8.459,0,0,0,995.523,293.637Zm1.291-12.31,2.777-.811-2.217,3.853-2.009.581Z" transform="translate(-683.685 -218.558)"/>
      <path id="Path_614679" data-name="Path 614679" d="M1018.6,285.568l.128,1.306a4.191,4.191,0,0,1,2.713-2.337,2.654,2.654,0,0,1,2.5.417,4.4,4.4,0,0,1,1.365,2.716l.85,7.146-2.31.675-.849-7.178a3.658,3.658,0,0,0-.218-.783,1.3,1.3,0,0,0-1.732-.784,2.924,2.924,0,0,0-1.931,1.971l.879,7.9-2.31.675-1.258-11.079Z" transform="translate(-696.429 -220.649)"/>
    </g>
    <path id="Path_614680" data-name="Path 614680" d="M1443.232,164.943l-5.312,1.552-.731,3.8-2.593.758,3.515-16.43,2.164-.632,6.895,13.388-2.417.707Zm-4.879-.732,3.977-1.162-2.679-5.586Z" transform="translate(-343.766 10895.841)"/>
    <path id="Path_614681" data-name="Path 614681" d="M1465.524,162.176l-2.31.675-1.772-15.731,2.31-.675Z" transform="translate(-358.205 10899.899)"/>
    <path id="Path_614682" data-name="Path 614682" d="M1474.466,147.217l.3,2.694,1.8-.527.21,1.843-1.812.53.731,6.2a2.1,2.1,0,0,0,.118.441.728.728,0,0,0,.974.435,4.6,4.6,0,0,0,.793-.327l.385,1.9a5.515,5.515,0,0,1-1.392.629,2.248,2.248,0,0,1-2.049-.3,3.105,3.105,0,0,1-1.095-1.991l-.775-6.311-1.686.493-.2-1.845,1.676-.49-.3-2.695Z" transform="translate(-363.222 10899.484)"/>
    <path id="Path_614683" data-name="Path 614683" d="M1495.145,158.194a3.265,3.265,0,0,1-.385-.956,4.076,4.076,0,0,1-2.472,2,3.367,3.367,0,0,1-2.534-.218,2.834,2.834,0,0,1-1.483-1.941,3.366,3.366,0,0,1,.677-3.044,6.545,6.545,0,0,1,3.385-2.026l1.507-.419-.074-.761a2.269,2.269,0,0,0-.207-.712,1.323,1.323,0,0,0-1.71-.675,2.19,2.19,0,0,0-1.191.755,1.692,1.692,0,0,0-.378,1.259l-2.3.694a3.009,3.009,0,0,1,.192-1.913,4.269,4.269,0,0,1,1.322-1.629,5.843,5.843,0,0,1,2.069-1.028,3.842,3.842,0,0,1,2.994.252,3.2,3.2,0,0,1,1.555,2.354l.635,5.178.178.9a3.239,3.239,0,0,0,.474,1.078l.042.178Zm-2.874-1a2.65,2.65,0,0,0,1.256-.732,3.723,3.723,0,0,0,.794-1.231l-.223-2.1-1.1.312a4.033,4.033,0,0,0-1.942,1.1,1.88,1.88,0,0,0-.493,1.609,1.245,1.245,0,0,0,.588.945A1.465,1.465,0,0,0,1492.272,157.193Z" transform="translate(-372.436 10899.386)"/>
    <path id="Path_614901" data-name="Path 614901" d="M0,250.652,857.89,0" transform="translate(371.281 11041.351)" fill="none" stroke="#000" stroke-width="5"/>
    <path id="Path_614684" data-name="Path 614684" d="M492,488.427v122.91H650.428V442.707Z" transform="translate(33.952 10773.796)" fill="#fbe83b"/>
    <path id="Path_614685" data-name="Path 614685" d="M1170,292.442V537.875h160.306V246.18Z" transform="translate(-219.486 10847.258)" fill="#fbe83b"/>
    <path id="Path_614686" data-name="Path 614686" d="M245,560.355V638.63H399.671V515.719Z" transform="translate(126.281 10746.504)" fill="#c1272d"/>
    <path id="Path_614687" data-name="Path 614687" d="M745,396.861v168.63h266.134V320.058Z" transform="translate(-60.62 10819.643)" fill="#39b54a"/>
    <path id="Path_614688" data-name="Path 614688" d="M1558.754,185,1426,223.311V515.006h132.754Z" transform="translate(-315.181 10870.127)" fill="#c1272d"/>
    <path id="Path_614902" data-name="Path 614902" d="M0,0H29.3" transform="translate(635.536 11437.107)" fill="none" stroke="#39b54a" stroke-width="5"/>
    <path id="Path_614903" data-name="Path 614903" d="M0,0H172.2" transform="translate(936.111 11471.732)" fill="none" stroke="#fbe83b" stroke-width="5"/>
    <path id="Path_614904" data-name="Path 614904" d="M0,0,313.1.387" transform="translate(936.111 11507.358)" fill="none" stroke="#c1272d" stroke-width="5"/>
    <path id="Path_614905" data-name="Path 614905" d="M172.2,0H0" transform="translate(492.763 11471.732)" fill="none" stroke="#fbe83b" stroke-width="5"/>
    <path id="Path_614906" data-name="Path 614906" d="M313.1,0,0,.387" transform="translate(351.869 11507.358)" fill="none" stroke="#c1272d" stroke-width="5"/>
    <path id="Path_614907" data-name="Path 614907" d="M7.994-2.814H3.312L2.333,0H.149L4.715-12.086H6.6L11.173,0H8.981ZM3.9-4.507H7.4L5.653-9.521ZM19.814-4.4a5.348,5.348,0,0,1-.946,3.324A3.031,3.031,0,0,1,16.328.166a3.051,3.051,0,0,1-2.366-.971V3.453H11.945V-8.981H13.8l.083.913A2.963,2.963,0,0,1,16.3-9.147,3.062,3.062,0,0,1,18.88-7.923a5.49,5.49,0,0,1,.934,3.4Zm-2.009-.174a3.746,3.746,0,0,0-.535-2.133A1.741,1.741,0,0,0,15.738-7.5a1.856,1.856,0,0,0-1.776,1.021V-2.49a1.873,1.873,0,0,0,1.793,1.046,1.739,1.739,0,0,0,1.507-.776A4.124,4.124,0,0,0,17.805-4.574Zm7.67,4.74a4.173,4.173,0,0,1-3.109-1.208,4.381,4.381,0,0,1-1.191-3.217v-.249a5.389,5.389,0,0,1,.519-2.4,3.949,3.949,0,0,1,1.457-1.648,3.851,3.851,0,0,1,2.092-.589,3.525,3.525,0,0,1,2.835,1.17,4.949,4.949,0,0,1,1,3.312v.813H23.209a2.7,2.7,0,0,0,.743,1.76,2.23,2.23,0,0,0,1.639.647,2.731,2.731,0,0,0,2.258-1.121l1.087,1.038A3.631,3.631,0,0,1,27.5-.278,4.509,4.509,0,0,1,25.475.166Zm-.241-7.695a1.7,1.7,0,0,0-1.341.581,3.012,3.012,0,0,0-.652,1.619h3.843v-.149a2.452,2.452,0,0,0-.54-1.531A1.686,1.686,0,0,0,25.234-7.529Zm7.936-3.636v2.183h1.585v1.494H33.17v5.014a1.1,1.1,0,0,0,.2.743A.943.943,0,0,0,34.1-1.5a3.107,3.107,0,0,0,.706-.083V-.025a4.968,4.968,0,0,1-1.328.191q-2.324,0-2.324-2.565V-7.487H29.675V-8.981h1.478v-2.183ZM38.441,0H36.424V-8.981h2.017ZM36.3-11.314a1.071,1.071,0,0,1,.295-.772,1.113,1.113,0,0,1,.843-.307,1.127,1.127,0,0,1,.847.307,1.062,1.062,0,0,1,.3.772,1.038,1.038,0,0,1-.3.76,1.136,1.136,0,0,1-.847.3,1.122,1.122,0,0,1-.843-.3A1.046,1.046,0,0,1,36.3-11.314Zm6.865.149v2.183H44.75v1.494H43.164v5.014a1.1,1.1,0,0,0,.2.743.943.943,0,0,0,.726.228,3.107,3.107,0,0,0,.706-.083V-.025a4.968,4.968,0,0,1-1.328.191q-2.324,0-2.324-2.565V-7.487H39.669V-8.981h1.478v-2.183Zm2.5,6.591a5.3,5.3,0,0,1,.523-2.378,3.819,3.819,0,0,1,1.469-1.627,4.14,4.14,0,0,1,2.175-.569,3.923,3.923,0,0,1,2.951,1.17A4.6,4.6,0,0,1,54-4.873l.008.473a5.343,5.343,0,0,1-.51,2.374A3.773,3.773,0,0,1,52.042-.407a4.17,4.17,0,0,1-2.2.573A3.9,3.9,0,0,1,46.8-1.1a4.848,4.848,0,0,1-1.141-3.374ZM47.68-4.4a3.619,3.619,0,0,0,.573,2.171,1.862,1.862,0,0,0,1.594.784,1.842,1.842,0,0,0,1.59-.8A4,4,0,0,0,52-4.574a3.572,3.572,0,0,0-.585-2.158,1.869,1.869,0,0,0-1.59-.8,1.852,1.852,0,0,0-1.569.784A3.922,3.922,0,0,0,47.68-4.4Zm11.9-.158a5.34,5.34,0,0,1,.963-3.333,3.085,3.085,0,0,1,2.582-1.258,2.931,2.931,0,0,1,2.308,1v-4.6h2.017V0H65.618l-.1-.93A2.973,2.973,0,0,1,63.1.166,3.068,3.068,0,0,1,60.55-1.1,5.535,5.535,0,0,1,59.575-4.557Zm2.017.174a3.739,3.739,0,0,0,.527,2.137,1.71,1.71,0,0,0,1.5.768,1.9,1.9,0,0,0,1.81-1.1V-6.417A1.876,1.876,0,0,0,63.634-7.5a1.723,1.723,0,0,0-1.511.776A4.163,4.163,0,0,0,61.592-4.383ZM73.5.166a4.173,4.173,0,0,1-3.109-1.208A4.381,4.381,0,0,1,69.2-4.258v-.249a5.389,5.389,0,0,1,.519-2.4,3.949,3.949,0,0,1,1.457-1.648,3.851,3.851,0,0,1,2.092-.589,3.525,3.525,0,0,1,2.835,1.17,4.949,4.949,0,0,1,1,3.312v.813H71.237a2.7,2.7,0,0,0,.743,1.76,2.23,2.23,0,0,0,1.639.647,2.731,2.731,0,0,0,2.258-1.121l1.087,1.038a3.631,3.631,0,0,1-1.44,1.249A4.509,4.509,0,0,1,73.5.166Zm-.241-7.695a1.7,1.7,0,0,0-1.341.581,3.012,3.012,0,0,0-.652,1.619h3.843v-.149a2.452,2.452,0,0,0-.54-1.531A1.686,1.686,0,0,0,73.263-7.529Zm14.344.39a4.991,4.991,0,0,0-.822-.066,1.85,1.85,0,0,0-1.868,1.063V0H82.9V-8.981h1.926l.05,1A2.273,2.273,0,0,1,86.9-9.147a1.888,1.888,0,0,1,.714.116ZM91.026,0H89.009V-8.981h2.017ZM88.885-11.314a1.071,1.071,0,0,1,.295-.772,1.113,1.113,0,0,1,.843-.307,1.127,1.127,0,0,1,.847.307,1.062,1.062,0,0,1,.3.772,1.038,1.038,0,0,1-.3.76,1.136,1.136,0,0,1-.847.3,1.122,1.122,0,0,1-.843-.3A1.046,1.046,0,0,1,88.885-11.314ZM97.177.166a4.173,4.173,0,0,1-3.109-1.208,4.381,4.381,0,0,1-1.191-3.217v-.249a5.389,5.389,0,0,1,.519-2.4,3.949,3.949,0,0,1,1.457-1.648,3.851,3.851,0,0,1,2.092-.589,3.525,3.525,0,0,1,2.835,1.17,4.949,4.949,0,0,1,1,3.312v.813H94.911a2.7,2.7,0,0,0,.743,1.76,2.23,2.23,0,0,0,1.639.647,2.731,2.731,0,0,0,2.258-1.121l1.087,1.038A3.631,3.631,0,0,1,99.2-.278,4.509,4.509,0,0,1,97.177.166Zm-.241-7.695a1.7,1.7,0,0,0-1.341.581,3.012,3.012,0,0,0-.652,1.619h3.843v-.149a2.452,2.452,0,0,0-.54-1.531A1.686,1.686,0,0,0,96.937-7.529ZM107.379-2.44a.914.914,0,0,0-.444-.822,4.723,4.723,0,0,0-1.473-.5,7.574,7.574,0,0,1-1.718-.548,2.293,2.293,0,0,1-1.511-2.117,2.391,2.391,0,0,1,.979-1.942,3.872,3.872,0,0,1,2.49-.78,4.029,4.029,0,0,1,2.6.8,2.529,2.529,0,0,1,.992,2.067h-2.017a1.243,1.243,0,0,0-.432-.967,1.654,1.654,0,0,0-1.146-.386,1.787,1.787,0,0,0-1.083.307.968.968,0,0,0-.419.822.818.818,0,0,0,.39.722,5.365,5.365,0,0,0,1.577.519,7.466,7.466,0,0,1,1.864.623,2.639,2.639,0,0,1,1,.867,2.212,2.212,0,0,1,.328,1.229,2.34,2.34,0,0,1-1,1.963,4.283,4.283,0,0,1-2.631.751,4.644,4.644,0,0,1-1.967-.4,3.238,3.238,0,0,1-1.345-1.1,2.594,2.594,0,0,1-.481-1.5h1.959a1.421,1.421,0,0,0,.54,1.1,2.1,2.1,0,0,0,1.32.386,2.04,2.04,0,0,0,1.212-.3A.938.938,0,0,0,107.379-2.44Zm3.387-2.117a5.253,5.253,0,0,1,.984-3.341,3.157,3.157,0,0,1,2.611-1.249,2.958,2.958,0,0,1,2.416,1.071l.091-.9h1.818V-.274a3.619,3.619,0,0,1-1.1,2.789,4.189,4.189,0,0,1-2.968,1.021,4.783,4.783,0,0,1-1.93-.411,3.429,3.429,0,0,1-1.432-1.075L112.21.838a2.883,2.883,0,0,0,2.291,1.1,2.228,2.228,0,0,0,1.585-.544,2.084,2.084,0,0,0,.581-1.6V-.805a2.97,2.97,0,0,1-2.324.971,3.15,3.15,0,0,1-2.577-1.253A5.423,5.423,0,0,1,110.766-4.557Zm2.009.174a3.616,3.616,0,0,0,.552,2.129,1.775,1.775,0,0,0,1.531.776,1.941,1.941,0,0,0,1.81-1.046V-6.475A1.913,1.913,0,0,0,114.875-7.5a1.782,1.782,0,0,0-1.548.789A4.049,4.049,0,0,0,112.774-4.383Zm7.6-.191a5.3,5.3,0,0,1,.523-2.378,3.819,3.819,0,0,1,1.469-1.627,4.14,4.14,0,0,1,2.175-.569,3.923,3.923,0,0,1,2.951,1.17,4.6,4.6,0,0,1,1.224,3.1l.008.473a5.343,5.343,0,0,1-.51,2.374,3.773,3.773,0,0,1-1.461,1.619,4.17,4.17,0,0,1-2.2.573A3.9,3.9,0,0,1,121.519-1.1a4.848,4.848,0,0,1-1.141-3.374ZM122.4-4.4a3.619,3.619,0,0,0,.573,2.171,1.862,1.862,0,0,0,1.594.784,1.842,1.842,0,0,0,1.59-.8,4,4,0,0,0,.569-2.333,3.572,3.572,0,0,0-.585-2.158,1.869,1.869,0,0,0-1.59-.8,1.852,1.852,0,0,0-1.569.784A3.922,3.922,0,0,0,122.4-4.4Z" transform="translate(736 11443.054)"/>
    <path id="Path_614908" data-name="Path 614908" d="M9.961-10.393H6.192V0H4.109V-10.393H.374v-1.693H9.961ZM9.247-4.574A5.3,5.3,0,0,1,9.77-6.952a3.819,3.819,0,0,1,1.469-1.627,4.14,4.14,0,0,1,2.175-.569,3.923,3.923,0,0,1,2.951,1.17,4.6,4.6,0,0,1,1.224,3.1L17.6-4.4a5.343,5.343,0,0,1-.51,2.374A3.773,3.773,0,0,1,15.626-.407a4.17,4.17,0,0,1-2.2.573A3.9,3.9,0,0,1,10.388-1.1,4.848,4.848,0,0,1,9.247-4.474Zm2.017.174a3.619,3.619,0,0,0,.573,2.171,1.862,1.862,0,0,0,1.594.784,1.842,1.842,0,0,0,1.59-.8,4,4,0,0,0,.569-2.333A3.572,3.572,0,0,0,15-6.732a1.869,1.869,0,0,0-1.59-.8,1.852,1.852,0,0,0-1.569.784A3.922,3.922,0,0,0,11.264-4.4ZM21.449,0H19.432V-12.75h2.017ZM27.6.166a4.173,4.173,0,0,1-3.109-1.208A4.381,4.381,0,0,1,23.3-4.258v-.249a5.389,5.389,0,0,1,.519-2.4,3.949,3.949,0,0,1,1.457-1.648,3.851,3.851,0,0,1,2.092-.589A3.525,3.525,0,0,1,30.2-7.977a4.949,4.949,0,0,1,1,3.312v.813H25.334a2.7,2.7,0,0,0,.743,1.76,2.23,2.23,0,0,0,1.639.647,2.731,2.731,0,0,0,2.258-1.121l1.087,1.038a3.631,3.631,0,0,1-1.44,1.249A4.509,4.509,0,0,1,27.6.166Zm-.241-7.695a1.7,1.7,0,0,0-1.341.581,3.012,3.012,0,0,0-.652,1.619H29.21v-.149a2.452,2.452,0,0,0-.54-1.531A1.686,1.686,0,0,0,27.359-7.529Zm10.11.39a4.991,4.991,0,0,0-.822-.066A1.85,1.85,0,0,0,34.78-6.143V0H32.763V-8.981h1.926l.05,1a2.273,2.273,0,0,1,2.025-1.17,1.888,1.888,0,0,1,.714.116ZM43.861,0a3.113,3.113,0,0,1-.232-.838,3.14,3.14,0,0,1-2.357,1,3.169,3.169,0,0,1-2.208-.772,2.47,2.47,0,0,1-.855-1.909,2.55,2.55,0,0,1,1.067-2.2,5.169,5.169,0,0,1,3.051-.768h1.237v-.589a1.573,1.573,0,0,0-.39-1.116,1.547,1.547,0,0,0-1.187-.419,1.777,1.777,0,0,0-1.129.344,1.066,1.066,0,0,0-.44.876H38.4a2.239,2.239,0,0,1,.49-1.382,3.263,3.263,0,0,1,1.332-1.009,4.68,4.68,0,0,1,1.88-.365,3.769,3.769,0,0,1,2.515.793,2.827,2.827,0,0,1,.963,2.229v4.051a4.591,4.591,0,0,0,.34,1.934V0ZM41.645-1.453a2.294,2.294,0,0,0,1.125-.291,1.941,1.941,0,0,0,.793-.78V-4.217H42.475a2.973,2.973,0,0,0-1.685.39,1.264,1.264,0,0,0-.564,1.1,1.179,1.179,0,0,0,.386.926A1.5,1.5,0,0,0,41.645-1.453Zm7.919-7.529.058,1.038a3.229,3.229,0,0,1,2.615-1.2q2.806,0,2.855,3.212V0H53.075V-5.819a1.85,1.85,0,0,0-.369-1.266A1.554,1.554,0,0,0,51.5-7.5a1.944,1.944,0,0,0-1.818,1.1V0H47.663V-8.981ZM60.836-1.444a1.824,1.824,0,0,0,1.253-.44,1.5,1.5,0,0,0,.531-1.087h1.9A2.963,2.963,0,0,1,64-1.407a3.43,3.43,0,0,1-1.328,1.15,3.958,3.958,0,0,1-1.81.423,3.829,3.829,0,0,1-2.988-1.22,4.84,4.84,0,0,1-1.1-3.37v-.208a4.759,4.759,0,0,1,1.1-3.283,3.8,3.8,0,0,1,2.988-1.233,3.69,3.69,0,0,1,2.611.934,3.345,3.345,0,0,1,1.058,2.453h-1.9a1.847,1.847,0,0,0-.527-1.27,1.7,1.7,0,0,0-1.258-.5,1.775,1.775,0,0,0-1.511.71,3.621,3.621,0,0,0-.54,2.154v.324a3.682,3.682,0,0,0,.527,2.179A1.773,1.773,0,0,0,60.836-1.444ZM68.191,0H66.174V-8.981h2.017ZM66.049-11.314a1.071,1.071,0,0,1,.295-.772,1.113,1.113,0,0,1,.843-.307,1.127,1.127,0,0,1,.847.307,1.062,1.062,0,0,1,.3.772,1.038,1.038,0,0,1-.3.76,1.136,1.136,0,0,1-.847.3,1.122,1.122,0,0,1-.843-.3A1.046,1.046,0,0,1,66.049-11.314ZM75.753,0a3.113,3.113,0,0,1-.232-.838,3.14,3.14,0,0,1-2.357,1,3.169,3.169,0,0,1-2.208-.772A2.47,2.47,0,0,1,70.1-2.515a2.55,2.55,0,0,1,1.067-2.2,5.169,5.169,0,0,1,3.051-.768h1.237v-.589a1.573,1.573,0,0,0-.39-1.116,1.547,1.547,0,0,0-1.187-.419,1.777,1.777,0,0,0-1.129.344,1.066,1.066,0,0,0-.44.876H70.291a2.239,2.239,0,0,1,.49-1.382,3.263,3.263,0,0,1,1.332-1.009,4.68,4.68,0,0,1,1.88-.365,3.769,3.769,0,0,1,2.515.793,2.827,2.827,0,0,1,.963,2.229v4.051a4.591,4.591,0,0,0,.34,1.934V0ZM73.537-1.453a2.294,2.294,0,0,0,1.125-.291,1.941,1.941,0,0,0,.793-.78V-4.217H74.367a2.973,2.973,0,0,0-1.685.39,1.264,1.264,0,0,0-.564,1.1A1.179,1.179,0,0,0,72.5-1.8,1.5,1.5,0,0,0,73.537-1.453Zm9.9-3.1A5.34,5.34,0,0,1,84.4-7.89a3.085,3.085,0,0,1,2.582-1.258,2.931,2.931,0,0,1,2.308,1v-4.6h2.017V0H89.482l-.1-.93a2.973,2.973,0,0,1-2.416,1.1A3.068,3.068,0,0,1,84.415-1.1,5.535,5.535,0,0,1,83.439-4.557Zm2.017.174a3.739,3.739,0,0,0,.527,2.137,1.71,1.71,0,0,0,1.5.768,1.9,1.9,0,0,0,1.81-1.1V-6.417A1.876,1.876,0,0,0,87.5-7.5a1.723,1.723,0,0,0-1.511.776A4.163,4.163,0,0,0,85.457-4.383ZM97.368.166A4.173,4.173,0,0,1,94.26-1.042a4.381,4.381,0,0,1-1.191-3.217v-.249a5.389,5.389,0,0,1,.519-2.4,3.949,3.949,0,0,1,1.457-1.648,3.851,3.851,0,0,1,2.092-.589,3.525,3.525,0,0,1,2.835,1.17,4.949,4.949,0,0,1,1,3.312v.813H95.1a2.7,2.7,0,0,0,.743,1.76,2.23,2.23,0,0,0,1.639.647,2.731,2.731,0,0,0,2.258-1.121l1.087,1.038a3.631,3.631,0,0,1-1.44,1.249A4.509,4.509,0,0,1,97.368.166Zm-.241-7.695a1.7,1.7,0,0,0-1.341.581,3.012,3.012,0,0,0-.652,1.619h3.843v-.149a2.452,2.452,0,0,0-.54-1.531A1.686,1.686,0,0,0,97.127-7.529Zm14.344.39a4.991,4.991,0,0,0-.822-.066,1.85,1.85,0,0,0-1.868,1.063V0h-2.017V-8.981h1.926l.05,1a2.273,2.273,0,0,1,2.025-1.17,1.888,1.888,0,0,1,.714.116ZM114.891,0h-2.017V-8.981h2.017ZM112.75-11.314a1.071,1.071,0,0,1,.295-.772,1.113,1.113,0,0,1,.843-.307,1.127,1.127,0,0,1,.847.307,1.062,1.062,0,0,1,.3.772,1.038,1.038,0,0,1-.3.76,1.136,1.136,0,0,1-.847.3,1.122,1.122,0,0,1-.843-.3A1.046,1.046,0,0,1,112.75-11.314ZM121.042.166a4.173,4.173,0,0,1-3.109-1.208,4.381,4.381,0,0,1-1.191-3.217v-.249a5.389,5.389,0,0,1,.519-2.4,3.949,3.949,0,0,1,1.457-1.648,3.851,3.851,0,0,1,2.092-.589,3.525,3.525,0,0,1,2.835,1.17,4.949,4.949,0,0,1,1,3.312v.813h-5.869a2.7,2.7,0,0,0,.743,1.76,2.23,2.23,0,0,0,1.639.647,2.731,2.731,0,0,0,2.258-1.121L124.5-1.527a3.631,3.631,0,0,1-1.44,1.249A4.509,4.509,0,0,1,121.042.166ZM120.8-7.529a1.7,1.7,0,0,0-1.341.581,3.012,3.012,0,0,0-.652,1.619h3.843v-.149a2.452,2.452,0,0,0-.54-1.531A1.686,1.686,0,0,0,120.8-7.529ZM131.244-2.44a.914.914,0,0,0-.444-.822,4.723,4.723,0,0,0-1.473-.5,7.574,7.574,0,0,1-1.718-.548A2.293,2.293,0,0,1,126.1-6.425a2.391,2.391,0,0,1,.979-1.942,3.872,3.872,0,0,1,2.49-.78,4.029,4.029,0,0,1,2.6.8,2.529,2.529,0,0,1,.992,2.067h-2.017a1.243,1.243,0,0,0-.432-.967,1.654,1.654,0,0,0-1.146-.386,1.787,1.787,0,0,0-1.083.307.968.968,0,0,0-.419.822.818.818,0,0,0,.39.722,5.365,5.365,0,0,0,1.577.519,7.466,7.466,0,0,1,1.864.623,2.639,2.639,0,0,1,1,.867,2.212,2.212,0,0,1,.328,1.229,2.34,2.34,0,0,1-1,1.963,4.283,4.283,0,0,1-2.631.751,4.644,4.644,0,0,1-1.967-.4,3.238,3.238,0,0,1-1.345-1.1,2.594,2.594,0,0,1-.481-1.5h1.959a1.421,1.421,0,0,0,.54,1.1,2.1,2.1,0,0,0,1.32.386,2.04,2.04,0,0,0,1.212-.3A.938.938,0,0,0,131.244-2.44Zm3.387-2.117a5.253,5.253,0,0,1,.984-3.341,3.157,3.157,0,0,1,2.611-1.249,2.958,2.958,0,0,1,2.416,1.071l.091-.9h1.818V-.274a3.619,3.619,0,0,1-1.1,2.789,4.189,4.189,0,0,1-2.968,1.021,4.783,4.783,0,0,1-1.93-.411A3.429,3.429,0,0,1,135.12,2.05l.955-1.212a2.883,2.883,0,0,0,2.291,1.1,2.228,2.228,0,0,0,1.585-.544,2.084,2.084,0,0,0,.581-1.6V-.805a2.97,2.97,0,0,1-2.324.971,3.15,3.15,0,0,1-2.577-1.253A5.423,5.423,0,0,1,134.63-4.557Zm2.009.174a3.616,3.616,0,0,0,.552,2.129,1.775,1.775,0,0,0,1.531.776,1.941,1.941,0,0,0,1.81-1.046V-6.475A1.913,1.913,0,0,0,138.739-7.5a1.782,1.782,0,0,0-1.548.789A4.049,4.049,0,0,0,136.639-4.383Zm7.6-.191a5.3,5.3,0,0,1,.523-2.378,3.819,3.819,0,0,1,1.469-1.627,4.14,4.14,0,0,1,2.175-.569,3.923,3.923,0,0,1,2.951,1.17,4.6,4.6,0,0,1,1.224,3.1l.008.473a5.343,5.343,0,0,1-.51,2.374,3.773,3.773,0,0,1-1.461,1.619,4.17,4.17,0,0,1-2.2.573A3.9,3.9,0,0,1,145.384-1.1a4.848,4.848,0,0,1-1.141-3.374Zm2.017.174a3.619,3.619,0,0,0,.573,2.171,1.862,1.862,0,0,0,1.594.784,1.842,1.842,0,0,0,1.59-.8,4,4,0,0,0,.569-2.333A3.572,3.572,0,0,0,150-6.732a1.869,1.869,0,0,0-1.59-.8,1.852,1.852,0,0,0-1.569.784A3.922,3.922,0,0,0,146.26-4.4Z" transform="translate(724 11476.523)"/>
    <path id="Path_614909" data-name="Path 614909" d="M10.451-3.935A4.364,4.364,0,0,1,9.023-.917,4.867,4.867,0,0,1,5.711.166,4.713,4.713,0,0,1,3.167-.519a4.5,4.5,0,0,1-1.7-1.947A7.024,7.024,0,0,1,.847-5.4V-6.524a7.075,7.075,0,0,1,.606-3.013,4.567,4.567,0,0,1,1.739-2.009,4.851,4.851,0,0,1,2.619-.706,4.672,4.672,0,0,1,3.221,1.083A4.527,4.527,0,0,1,10.451-8.1H8.359a2.985,2.985,0,0,0-.76-1.88,2.51,2.51,0,0,0-1.789-.577,2.452,2.452,0,0,0-2.1,1A5,5,0,0,0,2.955-6.62v1.072a5.308,5.308,0,0,0,.7,2.991,2.328,2.328,0,0,0,2.054,1.03A2.715,2.715,0,0,0,7.57-2.083a2.9,2.9,0,0,0,.789-1.851ZM17.5,0a3.113,3.113,0,0,1-.232-.838,3.14,3.14,0,0,1-2.357,1A3.169,3.169,0,0,1,12.7-.606a2.47,2.47,0,0,1-.855-1.909,2.55,2.55,0,0,1,1.067-2.2,5.169,5.169,0,0,1,3.051-.768H17.2v-.589a1.573,1.573,0,0,0-.39-1.116,1.547,1.547,0,0,0-1.187-.419,1.777,1.777,0,0,0-1.129.344,1.066,1.066,0,0,0-.44.876H12.036a2.239,2.239,0,0,1,.49-1.382,3.263,3.263,0,0,1,1.332-1.009,4.68,4.68,0,0,1,1.88-.365,3.769,3.769,0,0,1,2.515.793,2.827,2.827,0,0,1,.963,2.229v4.051a4.591,4.591,0,0,0,.34,1.934V0ZM15.282-1.453a2.294,2.294,0,0,0,1.125-.291,1.941,1.941,0,0,0,.793-.78V-4.217H16.112a2.973,2.973,0,0,0-1.685.39,1.264,1.264,0,0,0-.564,1.1,1.179,1.179,0,0,0,.386.926A1.5,1.5,0,0,0,15.282-1.453ZM29.194-4.4a5.348,5.348,0,0,1-.946,3.324A3.031,3.031,0,0,1,25.708.166a3.051,3.051,0,0,1-2.366-.971V3.453H21.325V-8.981h1.859l.083.913a2.963,2.963,0,0,1,2.416-1.079A3.062,3.062,0,0,1,28.26-7.923a5.49,5.49,0,0,1,.934,3.4Zm-2.009-.174a3.746,3.746,0,0,0-.535-2.133A1.741,1.741,0,0,0,25.118-7.5a1.856,1.856,0,0,0-1.776,1.021V-2.49a1.873,1.873,0,0,0,1.793,1.046,1.739,1.739,0,0,0,1.507-.776A4.124,4.124,0,0,0,27.185-4.574ZM36.266,0a3.113,3.113,0,0,1-.232-.838,3.14,3.14,0,0,1-2.357,1,3.169,3.169,0,0,1-2.208-.772,2.47,2.47,0,0,1-.855-1.909,2.55,2.55,0,0,1,1.067-2.2,5.169,5.169,0,0,1,3.051-.768h1.237v-.589a1.573,1.573,0,0,0-.39-1.116,1.547,1.547,0,0,0-1.187-.419,1.777,1.777,0,0,0-1.129.344,1.066,1.066,0,0,0-.44.876H30.8a2.239,2.239,0,0,1,.49-1.382,3.263,3.263,0,0,1,1.332-1.009,4.68,4.68,0,0,1,1.88-.365,3.769,3.769,0,0,1,2.515.793,2.827,2.827,0,0,1,.963,2.229v4.051a4.591,4.591,0,0,0,.34,1.934V0ZM34.05-1.453a2.294,2.294,0,0,0,1.125-.291,1.941,1.941,0,0,0,.793-.78V-4.217H34.88a2.973,2.973,0,0,0-1.685.39,1.264,1.264,0,0,0-.564,1.1,1.179,1.179,0,0,0,.386.926A1.5,1.5,0,0,0,34.05-1.453Zm9.737.008a1.824,1.824,0,0,0,1.253-.44,1.5,1.5,0,0,0,.531-1.087h1.9a2.963,2.963,0,0,1-.523,1.565,3.43,3.43,0,0,1-1.328,1.15,3.958,3.958,0,0,1-1.81.423,3.829,3.829,0,0,1-2.988-1.22,4.84,4.84,0,0,1-1.1-3.37v-.208a4.759,4.759,0,0,1,1.1-3.283A3.8,3.8,0,0,1,43.8-9.147a3.69,3.69,0,0,1,2.611.934,3.345,3.345,0,0,1,1.058,2.453h-1.9a1.847,1.847,0,0,0-.527-1.27,1.7,1.7,0,0,0-1.258-.5,1.775,1.775,0,0,0-1.511.71,3.621,3.621,0,0,0-.54,2.154v.324a3.682,3.682,0,0,0,.527,2.179A1.773,1.773,0,0,0,43.787-1.444ZM51.141,0H49.124V-8.981h2.017ZM49-11.314a1.071,1.071,0,0,1,.295-.772,1.113,1.113,0,0,1,.843-.307,1.127,1.127,0,0,1,.847.307,1.062,1.062,0,0,1,.3.772,1.038,1.038,0,0,1-.3.76,1.136,1.136,0,0,1-.847.3,1.122,1.122,0,0,1-.843-.3A1.046,1.046,0,0,1,49-11.314Zm3.959,6.757a5.34,5.34,0,0,1,.963-3.333A3.085,3.085,0,0,1,56.5-9.147a2.931,2.931,0,0,1,2.308,1v-4.6h2.017V0H59l-.1-.93a2.973,2.973,0,0,1-2.416,1.1A3.068,3.068,0,0,1,53.934-1.1,5.535,5.535,0,0,1,52.959-4.557Zm2.017.174A3.739,3.739,0,0,0,55.5-2.245a1.71,1.71,0,0,0,1.5.768,1.9,1.9,0,0,0,1.81-1.1V-6.417A1.876,1.876,0,0,0,57.018-7.5a1.723,1.723,0,0,0-1.511.776A4.163,4.163,0,0,0,54.976-4.383ZM68.3,0a3.113,3.113,0,0,1-.232-.838,3.14,3.14,0,0,1-2.357,1A3.169,3.169,0,0,1,63.5-.606a2.47,2.47,0,0,1-.855-1.909,2.55,2.55,0,0,1,1.067-2.2,5.169,5.169,0,0,1,3.051-.768H68v-.589a1.573,1.573,0,0,0-.39-1.116,1.547,1.547,0,0,0-1.187-.419,1.777,1.777,0,0,0-1.129.344,1.066,1.066,0,0,0-.44.876H62.837a2.239,2.239,0,0,1,.49-1.382,3.263,3.263,0,0,1,1.332-1.009,4.68,4.68,0,0,1,1.88-.365,3.769,3.769,0,0,1,2.515.793,2.827,2.827,0,0,1,.963,2.229v4.051a4.591,4.591,0,0,0,.34,1.934V0ZM66.083-1.453a2.294,2.294,0,0,0,1.125-.291A1.941,1.941,0,0,0,68-2.523V-4.217H66.913a2.973,2.973,0,0,0-1.685.39,1.264,1.264,0,0,0-.564,1.1,1.179,1.179,0,0,0,.386.926A1.5,1.5,0,0,0,66.083-1.453Zm5.669-3.1a5.34,5.34,0,0,1,.963-3.333A3.085,3.085,0,0,1,75.3-9.147a2.931,2.931,0,0,1,2.308,1v-4.6h2.017V0H77.795l-.1-.93A2.973,2.973,0,0,1,75.28.166,3.068,3.068,0,0,1,72.727-1.1,5.535,5.535,0,0,1,71.752-4.557Zm2.017.174A3.739,3.739,0,0,0,74.3-2.245a1.71,1.71,0,0,0,1.5.768,1.9,1.9,0,0,0,1.81-1.1V-6.417A1.876,1.876,0,0,0,75.811-7.5a1.723,1.723,0,0,0-1.511.776A4.163,4.163,0,0,0,73.769-4.383Zm11.812-.174a5.34,5.34,0,0,1,.963-3.333,3.085,3.085,0,0,1,2.582-1.258,2.931,2.931,0,0,1,2.308,1v-4.6H93.45V0H91.624l-.1-.93a2.973,2.973,0,0,1-2.416,1.1A3.068,3.068,0,0,1,86.556-1.1,5.535,5.535,0,0,1,85.581-4.557Zm2.017.174a3.739,3.739,0,0,0,.527,2.137,1.71,1.71,0,0,0,1.5.768,1.9,1.9,0,0,0,1.81-1.1V-6.417A1.876,1.876,0,0,0,89.64-7.5a1.723,1.723,0,0,0-1.511.776A4.163,4.163,0,0,0,87.6-4.383ZM99.51.166A4.173,4.173,0,0,1,96.4-1.042,4.381,4.381,0,0,1,95.21-4.258v-.249a5.389,5.389,0,0,1,.519-2.4,3.949,3.949,0,0,1,1.457-1.648,3.851,3.851,0,0,1,2.092-.589,3.525,3.525,0,0,1,2.835,1.17,4.949,4.949,0,0,1,1,3.312v.813H97.244a2.7,2.7,0,0,0,.743,1.76,2.23,2.23,0,0,0,1.639.647,2.731,2.731,0,0,0,2.258-1.121l1.087,1.038a3.631,3.631,0,0,1-1.44,1.249A4.509,4.509,0,0,1,99.51.166Zm-.241-7.695a1.7,1.7,0,0,0-1.341.581,3.012,3.012,0,0,0-.652,1.619h3.843v-.149a2.452,2.452,0,0,0-.54-1.531A1.686,1.686,0,0,0,99.269-7.529Zm14.344.39a4.991,4.991,0,0,0-.822-.066,1.85,1.85,0,0,0-1.868,1.063V0h-2.017V-8.981h1.926l.05,1a2.273,2.273,0,0,1,2.025-1.17,1.888,1.888,0,0,1,.714.116ZM117.033,0h-2.017V-8.981h2.017Zm-2.142-11.314a1.071,1.071,0,0,1,.295-.772,1.113,1.113,0,0,1,.843-.307,1.127,1.127,0,0,1,.847.307,1.062,1.062,0,0,1,.3.772,1.038,1.038,0,0,1-.3.76,1.136,1.136,0,0,1-.847.3,1.122,1.122,0,0,1-.843-.3A1.046,1.046,0,0,1,114.891-11.314ZM123.184.166a4.173,4.173,0,0,1-3.109-1.208,4.381,4.381,0,0,1-1.191-3.217v-.249a5.389,5.389,0,0,1,.519-2.4,3.949,3.949,0,0,1,1.457-1.648,3.851,3.851,0,0,1,2.092-.589,3.525,3.525,0,0,1,2.835,1.17,4.949,4.949,0,0,1,1,3.312v.813h-5.869a2.7,2.7,0,0,0,.743,1.76,2.23,2.23,0,0,0,1.639.647,2.731,2.731,0,0,0,2.258-1.121l1.087,1.038A3.631,3.631,0,0,1,125.2-.278,4.509,4.509,0,0,1,123.184.166Zm-.241-7.695a1.7,1.7,0,0,0-1.341.581,3.012,3.012,0,0,0-.652,1.619h3.843v-.149a2.452,2.452,0,0,0-.54-1.531A1.686,1.686,0,0,0,122.943-7.529ZM133.385-2.44a.914.914,0,0,0-.444-.822,4.723,4.723,0,0,0-1.473-.5,7.574,7.574,0,0,1-1.718-.548,2.293,2.293,0,0,1-1.511-2.117,2.391,2.391,0,0,1,.979-1.942,3.872,3.872,0,0,1,2.49-.78,4.029,4.029,0,0,1,2.6.8,2.529,2.529,0,0,1,.992,2.067h-2.017a1.243,1.243,0,0,0-.432-.967,1.654,1.654,0,0,0-1.146-.386,1.787,1.787,0,0,0-1.083.307.968.968,0,0,0-.419.822.818.818,0,0,0,.39.722,5.365,5.365,0,0,0,1.577.519,7.466,7.466,0,0,1,1.864.623,2.639,2.639,0,0,1,1,.867,2.212,2.212,0,0,1,.328,1.229,2.34,2.34,0,0,1-1,1.963,4.283,4.283,0,0,1-2.631.751,4.644,4.644,0,0,1-1.967-.4,3.238,3.238,0,0,1-1.345-1.1,2.594,2.594,0,0,1-.481-1.5H129.9a1.421,1.421,0,0,0,.54,1.1,2.1,2.1,0,0,0,1.32.386,2.04,2.04,0,0,0,1.212-.3A.938.938,0,0,0,133.385-2.44Zm3.387-2.117a5.253,5.253,0,0,1,.984-3.341,3.157,3.157,0,0,1,2.611-1.249,2.958,2.958,0,0,1,2.416,1.071l.091-.9h1.818V-.274a3.619,3.619,0,0,1-1.1,2.789,4.189,4.189,0,0,1-2.968,1.021,4.783,4.783,0,0,1-1.93-.411,3.429,3.429,0,0,1-1.432-1.075l.955-1.212a2.883,2.883,0,0,0,2.291,1.1,2.228,2.228,0,0,0,1.585-.544,2.084,2.084,0,0,0,.581-1.6V-.805a2.97,2.97,0,0,1-2.324.971,3.15,3.15,0,0,1-2.577-1.253A5.423,5.423,0,0,1,136.772-4.557Zm2.009.174a3.616,3.616,0,0,0,.552,2.129,1.775,1.775,0,0,0,1.531.776,1.941,1.941,0,0,0,1.81-1.046V-6.475A1.913,1.913,0,0,0,140.881-7.5a1.782,1.782,0,0,0-1.548.789A4.049,4.049,0,0,0,138.781-4.383Zm7.6-.191a5.3,5.3,0,0,1,.523-2.378,3.819,3.819,0,0,1,1.469-1.627,4.14,4.14,0,0,1,2.175-.569,3.923,3.923,0,0,1,2.951,1.17,4.6,4.6,0,0,1,1.224,3.1l.008.473a5.343,5.343,0,0,1-.51,2.374,3.773,3.773,0,0,1-1.461,1.619,4.17,4.17,0,0,1-2.2.573A3.9,3.9,0,0,1,147.526-1.1a4.848,4.848,0,0,1-1.141-3.374ZM148.4-4.4a3.619,3.619,0,0,0,.573,2.171,1.862,1.862,0,0,0,1.594.784,1.842,1.842,0,0,0,1.59-.8,4,4,0,0,0,.569-2.333,3.572,3.572,0,0,0-.585-2.158,1.869,1.869,0,0,0-1.59-.8,1.852,1.852,0,0,0-1.569.784A3.922,3.922,0,0,0,148.4-4.4Z" transform="translate(723 11510.993)"/>
    <path id="Path_614910" data-name="Path 614910" d="M0,0H29.3" transform="translate(936.166 11437.107)" fill="none" stroke="#39b54a" stroke-width="5"/>
  </g>
</svg>
