<svg xmlns="http://www.w3.org/2000/svg" width="1030" height="578" viewBox="0 0 1030 578">
  <g id="Group_1075350" data-name="Group 1075350" transform="translate(-285 -7504)">
    <path id="Path_614925" data-name="Path 614925" d="M0,0H1030V578H0Z" transform="translate(285 7504)" fill="#fff"/>
    <path id="Path_614926" data-name="Path 614926" d="M9.688-3.609A4.185,4.185,0,0,1,8.355-.824a4.365,4.365,0,0,1-2.98.98,4.008,4.008,0,0,1-3.23-1.445A5.815,5.815,0,0,1,.93-5.156V-6.25A6.481,6.481,0,0,1,1.5-9.039,4.231,4.231,0,0,1,3.1-10.887a4.47,4.47,0,0,1,2.406-.645A4.11,4.11,0,0,1,8.414-10.52a4.235,4.235,0,0,1,1.273,2.8H8.18a3.268,3.268,0,0,0-.848-1.975A2.565,2.565,0,0,0,5.508-10.3,2.684,2.684,0,0,0,3.254-9.241a4.882,4.882,0,0,0-.816,3.026v1.1a5.018,5.018,0,0,0,.773,2.948A2.5,2.5,0,0,0,5.375-1.07a2.887,2.887,0,0,0,1.918-.566A3.143,3.143,0,0,0,8.18-3.609ZM13.078,0H11.633V-8.453h1.445ZM11.516-10.7a.863.863,0,0,1,.215-.594.807.807,0,0,1,.637-.242.819.819,0,0,1,.641.242.854.854,0,0,1,.219.594.826.826,0,0,1-.219.586.834.834,0,0,1-.641.234.821.821,0,0,1-.637-.234A.834.834,0,0,1,11.516-10.7ZM18.9.156A3.693,3.693,0,0,1,16.1-.973a4.19,4.19,0,0,1-1.078-3.02v-.266A5.073,5.073,0,0,1,15.5-6.5a3.748,3.748,0,0,1,1.344-1.547,3.378,3.378,0,0,1,1.871-.559,3.166,3.166,0,0,1,2.563,1.086A4.7,4.7,0,0,1,22.2-4.414v.6H16.469a3,3,0,0,0,.73,2.02,2.3,2.3,0,0,0,1.777.77,2.517,2.517,0,0,0,1.3-.312,3.259,3.259,0,0,0,.93-.828l.883.688A3.55,3.55,0,0,1,18.9.156Zm-.18-7.578a1.928,1.928,0,0,0-1.469.637A3.1,3.1,0,0,0,16.516-5H20.75v-.109a2.753,2.753,0,0,0-.594-1.707A1.815,1.815,0,0,0,18.719-7.422Zm9.234.266a4.331,4.331,0,0,0-.711-.055A1.9,1.9,0,0,0,25.313-6V0H23.867V-8.453h1.406l.023.977a2.251,2.251,0,0,1,2.016-1.133,1.477,1.477,0,0,1,.641.109Zm3.68-3.344v2.047h1.578v1.117H31.633v5.249a1.173,1.173,0,0,0,.211.763.888.888,0,0,0,.719.254,3.5,3.5,0,0,0,.688-.094V0a4.215,4.215,0,0,1-1.109.155A1.8,1.8,0,0,1,30.68-.43a2.517,2.517,0,0,1-.492-1.664V-7.336H28.648V-8.453h1.539V-10.5Zm2.727,6.2a4.993,4.993,0,0,1,.488-2.234A3.643,3.643,0,0,1,36.207-8.07,3.7,3.7,0,0,1,38.2-8.609a3.565,3.565,0,0,1,2.793,1.2,4.6,4.6,0,0,1,1.066,3.18v.1a5.036,5.036,0,0,1-.473,2.215A3.589,3.589,0,0,1,40.23-.391a3.743,3.743,0,0,1-2.02.547,3.556,3.556,0,0,1-2.785-1.2A4.575,4.575,0,0,1,34.359-4.2Zm1.453.172a3.616,3.616,0,0,0,.652,2.258,2.088,2.088,0,0,0,1.746.852,2.075,2.075,0,0,0,1.75-.863A3.955,3.955,0,0,0,40.609-4.3a3.61,3.61,0,0,0-.66-2.254A2.1,2.1,0,0,0,38.2-7.422a2.075,2.075,0,0,0-1.727.852A3.925,3.925,0,0,0,35.813-4.133Z" transform="translate(436 7544)" fill="#12263f"/>
    <path id="Path_614927" data-name="Path 614927" d="M2.82-4.453V0H1.32V-11.375h4.2a4.215,4.215,0,0,1,2.926.953A3.231,3.231,0,0,1,9.5-7.9,3.189,3.189,0,0,1,8.465-5.348,4.4,4.4,0,0,1,5.5-4.453Zm0-1.227h2.7a2.7,2.7,0,0,0,1.844-.567A2.075,2.075,0,0,0,8-7.887a2.143,2.143,0,0,0-.641-1.628A2.525,2.525,0,0,0,5.6-10.148H2.82ZM15.273-7.156a4.331,4.331,0,0,0-.711-.055A1.9,1.9,0,0,0,12.633-6V0H11.188V-8.453h1.406l.023.977a2.251,2.251,0,0,1,2.016-1.133,1.477,1.477,0,0,1,.641.109ZM16.063-4.3a4.993,4.993,0,0,1,.488-2.234A3.643,3.643,0,0,1,17.91-8.07,3.7,3.7,0,0,1,19.9-8.609a3.565,3.565,0,0,1,2.793,1.2,4.6,4.6,0,0,1,1.066,3.18v.1a5.036,5.036,0,0,1-.473,2.215A3.589,3.589,0,0,1,21.934-.391a3.743,3.743,0,0,1-2.02.547,3.556,3.556,0,0,1-2.785-1.2A4.575,4.575,0,0,1,16.063-4.2Zm1.453.172a3.616,3.616,0,0,0,.652,2.258,2.088,2.088,0,0,0,1.746.852,2.075,2.075,0,0,0,1.75-.863A3.955,3.955,0,0,0,22.313-4.3a3.61,3.61,0,0,0-.66-2.254A2.1,2.1,0,0,0,19.9-7.422a2.075,2.075,0,0,0-1.727.852A3.925,3.925,0,0,0,17.516-4.133Zm15.211,0a5.026,5.026,0,0,1-.891,3.113A2.846,2.846,0,0,1,29.445.156,2.947,2.947,0,0,1,26.969-.977L26.9,0H25.57V-12h1.445v4.477A2.93,2.93,0,0,1,29.43-8.609a2.863,2.863,0,0,1,2.418,1.164,5.177,5.177,0,0,1,.879,3.188ZM31.281-4.3a3.906,3.906,0,0,0-.57-2.281,1.888,1.888,0,0,0-1.641-.8,2.122,2.122,0,0,0-2.055,1.328V-2.4a2.181,2.181,0,0,0,2.07,1.328,1.878,1.878,0,0,0,1.617-.8A4.153,4.153,0,0,0,31.281-4.3ZM39.766,0a3.036,3.036,0,0,1-.2-.891A3.225,3.225,0,0,1,37.156.156a2.984,2.984,0,0,1-2.051-.707,2.287,2.287,0,0,1-.8-1.793,2.39,2.39,0,0,1,1-2.051,4.733,4.733,0,0,1,2.824-.73h1.406v-.664A1.623,1.623,0,0,0,39.086-7a1.821,1.821,0,0,0-1.336-.449,2.107,2.107,0,0,0-1.3.391,1.151,1.151,0,0,0-.523.945H34.477a2,2,0,0,1,.449-1.223,3.066,3.066,0,0,1,1.219-.934,4.1,4.1,0,0,1,1.691-.344,3.342,3.342,0,0,1,2.289.73,2.635,2.635,0,0,1,.859,2.012v3.891a4.757,4.757,0,0,0,.3,1.852V0Zm-2.4-1.1a2.54,2.54,0,0,0,1.289-.352,2.127,2.127,0,0,0,.883-.914V-4.1H38.406q-2.656,0-2.656,1.555A1.316,1.316,0,0,0,36.2-1.484,1.742,1.742,0,0,0,37.367-1.1ZM50.406-4.133a5.026,5.026,0,0,1-.891,3.113A2.846,2.846,0,0,1,47.125.156,2.947,2.947,0,0,1,44.648-.977L44.578,0H43.25V-12H44.7v4.477a2.93,2.93,0,0,1,2.414-1.086,2.863,2.863,0,0,1,2.418,1.164,5.177,5.177,0,0,1,.879,3.188ZM48.961-4.3a3.906,3.906,0,0,0-.57-2.281,1.888,1.888,0,0,0-1.641-.8A2.122,2.122,0,0,0,44.7-6.055V-2.4a2.181,2.181,0,0,0,2.07,1.328,1.878,1.878,0,0,0,1.617-.8A4.153,4.153,0,0,0,48.961-4.3ZM53.8,0H52.352V-12H53.8Zm5.82.156a3.693,3.693,0,0,1-2.8-1.129,4.19,4.19,0,0,1-1.078-3.02v-.266a5.073,5.073,0,0,1,.48-2.246,3.748,3.748,0,0,1,1.344-1.547,3.378,3.378,0,0,1,1.871-.559A3.166,3.166,0,0,1,62-7.523a4.7,4.7,0,0,1,.914,3.109v.6H57.188a3,3,0,0,0,.73,2.02,2.3,2.3,0,0,0,1.777.77,2.517,2.517,0,0,0,1.3-.312,3.259,3.259,0,0,0,.93-.828l.883.688A3.55,3.55,0,0,1,59.617.156Zm-.18-7.578a1.928,1.928,0,0,0-1.469.637A3.1,3.1,0,0,0,57.234-5h4.234v-.109a2.753,2.753,0,0,0-.594-1.707A1.815,1.815,0,0,0,59.438-7.422Z" transform="translate(416 7641)" fill="#12263f"/>
    <path id="Path_614928" data-name="Path 614928" d="M2.82-4.453V0H1.32V-11.375h4.2a4.215,4.215,0,0,1,2.926.953A3.231,3.231,0,0,1,9.5-7.9,3.189,3.189,0,0,1,8.465-5.348,4.4,4.4,0,0,1,5.5-4.453Zm0-1.227h2.7a2.7,2.7,0,0,0,1.844-.567A2.075,2.075,0,0,0,8-7.887a2.143,2.143,0,0,0-.641-1.628A2.525,2.525,0,0,0,5.6-10.148H2.82ZM10.7-4.3a4.993,4.993,0,0,1,.488-2.234A3.643,3.643,0,0,1,12.551-8.07a3.7,3.7,0,0,1,1.988-.539,3.565,3.565,0,0,1,2.793,1.2A4.6,4.6,0,0,1,18.4-4.234v.1a5.036,5.036,0,0,1-.473,2.215A3.589,3.589,0,0,1,16.574-.391a3.743,3.743,0,0,1-2.02.547,3.556,3.556,0,0,1-2.785-1.2A4.575,4.575,0,0,1,10.7-4.2Zm1.453.172a3.616,3.616,0,0,0,.652,2.258,2.088,2.088,0,0,0,1.746.852,2.075,2.075,0,0,0,1.75-.863A3.955,3.955,0,0,0,16.953-4.3a3.61,3.61,0,0,0-.66-2.254,2.1,2.1,0,0,0-1.754-.863,2.075,2.075,0,0,0-1.727.852A3.925,3.925,0,0,0,12.156-4.133ZM25.133-2.242a1.064,1.064,0,0,0-.441-.91,4.249,4.249,0,0,0-1.539-.559,7.277,7.277,0,0,1-1.742-.562,2.479,2.479,0,0,1-.953-.781,1.869,1.869,0,0,1-.309-1.078,2.193,2.193,0,0,1,.879-1.758,3.432,3.432,0,0,1,2.246-.719,3.532,3.532,0,0,1,2.332.742,2.357,2.357,0,0,1,.895,1.9H25.047a1.3,1.3,0,0,0-.5-1.023,1.888,1.888,0,0,0-1.27-.43,1.976,1.976,0,0,0-1.234.344,1.082,1.082,0,0,0-.445.9.877.877,0,0,0,.414.789,5.1,5.1,0,0,0,1.5.508,7.8,7.8,0,0,1,1.754.578,2.558,2.558,0,0,1,1,.809,1.988,1.988,0,0,1,.324,1.152,2.163,2.163,0,0,1-.906,1.816A3.8,3.8,0,0,1,23.32.156a4.257,4.257,0,0,1-1.8-.359,2.922,2.922,0,0,1-1.223-1A2.42,2.42,0,0,1,19.859-2.6H21.3a1.5,1.5,0,0,0,.582,1.152,2.258,2.258,0,0,0,1.434.426,2.331,2.331,0,0,0,1.316-.332A1.02,1.02,0,0,0,25.133-2.242ZM30.031,0H28.586V-8.453h1.445ZM28.469-10.7a.863.863,0,0,1,.215-.594.807.807,0,0,1,.637-.242.819.819,0,0,1,.641.242.854.854,0,0,1,.219.594.826.826,0,0,1-.219.586.834.834,0,0,1-.641.234.821.821,0,0,1-.637-.234A.834.834,0,0,1,28.469-10.7ZM39.5-4.133a5.026,5.026,0,0,1-.891,3.113A2.846,2.846,0,0,1,36.219.156,2.947,2.947,0,0,1,33.742-.977L33.672,0H32.344V-12h1.445v4.477A2.93,2.93,0,0,1,36.2-8.609a2.863,2.863,0,0,1,2.418,1.164A5.177,5.177,0,0,1,39.5-4.258ZM38.055-4.3a3.906,3.906,0,0,0-.57-2.281,1.888,1.888,0,0,0-1.641-.8,2.122,2.122,0,0,0-2.055,1.328V-2.4a2.181,2.181,0,0,0,2.07,1.328,1.878,1.878,0,0,0,1.617-.8A4.153,4.153,0,0,0,38.055-4.3ZM42.891,0H41.445V-12h1.445Zm5.82.156a3.693,3.693,0,0,1-2.8-1.129,4.19,4.19,0,0,1-1.078-3.02v-.266a5.073,5.073,0,0,1,.48-2.246A3.748,3.748,0,0,1,46.66-8.051a3.378,3.378,0,0,1,1.871-.559,3.166,3.166,0,0,1,2.563,1.086,4.7,4.7,0,0,1,.914,3.109v.6H46.281a3,3,0,0,0,.73,2.02,2.3,2.3,0,0,0,1.777.77,2.517,2.517,0,0,0,1.3-.312,3.259,3.259,0,0,0,.93-.828l.883.688A3.55,3.55,0,0,1,48.711.156Zm-.18-7.578a1.928,1.928,0,0,0-1.469.637A3.1,3.1,0,0,0,46.328-5h4.234v-.109a2.753,2.753,0,0,0-.594-1.707A1.815,1.815,0,0,0,48.531-7.422Z" transform="translate(416 7731)" fill="#12263f"/>
    <path id="Path_614929" data-name="Path 614929" d="M2.93,0H1.43V-11.375h1.5ZM6.8-8.453l.039.938A3.122,3.122,0,0,1,9.352-8.609,2.417,2.417,0,0,1,11.766-7.25a3.2,3.2,0,0,1,1.1-.984,3.242,3.242,0,0,1,1.6-.375q2.781,0,2.828,2.945V0H15.844V-5.578a1.941,1.941,0,0,0-.414-1.355,1.823,1.823,0,0,0-1.391-.449A1.916,1.916,0,0,0,12.7-6.9a1.949,1.949,0,0,0-.617,1.293V0H10.633V-5.539a1.613,1.613,0,0,0-1.8-1.844A1.934,1.934,0,0,0,6.883-6.172V0H5.438V-8.453Zm19.8,4.32a5.062,5.062,0,0,1-.883,3.109A2.829,2.829,0,0,1,23.336.156,3.1,3.1,0,0,1,20.914-.82V3.25H19.469v-11.7h1.32l.07.938a2.977,2.977,0,0,1,2.453-1.094,2.882,2.882,0,0,1,2.41,1.148,5.117,5.117,0,0,1,.887,3.2ZM25.164-4.3a3.735,3.735,0,0,0-.609-2.258,1.963,1.963,0,0,0-1.672-.828,2.125,2.125,0,0,0-1.969,1.164V-2.18A2.129,2.129,0,0,0,22.9-1.023a1.954,1.954,0,0,0,1.652-.824A4.077,4.077,0,0,0,25.164-4.3Zm7.367-2.859a4.331,4.331,0,0,0-.711-.055A1.9,1.9,0,0,0,29.891-6V0H28.445V-8.453h1.406l.023.977a2.251,2.251,0,0,1,2.016-1.133,1.477,1.477,0,0,1,.641.109ZM33.32-4.3a4.993,4.993,0,0,1,.488-2.234A3.643,3.643,0,0,1,35.168-8.07a3.7,3.7,0,0,1,1.988-.539,3.565,3.565,0,0,1,2.793,1.2,4.6,4.6,0,0,1,1.066,3.18v.1a5.036,5.036,0,0,1-.473,2.215A3.589,3.589,0,0,1,39.191-.391a3.743,3.743,0,0,1-2.02.547,3.556,3.556,0,0,1-2.785-1.2A4.575,4.575,0,0,1,33.32-4.2Zm1.453.172a3.616,3.616,0,0,0,.652,2.258,2.088,2.088,0,0,0,1.746.852,2.075,2.075,0,0,0,1.75-.863A3.955,3.955,0,0,0,39.57-4.3a3.61,3.61,0,0,0-.66-2.254,2.1,2.1,0,0,0-1.754-.863,2.075,2.075,0,0,0-1.727.852A3.925,3.925,0,0,0,34.773-4.133Zm15.211,0a5.026,5.026,0,0,1-.891,3.113A2.846,2.846,0,0,1,46.7.156,2.947,2.947,0,0,1,44.227-.977L44.156,0H42.828V-12h1.445v4.477a2.93,2.93,0,0,1,2.414-1.086,2.863,2.863,0,0,1,2.418,1.164,5.177,5.177,0,0,1,.879,3.188ZM48.539-4.3a3.906,3.906,0,0,0-.57-2.281,1.888,1.888,0,0,0-1.641-.8,2.122,2.122,0,0,0-2.055,1.328V-2.4a2.181,2.181,0,0,0,2.07,1.328,1.878,1.878,0,0,0,1.617-.8A4.153,4.153,0,0,0,48.539-4.3ZM57.023,0a3.036,3.036,0,0,1-.2-.891A3.225,3.225,0,0,1,54.414.156a2.984,2.984,0,0,1-2.051-.707,2.287,2.287,0,0,1-.8-1.793,2.39,2.39,0,0,1,1-2.051,4.733,4.733,0,0,1,2.824-.73H56.8v-.664A1.623,1.623,0,0,0,56.344-7a1.821,1.821,0,0,0-1.336-.449,2.107,2.107,0,0,0-1.3.391,1.151,1.151,0,0,0-.523.945H51.734a2,2,0,0,1,.449-1.223A3.066,3.066,0,0,1,53.4-8.266a4.1,4.1,0,0,1,1.691-.344,3.342,3.342,0,0,1,2.289.73,2.635,2.635,0,0,1,.859,2.012v3.891a4.757,4.757,0,0,0,.3,1.852V0Zm-2.4-1.1a2.54,2.54,0,0,0,1.289-.352,2.127,2.127,0,0,0,.883-.914V-4.1H55.664q-2.656,0-2.656,1.555a1.316,1.316,0,0,0,.453,1.063A1.742,1.742,0,0,0,54.625-1.1ZM67.664-4.133a5.026,5.026,0,0,1-.891,3.113A2.846,2.846,0,0,1,64.383.156,2.947,2.947,0,0,1,61.906-.977L61.836,0H60.508V-12h1.445v4.477a2.93,2.93,0,0,1,2.414-1.086,2.863,2.863,0,0,1,2.418,1.164,5.177,5.177,0,0,1,.879,3.188ZM66.219-4.3a3.906,3.906,0,0,0-.57-2.281,1.888,1.888,0,0,0-1.641-.8,2.122,2.122,0,0,0-2.055,1.328V-2.4a2.181,2.181,0,0,0,2.07,1.328,1.878,1.878,0,0,0,1.617-.8A4.153,4.153,0,0,0,66.219-4.3ZM71.055,0H69.609V-12h1.445Zm5.82.156a3.693,3.693,0,0,1-2.8-1.129A4.19,4.19,0,0,1,73-3.992v-.266A5.073,5.073,0,0,1,73.48-6.5a3.748,3.748,0,0,1,1.344-1.547A3.378,3.378,0,0,1,76.7-8.609a3.166,3.166,0,0,1,2.563,1.086,4.7,4.7,0,0,1,.914,3.109v.6H74.445a3,3,0,0,0,.73,2.02,2.3,2.3,0,0,0,1.777.77,2.517,2.517,0,0,0,1.3-.312,3.259,3.259,0,0,0,.93-.828l.883.688A3.55,3.55,0,0,1,76.875.156ZM76.7-7.422a1.928,1.928,0,0,0-1.469.637A3.1,3.1,0,0,0,74.492-5h4.234v-.109a2.753,2.753,0,0,0-.594-1.707A1.815,1.815,0,0,0,76.7-7.422Z" transform="translate(398 7824)" fill="#12263f"/>
    <path id="Path_614930" data-name="Path 614930" d="M7.75-5.258H2.82v4.031H8.547V0H1.32V-11.375H8.469v1.227H2.82v3.664H7.75Zm5.273-.109L14.9-8.453h1.688L13.82-4.273,16.672,0H15L13.047-3.164,11.094,0H9.414l2.852-4.273L9.5-8.453h1.672Zm8.328,4.344A2.082,2.082,0,0,0,22.7-1.492a1.649,1.649,0,0,0,.641-1.172h1.367a2.621,2.621,0,0,1-.5,1.383A3.293,3.293,0,0,1,22.98-.234a3.55,3.55,0,0,1-1.629.391A3.482,3.482,0,0,1,18.605-1a4.59,4.59,0,0,1-1.02-3.152v-.242a5.089,5.089,0,0,1,.453-2.2,3.451,3.451,0,0,1,1.3-1.492,3.7,3.7,0,0,1,2-.531,3.39,3.39,0,0,1,2.363.852,3.043,3.043,0,0,1,1,2.211H23.344a1.992,1.992,0,0,0-.621-1.348,1.932,1.932,0,0,0-1.379-.527,2.023,2.023,0,0,0-1.707.793,3.724,3.724,0,0,0-.605,2.293v.273a3.65,3.65,0,0,0,.6,2.25A2.033,2.033,0,0,0,21.352-1.023ZM29.844.156a3.693,3.693,0,0,1-2.8-1.129,4.19,4.19,0,0,1-1.078-3.02v-.266a5.073,5.073,0,0,1,.48-2.246,3.748,3.748,0,0,1,1.344-1.547,3.378,3.378,0,0,1,1.871-.559,3.166,3.166,0,0,1,2.563,1.086,4.7,4.7,0,0,1,.914,3.109v.6H27.414a3,3,0,0,0,.73,2.02,2.3,2.3,0,0,0,1.777.77,2.517,2.517,0,0,0,1.3-.312,3.259,3.259,0,0,0,.93-.828l.883.688A3.55,3.55,0,0,1,29.844.156Zm-.18-7.578a1.928,1.928,0,0,0-1.469.637A3.1,3.1,0,0,0,27.461-5H31.7v-.109A2.753,2.753,0,0,0,31.1-6.816,1.815,1.815,0,0,0,29.664-7.422ZM41.953-4.133a5.062,5.062,0,0,1-.883,3.109A2.829,2.829,0,0,1,38.68.156,3.1,3.1,0,0,1,36.258-.82V3.25H34.813v-11.7h1.32l.07.938a2.977,2.977,0,0,1,2.453-1.094,2.882,2.882,0,0,1,2.41,1.148,5.117,5.117,0,0,1,.887,3.2ZM40.508-4.3A3.735,3.735,0,0,0,39.9-6.555a1.963,1.963,0,0,0-1.672-.828,2.125,2.125,0,0,0-1.969,1.164V-2.18a2.129,2.129,0,0,0,1.984,1.156,1.954,1.954,0,0,0,1.652-.824A4.077,4.077,0,0,0,40.508-4.3ZM47.18-1.023a2.082,2.082,0,0,0,1.352-.469,1.649,1.649,0,0,0,.641-1.172h1.367a2.621,2.621,0,0,1-.5,1.383,3.293,3.293,0,0,1-1.23,1.047A3.55,3.55,0,0,1,47.18.156,3.482,3.482,0,0,1,44.434-1a4.59,4.59,0,0,1-1.02-3.152v-.242a5.089,5.089,0,0,1,.453-2.2,3.451,3.451,0,0,1,1.3-1.492,3.7,3.7,0,0,1,2-.531,3.39,3.39,0,0,1,2.363.852,3.043,3.043,0,0,1,1,2.211H49.172a1.992,1.992,0,0,0-.621-1.348,1.932,1.932,0,0,0-1.379-.527,2.023,2.023,0,0,0-1.707.793,3.724,3.724,0,0,0-.605,2.293v.273a3.65,3.65,0,0,0,.6,2.25A2.033,2.033,0,0,0,47.18-1.023ZM53.734,0H52.289V-8.453h1.445ZM52.172-10.7a.863.863,0,0,1,.215-.594.807.807,0,0,1,.637-.242.819.819,0,0,1,.641.242.854.854,0,0,1,.219.594.826.826,0,0,1-.219.586.834.834,0,0,1-.641.234.821.821,0,0,1-.637-.234A.834.834,0,0,1,52.172-10.7ZM55.664-4.3a4.993,4.993,0,0,1,.488-2.234A3.643,3.643,0,0,1,57.512-8.07,3.7,3.7,0,0,1,59.5-8.609a3.565,3.565,0,0,1,2.793,1.2,4.6,4.6,0,0,1,1.066,3.18v.1a5.036,5.036,0,0,1-.473,2.215A3.589,3.589,0,0,1,61.535-.391a3.743,3.743,0,0,1-2.02.547,3.556,3.556,0,0,1-2.785-1.2A4.575,4.575,0,0,1,55.664-4.2Zm1.453.172a3.616,3.616,0,0,0,.652,2.258,2.088,2.088,0,0,0,1.746.852,2.075,2.075,0,0,0,1.75-.863A3.955,3.955,0,0,0,61.914-4.3a3.61,3.61,0,0,0-.66-2.254A2.1,2.1,0,0,0,59.5-7.422a2.075,2.075,0,0,0-1.727.852A3.925,3.925,0,0,0,57.117-4.133Zm9.422-4.32.047,1.063a3.08,3.08,0,0,1,2.531-1.219q2.68,0,2.7,3.023V0H70.375V-5.594a1.946,1.946,0,0,0-.418-1.352,1.675,1.675,0,0,0-1.277-.437,2.086,2.086,0,0,0-1.234.375,2.546,2.546,0,0,0-.828.984V0H65.172V-8.453ZM79.219,0a3.036,3.036,0,0,1-.2-.891A3.225,3.225,0,0,1,76.609.156a2.984,2.984,0,0,1-2.051-.707,2.288,2.288,0,0,1-.8-1.793,2.39,2.39,0,0,1,1-2.051,4.733,4.733,0,0,1,2.824-.73h1.406v-.664A1.623,1.623,0,0,0,78.539-7,1.821,1.821,0,0,0,77.2-7.445a2.108,2.108,0,0,0-1.3.391,1.151,1.151,0,0,0-.523.945H73.93a2,2,0,0,1,.449-1.223A3.066,3.066,0,0,1,75.6-8.266a4.1,4.1,0,0,1,1.691-.344,3.342,3.342,0,0,1,2.289.73,2.635,2.635,0,0,1,.859,2.012v3.891a4.757,4.757,0,0,0,.3,1.852V0Zm-2.4-1.1a2.54,2.54,0,0,0,1.289-.352,2.127,2.127,0,0,0,.883-.914V-4.1H77.859Q75.2-4.1,75.2-2.547a1.316,1.316,0,0,0,.453,1.063A1.742,1.742,0,0,0,76.82-1.1ZM84.273,0H82.828V-12h1.445Z" transform="translate(398 7914)" fill="#12263f"/>
    <path id="Path_614931" data-name="Path 614931" d="M3.258-11.375,6.977-2.094,10.7-11.375h1.945V0h-1.5V-4.43l.141-4.781L7.547,0H6.4L2.672-9.187,2.82-4.43V0H1.32V-11.375ZM16.633,0H15.18V-8.453h1.453Zm.016-11.992H18.4L16.3-9.7l-1.164,0Zm3.734,3.539.047,1.063a3.08,3.08,0,0,1,2.531-1.219q2.68,0,2.7,3.023V0H24.219V-5.594A1.946,1.946,0,0,0,23.8-6.945a1.675,1.675,0,0,0-1.277-.437,2.086,2.086,0,0,0-1.234.375,2.546,2.546,0,0,0-.828.984V0H19.016V-8.453ZM29.414,0H27.969V-8.453h1.445ZM27.852-10.7a.863.863,0,0,1,.215-.594.807.807,0,0,1,.637-.242.819.819,0,0,1,.641.242.854.854,0,0,1,.219.594.826.826,0,0,1-.219.586.834.834,0,0,1-.641.234.821.821,0,0,1-.637-.234A.834.834,0,0,1,27.852-10.7Zm5.234,2.242.039.938a3.122,3.122,0,0,1,2.508-1.094A2.417,2.417,0,0,1,38.047-7.25a3.2,3.2,0,0,1,1.1-.984,3.242,3.242,0,0,1,1.6-.375q2.781,0,2.828,2.945V0H42.125V-5.578a1.941,1.941,0,0,0-.414-1.355,1.823,1.823,0,0,0-1.391-.449,1.917,1.917,0,0,0-1.336.48,1.949,1.949,0,0,0-.617,1.293V0H36.914V-5.539a1.613,1.613,0,0,0-1.8-1.844,1.934,1.934,0,0,0-1.945,1.211V0H31.719V-8.453ZM45.367-4.3a4.993,4.993,0,0,1,.488-2.234A3.643,3.643,0,0,1,47.215-8.07,3.7,3.7,0,0,1,49.2-8.609,3.565,3.565,0,0,1,52-7.414a4.6,4.6,0,0,1,1.066,3.18v.1a5.036,5.036,0,0,1-.473,2.215A3.589,3.589,0,0,1,51.238-.391a3.743,3.743,0,0,1-2.02.547,3.556,3.556,0,0,1-2.785-1.2A4.575,4.575,0,0,1,45.367-4.2Zm1.453.172a3.616,3.616,0,0,0,.652,2.258,2.088,2.088,0,0,0,1.746.852,2.075,2.075,0,0,0,1.75-.863A3.955,3.955,0,0,0,51.617-4.3a3.61,3.61,0,0,0-.66-2.254A2.1,2.1,0,0,0,49.2-7.422a2.075,2.075,0,0,0-1.727.852A3.925,3.925,0,0,0,46.82-4.133Z" transform="translate(559 8010)" fill="#12263f"/>
    <path id="Path_614932" data-name="Path 614932" d="M3.258-11.375,6.977-2.094,10.7-11.375h1.945V0h-1.5V-4.43l.141-4.781L7.547,0H6.4L2.672-9.187,2.82-4.43V0H1.32V-11.375ZM20.281,0a3.036,3.036,0,0,1-.2-.891A3.225,3.225,0,0,1,17.672.156a2.984,2.984,0,0,1-2.051-.707,2.287,2.287,0,0,1-.8-1.793,2.39,2.39,0,0,1,1-2.051,4.733,4.733,0,0,1,2.824-.73h1.406v-.664A1.623,1.623,0,0,0,19.6-7a1.821,1.821,0,0,0-1.336-.449,2.108,2.108,0,0,0-1.3.391,1.151,1.151,0,0,0-.523.945H14.992a2,2,0,0,1,.449-1.223,3.066,3.066,0,0,1,1.219-.934,4.1,4.1,0,0,1,1.691-.344,3.342,3.342,0,0,1,2.289.73A2.635,2.635,0,0,1,21.5-5.867v3.891a4.757,4.757,0,0,0,.3,1.852V0Zm-2.4-1.1a2.54,2.54,0,0,0,1.289-.352,2.127,2.127,0,0,0,.883-.914V-4.1H18.922q-2.656,0-2.656,1.555a1.316,1.316,0,0,0,.453,1.063A1.742,1.742,0,0,0,17.883-1.1Zm9.969-6.055a4.331,4.331,0,0,0-.711-.055A1.9,1.9,0,0,0,25.211-6V0H23.766V-8.453h1.406l.023.977a2.251,2.251,0,0,1,2.016-1.133,1.477,1.477,0,0,1,.641.109ZM28.688-4.3A4.968,4.968,0,0,1,29.6-7.441a2.923,2.923,0,0,1,2.422-1.168,2.908,2.908,0,0,1,2.414,1.094l.07-.937h1.32V-.2a3.439,3.439,0,0,1-.973,2.586,3.589,3.589,0,0,1-2.613.945,4.348,4.348,0,0,1-1.789-.391,3.08,3.08,0,0,1-1.336-1.07L29.867,1a2.826,2.826,0,0,0,2.273,1.148,2.214,2.214,0,0,0,1.645-.594,2.269,2.269,0,0,0,.59-1.672V-.844a2.971,2.971,0,0,1-2.367,1,2.887,2.887,0,0,1-2.4-1.2A5.224,5.224,0,0,1,28.688-4.3Zm1.453.164a3.79,3.79,0,0,0,.586,2.246,1.9,1.9,0,0,0,1.641.816,2.117,2.117,0,0,0,2.008-1.242V-6.172a2.142,2.142,0,0,0-1.992-1.211,1.921,1.921,0,0,0-1.648.82A4.128,4.128,0,0,0,30.141-4.133ZM39.578,0H38.133V-8.453h1.445ZM38.016-10.7a.863.863,0,0,1,.215-.594.807.807,0,0,1,.637-.242.819.819,0,0,1,.641.242.854.854,0,0,1,.219.594.826.826,0,0,1-.219.586.834.834,0,0,1-.641.234.821.821,0,0,1-.637-.234A.834.834,0,0,1,38.016-10.7Zm5.242,2.242L43.3-7.391a3.08,3.08,0,0,1,2.531-1.219q2.68,0,2.7,3.023V0H47.094V-5.594a1.946,1.946,0,0,0-.418-1.352A1.675,1.675,0,0,0,45.4-7.383a2.086,2.086,0,0,0-1.234.375,2.546,2.546,0,0,0-.828.984V0H41.891V-8.453ZM55.938,0a3.036,3.036,0,0,1-.2-.891A3.225,3.225,0,0,1,53.328.156a2.984,2.984,0,0,1-2.051-.707,2.287,2.287,0,0,1-.8-1.793,2.39,2.39,0,0,1,1-2.051,4.733,4.733,0,0,1,2.824-.73h1.406v-.664A1.623,1.623,0,0,0,55.258-7a1.821,1.821,0,0,0-1.336-.449,2.107,2.107,0,0,0-1.3.391,1.151,1.151,0,0,0-.523.945H50.648A2,2,0,0,1,51.1-7.332a3.066,3.066,0,0,1,1.219-.934,4.1,4.1,0,0,1,1.691-.344,3.342,3.342,0,0,1,2.289.73,2.635,2.635,0,0,1,.859,2.012v3.891a4.757,4.757,0,0,0,.3,1.852V0Zm-2.4-1.1a2.54,2.54,0,0,0,1.289-.352,2.127,2.127,0,0,0,.883-.914V-4.1H54.578q-2.656,0-2.656,1.555a1.316,1.316,0,0,0,.453,1.063A1.742,1.742,0,0,0,53.539-1.1ZM60.992,0H59.547V-12h1.445Z" transform="translate(717 8010)" fill="#12263f"/>
    <path id="Path_614933" data-name="Path 614933" d="M3.258-11.375,6.977-2.094,10.7-11.375h1.945V0h-1.5V-4.43l.141-4.781L7.547,0H6.4L2.672-9.187,2.82-4.43V0H1.32V-11.375ZM14.68-4.3a4.993,4.993,0,0,1,.488-2.234A3.643,3.643,0,0,1,16.527-8.07a3.7,3.7,0,0,1,1.988-.539,3.565,3.565,0,0,1,2.793,1.2,4.6,4.6,0,0,1,1.066,3.18v.1A5.036,5.036,0,0,1,21.9-1.918,3.589,3.589,0,0,1,20.551-.391a3.743,3.743,0,0,1-2.02.547,3.556,3.556,0,0,1-2.785-1.2A4.575,4.575,0,0,1,14.68-4.2Zm1.453.172a3.616,3.616,0,0,0,.652,2.258,2.088,2.088,0,0,0,1.746.852,2.075,2.075,0,0,0,1.75-.863A3.955,3.955,0,0,0,20.93-4.3a3.61,3.61,0,0,0-.66-2.254,2.1,2.1,0,0,0-1.754-.863,2.075,2.075,0,0,0-1.727.852A3.925,3.925,0,0,0,16.133-4.133Zm7.7-.164a4.952,4.952,0,0,1,.922-3.129,2.915,2.915,0,0,1,2.414-1.184,2.932,2.932,0,0,1,2.352,1.016V-12h1.445V0H29.641l-.07-.906A2.943,2.943,0,0,1,27.156.156a2.887,2.887,0,0,1-2.395-1.2,5.008,5.008,0,0,1-.926-3.141Zm1.445.164a3.749,3.749,0,0,0,.594,2.25,1.92,1.92,0,0,0,1.641.813A2.108,2.108,0,0,0,29.523-2.3V-6.187a2.125,2.125,0,0,0-1.992-1.2,1.929,1.929,0,0,0-1.656.82A4.128,4.128,0,0,0,25.281-4.133ZM36.719.156a3.693,3.693,0,0,1-2.8-1.129,4.19,4.19,0,0,1-1.078-3.02v-.266a5.073,5.073,0,0,1,.48-2.246,3.748,3.748,0,0,1,1.344-1.547,3.378,3.378,0,0,1,1.871-.559A3.166,3.166,0,0,1,39.1-7.523a4.7,4.7,0,0,1,.914,3.109v.6H34.289a3,3,0,0,0,.73,2.02,2.3,2.3,0,0,0,1.777.77,2.517,2.517,0,0,0,1.3-.312,3.259,3.259,0,0,0,.93-.828l.883.688A3.55,3.55,0,0,1,36.719.156Zm-.18-7.578a1.928,1.928,0,0,0-1.469.637A3.1,3.1,0,0,0,34.336-5H38.57v-.109a2.753,2.753,0,0,0-.594-1.707A1.815,1.815,0,0,0,36.539-7.422Zm9.234.266a4.331,4.331,0,0,0-.711-.055A1.9,1.9,0,0,0,43.133-6V0H41.688V-8.453h1.406l.023.977a2.251,2.251,0,0,1,2.016-1.133,1.477,1.477,0,0,1,.641.109ZM52.008,0a3.036,3.036,0,0,1-.2-.891A3.225,3.225,0,0,1,49.4.156a2.984,2.984,0,0,1-2.051-.707,2.287,2.287,0,0,1-.8-1.793,2.39,2.39,0,0,1,1-2.051,4.733,4.733,0,0,1,2.824-.73h1.406v-.664A1.623,1.623,0,0,0,51.328-7a1.821,1.821,0,0,0-1.336-.449,2.107,2.107,0,0,0-1.3.391,1.151,1.151,0,0,0-.523.945H46.719a2,2,0,0,1,.449-1.223,3.066,3.066,0,0,1,1.219-.934,4.1,4.1,0,0,1,1.691-.344,3.342,3.342,0,0,1,2.289.73,2.635,2.635,0,0,1,.859,2.012v3.891a4.757,4.757,0,0,0,.3,1.852V0Zm-2.4-1.1A2.54,2.54,0,0,0,50.9-1.453a2.127,2.127,0,0,0,.883-.914V-4.1H50.648q-2.656,0-2.656,1.555a1.316,1.316,0,0,0,.453,1.063A1.742,1.742,0,0,0,49.609-1.1Zm5.531-3.2a4.952,4.952,0,0,1,.922-3.129,2.915,2.915,0,0,1,2.414-1.184,2.932,2.932,0,0,1,2.352,1.016V-12h1.445V0H60.945l-.07-.906A2.943,2.943,0,0,1,58.461.156a2.887,2.887,0,0,1-2.395-1.2,5.008,5.008,0,0,1-.926-3.141Zm1.445.164a3.749,3.749,0,0,0,.594,2.25,1.92,1.92,0,0,0,1.641.813A2.108,2.108,0,0,0,60.828-2.3V-6.187a2.125,2.125,0,0,0-1.992-1.2,1.929,1.929,0,0,0-1.656.82A4.128,4.128,0,0,0,56.586-4.133ZM64.133-4.3a4.993,4.993,0,0,1,.488-2.234A3.643,3.643,0,0,1,65.98-8.07a3.7,3.7,0,0,1,1.988-.539,3.565,3.565,0,0,1,2.793,1.2,4.6,4.6,0,0,1,1.066,3.18v.1a5.036,5.036,0,0,1-.473,2.215A3.589,3.589,0,0,1,70-.391a3.743,3.743,0,0,1-2.02.547,3.556,3.556,0,0,1-2.785-1.2A4.575,4.575,0,0,1,64.133-4.2Zm1.453.172a3.616,3.616,0,0,0,.652,2.258,2.088,2.088,0,0,0,1.746.852,2.075,2.075,0,0,0,1.75-.863A3.955,3.955,0,0,0,70.383-4.3a3.61,3.61,0,0,0-.66-2.254,2.1,2.1,0,0,0-1.754-.863,2.075,2.075,0,0,0-1.727.852A3.925,3.925,0,0,0,65.586-4.133Z" transform="translate(874 8010)" fill="#12263f"/>
    <path id="Path_614934" data-name="Path 614934" d="M7.75-5.258H2.82v4.031H8.547V0H1.32V-11.375H8.469v1.227H2.82v3.664H7.75ZM11.758,0H10.313V-12h1.445Zm5.82.156a3.693,3.693,0,0,1-2.8-1.129A4.19,4.19,0,0,1,13.7-3.992v-.266a5.073,5.073,0,0,1,.48-2.246,3.748,3.748,0,0,1,1.344-1.547A3.378,3.378,0,0,1,17.4-8.609a3.166,3.166,0,0,1,2.563,1.086,4.7,4.7,0,0,1,.914,3.109v.6H15.148a3,3,0,0,0,.73,2.02,2.3,2.3,0,0,0,1.777.77,2.517,2.517,0,0,0,1.3-.312,3.259,3.259,0,0,0,.93-.828l.883.688A3.55,3.55,0,0,1,17.578.156ZM17.4-7.422a1.928,1.928,0,0,0-1.469.637A3.1,3.1,0,0,0,15.2-5H19.43v-.109a2.753,2.753,0,0,0-.594-1.707A1.815,1.815,0,0,0,17.4-7.422Zm7.836,5.461,2.094-6.492H28.8L25.773,0h-1.1L21.609-8.453h1.477ZM35.3,0a3.036,3.036,0,0,1-.2-.891A3.225,3.225,0,0,1,32.688.156a2.984,2.984,0,0,1-2.051-.707,2.287,2.287,0,0,1-.8-1.793,2.39,2.39,0,0,1,1-2.051,4.733,4.733,0,0,1,2.824-.73H35.07v-.664A1.623,1.623,0,0,0,34.617-7a1.821,1.821,0,0,0-1.336-.449,2.107,2.107,0,0,0-1.3.391,1.151,1.151,0,0,0-.523.945H30.008a2,2,0,0,1,.449-1.223,3.066,3.066,0,0,1,1.219-.934,4.1,4.1,0,0,1,1.691-.344,3.342,3.342,0,0,1,2.289.73,2.635,2.635,0,0,1,.859,2.012v3.891a4.757,4.757,0,0,0,.3,1.852V0ZM32.9-1.1a2.54,2.54,0,0,0,1.289-.352,2.127,2.127,0,0,0,.883-.914V-4.1H33.938q-2.656,0-2.656,1.555a1.316,1.316,0,0,0,.453,1.063A1.742,1.742,0,0,0,32.9-1.1ZM38.43-4.3a4.952,4.952,0,0,1,.922-3.129,2.915,2.915,0,0,1,2.414-1.184,2.932,2.932,0,0,1,2.352,1.016V-12h1.445V0H44.234l-.07-.906A2.943,2.943,0,0,1,41.75.156a2.887,2.887,0,0,1-2.395-1.2,5.008,5.008,0,0,1-.926-3.141Zm1.445.164a3.749,3.749,0,0,0,.594,2.25,1.92,1.92,0,0,0,1.641.813A2.108,2.108,0,0,0,44.117-2.3V-6.187a2.125,2.125,0,0,0-1.992-1.2,1.929,1.929,0,0,0-1.656.82A4.128,4.128,0,0,0,39.875-4.133ZM47.422-4.3a4.993,4.993,0,0,1,.488-2.234A3.643,3.643,0,0,1,49.27-8.07a3.7,3.7,0,0,1,1.988-.539,3.565,3.565,0,0,1,2.793,1.2,4.6,4.6,0,0,1,1.066,3.18v.1a5.036,5.036,0,0,1-.473,2.215A3.589,3.589,0,0,1,53.293-.391a3.743,3.743,0,0,1-2.02.547,3.556,3.556,0,0,1-2.785-1.2A4.575,4.575,0,0,1,47.422-4.2Zm1.453.172a3.616,3.616,0,0,0,.652,2.258,2.088,2.088,0,0,0,1.746.852,2.075,2.075,0,0,0,1.75-.863A3.955,3.955,0,0,0,53.672-4.3a3.61,3.61,0,0,0-.66-2.254,2.1,2.1,0,0,0-1.754-.863,2.075,2.075,0,0,0-1.727.852A3.925,3.925,0,0,0,48.875-4.133Z" transform="translate(1044 8010)" fill="#12263f"/>
    <path id="Path_614935" data-name="Path 614935" d="M5.086-1.992l3.25-9.383H9.977L5.758,0H4.43L.219-11.375H1.852ZM12.844,0H11.4V-8.453h1.445ZM11.281-10.7a.863.863,0,0,1,.215-.594.807.807,0,0,1,.637-.242.819.819,0,0,1,.641.242.854.854,0,0,1,.219.594.826.826,0,0,1-.219.586.834.834,0,0,1-.641.234.821.821,0,0,1-.637-.234A.834.834,0,0,1,11.281-10.7Zm5.836.2v2.047H18.7v1.117H17.117v5.249a1.173,1.173,0,0,0,.211.763.888.888,0,0,0,.719.254,3.5,3.5,0,0,0,.688-.094V0a4.215,4.215,0,0,1-1.109.155A1.8,1.8,0,0,1,16.164-.43a2.517,2.517,0,0,1-.492-1.664V-7.336H14.133V-8.453h1.539V-10.5ZM25.6,0a3.036,3.036,0,0,1-.2-.891A3.225,3.225,0,0,1,22.992.156a2.984,2.984,0,0,1-2.051-.707,2.287,2.287,0,0,1-.8-1.793,2.39,2.39,0,0,1,1-2.051,4.733,4.733,0,0,1,2.824-.73h1.406v-.664A1.623,1.623,0,0,0,24.922-7a1.821,1.821,0,0,0-1.336-.449,2.108,2.108,0,0,0-1.3.391,1.151,1.151,0,0,0-.523.945H20.313a2,2,0,0,1,.449-1.223,3.066,3.066,0,0,1,1.219-.934,4.1,4.1,0,0,1,1.691-.344,3.342,3.342,0,0,1,2.289.73,2.635,2.635,0,0,1,.859,2.012v3.891a4.757,4.757,0,0,0,.3,1.852V0ZM23.2-1.1a2.54,2.54,0,0,0,1.289-.352,2.127,2.127,0,0,0,.883-.914V-4.1H24.242q-2.656,0-2.656,1.555a1.316,1.316,0,0,0,.453,1.063A1.742,1.742,0,0,0,23.2-1.1ZM30.656,0H29.211V-12h1.445Z" transform="translate(1216 8010)" fill="#12263f"/>
    <g id="Path_614936" data-name="Path 614936" transform="translate(1153 7516)" fill="#0c5e46">
      <path d="M 161.5 90.5 L 0.5 90.5 L 0.5 0.5 L 161.5 0.5 L 161.5 90.5 Z" stroke="none"/>
      <path d="M 1 1 L 1 90 L 161 90 L 161 1 L 1 1 M 0 0 L 162 0 L 162 91 L 0 91 L 0 0 Z" stroke="none" fill="#fff"/>
    </g>
    <g id="Path_614937" data-name="Path 614937" transform="translate(991 7516)" fill="#0c5e46">
      <path d="M 161.5 90.5 L 0.5 90.5 L 0.5 0.5 L 161.5 0.5 L 161.5 90.5 Z" stroke="none"/>
      <path d="M 1 1 L 1 90 L 161 90 L 161 1 L 1 1 M 0 0 L 162 0 L 162 91 L 0 91 L 0 0 Z" stroke="none" fill="#fff"/>
    </g>
    <g id="Path_614938" data-name="Path 614938" transform="translate(829 7516)" fill="#0c5e46">
      <path d="M 161.5 90.5 L 0.5 90.5 L 0.5 0.5 L 161.5 0.5 L 161.5 90.5 Z" stroke="none"/>
      <path d="M 1 1 L 1 90 L 161 90 L 161 1 L 1 1 M 0 0 L 162 0 L 162 91 L 0 91 L 0 0 Z" stroke="none" fill="#fff"/>
    </g>
    <g id="Path_614939" data-name="Path 614939" transform="translate(667 7516)" fill="#b0c0d2">
      <path d="M 161.5 90.5 L 0.5 90.5 L 0.5 0.5 L 161.5 0.5 L 161.5 90.5 Z" stroke="none"/>
      <path d="M 1 1 L 1 90 L 161 90 L 161 1 L 1 1 M 0 0 L 162 0 L 162 91 L 0 91 L 0 0 Z" stroke="none" fill="#fff"/>
    </g>
    <g id="Path_614940" data-name="Path 614940" transform="translate(505 7516)" fill="#b0c0d2">
      <path d="M 161.5 90.5 L 0.5 90.5 L 0.5 0.5 L 161.5 0.5 L 161.5 90.5 Z" stroke="none"/>
      <path d="M 1 1 L 1 90 L 161 90 L 161 1 L 1 1 M 0 0 L 162 0 L 162 91 L 0 91 L 0 0 Z" stroke="none" fill="#fff"/>
    </g>
    <g id="Path_614941" data-name="Path 614941" transform="translate(1153 7698)" fill="#6dfefe">
      <path d="M 161.5 90.5 L 0.5 90.5 L 0.5 0.5 L 161.5 0.5 L 161.5 90.5 Z" stroke="none"/>
      <path d="M 1 1 L 1 90 L 161 90 L 161 1 L 1 1 M 0 0 L 162 0 L 162 91 L 0 91 L 0 0 Z" stroke="none" fill="#fff"/>
    </g>
    <g id="Path_614942" data-name="Path 614942" transform="translate(991 7698)" fill="#6dfefe">
      <path d="M 161.5 90.5 L 0.5 90.5 L 0.5 0.5 L 161.5 0.5 L 161.5 90.5 Z" stroke="none"/>
      <path d="M 1 1 L 1 90 L 161 90 L 161 1 L 1 1 M 0 0 L 162 0 L 162 91 L 0 91 L 0 0 Z" stroke="none" fill="#fff"/>
    </g>
    <g id="Path_614943" data-name="Path 614943" transform="translate(829 7698)" fill="#6dfefe">
      <path d="M 161.5 90.5 L 0.5 90.5 L 0.5 0.5 L 161.5 0.5 L 161.5 90.5 Z" stroke="none"/>
      <path d="M 1 1 L 1 90 L 161 90 L 161 1 L 1 1 M 0 0 L 162 0 L 162 91 L 0 91 L 0 0 Z" stroke="none" fill="#fff"/>
    </g>
    <g id="Path_614944" data-name="Path 614944" transform="translate(667 7698)" fill="#b0c0d2">
      <path d="M 161.5 90.5 L 0.5 90.5 L 0.5 0.5 L 161.5 0.5 L 161.5 90.5 Z" stroke="none"/>
      <path d="M 1 1 L 1 90 L 161 90 L 161 1 L 1 1 M 0 0 L 162 0 L 162 91 L 0 91 L 0 0 Z" stroke="none" fill="#fff"/>
    </g>
    <g id="Path_614945" data-name="Path 614945" transform="translate(505 7698)" fill="#b0c0d2">
      <path d="M 161.5 90.5 L 0.5 90.5 L 0.5 0.5 L 161.5 0.5 L 161.5 90.5 Z" stroke="none"/>
      <path d="M 1 1 L 1 90 L 161 90 L 161 1 L 1 1 M 0 0 L 162 0 L 162 91 L 0 91 L 0 0 Z" stroke="none" fill="#fff"/>
    </g>
    <g id="Path_614946" data-name="Path 614946" transform="translate(1153 7607)" fill="#6dfefe">
      <path d="M 161.5 90.5 L 0.5 90.5 L 0.5 0.5 L 161.5 0.5 L 161.5 90.5 Z" stroke="none"/>
      <path d="M 1 1 L 1 90 L 161 90 L 161 1 L 1 1 M 0 0 L 162 0 L 162 91 L 0 91 L 0 0 Z" stroke="none" fill="#fff"/>
    </g>
    <g id="Path_614947" data-name="Path 614947" transform="translate(991 7607)" fill="#6dfefe">
      <path d="M 161.5 90.5 L 0.5 90.5 L 0.5 0.5 L 161.5 0.5 L 161.5 90.5 Z" stroke="none"/>
      <path d="M 1 1 L 1 90 L 161 90 L 161 1 L 1 1 M 0 0 L 162 0 L 162 91 L 0 91 L 0 0 Z" stroke="none" fill="#fff"/>
    </g>
    <g id="Path_614948" data-name="Path 614948" transform="translate(829 7607)" fill="#6dfefe">
      <path d="M 161.5 90.5 L 0.5 90.5 L 0.5 0.5 L 161.5 0.5 L 161.5 90.5 Z" stroke="none"/>
      <path d="M 1 1 L 1 90 L 161 90 L 161 1 L 1 1 M 0 0 L 162 0 L 162 91 L 0 91 L 0 0 Z" stroke="none" fill="#fff"/>
    </g>
    <g id="Path_614949" data-name="Path 614949" transform="translate(667 7607)" fill="#b0c0d2">
      <path d="M 161.5 90.5 L 0.5 90.5 L 0.5 0.5 L 161.5 0.5 L 161.5 90.5 Z" stroke="none"/>
      <path d="M 1 1 L 1 90 L 161 90 L 161 1 L 1 1 M 0 0 L 162 0 L 162 91 L 0 91 L 0 0 Z" stroke="none" fill="#fff"/>
    </g>
    <g id="Path_614950" data-name="Path 614950" transform="translate(505 7607)" fill="#b0c0d2">
      <path d="M 161.5 90.5 L 0.5 90.5 L 0.5 0.5 L 161.5 0.5 L 161.5 90.5 Z" stroke="none"/>
      <path d="M 1 1 L 1 90 L 161 90 L 161 1 L 1 1 M 0 0 L 162 0 L 162 91 L 0 91 L 0 0 Z" stroke="none" fill="#fff"/>
    </g>
    <g id="Path_614951" data-name="Path 614951" transform="translate(1153 7789)" fill="#6dfefe">
      <path d="M 161.5 90.5 L 0.5 90.5 L 0.5 0.5 L 161.5 0.5 L 161.5 90.5 Z" stroke="none"/>
      <path d="M 1 1 L 1 90 L 161 90 L 161 1 L 1 1 M 0 0 L 162 0 L 162 91 L 0 91 L 0 0 Z" stroke="none" fill="#fff"/>
    </g>
    <g id="Path_614952" data-name="Path 614952" transform="translate(991 7789)" fill="#6dfefe">
      <path d="M 161.5 90.5 L 0.5 90.5 L 0.5 0.5 L 161.5 0.5 L 161.5 90.5 Z" stroke="none"/>
      <path d="M 1 1 L 1 90 L 161 90 L 161 1 L 1 1 M 0 0 L 162 0 L 162 91 L 0 91 L 0 0 Z" stroke="none" fill="#fff"/>
    </g>
    <g id="Path_614953" data-name="Path 614953" transform="translate(829 7789)" fill="#6dfefe">
      <path d="M 161.5 90.5 L 0.5 90.5 L 0.5 0.5 L 161.5 0.5 L 161.5 90.5 Z" stroke="none"/>
      <path d="M 1 1 L 1 90 L 161 90 L 161 1 L 1 1 M 0 0 L 162 0 L 162 91 L 0 91 L 0 0 Z" stroke="none" fill="#fff"/>
    </g>
    <g id="Path_614954" data-name="Path 614954" transform="translate(667 7789)" fill="#b0c0d2">
      <path d="M 161.5 90.5 L 0.5 90.5 L 0.5 0.5 L 161.5 0.5 L 161.5 90.5 Z" stroke="none"/>
      <path d="M 1 1 L 1 90 L 161 90 L 161 1 L 1 1 M 0 0 L 162 0 L 162 91 L 0 91 L 0 0 Z" stroke="none" fill="#fff"/>
    </g>
    <g id="Path_614955" data-name="Path 614955" transform="translate(505 7789)" fill="#b0c0d2">
      <path d="M 161.5 90.5 L 0.5 90.5 L 0.5 0.5 L 161.5 0.5 L 161.5 90.5 Z" stroke="none"/>
      <path d="M 1 1 L 1 90 L 161 90 L 161 1 L 1 1 M 0 0 L 162 0 L 162 91 L 0 91 L 0 0 Z" stroke="none" fill="#fff"/>
    </g>
    <g id="Path_614956" data-name="Path 614956" transform="translate(1153 7880)" fill="#5fc6c3">
      <path d="M 161.5 90.5 L 0.5 90.5 L 0.5 0.5 L 161.5 0.5 L 161.5 90.5 Z" stroke="none"/>
      <path d="M 1 1 L 1 90 L 161 90 L 161 1 L 1 1 M 0 0 L 162 0 L 162 91 L 0 91 L 0 0 Z" stroke="none" fill="#fff"/>
    </g>
    <g id="Path_614957" data-name="Path 614957" transform="translate(991 7880)" fill="#5fc6c3">
      <path d="M 161.5 90.5 L 0.5 90.5 L 0.5 0.5 L 161.5 0.5 L 161.5 90.5 Z" stroke="none"/>
      <path d="M 1 1 L 1 90 L 161 90 L 161 1 L 1 1 M 0 0 L 162 0 L 162 91 L 0 91 L 0 0 Z" stroke="none" fill="#fff"/>
    </g>
    <g id="Path_614958" data-name="Path 614958" transform="translate(829 7880)" fill="#5fc6c3">
      <path d="M 161.5 90.5 L 0.5 90.5 L 0.5 0.5 L 161.5 0.5 L 161.5 90.5 Z" stroke="none"/>
      <path d="M 1 1 L 1 90 L 161 90 L 161 1 L 1 1 M 0 0 L 162 0 L 162 91 L 0 91 L 0 0 Z" stroke="none" fill="#fff"/>
    </g>
    <g id="Path_614959" data-name="Path 614959" transform="translate(667 7880)" fill="#b0c0d2">
      <path d="M 161.5 90.5 L 0.5 90.5 L 0.5 0.5 L 161.5 0.5 L 161.5 90.5 Z" stroke="none"/>
      <path d="M 1 1 L 1 90 L 161 90 L 161 1 L 1 1 M 0 0 L 162 0 L 162 91 L 0 91 L 0 0 Z" stroke="none" fill="#fff"/>
    </g>
    <g id="Path_614960" data-name="Path 614960" transform="translate(505 7880)" fill="#b0c0d2">
      <path d="M 161.5 90.5 L 0.5 90.5 L 0.5 0.5 L 161.5 0.5 L 161.5 90.5 Z" stroke="none"/>
      <path d="M 1 1 L 1 90 L 161 90 L 161 1 L 1 1 M 0 0 L 162 0 L 162 91 L 0 91 L 0 0 Z" stroke="none" fill="#fff"/>
    </g>
    <path id="Path_614741" data-name="Path 614741" d="M-8189.632-5151v468.778h825.548" transform="translate(8679 12667)" fill="none" stroke="#03386e" stroke-width="3"/>
    <path id="Path_614961" data-name="Path 614961" d="M0,0H142V32H0Z" transform="translate(285 7744)" fill="#03386e"/>
    <path id="Path_614962" data-name="Path 614962" d="M0,0H142V32H0Z" transform="translate(840 8038)" fill="#03386e"/>
    <path id="Path_614963" data-name="Path 614963" d="M3.329-4.482V0h-2.1V-12.086H5.852a4.675,4.675,0,0,1,3.217,1.055A3.549,3.549,0,0,1,10.26-8.239,3.431,3.431,0,0,1,9.094-5.471a4.9,4.9,0,0,1-3.266.989Zm0-1.693H5.852A2.485,2.485,0,0,0,7.562-6.7a1.937,1.937,0,0,0,.589-1.523,2.09,2.09,0,0,0-.6-1.565,2.3,2.3,0,0,0-1.644-.6H3.329ZM16.6-7.139a4.991,4.991,0,0,0-.822-.066,1.85,1.85,0,0,0-1.868,1.063V0H11.9V-8.981h1.926l.05,1A2.273,2.273,0,0,1,15.9-9.147a1.888,1.888,0,0,1,.714.116Zm.6,2.565a5.3,5.3,0,0,1,.523-2.378,3.819,3.819,0,0,1,1.469-1.627,4.14,4.14,0,0,1,2.175-.569,3.923,3.923,0,0,1,2.951,1.17,4.6,4.6,0,0,1,1.224,3.1l.008.473a5.343,5.343,0,0,1-.51,2.374A3.773,3.773,0,0,1,23.578-.407a4.17,4.17,0,0,1-2.2.573A3.9,3.9,0,0,1,18.341-1.1,4.848,4.848,0,0,1,17.2-4.474Zm2.017.174a3.619,3.619,0,0,0,.573,2.171,1.862,1.862,0,0,0,1.594.784,1.842,1.842,0,0,0,1.59-.8,4,4,0,0,0,.569-2.333,3.572,3.572,0,0,0-.585-2.158,1.869,1.869,0,0,0-1.59-.8,1.852,1.852,0,0,0-1.569.784A3.922,3.922,0,0,0,19.216-4.4Zm15.921,0A5.4,5.4,0,0,1,34.2-1.071,3.042,3.042,0,0,1,31.634.166,2.93,2.93,0,0,1,29.177-.971l-.1.971H27.251V-12.75h2.017v4.632a2.92,2.92,0,0,1,2.349-1.029A3.077,3.077,0,0,1,34.2-7.927a5.484,5.484,0,0,1,.938,3.412ZM33.12-4.574a3.813,3.813,0,0,0-.515-2.191,1.714,1.714,0,0,0-1.494-.73A1.873,1.873,0,0,0,29.269-6.35v3.7a1.892,1.892,0,0,0,1.859,1.17,1.7,1.7,0,0,0,1.461-.706,3.7,3.7,0,0,0,.531-2.133ZM42.193,0a3.113,3.113,0,0,1-.232-.838,3.14,3.14,0,0,1-2.357,1A3.169,3.169,0,0,1,37.4-.606a2.47,2.47,0,0,1-.855-1.909,2.55,2.55,0,0,1,1.067-2.2,5.169,5.169,0,0,1,3.051-.768h1.237v-.589a1.573,1.573,0,0,0-.39-1.116,1.547,1.547,0,0,0-1.187-.419,1.777,1.777,0,0,0-1.129.344,1.066,1.066,0,0,0-.44.876H36.731a2.239,2.239,0,0,1,.49-1.382,3.263,3.263,0,0,1,1.332-1.009,4.68,4.68,0,0,1,1.88-.365,3.769,3.769,0,0,1,2.515.793,2.827,2.827,0,0,1,.963,2.229v4.051a4.591,4.591,0,0,0,.34,1.934V0ZM39.977-1.453A2.294,2.294,0,0,0,41.1-1.743a1.941,1.941,0,0,0,.793-.78V-4.217H40.807a2.973,2.973,0,0,0-1.685.39,1.264,1.264,0,0,0-.564,1.1,1.179,1.179,0,0,0,.386.926A1.5,1.5,0,0,0,39.977-1.453ZM53.905-4.4a5.4,5.4,0,0,1-.934,3.329A3.042,3.042,0,0,1,50.4.166,2.93,2.93,0,0,1,47.945-.971l-.1.971H46.02V-12.75h2.017v4.632a2.92,2.92,0,0,1,2.349-1.029,3.077,3.077,0,0,1,2.582,1.22,5.484,5.484,0,0,1,.938,3.412Zm-2.017-.174a3.813,3.813,0,0,0-.515-2.191,1.714,1.714,0,0,0-1.494-.73A1.873,1.873,0,0,0,48.037-6.35v3.7A1.892,1.892,0,0,0,49.9-1.478a1.7,1.7,0,0,0,1.461-.706,3.7,3.7,0,0,0,.531-2.133ZM57.74,0H55.723V-8.981H57.74ZM55.6-11.314a1.071,1.071,0,0,1,.295-.772,1.113,1.113,0,0,1,.843-.307,1.127,1.127,0,0,1,.847.307,1.062,1.062,0,0,1,.3.772,1.038,1.038,0,0,1-.3.76,1.136,1.136,0,0,1-.847.3,1.122,1.122,0,0,1-.843-.3A1.046,1.046,0,0,1,55.6-11.314ZM62.082,0H60.064V-12.75h2.017Zm4.341,0H64.406V-8.981h2.017ZM64.281-11.314a1.071,1.071,0,0,1,.295-.772,1.113,1.113,0,0,1,.843-.307,1.127,1.127,0,0,1,.847.307,1.062,1.062,0,0,1,.3.772,1.038,1.038,0,0,1-.3.76,1.136,1.136,0,0,1-.847.3,1.122,1.122,0,0,1-.843-.3A1.046,1.046,0,0,1,64.281-11.314Zm3.959,6.757A5.34,5.34,0,0,1,69.2-7.89a3.085,3.085,0,0,1,2.582-1.258,2.931,2.931,0,0,1,2.308,1v-4.6H76.11V0H74.284l-.1-.93a2.973,2.973,0,0,1-2.416,1.1A3.068,3.068,0,0,1,69.216-1.1,5.535,5.535,0,0,1,68.241-4.557Zm2.017.174a3.739,3.739,0,0,0,.527,2.137,1.71,1.71,0,0,0,1.5.768,1.9,1.9,0,0,0,1.81-1.1V-6.417A1.876,1.876,0,0,0,72.3-7.5a1.723,1.723,0,0,0-1.511.776A4.163,4.163,0,0,0,70.258-4.383ZM83.581,0a3.113,3.113,0,0,1-.232-.838,3.14,3.14,0,0,1-2.357,1,3.169,3.169,0,0,1-2.208-.772,2.47,2.47,0,0,1-.855-1.909,2.55,2.55,0,0,1,1.067-2.2,5.169,5.169,0,0,1,3.051-.768h1.237v-.589a1.573,1.573,0,0,0-.39-1.116A1.547,1.547,0,0,0,81.7-7.612a1.777,1.777,0,0,0-1.129.344,1.066,1.066,0,0,0-.44.876H78.119a2.239,2.239,0,0,1,.49-1.382,3.263,3.263,0,0,1,1.332-1.009,4.68,4.68,0,0,1,1.88-.365,3.769,3.769,0,0,1,2.515.793A2.827,2.827,0,0,1,85.3-6.126v4.051a4.591,4.591,0,0,0,.34,1.934V0ZM81.364-1.453a2.294,2.294,0,0,0,1.125-.291,1.941,1.941,0,0,0,.793-.78V-4.217H82.194a2.973,2.973,0,0,0-1.685.39,1.264,1.264,0,0,0-.564,1.1,1.179,1.179,0,0,0,.386.926A1.5,1.5,0,0,0,81.364-1.453Zm5.669-3.1A5.34,5.34,0,0,1,88-7.89a3.085,3.085,0,0,1,2.582-1.258,2.931,2.931,0,0,1,2.308,1v-4.6H94.9V0H93.077l-.1-.93a2.973,2.973,0,0,1-2.416,1.1A3.068,3.068,0,0,1,88.009-1.1,5.535,5.535,0,0,1,87.034-4.557Zm2.017.174a3.739,3.739,0,0,0,.527,2.137,1.71,1.71,0,0,0,1.5.768,1.9,1.9,0,0,0,1.81-1.1V-6.417A1.876,1.876,0,0,0,91.093-7.5a1.723,1.723,0,0,0-1.511.776A4.163,4.163,0,0,0,89.051-4.383Z" transform="translate(308 7766)" fill="#fff"/>
    <path id="Path_614964" data-name="Path 614964" d="M15.234-31.953h5.43q5.117-.078,8.047-2.7a9.005,9.005,0,0,0,2.93-7.07q0-10-9.961-10a10.361,10.361,0,0,0-7.48,2.676,9.365,9.365,0,0,0-2.793,7.09H4.18a14.508,14.508,0,0,1,4.941-11.23A18,18,0,0,1,21.68-57.656q8.047,0,12.617,4.258t4.57,11.836a12.485,12.485,0,0,1-2.4,7.188,14.505,14.505,0,0,1-6.543,5.2,13.977,13.977,0,0,1,7.246,4.922,13.669,13.669,0,0,1,2.559,8.4q0,7.656-5,12.148T21.719.781q-8.008,0-13.027-4.336A14.383,14.383,0,0,1,3.672-15h7.266a9.3,9.3,0,0,0,2.93,7.188,11.143,11.143,0,0,0,7.852,2.7q5.234,0,8.008-2.734T32.5-15.7q0-4.961-3.047-7.617t-8.789-2.734h-5.43Z" transform="translate(1050 7590)" fill="#fff"/>
    <path id="Path_614965" data-name="Path 614965" d="M41.992,0H4.727V-5.2L24.414-27.07a46.772,46.772,0,0,0,6.035-8.066,13.463,13.463,0,0,0,1.66-6.426,10.2,10.2,0,0,0-2.7-7.3,9.424,9.424,0,0,0-7.187-2.852q-5.391,0-8.379,3.066t-2.988,8.535H3.633q0-7.852,5.059-12.7t13.535-4.844q7.93,0,12.539,4.16a14.191,14.191,0,0,1,4.609,11.074q0,8.4-10.7,20L13.438-5.9H41.992Z" transform="translate(1055 7951)" fill="#12263f"/>
    <path id="Path_614966" data-name="Path 614966" d="M28.477,0H21.211V-48.164L6.641-42.812v-6.562l20.7-7.773h1.133Z" transform="translate(645 7773)" fill="#12263f"/>
    <path id="Path_614967" data-name="Path 614967" d="M3.445,0H1.353V-12.086H3.445ZM7.728-8.981l.058.938a3.232,3.232,0,0,1,2.59-1.1A2.483,2.483,0,0,1,12.841-7.77,3.186,3.186,0,0,1,15.6-9.147a2.8,2.8,0,0,1,2.212.822A3.618,3.618,0,0,1,18.552-5.9V0H16.535V-5.844A1.786,1.786,0,0,0,16.162-7.1a1.635,1.635,0,0,0-1.237-.4,1.679,1.679,0,0,0-1.125.369,1.948,1.948,0,0,0-.61.967L13.2,0H11.181V-5.91A1.439,1.439,0,0,0,9.563-7.5a1.776,1.776,0,0,0-1.718.988V0H5.827V-8.981ZM28.488-4.4a5.348,5.348,0,0,1-.946,3.324A3.031,3.031,0,0,1,25,.166a3.051,3.051,0,0,1-2.366-.971V3.453H20.619V-8.981h1.859l.083.913a2.963,2.963,0,0,1,2.416-1.079,3.062,3.062,0,0,1,2.577,1.224,5.49,5.49,0,0,1,.934,3.4Zm-2.009-.174a3.746,3.746,0,0,0-.535-2.133A1.741,1.741,0,0,0,24.413-7.5a1.856,1.856,0,0,0-1.776,1.021V-2.49a1.873,1.873,0,0,0,1.793,1.046,1.739,1.739,0,0,0,1.507-.776A4.124,4.124,0,0,0,26.479-4.574ZM35.561,0a3.113,3.113,0,0,1-.232-.838,3.14,3.14,0,0,1-2.357,1,3.169,3.169,0,0,1-2.208-.772,2.47,2.47,0,0,1-.855-1.909,2.55,2.55,0,0,1,1.067-2.2,5.169,5.169,0,0,1,3.051-.768h1.237v-.589a1.573,1.573,0,0,0-.39-1.116,1.547,1.547,0,0,0-1.187-.419,1.777,1.777,0,0,0-1.129.344,1.066,1.066,0,0,0-.44.876H30.1a2.239,2.239,0,0,1,.49-1.382,3.263,3.263,0,0,1,1.332-1.009,4.68,4.68,0,0,1,1.88-.365,3.769,3.769,0,0,1,2.515.793,2.827,2.827,0,0,1,.963,2.229v4.051a4.591,4.591,0,0,0,.34,1.934V0ZM33.344-1.453a2.294,2.294,0,0,0,1.125-.291,1.941,1.941,0,0,0,.793-.78V-4.217H34.174a2.973,2.973,0,0,0-1.685.39,1.264,1.264,0,0,0-.564,1.1,1.179,1.179,0,0,0,.386.926A1.5,1.5,0,0,0,33.344-1.453Zm9.737.008a1.824,1.824,0,0,0,1.253-.44,1.5,1.5,0,0,0,.531-1.087h1.9a2.963,2.963,0,0,1-.523,1.565,3.43,3.43,0,0,1-1.328,1.15,3.958,3.958,0,0,1-1.81.423,3.829,3.829,0,0,1-2.988-1.22,4.84,4.84,0,0,1-1.1-3.37v-.208a4.759,4.759,0,0,1,1.1-3.283A3.8,3.8,0,0,1,43.1-9.147a3.69,3.69,0,0,1,2.611.934,3.345,3.345,0,0,1,1.058,2.453h-1.9a1.847,1.847,0,0,0-.527-1.27,1.7,1.7,0,0,0-1.258-.5,1.775,1.775,0,0,0-1.511.71,3.621,3.621,0,0,0-.54,2.154v.324a3.682,3.682,0,0,0,.527,2.179A1.773,1.773,0,0,0,43.081-1.444Zm7.736-9.72v2.183H52.4v1.494H50.817v5.014a1.1,1.1,0,0,0,.2.743.943.943,0,0,0,.726.228,3.107,3.107,0,0,0,.706-.083V-.025a4.968,4.968,0,0,1-1.328.191Q48.8.166,48.8-2.4V-7.487H47.323V-8.981H48.8v-2.183Zm2.5,6.591a5.3,5.3,0,0,1,.523-2.378,3.819,3.819,0,0,1,1.469-1.627,4.14,4.14,0,0,1,2.175-.569,3.923,3.923,0,0,1,2.951,1.17,4.6,4.6,0,0,1,1.224,3.1l.008.473a5.343,5.343,0,0,1-.51,2.374A3.773,3.773,0,0,1,59.7-.407a4.17,4.17,0,0,1-2.2.573A3.9,3.9,0,0,1,54.457-1.1a4.848,4.848,0,0,1-1.141-3.374Zm2.017.174a3.619,3.619,0,0,0,.573,2.171,1.862,1.862,0,0,0,1.594.784,1.842,1.842,0,0,0,1.59-.8,4,4,0,0,0,.569-2.333,3.572,3.572,0,0,0-.585-2.158,1.869,1.869,0,0,0-1.59-.8,1.852,1.852,0,0,0-1.569.784A3.922,3.922,0,0,0,55.333-4.4Z" transform="translate(880 8060)" fill="#fff"/>
    <path id="Path_614968" data-name="Path 614968" d="M35.234-19.1h7.891v5.9H35.234V0H27.969V-13.2H2.07v-4.258L27.539-56.875h7.7Zm-24.961,0h17.7V-46.992l-.859,1.563Z" transform="translate(1055 7773)" fill="#12263f"/>
  </g>
</svg>
