<svg xmlns="http://www.w3.org/2000/svg" width="400" height="351" viewBox="0 0 400 351">
  <g id="Group_1075345" data-name="Group 1075345" transform="translate(6989 4923)">
    <path id="Path_614795" data-name="Path 614795" d="M0,0H400V351H0Z" transform="translate(-6989 -4923)" fill="#fff"/>
    <path id="Path_614796" data-name="Path 614796" d="M0,0H100V32H0Z" transform="translate(-6789 -4616)" fill="#03386e"/>
    <path id="Path_614797" data-name="Path 614797" d="M9.688-3.609A4.185,4.185,0,0,1,8.355-.824a4.365,4.365,0,0,1-2.98.98,4.008,4.008,0,0,1-3.23-1.445A5.815,5.815,0,0,1,.93-5.156V-6.25A6.481,6.481,0,0,1,1.5-9.039,4.231,4.231,0,0,1,3.1-10.887a4.47,4.47,0,0,1,2.406-.645A4.11,4.11,0,0,1,8.414-10.52a4.235,4.235,0,0,1,1.273,2.8H8.18a3.268,3.268,0,0,0-.848-1.975A2.565,2.565,0,0,0,5.508-10.3,2.684,2.684,0,0,0,3.254-9.241a4.882,4.882,0,0,0-.816,3.026v1.1a5.018,5.018,0,0,0,.773,2.948A2.5,2.5,0,0,0,5.375-1.07a2.887,2.887,0,0,0,1.918-.566A3.143,3.143,0,0,0,8.18-3.609ZM13.078,0H11.633V-8.453h1.445ZM11.516-10.7a.863.863,0,0,1,.215-.594.807.807,0,0,1,.637-.242.819.819,0,0,1,.641.242.854.854,0,0,1,.219.594.826.826,0,0,1-.219.586.834.834,0,0,1-.641.234.821.821,0,0,1-.637-.234A.834.834,0,0,1,11.516-10.7ZM18.9.156A3.693,3.693,0,0,1,16.1-.973a4.19,4.19,0,0,1-1.078-3.02v-.266A5.073,5.073,0,0,1,15.5-6.5a3.748,3.748,0,0,1,1.344-1.547,3.378,3.378,0,0,1,1.871-.559,3.166,3.166,0,0,1,2.563,1.086A4.7,4.7,0,0,1,22.2-4.414v.6H16.469a3,3,0,0,0,.73,2.02,2.3,2.3,0,0,0,1.777.77,2.517,2.517,0,0,0,1.3-.312,3.259,3.259,0,0,0,.93-.828l.883.688A3.55,3.55,0,0,1,18.9.156Zm-.18-7.578a1.928,1.928,0,0,0-1.469.637A3.1,3.1,0,0,0,16.516-5H20.75v-.109a2.753,2.753,0,0,0-.594-1.707A1.815,1.815,0,0,0,18.719-7.422Zm9.234.266a4.331,4.331,0,0,0-.711-.055A1.9,1.9,0,0,0,25.313-6V0H23.867V-8.453h1.406l.023.977a2.251,2.251,0,0,1,2.016-1.133,1.477,1.477,0,0,1,.641.109Zm3.68-3.344v2.047h1.578v1.117H31.633v5.249a1.173,1.173,0,0,0,.211.763.888.888,0,0,0,.719.254,3.5,3.5,0,0,0,.688-.094V0a4.215,4.215,0,0,1-1.109.155A1.8,1.8,0,0,1,30.68-.43a2.517,2.517,0,0,1-.492-1.664V-7.336H28.648V-8.453h1.539V-10.5Zm2.727,6.2a4.993,4.993,0,0,1,.488-2.234A3.643,3.643,0,0,1,36.207-8.07,3.7,3.7,0,0,1,38.2-8.609a3.565,3.565,0,0,1,2.793,1.2,4.6,4.6,0,0,1,1.066,3.18v.1a5.036,5.036,0,0,1-.473,2.215A3.589,3.589,0,0,1,40.23-.391a3.743,3.743,0,0,1-2.02.547,3.556,3.556,0,0,1-2.785-1.2A4.575,4.575,0,0,1,34.359-4.2Zm1.453.172a3.616,3.616,0,0,0,.652,2.258,2.088,2.088,0,0,0,1.746.852,2.075,2.075,0,0,0,1.75-.863A3.955,3.955,0,0,0,40.609-4.3a3.61,3.61,0,0,0-.66-2.254A2.1,2.1,0,0,0,38.2-7.422a2.075,2.075,0,0,0-1.727.852A3.925,3.925,0,0,0,35.813-4.133Z" transform="translate(-6922 -4845)" fill="#12263f"/>
    <path id="Path_614798" data-name="Path 614798" d="M2.82-4.453V0H1.32V-11.375h4.2a4.215,4.215,0,0,1,2.926.953A3.231,3.231,0,0,1,9.5-7.9,3.189,3.189,0,0,1,8.465-5.348,4.4,4.4,0,0,1,5.5-4.453Zm0-1.227h2.7a2.7,2.7,0,0,0,1.844-.567A2.075,2.075,0,0,0,8-7.887a2.143,2.143,0,0,0-.641-1.628A2.525,2.525,0,0,0,5.6-10.148H2.82ZM15.273-7.156a4.331,4.331,0,0,0-.711-.055A1.9,1.9,0,0,0,12.633-6V0H11.188V-8.453h1.406l.023.977a2.251,2.251,0,0,1,2.016-1.133,1.477,1.477,0,0,1,.641.109ZM16.063-4.3a4.993,4.993,0,0,1,.488-2.234A3.643,3.643,0,0,1,17.91-8.07,3.7,3.7,0,0,1,19.9-8.609a3.565,3.565,0,0,1,2.793,1.2,4.6,4.6,0,0,1,1.066,3.18v.1a5.036,5.036,0,0,1-.473,2.215A3.589,3.589,0,0,1,21.934-.391a3.743,3.743,0,0,1-2.02.547,3.556,3.556,0,0,1-2.785-1.2A4.575,4.575,0,0,1,16.063-4.2Zm1.453.172a3.616,3.616,0,0,0,.652,2.258,2.088,2.088,0,0,0,1.746.852,2.075,2.075,0,0,0,1.75-.863A3.955,3.955,0,0,0,22.313-4.3a3.61,3.61,0,0,0-.66-2.254A2.1,2.1,0,0,0,19.9-7.422a2.075,2.075,0,0,0-1.727.852A3.925,3.925,0,0,0,17.516-4.133Zm15.211,0a5.026,5.026,0,0,1-.891,3.113A2.846,2.846,0,0,1,29.445.156,2.947,2.947,0,0,1,26.969-.977L26.9,0H25.57V-12h1.445v4.477A2.93,2.93,0,0,1,29.43-8.609a2.863,2.863,0,0,1,2.418,1.164,5.177,5.177,0,0,1,.879,3.188ZM31.281-4.3a3.906,3.906,0,0,0-.57-2.281,1.888,1.888,0,0,0-1.641-.8,2.122,2.122,0,0,0-2.055,1.328V-2.4a2.181,2.181,0,0,0,2.07,1.328,1.878,1.878,0,0,0,1.617-.8A4.153,4.153,0,0,0,31.281-4.3ZM39.766,0a3.036,3.036,0,0,1-.2-.891A3.225,3.225,0,0,1,37.156.156a2.984,2.984,0,0,1-2.051-.707,2.287,2.287,0,0,1-.8-1.793,2.39,2.39,0,0,1,1-2.051,4.733,4.733,0,0,1,2.824-.73h1.406v-.664A1.623,1.623,0,0,0,39.086-7a1.821,1.821,0,0,0-1.336-.449,2.107,2.107,0,0,0-1.3.391,1.151,1.151,0,0,0-.523.945H34.477a2,2,0,0,1,.449-1.223,3.066,3.066,0,0,1,1.219-.934,4.1,4.1,0,0,1,1.691-.344,3.342,3.342,0,0,1,2.289.73,2.635,2.635,0,0,1,.859,2.012v3.891a4.757,4.757,0,0,0,.3,1.852V0Zm-2.4-1.1a2.54,2.54,0,0,0,1.289-.352,2.127,2.127,0,0,0,.883-.914V-4.1H38.406q-2.656,0-2.656,1.555A1.316,1.316,0,0,0,36.2-1.484,1.742,1.742,0,0,0,37.367-1.1ZM50.406-4.133a5.026,5.026,0,0,1-.891,3.113A2.846,2.846,0,0,1,47.125.156,2.947,2.947,0,0,1,44.648-.977L44.578,0H43.25V-12H44.7v4.477a2.93,2.93,0,0,1,2.414-1.086,2.863,2.863,0,0,1,2.418,1.164,5.177,5.177,0,0,1,.879,3.188ZM48.961-4.3a3.906,3.906,0,0,0-.57-2.281,1.888,1.888,0,0,0-1.641-.8A2.122,2.122,0,0,0,44.7-6.055V-2.4a2.181,2.181,0,0,0,2.07,1.328,1.878,1.878,0,0,0,1.617-.8A4.153,4.153,0,0,0,48.961-4.3ZM53.8,0H52.352V-12H53.8Zm5.82.156a3.693,3.693,0,0,1-2.8-1.129,4.19,4.19,0,0,1-1.078-3.02v-.266a5.073,5.073,0,0,1,.48-2.246,3.748,3.748,0,0,1,1.344-1.547,3.378,3.378,0,0,1,1.871-.559A3.166,3.166,0,0,1,62-7.523a4.7,4.7,0,0,1,.914,3.109v.6H57.188a3,3,0,0,0,.73,2.02,2.3,2.3,0,0,0,1.777.77,2.517,2.517,0,0,0,1.3-.312,3.259,3.259,0,0,0,.93-.828l.883.688A3.55,3.55,0,0,1,59.617.156Zm-.18-7.578a1.928,1.928,0,0,0-1.469.637A3.1,3.1,0,0,0,57.234-5h4.234v-.109a2.753,2.753,0,0,0-.594-1.707A1.815,1.815,0,0,0,59.438-7.422Z" transform="translate(-6942 -4811)" fill="#12263f"/>
    <path id="Path_614799" data-name="Path 614799" d="M2.82-4.453V0H1.32V-11.375h4.2a4.215,4.215,0,0,1,2.926.953A3.231,3.231,0,0,1,9.5-7.9,3.189,3.189,0,0,1,8.465-5.348,4.4,4.4,0,0,1,5.5-4.453Zm0-1.227h2.7a2.7,2.7,0,0,0,1.844-.567A2.075,2.075,0,0,0,8-7.887a2.143,2.143,0,0,0-.641-1.628A2.525,2.525,0,0,0,5.6-10.148H2.82ZM10.7-4.3a4.993,4.993,0,0,1,.488-2.234A3.643,3.643,0,0,1,12.551-8.07a3.7,3.7,0,0,1,1.988-.539,3.565,3.565,0,0,1,2.793,1.2A4.6,4.6,0,0,1,18.4-4.234v.1a5.036,5.036,0,0,1-.473,2.215A3.589,3.589,0,0,1,16.574-.391a3.743,3.743,0,0,1-2.02.547,3.556,3.556,0,0,1-2.785-1.2A4.575,4.575,0,0,1,10.7-4.2Zm1.453.172a3.616,3.616,0,0,0,.652,2.258,2.088,2.088,0,0,0,1.746.852,2.075,2.075,0,0,0,1.75-.863A3.955,3.955,0,0,0,16.953-4.3a3.61,3.61,0,0,0-.66-2.254,2.1,2.1,0,0,0-1.754-.863,2.075,2.075,0,0,0-1.727.852A3.925,3.925,0,0,0,12.156-4.133ZM25.133-2.242a1.064,1.064,0,0,0-.441-.91,4.249,4.249,0,0,0-1.539-.559,7.277,7.277,0,0,1-1.742-.562,2.479,2.479,0,0,1-.953-.781,1.869,1.869,0,0,1-.309-1.078,2.193,2.193,0,0,1,.879-1.758,3.432,3.432,0,0,1,2.246-.719,3.532,3.532,0,0,1,2.332.742,2.357,2.357,0,0,1,.895,1.9H25.047a1.3,1.3,0,0,0-.5-1.023,1.888,1.888,0,0,0-1.27-.43,1.976,1.976,0,0,0-1.234.344,1.082,1.082,0,0,0-.445.9.877.877,0,0,0,.414.789,5.1,5.1,0,0,0,1.5.508,7.8,7.8,0,0,1,1.754.578,2.558,2.558,0,0,1,1,.809,1.988,1.988,0,0,1,.324,1.152,2.163,2.163,0,0,1-.906,1.816A3.8,3.8,0,0,1,23.32.156a4.257,4.257,0,0,1-1.8-.359,2.922,2.922,0,0,1-1.223-1A2.42,2.42,0,0,1,19.859-2.6H21.3a1.5,1.5,0,0,0,.582,1.152,2.258,2.258,0,0,0,1.434.426,2.331,2.331,0,0,0,1.316-.332A1.02,1.02,0,0,0,25.133-2.242ZM30.031,0H28.586V-8.453h1.445ZM28.469-10.7a.863.863,0,0,1,.215-.594.807.807,0,0,1,.637-.242.819.819,0,0,1,.641.242.854.854,0,0,1,.219.594.826.826,0,0,1-.219.586.834.834,0,0,1-.641.234.821.821,0,0,1-.637-.234A.834.834,0,0,1,28.469-10.7ZM39.5-4.133a5.026,5.026,0,0,1-.891,3.113A2.846,2.846,0,0,1,36.219.156,2.947,2.947,0,0,1,33.742-.977L33.672,0H32.344V-12h1.445v4.477A2.93,2.93,0,0,1,36.2-8.609a2.863,2.863,0,0,1,2.418,1.164A5.177,5.177,0,0,1,39.5-4.258ZM38.055-4.3a3.906,3.906,0,0,0-.57-2.281,1.888,1.888,0,0,0-1.641-.8,2.122,2.122,0,0,0-2.055,1.328V-2.4a2.181,2.181,0,0,0,2.07,1.328,1.878,1.878,0,0,0,1.617-.8A4.153,4.153,0,0,0,38.055-4.3ZM42.891,0H41.445V-12h1.445Zm5.82.156a3.693,3.693,0,0,1-2.8-1.129,4.19,4.19,0,0,1-1.078-3.02v-.266a5.073,5.073,0,0,1,.48-2.246A3.748,3.748,0,0,1,46.66-8.051a3.378,3.378,0,0,1,1.871-.559,3.166,3.166,0,0,1,2.563,1.086,4.7,4.7,0,0,1,.914,3.109v.6H46.281a3,3,0,0,0,.73,2.02,2.3,2.3,0,0,0,1.777.77,2.517,2.517,0,0,0,1.3-.312,3.259,3.259,0,0,0,.93-.828l.883.688A3.55,3.55,0,0,1,48.711.156Zm-.18-7.578a1.928,1.928,0,0,0-1.469.637A3.1,3.1,0,0,0,46.328-5h4.234v-.109a2.753,2.753,0,0,0-.594-1.707A1.815,1.815,0,0,0,48.531-7.422Z" transform="translate(-6932 -4780)" fill="#12263f"/>
    <path id="Path_614800" data-name="Path 614800" d="M2.93,0H1.43V-11.375h1.5ZM6.8-8.453l.039.938A3.122,3.122,0,0,1,9.352-8.609,2.417,2.417,0,0,1,11.766-7.25a3.2,3.2,0,0,1,1.1-.984,3.242,3.242,0,0,1,1.6-.375q2.781,0,2.828,2.945V0H15.844V-5.578a1.941,1.941,0,0,0-.414-1.355,1.823,1.823,0,0,0-1.391-.449A1.916,1.916,0,0,0,12.7-6.9a1.949,1.949,0,0,0-.617,1.293V0H10.633V-5.539a1.613,1.613,0,0,0-1.8-1.844A1.934,1.934,0,0,0,6.883-6.172V0H5.438V-8.453Zm19.8,4.32a5.062,5.062,0,0,1-.883,3.109A2.829,2.829,0,0,1,23.336.156,3.1,3.1,0,0,1,20.914-.82V3.25H19.469v-11.7h1.32l.07.938a2.977,2.977,0,0,1,2.453-1.094,2.882,2.882,0,0,1,2.41,1.148,5.117,5.117,0,0,1,.887,3.2ZM25.164-4.3a3.735,3.735,0,0,0-.609-2.258,1.963,1.963,0,0,0-1.672-.828,2.125,2.125,0,0,0-1.969,1.164V-2.18A2.129,2.129,0,0,0,22.9-1.023a1.954,1.954,0,0,0,1.652-.824A4.077,4.077,0,0,0,25.164-4.3Zm7.367-2.859a4.331,4.331,0,0,0-.711-.055A1.9,1.9,0,0,0,29.891-6V0H28.445V-8.453h1.406l.023.977a2.251,2.251,0,0,1,2.016-1.133,1.477,1.477,0,0,1,.641.109ZM33.32-4.3a4.993,4.993,0,0,1,.488-2.234A3.643,3.643,0,0,1,35.168-8.07a3.7,3.7,0,0,1,1.988-.539,3.565,3.565,0,0,1,2.793,1.2,4.6,4.6,0,0,1,1.066,3.18v.1a5.036,5.036,0,0,1-.473,2.215A3.589,3.589,0,0,1,39.191-.391a3.743,3.743,0,0,1-2.02.547,3.556,3.556,0,0,1-2.785-1.2A4.575,4.575,0,0,1,33.32-4.2Zm1.453.172a3.616,3.616,0,0,0,.652,2.258,2.088,2.088,0,0,0,1.746.852,2.075,2.075,0,0,0,1.75-.863A3.955,3.955,0,0,0,39.57-4.3a3.61,3.61,0,0,0-.66-2.254,2.1,2.1,0,0,0-1.754-.863,2.075,2.075,0,0,0-1.727.852A3.925,3.925,0,0,0,34.773-4.133Zm15.211,0a5.026,5.026,0,0,1-.891,3.113A2.846,2.846,0,0,1,46.7.156,2.947,2.947,0,0,1,44.227-.977L44.156,0H42.828V-12h1.445v4.477a2.93,2.93,0,0,1,2.414-1.086,2.863,2.863,0,0,1,2.418,1.164,5.177,5.177,0,0,1,.879,3.188ZM48.539-4.3a3.906,3.906,0,0,0-.57-2.281,1.888,1.888,0,0,0-1.641-.8,2.122,2.122,0,0,0-2.055,1.328V-2.4a2.181,2.181,0,0,0,2.07,1.328,1.878,1.878,0,0,0,1.617-.8A4.153,4.153,0,0,0,48.539-4.3ZM57.023,0a3.036,3.036,0,0,1-.2-.891A3.225,3.225,0,0,1,54.414.156a2.984,2.984,0,0,1-2.051-.707,2.287,2.287,0,0,1-.8-1.793,2.39,2.39,0,0,1,1-2.051,4.733,4.733,0,0,1,2.824-.73H56.8v-.664A1.623,1.623,0,0,0,56.344-7a1.821,1.821,0,0,0-1.336-.449,2.107,2.107,0,0,0-1.3.391,1.151,1.151,0,0,0-.523.945H51.734a2,2,0,0,1,.449-1.223A3.066,3.066,0,0,1,53.4-8.266a4.1,4.1,0,0,1,1.691-.344,3.342,3.342,0,0,1,2.289.73,2.635,2.635,0,0,1,.859,2.012v3.891a4.757,4.757,0,0,0,.3,1.852V0Zm-2.4-1.1a2.54,2.54,0,0,0,1.289-.352,2.127,2.127,0,0,0,.883-.914V-4.1H55.664q-2.656,0-2.656,1.555a1.316,1.316,0,0,0,.453,1.063A1.742,1.742,0,0,0,54.625-1.1ZM67.664-4.133a5.026,5.026,0,0,1-.891,3.113A2.846,2.846,0,0,1,64.383.156,2.947,2.947,0,0,1,61.906-.977L61.836,0H60.508V-12h1.445v4.477a2.93,2.93,0,0,1,2.414-1.086,2.863,2.863,0,0,1,2.418,1.164,5.177,5.177,0,0,1,.879,3.188ZM66.219-4.3a3.906,3.906,0,0,0-.57-2.281,1.888,1.888,0,0,0-1.641-.8,2.122,2.122,0,0,0-2.055,1.328V-2.4a2.181,2.181,0,0,0,2.07,1.328,1.878,1.878,0,0,0,1.617-.8A4.153,4.153,0,0,0,66.219-4.3ZM71.055,0H69.609V-12h1.445Zm5.82.156a3.693,3.693,0,0,1-2.8-1.129A4.19,4.19,0,0,1,73-3.992v-.266A5.073,5.073,0,0,1,73.48-6.5a3.748,3.748,0,0,1,1.344-1.547A3.378,3.378,0,0,1,76.7-8.609a3.166,3.166,0,0,1,2.563,1.086,4.7,4.7,0,0,1,.914,3.109v.6H74.445a3,3,0,0,0,.73,2.02,2.3,2.3,0,0,0,1.777.77,2.517,2.517,0,0,0,1.3-.312,3.259,3.259,0,0,0,.93-.828l.883.688A3.55,3.55,0,0,1,76.875.156ZM76.7-7.422a1.928,1.928,0,0,0-1.469.637A3.1,3.1,0,0,0,74.492-5h4.234v-.109a2.753,2.753,0,0,0-.594-1.707A1.815,1.815,0,0,0,76.7-7.422Z" transform="translate(-6960 -4749)" fill="#12263f"/>
    <path id="Path_614801" data-name="Path 614801" d="M7.75-5.258H2.82v4.031H8.547V0H1.32V-11.375H8.469v1.227H2.82v3.664H7.75Zm5.273-.109L14.9-8.453h1.688L13.82-4.273,16.672,0H15L13.047-3.164,11.094,0H9.414l2.852-4.273L9.5-8.453h1.672Zm8.328,4.344A2.082,2.082,0,0,0,22.7-1.492a1.649,1.649,0,0,0,.641-1.172h1.367a2.621,2.621,0,0,1-.5,1.383A3.293,3.293,0,0,1,22.98-.234a3.55,3.55,0,0,1-1.629.391A3.482,3.482,0,0,1,18.605-1a4.59,4.59,0,0,1-1.02-3.152v-.242a5.089,5.089,0,0,1,.453-2.2,3.451,3.451,0,0,1,1.3-1.492,3.7,3.7,0,0,1,2-.531,3.39,3.39,0,0,1,2.363.852,3.043,3.043,0,0,1,1,2.211H23.344a1.992,1.992,0,0,0-.621-1.348,1.932,1.932,0,0,0-1.379-.527,2.023,2.023,0,0,0-1.707.793,3.724,3.724,0,0,0-.605,2.293v.273a3.65,3.65,0,0,0,.6,2.25A2.033,2.033,0,0,0,21.352-1.023ZM29.844.156a3.693,3.693,0,0,1-2.8-1.129,4.19,4.19,0,0,1-1.078-3.02v-.266a5.073,5.073,0,0,1,.48-2.246,3.748,3.748,0,0,1,1.344-1.547,3.378,3.378,0,0,1,1.871-.559,3.166,3.166,0,0,1,2.563,1.086,4.7,4.7,0,0,1,.914,3.109v.6H27.414a3,3,0,0,0,.73,2.02,2.3,2.3,0,0,0,1.777.77,2.517,2.517,0,0,0,1.3-.312,3.259,3.259,0,0,0,.93-.828l.883.688A3.55,3.55,0,0,1,29.844.156Zm-.18-7.578a1.928,1.928,0,0,0-1.469.637A3.1,3.1,0,0,0,27.461-5H31.7v-.109A2.753,2.753,0,0,0,31.1-6.816,1.815,1.815,0,0,0,29.664-7.422ZM41.953-4.133a5.062,5.062,0,0,1-.883,3.109A2.829,2.829,0,0,1,38.68.156,3.1,3.1,0,0,1,36.258-.82V3.25H34.813v-11.7h1.32l.07.938a2.977,2.977,0,0,1,2.453-1.094,2.882,2.882,0,0,1,2.41,1.148,5.117,5.117,0,0,1,.887,3.2ZM40.508-4.3A3.735,3.735,0,0,0,39.9-6.555a1.963,1.963,0,0,0-1.672-.828,2.125,2.125,0,0,0-1.969,1.164V-2.18a2.129,2.129,0,0,0,1.984,1.156,1.954,1.954,0,0,0,1.652-.824A4.077,4.077,0,0,0,40.508-4.3ZM47.18-1.023a2.082,2.082,0,0,0,1.352-.469,1.649,1.649,0,0,0,.641-1.172h1.367a2.621,2.621,0,0,1-.5,1.383,3.293,3.293,0,0,1-1.23,1.047A3.55,3.55,0,0,1,47.18.156,3.482,3.482,0,0,1,44.434-1a4.59,4.59,0,0,1-1.02-3.152v-.242a5.089,5.089,0,0,1,.453-2.2,3.451,3.451,0,0,1,1.3-1.492,3.7,3.7,0,0,1,2-.531,3.39,3.39,0,0,1,2.363.852,3.043,3.043,0,0,1,1,2.211H49.172a1.992,1.992,0,0,0-.621-1.348,1.932,1.932,0,0,0-1.379-.527,2.023,2.023,0,0,0-1.707.793,3.724,3.724,0,0,0-.605,2.293v.273a3.65,3.65,0,0,0,.6,2.25A2.033,2.033,0,0,0,47.18-1.023ZM53.734,0H52.289V-8.453h1.445ZM52.172-10.7a.863.863,0,0,1,.215-.594.807.807,0,0,1,.637-.242.819.819,0,0,1,.641.242.854.854,0,0,1,.219.594.826.826,0,0,1-.219.586.834.834,0,0,1-.641.234.821.821,0,0,1-.637-.234A.834.834,0,0,1,52.172-10.7ZM55.664-4.3a4.993,4.993,0,0,1,.488-2.234A3.643,3.643,0,0,1,57.512-8.07,3.7,3.7,0,0,1,59.5-8.609a3.565,3.565,0,0,1,2.793,1.2,4.6,4.6,0,0,1,1.066,3.18v.1a5.036,5.036,0,0,1-.473,2.215A3.589,3.589,0,0,1,61.535-.391a3.743,3.743,0,0,1-2.02.547,3.556,3.556,0,0,1-2.785-1.2A4.575,4.575,0,0,1,55.664-4.2Zm1.453.172a3.616,3.616,0,0,0,.652,2.258,2.088,2.088,0,0,0,1.746.852,2.075,2.075,0,0,0,1.75-.863A3.955,3.955,0,0,0,61.914-4.3a3.61,3.61,0,0,0-.66-2.254A2.1,2.1,0,0,0,59.5-7.422a2.075,2.075,0,0,0-1.727.852A3.925,3.925,0,0,0,57.117-4.133Zm9.422-4.32.047,1.063a3.08,3.08,0,0,1,2.531-1.219q2.68,0,2.7,3.023V0H70.375V-5.594a1.946,1.946,0,0,0-.418-1.352,1.675,1.675,0,0,0-1.277-.437,2.086,2.086,0,0,0-1.234.375,2.546,2.546,0,0,0-.828.984V0H65.172V-8.453ZM79.219,0a3.036,3.036,0,0,1-.2-.891A3.225,3.225,0,0,1,76.609.156a2.984,2.984,0,0,1-2.051-.707,2.288,2.288,0,0,1-.8-1.793,2.39,2.39,0,0,1,1-2.051,4.733,4.733,0,0,1,2.824-.73h1.406v-.664A1.623,1.623,0,0,0,78.539-7,1.821,1.821,0,0,0,77.2-7.445a2.108,2.108,0,0,0-1.3.391,1.151,1.151,0,0,0-.523.945H73.93a2,2,0,0,1,.449-1.223A3.066,3.066,0,0,1,75.6-8.266a4.1,4.1,0,0,1,1.691-.344,3.342,3.342,0,0,1,2.289.73,2.635,2.635,0,0,1,.859,2.012v3.891a4.757,4.757,0,0,0,.3,1.852V0Zm-2.4-1.1a2.54,2.54,0,0,0,1.289-.352,2.127,2.127,0,0,0,.883-.914V-4.1H77.859Q75.2-4.1,75.2-2.547a1.316,1.316,0,0,0,.453,1.063A1.742,1.742,0,0,0,76.82-1.1ZM84.273,0H82.828V-12h1.445Z" transform="translate(-6964 -4718)" fill="#12263f"/>
    <path id="Path_614802" data-name="Path 614802" d="M3.258-11.375,6.977-2.094,10.7-11.375h1.945V0h-1.5V-4.43l.141-4.781L7.547,0H6.4L2.672-9.187,2.82-4.43V0H1.32V-11.375ZM16.633,0H15.18V-8.453h1.453Zm.016-11.992H18.4L16.3-9.7l-1.164,0Zm3.734,3.539.047,1.063a3.08,3.08,0,0,1,2.531-1.219q2.68,0,2.7,3.023V0H24.219V-5.594A1.946,1.946,0,0,0,23.8-6.945a1.675,1.675,0,0,0-1.277-.437,2.086,2.086,0,0,0-1.234.375,2.546,2.546,0,0,0-.828.984V0H19.016V-8.453ZM29.414,0H27.969V-8.453h1.445ZM27.852-10.7a.863.863,0,0,1,.215-.594.807.807,0,0,1,.637-.242.819.819,0,0,1,.641.242.854.854,0,0,1,.219.594.826.826,0,0,1-.219.586.834.834,0,0,1-.641.234.821.821,0,0,1-.637-.234A.834.834,0,0,1,27.852-10.7Zm5.234,2.242.039.938a3.122,3.122,0,0,1,2.508-1.094A2.417,2.417,0,0,1,38.047-7.25a3.2,3.2,0,0,1,1.1-.984,3.242,3.242,0,0,1,1.6-.375q2.781,0,2.828,2.945V0H42.125V-5.578a1.941,1.941,0,0,0-.414-1.355,1.823,1.823,0,0,0-1.391-.449,1.917,1.917,0,0,0-1.336.48,1.949,1.949,0,0,0-.617,1.293V0H36.914V-5.539a1.613,1.613,0,0,0-1.8-1.844,1.934,1.934,0,0,0-1.945,1.211V0H31.719V-8.453ZM45.367-4.3a4.993,4.993,0,0,1,.488-2.234A3.643,3.643,0,0,1,47.215-8.07,3.7,3.7,0,0,1,49.2-8.609,3.565,3.565,0,0,1,52-7.414a4.6,4.6,0,0,1,1.066,3.18v.1a5.036,5.036,0,0,1-.473,2.215A3.589,3.589,0,0,1,51.238-.391a3.743,3.743,0,0,1-2.02.547,3.556,3.556,0,0,1-2.785-1.2A4.575,4.575,0,0,1,45.367-4.2Zm1.453.172a3.616,3.616,0,0,0,.652,2.258,2.088,2.088,0,0,0,1.746.852,2.075,2.075,0,0,0,1.75-.863A3.955,3.955,0,0,0,51.617-4.3a3.61,3.61,0,0,0-.66-2.254A2.1,2.1,0,0,0,49.2-7.422a2.075,2.075,0,0,0-1.727.852A3.925,3.925,0,0,0,46.82-4.133Z" transform="translate(-6871 -4677)" fill="#12263f"/>
    <path id="Path_614803" data-name="Path 614803" d="M3.258-11.375,6.977-2.094,10.7-11.375h1.945V0h-1.5V-4.43l.141-4.781L7.547,0H6.4L2.672-9.187,2.82-4.43V0H1.32V-11.375ZM20.281,0a3.036,3.036,0,0,1-.2-.891A3.225,3.225,0,0,1,17.672.156a2.984,2.984,0,0,1-2.051-.707,2.287,2.287,0,0,1-.8-1.793,2.39,2.39,0,0,1,1-2.051,4.733,4.733,0,0,1,2.824-.73h1.406v-.664A1.623,1.623,0,0,0,19.6-7a1.821,1.821,0,0,0-1.336-.449,2.108,2.108,0,0,0-1.3.391,1.151,1.151,0,0,0-.523.945H14.992a2,2,0,0,1,.449-1.223,3.066,3.066,0,0,1,1.219-.934,4.1,4.1,0,0,1,1.691-.344,3.342,3.342,0,0,1,2.289.73A2.635,2.635,0,0,1,21.5-5.867v3.891a4.757,4.757,0,0,0,.3,1.852V0Zm-2.4-1.1a2.54,2.54,0,0,0,1.289-.352,2.127,2.127,0,0,0,.883-.914V-4.1H18.922q-2.656,0-2.656,1.555a1.316,1.316,0,0,0,.453,1.063A1.742,1.742,0,0,0,17.883-1.1Zm9.969-6.055a4.331,4.331,0,0,0-.711-.055A1.9,1.9,0,0,0,25.211-6V0H23.766V-8.453h1.406l.023.977a2.251,2.251,0,0,1,2.016-1.133,1.477,1.477,0,0,1,.641.109ZM28.688-4.3A4.968,4.968,0,0,1,29.6-7.441a2.923,2.923,0,0,1,2.422-1.168,2.908,2.908,0,0,1,2.414,1.094l.07-.937h1.32V-.2a3.439,3.439,0,0,1-.973,2.586,3.589,3.589,0,0,1-2.613.945,4.348,4.348,0,0,1-1.789-.391,3.08,3.08,0,0,1-1.336-1.07L29.867,1a2.826,2.826,0,0,0,2.273,1.148,2.214,2.214,0,0,0,1.645-.594,2.269,2.269,0,0,0,.59-1.672V-.844a2.971,2.971,0,0,1-2.367,1,2.887,2.887,0,0,1-2.4-1.2A5.224,5.224,0,0,1,28.688-4.3Zm1.453.164a3.79,3.79,0,0,0,.586,2.246,1.9,1.9,0,0,0,1.641.816,2.117,2.117,0,0,0,2.008-1.242V-6.172a2.142,2.142,0,0,0-1.992-1.211,1.921,1.921,0,0,0-1.648.82A4.128,4.128,0,0,0,30.141-4.133ZM39.578,0H38.133V-8.453h1.445ZM38.016-10.7a.863.863,0,0,1,.215-.594.807.807,0,0,1,.637-.242.819.819,0,0,1,.641.242.854.854,0,0,1,.219.594.826.826,0,0,1-.219.586.834.834,0,0,1-.641.234.821.821,0,0,1-.637-.234A.834.834,0,0,1,38.016-10.7Zm5.242,2.242L43.3-7.391a3.08,3.08,0,0,1,2.531-1.219q2.68,0,2.7,3.023V0H47.094V-5.594a1.946,1.946,0,0,0-.418-1.352A1.675,1.675,0,0,0,45.4-7.383a2.086,2.086,0,0,0-1.234.375,2.546,2.546,0,0,0-.828.984V0H41.891V-8.453ZM55.938,0a3.036,3.036,0,0,1-.2-.891A3.225,3.225,0,0,1,53.328.156a2.984,2.984,0,0,1-2.051-.707,2.287,2.287,0,0,1-.8-1.793,2.39,2.39,0,0,1,1-2.051,4.733,4.733,0,0,1,2.824-.73h1.406v-.664A1.623,1.623,0,0,0,55.258-7a1.821,1.821,0,0,0-1.336-.449,2.107,2.107,0,0,0-1.3.391,1.151,1.151,0,0,0-.523.945H50.648A2,2,0,0,1,51.1-7.332a3.066,3.066,0,0,1,1.219-.934,4.1,4.1,0,0,1,1.691-.344,3.342,3.342,0,0,1,2.289.73,2.635,2.635,0,0,1,.859,2.012v3.891a4.757,4.757,0,0,0,.3,1.852V0Zm-2.4-1.1a2.54,2.54,0,0,0,1.289-.352,2.127,2.127,0,0,0,.883-.914V-4.1H54.578q-2.656,0-2.656,1.555a1.316,1.316,0,0,0,.453,1.063A1.742,1.742,0,0,0,53.539-1.1ZM60.992,0H59.547V-12h1.445Z" transform="translate(-6817 -4656)" fill="#12263f"/>
    <path id="Path_614804" data-name="Path 614804" d="M3.258-11.375,6.977-2.094,10.7-11.375h1.945V0h-1.5V-4.43l.141-4.781L7.547,0H6.4L2.672-9.187,2.82-4.43V0H1.32V-11.375ZM14.68-4.3a4.993,4.993,0,0,1,.488-2.234A3.643,3.643,0,0,1,16.527-8.07a3.7,3.7,0,0,1,1.988-.539,3.565,3.565,0,0,1,2.793,1.2,4.6,4.6,0,0,1,1.066,3.18v.1A5.036,5.036,0,0,1,21.9-1.918,3.589,3.589,0,0,1,20.551-.391a3.743,3.743,0,0,1-2.02.547,3.556,3.556,0,0,1-2.785-1.2A4.575,4.575,0,0,1,14.68-4.2Zm1.453.172a3.616,3.616,0,0,0,.652,2.258,2.088,2.088,0,0,0,1.746.852,2.075,2.075,0,0,0,1.75-.863A3.955,3.955,0,0,0,20.93-4.3a3.61,3.61,0,0,0-.66-2.254,2.1,2.1,0,0,0-1.754-.863,2.075,2.075,0,0,0-1.727.852A3.925,3.925,0,0,0,16.133-4.133Zm7.7-.164a4.952,4.952,0,0,1,.922-3.129,2.915,2.915,0,0,1,2.414-1.184,2.932,2.932,0,0,1,2.352,1.016V-12h1.445V0H29.641l-.07-.906A2.943,2.943,0,0,1,27.156.156a2.887,2.887,0,0,1-2.395-1.2,5.008,5.008,0,0,1-.926-3.141Zm1.445.164a3.749,3.749,0,0,0,.594,2.25,1.92,1.92,0,0,0,1.641.813A2.108,2.108,0,0,0,29.523-2.3V-6.187a2.125,2.125,0,0,0-1.992-1.2,1.929,1.929,0,0,0-1.656.82A4.128,4.128,0,0,0,25.281-4.133ZM36.719.156a3.693,3.693,0,0,1-2.8-1.129,4.19,4.19,0,0,1-1.078-3.02v-.266a5.073,5.073,0,0,1,.48-2.246,3.748,3.748,0,0,1,1.344-1.547,3.378,3.378,0,0,1,1.871-.559A3.166,3.166,0,0,1,39.1-7.523a4.7,4.7,0,0,1,.914,3.109v.6H34.289a3,3,0,0,0,.73,2.02,2.3,2.3,0,0,0,1.777.77,2.517,2.517,0,0,0,1.3-.312,3.259,3.259,0,0,0,.93-.828l.883.688A3.55,3.55,0,0,1,36.719.156Zm-.18-7.578a1.928,1.928,0,0,0-1.469.637A3.1,3.1,0,0,0,34.336-5H38.57v-.109a2.753,2.753,0,0,0-.594-1.707A1.815,1.815,0,0,0,36.539-7.422Zm9.234.266a4.331,4.331,0,0,0-.711-.055A1.9,1.9,0,0,0,43.133-6V0H41.688V-8.453h1.406l.023.977a2.251,2.251,0,0,1,2.016-1.133,1.477,1.477,0,0,1,.641.109ZM52.008,0a3.036,3.036,0,0,1-.2-.891A3.225,3.225,0,0,1,49.4.156a2.984,2.984,0,0,1-2.051-.707,2.287,2.287,0,0,1-.8-1.793,2.39,2.39,0,0,1,1-2.051,4.733,4.733,0,0,1,2.824-.73h1.406v-.664A1.623,1.623,0,0,0,51.328-7a1.821,1.821,0,0,0-1.336-.449,2.107,2.107,0,0,0-1.3.391,1.151,1.151,0,0,0-.523.945H46.719a2,2,0,0,1,.449-1.223,3.066,3.066,0,0,1,1.219-.934,4.1,4.1,0,0,1,1.691-.344,3.342,3.342,0,0,1,2.289.73,2.635,2.635,0,0,1,.859,2.012v3.891a4.757,4.757,0,0,0,.3,1.852V0Zm-2.4-1.1A2.54,2.54,0,0,0,50.9-1.453a2.127,2.127,0,0,0,.883-.914V-4.1H50.648q-2.656,0-2.656,1.555a1.316,1.316,0,0,0,.453,1.063A1.742,1.742,0,0,0,49.609-1.1Zm5.531-3.2a4.952,4.952,0,0,1,.922-3.129,2.915,2.915,0,0,1,2.414-1.184,2.932,2.932,0,0,1,2.352,1.016V-12h1.445V0H60.945l-.07-.906A2.943,2.943,0,0,1,58.461.156a2.887,2.887,0,0,1-2.395-1.2,5.008,5.008,0,0,1-.926-3.141Zm1.445.164a3.749,3.749,0,0,0,.594,2.25,1.92,1.92,0,0,0,1.641.813A2.108,2.108,0,0,0,60.828-2.3V-6.187a2.125,2.125,0,0,0-1.992-1.2,1.929,1.929,0,0,0-1.656.82A4.128,4.128,0,0,0,56.586-4.133ZM64.133-4.3a4.993,4.993,0,0,1,.488-2.234A3.643,3.643,0,0,1,65.98-8.07a3.7,3.7,0,0,1,1.988-.539,3.565,3.565,0,0,1,2.793,1.2,4.6,4.6,0,0,1,1.066,3.18v.1a5.036,5.036,0,0,1-.473,2.215A3.589,3.589,0,0,1,70-.391a3.743,3.743,0,0,1-2.02.547,3.556,3.556,0,0,1-2.785-1.2A4.575,4.575,0,0,1,64.133-4.2Zm1.453.172a3.616,3.616,0,0,0,.652,2.258,2.088,2.088,0,0,0,1.746.852,2.075,2.075,0,0,0,1.75-.863A3.955,3.955,0,0,0,70.383-4.3a3.61,3.61,0,0,0-.66-2.254,2.1,2.1,0,0,0-1.754-.863,2.075,2.075,0,0,0-1.727.852A3.925,3.925,0,0,0,65.586-4.133Z" transform="translate(-6762 -4677)" fill="#12263f"/>
    <path id="Path_614805" data-name="Path 614805" d="M7.75-5.258H2.82v4.031H8.547V0H1.32V-11.375H8.469v1.227H2.82v3.664H7.75ZM11.758,0H10.313V-12h1.445Zm5.82.156a3.693,3.693,0,0,1-2.8-1.129A4.19,4.19,0,0,1,13.7-3.992v-.266a5.073,5.073,0,0,1,.48-2.246,3.748,3.748,0,0,1,1.344-1.547A3.378,3.378,0,0,1,17.4-8.609a3.166,3.166,0,0,1,2.563,1.086,4.7,4.7,0,0,1,.914,3.109v.6H15.148a3,3,0,0,0,.73,2.02,2.3,2.3,0,0,0,1.777.77,2.517,2.517,0,0,0,1.3-.312,3.259,3.259,0,0,0,.93-.828l.883.688A3.55,3.55,0,0,1,17.578.156ZM17.4-7.422a1.928,1.928,0,0,0-1.469.637A3.1,3.1,0,0,0,15.2-5H19.43v-.109a2.753,2.753,0,0,0-.594-1.707A1.815,1.815,0,0,0,17.4-7.422Zm7.836,5.461,2.094-6.492H28.8L25.773,0h-1.1L21.609-8.453h1.477ZM35.3,0a3.036,3.036,0,0,1-.2-.891A3.225,3.225,0,0,1,32.688.156a2.984,2.984,0,0,1-2.051-.707,2.287,2.287,0,0,1-.8-1.793,2.39,2.39,0,0,1,1-2.051,4.733,4.733,0,0,1,2.824-.73H35.07v-.664A1.623,1.623,0,0,0,34.617-7a1.821,1.821,0,0,0-1.336-.449,2.107,2.107,0,0,0-1.3.391,1.151,1.151,0,0,0-.523.945H30.008a2,2,0,0,1,.449-1.223,3.066,3.066,0,0,1,1.219-.934,4.1,4.1,0,0,1,1.691-.344,3.342,3.342,0,0,1,2.289.73,2.635,2.635,0,0,1,.859,2.012v3.891a4.757,4.757,0,0,0,.3,1.852V0ZM32.9-1.1a2.54,2.54,0,0,0,1.289-.352,2.127,2.127,0,0,0,.883-.914V-4.1H33.938q-2.656,0-2.656,1.555a1.316,1.316,0,0,0,.453,1.063A1.742,1.742,0,0,0,32.9-1.1ZM38.43-4.3a4.952,4.952,0,0,1,.922-3.129,2.915,2.915,0,0,1,2.414-1.184,2.932,2.932,0,0,1,2.352,1.016V-12h1.445V0H44.234l-.07-.906A2.943,2.943,0,0,1,41.75.156a2.887,2.887,0,0,1-2.395-1.2,5.008,5.008,0,0,1-.926-3.141Zm1.445.164a3.749,3.749,0,0,0,.594,2.25,1.92,1.92,0,0,0,1.641.813A2.108,2.108,0,0,0,44.117-2.3V-6.187a2.125,2.125,0,0,0-1.992-1.2,1.929,1.929,0,0,0-1.656.82A4.128,4.128,0,0,0,39.875-4.133ZM47.422-4.3a4.993,4.993,0,0,1,.488-2.234A3.643,3.643,0,0,1,49.27-8.07a3.7,3.7,0,0,1,1.988-.539,3.565,3.565,0,0,1,2.793,1.2,4.6,4.6,0,0,1,1.066,3.18v.1a5.036,5.036,0,0,1-.473,2.215A3.589,3.589,0,0,1,53.293-.391a3.743,3.743,0,0,1-2.02.547,3.556,3.556,0,0,1-2.785-1.2A4.575,4.575,0,0,1,47.422-4.2Zm1.453.172a3.616,3.616,0,0,0,.652,2.258,2.088,2.088,0,0,0,1.746.852,2.075,2.075,0,0,0,1.75-.863A3.955,3.955,0,0,0,53.672-4.3a3.61,3.61,0,0,0-.66-2.254,2.1,2.1,0,0,0-1.754-.863,2.075,2.075,0,0,0-1.727.852A3.925,3.925,0,0,0,48.875-4.133Z" transform="translate(-6706 -4656)" fill="#12263f"/>
    <path id="Path_614806" data-name="Path 614806" d="M5.086-1.992l3.25-9.383H9.977L5.758,0H4.43L.219-11.375H1.852ZM12.844,0H11.4V-8.453h1.445ZM11.281-10.7a.863.863,0,0,1,.215-.594.807.807,0,0,1,.637-.242.819.819,0,0,1,.641.242.854.854,0,0,1,.219.594.826.826,0,0,1-.219.586.834.834,0,0,1-.641.234.821.821,0,0,1-.637-.234A.834.834,0,0,1,11.281-10.7Zm5.836.2v2.047H18.7v1.117H17.117v5.249a1.173,1.173,0,0,0,.211.763.888.888,0,0,0,.719.254,3.5,3.5,0,0,0,.688-.094V0a4.215,4.215,0,0,1-1.109.155A1.8,1.8,0,0,1,16.164-.43a2.517,2.517,0,0,1-.492-1.664V-7.336H14.133V-8.453h1.539V-10.5ZM25.6,0a3.036,3.036,0,0,1-.2-.891A3.225,3.225,0,0,1,22.992.156a2.984,2.984,0,0,1-2.051-.707,2.287,2.287,0,0,1-.8-1.793,2.39,2.39,0,0,1,1-2.051,4.733,4.733,0,0,1,2.824-.73h1.406v-.664A1.623,1.623,0,0,0,24.922-7a1.821,1.821,0,0,0-1.336-.449,2.108,2.108,0,0,0-1.3.391,1.151,1.151,0,0,0-.523.945H20.313a2,2,0,0,1,.449-1.223,3.066,3.066,0,0,1,1.219-.934,4.1,4.1,0,0,1,1.691-.344,3.342,3.342,0,0,1,2.289.73,2.635,2.635,0,0,1,.859,2.012v3.891a4.757,4.757,0,0,0,.3,1.852V0ZM23.2-1.1a2.54,2.54,0,0,0,1.289-.352,2.127,2.127,0,0,0,.883-.914V-4.1H24.242q-2.656,0-2.656,1.555a1.316,1.316,0,0,0,.453,1.063A1.742,1.742,0,0,0,23.2-1.1ZM30.656,0H29.211V-12h1.445Z" transform="translate(-6643 -4679)" fill="#12263f"/>
    <path id="Path_614807" data-name="Path 614807" d="M0,0H53V30H0Z" transform="translate(-6651 -4861)" fill="#0c5e46"/>
    <path id="Path_614808" data-name="Path 614808" d="M0,0H54V30H0Z" transform="translate(-6705 -4861)" fill="#0c5e46"/>
    <path id="Path_614809" data-name="Path 614809" d="M0,0H53V30H0Z" transform="translate(-6758 -4861)" fill="#0c5e46"/>
    <path id="Path_614810" data-name="Path 614810" d="M0,0H54V30H0Z" transform="translate(-6812 -4861)" fill="#0c5e46"/>
    <g id="Path_614811" data-name="Path 614811" transform="translate(-6866 -4861)" fill="#5fc6c3">
      <path d="M 53.90000152587891 29.89999961853027 L 0.1000000014901161 29.89999961853027 L 0.1000000014901161 0.1000000014901161 L 53.90000152587891 0.1000000014901161 L 53.90000152587891 29.89999961853027 Z" stroke="none"/>
      <path d="M 0.2000007629394531 0.2000007629394531 L 0.2000007629394531 29.79999923706055 L 53.79999923706055 29.79999923706055 L 53.79999923706055 0.2000007629394531 L 0.2000007629394531 0.2000007629394531 M 0 0 L 54 0 L 54 30 L 0 30 L 0 0 Z" stroke="none" fill="#fff"/>
    </g>
    <path id="Path_614812" data-name="Path 614812" d="M0,0H53V30H0Z" transform="translate(-6651 -4801)" fill="#0c5e46"/>
    <path id="Path_614813" data-name="Path 614813" d="M0,0H54V30H0Z" transform="translate(-6705 -4801)" fill="#0c5e46"/>
    <g id="Path_614814" data-name="Path 614814" transform="translate(-6758 -4801)" fill="#5fc6c3">
      <path d="M 52.90000152587891 29.89999961853027 L 0.1000000014901161 29.89999961853027 L 0.1000000014901161 0.1000000014901161 L 52.90000152587891 0.1000000014901161 L 52.90000152587891 29.89999961853027 Z" stroke="none"/>
      <path d="M 0.2000007629394531 0.2000007629394531 L 0.2000007629394531 29.79999923706055 L 52.79999923706055 29.79999923706055 L 52.79999923706055 0.2000007629394531 L 0.2000007629394531 0.2000007629394531 M 0 0 L 53 0 L 53 30 L 0 30 L 0 0 Z" stroke="none" fill="#fff"/>
    </g>
    <g id="Path_614815" data-name="Path 614815" transform="translate(-6812 -4801)" fill="#5fc6c3">
      <path d="M 53.90000152587891 29.89999961853027 L 0.1000000014901161 29.89999961853027 L 0.1000000014901161 0.1000000014901161 L 53.90000152587891 0.1000000014901161 L 53.90000152587891 29.89999961853027 Z" stroke="none"/>
      <path d="M 0.2000007629394531 0.2000007629394531 L 0.2000007629394531 29.79999923706055 L 53.79999923706055 29.79999923706055 L 53.79999923706055 0.2000007629394531 L 0.2000007629394531 0.2000007629394531 M 0 0 L 54 0 L 54 30 L 0 30 L 0 0 Z" stroke="none" fill="#fff"/>
    </g>
    <g id="Path_614816" data-name="Path 614816" transform="translate(-6866 -4801)" fill="#6dfeff">
      <path d="M 53.90000152587891 29.89999961853027 L 0.1000000014901161 29.89999961853027 L 0.1000000014901161 0.1000000014901161 L 53.90000152587891 0.1000000014901161 L 53.90000152587891 29.89999961853027 Z" stroke="none"/>
      <path d="M 0.2000007629394531 0.2000007629394531 L 0.2000007629394531 29.79999923706055 L 53.79999923706055 29.79999923706055 L 53.79999923706055 0.2000007629394531 L 0.2000007629394531 0.2000007629394531 M 0 0 L 54 0 L 54 30 L 0 30 L 0 0 Z" stroke="none" fill="#fff"/>
    </g>
    <path id="Path_614817" data-name="Path 614817" d="M0,0H53V30H0Z" transform="translate(-6651 -4831)" fill="#0c5e46"/>
    <path id="Path_614818" data-name="Path 614818" d="M0,0H54V30H0Z" transform="translate(-6705 -4831)" fill="#0c5e46"/>
    <path id="Path_614819" data-name="Path 614819" d="M0,0H53V30H0Z" transform="translate(-6758 -4831)" fill="#0c5e46"/>
    <g id="Path_614820" data-name="Path 614820" transform="translate(-6812 -4831)" fill="#5fc6c3">
      <path d="M 53.90000152587891 29.89999961853027 L 0.1000000014901161 29.89999961853027 L 0.1000000014901161 0.1000000014901161 L 53.90000152587891 0.1000000014901161 L 53.90000152587891 29.89999961853027 Z" stroke="none"/>
      <path d="M 0.2000007629394531 0.2000007629394531 L 0.2000007629394531 29.79999923706055 L 53.79999923706055 29.79999923706055 L 53.79999923706055 0.2000007629394531 L 0.2000007629394531 0.2000007629394531 M 0 0 L 54 0 L 54 30 L 0 30 L 0 0 Z" stroke="none" fill="#fff"/>
    </g>
    <g id="Path_614821" data-name="Path 614821" transform="translate(-6866 -4831)" fill="#5fc6c3">
      <path d="M 53.90000152587891 29.89999961853027 L 0.1000000014901161 29.89999961853027 L 0.1000000014901161 0.1000000014901161 L 53.90000152587891 0.1000000014901161 L 53.90000152587891 29.89999961853027 Z" stroke="none"/>
      <path d="M 0.2000007629394531 0.2000007629394531 L 0.2000007629394531 29.79999923706055 L 53.79999923706055 29.79999923706055 L 53.79999923706055 0.2000007629394531 L 0.2000007629394531 0.2000007629394531 M 0 0 L 54 0 L 54 30 L 0 30 L 0 0 Z" stroke="none" fill="#fff"/>
    </g>
    <path id="Path_614822" data-name="Path 614822" d="M0,0H53V31H0Z" transform="translate(-6651 -4771)" fill="#0c5e46"/>
    <g id="Path_614823" data-name="Path 614823" transform="translate(-6705 -4771)" fill="#5fc6c3">
      <path d="M 53.90000152587891 30.89999961853027 L 0.1000000014901161 30.89999961853027 L 0.1000000014901161 0.1000000014901161 L 53.90000152587891 0.1000000014901161 L 53.90000152587891 30.89999961853027 Z" stroke="none"/>
      <path d="M 0.2000007629394531 0.2000007629394531 L 0.2000007629394531 30.79999923706055 L 53.79999923706055 30.79999923706055 L 53.79999923706055 0.2000007629394531 L 0.2000007629394531 0.2000007629394531 M 0 0 L 54 0 L 54 31 L 0 31 L 0 0 Z" stroke="none" fill="#fff"/>
    </g>
    <g id="Path_614824" data-name="Path 614824" transform="translate(-6758 -4771)" fill="#5fc6c3">
      <path d="M 52.90000152587891 30.89999961853027 L 0.1000000014901161 30.89999961853027 L 0.1000000014901161 0.1000000014901161 L 52.90000152587891 0.1000000014901161 L 52.90000152587891 30.89999961853027 Z" stroke="none"/>
      <path d="M 0.2000007629394531 0.2000007629394531 L 0.2000007629394531 30.79999923706055 L 52.79999923706055 30.79999923706055 L 52.79999923706055 0.2000007629394531 L 0.2000007629394531 0.2000007629394531 M 0 0 L 53 0 L 53 31 L 0 31 L 0 0 Z" stroke="none" fill="#fff"/>
    </g>
    <g id="Path_614825" data-name="Path 614825" transform="translate(-6812 -4771)" fill="#6dfeff">
      <path d="M 53.90000152587891 30.89999961853027 L 0.1000000014901161 30.89999961853027 L 0.1000000014901161 0.1000000014901161 L 53.90000152587891 0.1000000014901161 L 53.90000152587891 30.89999961853027 Z" stroke="none"/>
      <path d="M 0.2000007629394531 0.2000007629394531 L 0.2000007629394531 30.79999923706055 L 53.79999923706055 30.79999923706055 L 53.79999923706055 0.2000007629394531 L 0.2000007629394531 0.2000007629394531 M 0 0 L 54 0 L 54 31 L 0 31 L 0 0 Z" stroke="none" fill="#fff"/>
    </g>
    <g id="Path_614826" data-name="Path 614826" transform="translate(-6866 -4771)" fill="#6dfeff">
      <path d="M 53.90000152587891 30.89999961853027 L 0.1000000014901161 30.89999961853027 L 0.1000000014901161 0.1000000014901161 L 53.90000152587891 0.1000000014901161 L 53.90000152587891 30.89999961853027 Z" stroke="none"/>
      <path d="M 0.2000007629394531 0.2000007629394531 L 0.2000007629394531 30.79999923706055 L 53.79999923706055 30.79999923706055 L 53.79999923706055 0.2000007629394531 L 0.2000007629394531 0.2000007629394531 M 0 0 L 54 0 L 54 31 L 0 31 L 0 0 Z" stroke="none" fill="#fff"/>
    </g>
    <g id="Path_614827" data-name="Path 614827" transform="translate(-6651 -4740)" fill="#5fc6c3">
      <path d="M 52.90000152587891 28.89999961853027 L 0.1000000014901161 28.89999961853027 L 0.1000000014901161 0.1000000014901161 L 52.90000152587891 0.1000000014901161 L 52.90000152587891 28.89999961853027 Z" stroke="none"/>
      <path d="M 0.2000007629394531 0.2000007629394531 L 0.2000007629394531 28.79999923706055 L 52.79999923706055 28.79999923706055 L 52.79999923706055 0.2000007629394531 L 0.2000007629394531 0.2000007629394531 M 0 0 L 53 0 L 53 29 L 0 29 L 0 0 Z" stroke="none" fill="#fff"/>
    </g>
    <g id="Path_614828" data-name="Path 614828" transform="translate(-6705 -4740)" fill="#5fc6c3">
      <path d="M 53.90000152587891 28.89999961853027 L 0.1000000014901161 28.89999961853027 L 0.1000000014901161 0.1000000014901161 L 53.90000152587891 0.1000000014901161 L 53.90000152587891 28.89999961853027 Z" stroke="none"/>
      <path d="M 0.2000007629394531 0.2000007629394531 L 0.2000007629394531 28.79999923706055 L 53.79999923706055 28.79999923706055 L 53.79999923706055 0.2000007629394531 L 0.2000007629394531 0.2000007629394531 M 0 0 L 54 0 L 54 29 L 0 29 L 0 0 Z" stroke="none" fill="#fff"/>
    </g>
    <g id="Path_614829" data-name="Path 614829" transform="translate(-6758 -4740)" fill="#6dfeff">
      <path d="M 52.90000152587891 28.89999961853027 L 0.1000000014901161 28.89999961853027 L 0.1000000014901161 0.1000000014901161 L 52.90000152587891 0.1000000014901161 L 52.90000152587891 28.89999961853027 Z" stroke="none"/>
      <path d="M 0.2000007629394531 0.2000007629394531 L 0.2000007629394531 28.79999923706055 L 52.79999923706055 28.79999923706055 L 52.79999923706055 0.2000007629394531 L 0.2000007629394531 0.2000007629394531 M 0 0 L 53 0 L 53 29 L 0 29 L 0 0 Z" stroke="none" fill="#fff"/>
    </g>
    <g id="Path_614830" data-name="Path 614830" transform="translate(-6812 -4740)" fill="#6dfeff">
      <path d="M 53.90000152587891 28.89999961853027 L 0.1000000014901161 28.89999961853027 L 0.1000000014901161 0.1000000014901161 L 53.90000152587891 0.1000000014901161 L 53.90000152587891 28.89999961853027 Z" stroke="none"/>
      <path d="M 0.2000007629394531 0.2000007629394531 L 0.2000007629394531 28.79999923706055 L 53.79999923706055 28.79999923706055 L 53.79999923706055 0.2000007629394531 L 0.2000007629394531 0.2000007629394531 M 0 0 L 54 0 L 54 29 L 0 29 L 0 0 Z" stroke="none" fill="#fff"/>
    </g>
    <g id="Path_614831" data-name="Path 614831" transform="translate(-6866 -4740)" fill="#6dfeff">
      <path d="M 53.90000152587891 28.89999961853027 L 0.1000000014901161 28.89999961853027 L 0.1000000014901161 0.1000000014901161 L 53.90000152587891 0.1000000014901161 L 53.90000152587891 28.89999961853027 Z" stroke="none"/>
      <path d="M 0.2000007629394531 0.2000007629394531 L 0.2000007629394531 28.79999923706055 L 53.79999923706055 28.79999923706055 L 53.79999923706055 0.2000007629394531 L 0.2000007629394531 0.2000007629394531 M 0 0 L 54 0 L 54 29 L 0 29 L 0 0 Z" stroke="none" fill="#fff"/>
    </g>
    <path id="Path_614741" data-name="Path 614741" d="M-8189.632-5151v154.8h272.606" transform="translate(1319.275 289.872)" fill="none" stroke="#03386e" stroke-width="3"/>
    <path id="Path_614832" data-name="Path 614832" d="M4.761-9.985h1.7a3.729,3.729,0,0,0,2.515-.842,2.814,2.814,0,0,0,.916-2.209q0-3.125-3.113-3.125a3.238,3.238,0,0,0-2.338.836,2.926,2.926,0,0,0-.873,2.216H1.306A4.534,4.534,0,0,1,2.85-16.62a5.625,5.625,0,0,1,3.925-1.4,5.559,5.559,0,0,1,3.943,1.331,4.807,4.807,0,0,1,1.428,3.7,3.9,3.9,0,0,1-.751,2.246A4.533,4.533,0,0,1,9.351-9.119a4.368,4.368,0,0,1,2.264,1.538,4.272,4.272,0,0,1,.8,2.625,4.848,4.848,0,0,1-1.562,3.8A5.851,5.851,0,0,1,6.787.244,6.006,6.006,0,0,1,2.716-1.111,4.5,4.5,0,0,1,1.147-4.687H3.418a2.9,2.9,0,0,0,.916,2.246A3.482,3.482,0,0,0,6.787-1.6a3.417,3.417,0,0,0,2.5-.854,3.293,3.293,0,0,0,.867-2.454A2.988,2.988,0,0,0,9.2-7.288a4.148,4.148,0,0,0-2.747-.854h-1.7Z" transform="translate(-6821 -4735)" fill="#12263f"/>
    <path id="Path_614833" data-name="Path 614833" d="M13.123,0H1.477V-1.624L7.629-8.459A14.616,14.616,0,0,0,9.515-10.98a4.207,4.207,0,0,0,.519-2.008,3.189,3.189,0,0,0-.842-2.283,2.945,2.945,0,0,0-2.246-.891,3.488,3.488,0,0,0-2.618.958,3.66,3.66,0,0,0-.934,2.667H1.135A5.242,5.242,0,0,1,2.716-16.5a5.86,5.86,0,0,1,4.23-1.514,5.631,5.631,0,0,1,3.918,1.3,4.435,4.435,0,0,1,1.44,3.461q0,2.625-3.345,6.25L4.2-1.843h8.923Z" transform="translate(-6736 -4751)" fill="#12263f"/>
    <path id="Path_614834" data-name="Path 614834" d="M8.9,0H6.628V-15.051L2.075-13.379V-15.43l6.47-2.429H8.9Z" transform="translate(-6661 -4816)" fill="#fff"/>
    <path id="Path_614835" data-name="Path 614835" d="M3.242,0H1.273V-11.375H3.242ZM7.273-8.453l.055.883A3.042,3.042,0,0,1,9.766-8.609a2.337,2.337,0,0,1,2.32,1.3,3,3,0,0,1,2.594-1.3,2.636,2.636,0,0,1,2.082.773,3.405,3.405,0,0,1,.7,2.281V0h-1.9V-5.5a1.681,1.681,0,0,0-.352-1.18,1.539,1.539,0,0,0-1.164-.375,1.581,1.581,0,0,0-1.059.348,1.833,1.833,0,0,0-.574.91L12.422,0h-1.9V-5.562A1.354,1.354,0,0,0,9-7.055a1.671,1.671,0,0,0-1.617.93V0h-1.9V-8.453ZM26.813-4.141a5.033,5.033,0,0,1-.891,3.129A2.852,2.852,0,0,1,23.531.156,2.871,2.871,0,0,1,21.3-.758V3.25h-1.9v-11.7h1.75l.078.859a2.788,2.788,0,0,1,2.273-1.016,2.881,2.881,0,0,1,2.426,1.152,5.167,5.167,0,0,1,.879,3.2ZM24.922-4.3a3.526,3.526,0,0,0-.5-2.008,1.638,1.638,0,0,0-1.441-.742,1.747,1.747,0,0,0-1.672.961v3.75a1.763,1.763,0,0,0,1.688.984,1.636,1.636,0,0,0,1.418-.73A3.881,3.881,0,0,0,24.922-4.3ZM33.469,0a2.93,2.93,0,0,1-.219-.789,2.955,2.955,0,0,1-2.219.945A2.982,2.982,0,0,1,28.953-.57a2.325,2.325,0,0,1-.8-1.8,2.4,2.4,0,0,1,1-2.074,4.865,4.865,0,0,1,2.871-.723h1.164v-.555A1.481,1.481,0,0,0,32.82-6.77,1.456,1.456,0,0,0,31.7-7.164a1.672,1.672,0,0,0-1.062.324,1,1,0,0,0-.414.824h-1.9a2.107,2.107,0,0,1,.461-1.3,3.071,3.071,0,0,1,1.254-.949,4.4,4.4,0,0,1,1.77-.344,3.547,3.547,0,0,1,2.367.746,2.661,2.661,0,0,1,.906,2.1v3.813a4.321,4.321,0,0,0,.32,1.82V0ZM31.383-1.367a2.16,2.16,0,0,0,1.059-.273,1.827,1.827,0,0,0,.746-.734V-3.969H32.164a2.8,2.8,0,0,0-1.586.367,1.189,1.189,0,0,0-.531,1.039,1.109,1.109,0,0,0,.363.871A1.407,1.407,0,0,0,31.383-1.367Zm9.164.008a1.716,1.716,0,0,0,1.18-.414,1.415,1.415,0,0,0,.5-1.023h1.789a2.789,2.789,0,0,1-.492,1.473,3.228,3.228,0,0,1-1.25,1.082,3.725,3.725,0,0,1-1.7.4A3.6,3.6,0,0,1,37.758-.992a4.555,4.555,0,0,1-1.039-3.172v-.2a4.479,4.479,0,0,1,1.031-3.09,3.571,3.571,0,0,1,2.813-1.16,3.473,3.473,0,0,1,2.457.879,3.148,3.148,0,0,1,1,2.309H42.227a1.738,1.738,0,0,0-.5-1.2,1.6,1.6,0,0,0-1.184-.469,1.671,1.671,0,0,0-1.422.668,3.408,3.408,0,0,0-.508,2.027v.3a3.465,3.465,0,0,0,.5,2.051A1.669,1.669,0,0,0,40.547-1.359Zm7.281-9.148v2.055H49.32v1.406H47.828v4.719a1.039,1.039,0,0,0,.191.7.888.888,0,0,0,.684.215,2.924,2.924,0,0,0,.664-.078V-.023a4.676,4.676,0,0,1-1.25.18q-2.187,0-2.187-2.414V-7.047H44.539V-8.453H45.93v-2.055ZM50.18-4.3a4.984,4.984,0,0,1,.492-2.238,3.6,3.6,0,0,1,1.383-1.531A3.9,3.9,0,0,1,54.1-8.609a3.692,3.692,0,0,1,2.777,1.1,4.333,4.333,0,0,1,1.152,2.922l.008.445a5.029,5.029,0,0,1-.48,2.234A3.551,3.551,0,0,1,56.184-.383a3.925,3.925,0,0,1-2.066.539,3.667,3.667,0,0,1-2.863-1.191A4.563,4.563,0,0,1,50.18-4.211Zm1.9.164A3.406,3.406,0,0,0,52.617-2.1a1.752,1.752,0,0,0,1.5.738,1.733,1.733,0,0,0,1.5-.75,3.762,3.762,0,0,0,.535-2.2A3.362,3.362,0,0,0,55.6-6.336a1.759,1.759,0,0,0-1.5-.75,1.743,1.743,0,0,0-1.477.738A3.691,3.691,0,0,0,52.078-4.141Z" transform="translate(-6769 -4594)" fill="#fff"/>
    <path id="Path_614836" data-name="Path 614836" d="M4,0,8,8H0Z" transform="translate(-6875 -4866)" fill="#03386e"/>
    <path id="Path_614837" data-name="Path 614837" d="M4,0,8,8H0Z" transform="translate(-6592 -4710) rotate(90)" fill="#03386e"/>
    <path id="Path_614742" data-name="Path 614742" d="M-6931.25-4864h-11.382v159.458h11.382" transform="translate(-27.059)" fill="none" stroke="#0c5e46" stroke-width="2" stroke-dasharray="2"/>
    <path id="Path_614745" data-name="Path 614745" d="M-6931.25-4864h-11.382v268.159h11.382" transform="translate(-2007 -11577.25) rotate(-90)" fill="none" stroke="#0c5e46" stroke-width="2" stroke-dasharray="2"/>
    <path id="Path_614743" data-name="Path 614743" d="M-6928.691-4781.227h-9.751V-4879.7" transform="translate(-41)" fill="none" stroke="#0c5e46" stroke-width="2" stroke-dasharray="2"/>
    <path id="Path_614744" data-name="Path 614744" d="M-6919.825-4781.227h-18.618" transform="translate(-1957.273 -11554.443) rotate(-90)" fill="none" stroke="#0c5e46" stroke-width="2" stroke-dasharray="2"/>
    <path id="Path_614746" data-name="Path 614746" d="M-6928.691-4781.227h-9.751" transform="translate(-1950.273 -11634.691) rotate(-90)" fill="none" stroke="#03386e" stroke-width="2"/>
    <path id="Path_614749" data-name="Path 614749" d="M34.869,0H0" transform="translate(-6678 -4671.131) rotate(-90)" fill="none" stroke="#03386e" stroke-width="2"/>
    <path id="Path_614750" data-name="Path 614750" d="M-6928.691-4781.227h-9.751" transform="translate(-1843.273 -11634.691) rotate(-90)" fill="none" stroke="#03386e" stroke-width="2"/>
    <path id="Path_614747" data-name="Path 614747" d="M34.869,0H0" transform="translate(-6785 -4671.131) rotate(-90)" fill="none" stroke="#03386e" stroke-width="2"/>
    <path id="Path_614748" data-name="Path 614748" d="M-6928.691-4781.227h-9.751" transform="translate(-2057.273 -11634.691) rotate(-90)" fill="none" stroke="#03386e" stroke-width="2"/>
    <path id="Path_614838" data-name="Path 614838" d="M0,0H100V32H0Z" transform="translate(-6989 -4911)" fill="#03386e"/>
    <path id="Path_614839" data-name="Path 614839" d="M3.133-4.219V0H1.156V-11.375H5.508a4.4,4.4,0,0,1,3.027.993A3.34,3.34,0,0,1,9.656-7.754a3.229,3.229,0,0,1-1.1,2.6,4.613,4.613,0,0,1-3.074.931Zm0-1.594H5.508a2.339,2.339,0,0,0,1.609-.5,1.823,1.823,0,0,0,.555-1.434,1.967,1.967,0,0,0-.562-1.473,2.168,2.168,0,0,0-1.547-.566H3.133Zm12.492-.906a4.7,4.7,0,0,0-.773-.062,1.741,1.741,0,0,0-1.758,1V0H11.2V-8.453h1.813l.047.945a2.139,2.139,0,0,1,1.906-1.1,1.777,1.777,0,0,1,.672.109ZM16.188-4.3a4.984,4.984,0,0,1,.492-2.238,3.6,3.6,0,0,1,1.383-1.531,3.9,3.9,0,0,1,2.047-.535,3.692,3.692,0,0,1,2.777,1.1,4.333,4.333,0,0,1,1.152,2.922l.008.445a5.029,5.029,0,0,1-.48,2.234A3.551,3.551,0,0,1,22.191-.383a3.925,3.925,0,0,1-2.066.539,3.667,3.667,0,0,1-2.863-1.191,4.563,4.563,0,0,1-1.074-3.176Zm1.9.164A3.406,3.406,0,0,0,18.625-2.1a1.752,1.752,0,0,0,1.5.738,1.733,1.733,0,0,0,1.5-.75,3.762,3.762,0,0,0,.535-2.2,3.362,3.362,0,0,0-.551-2.031,1.759,1.759,0,0,0-1.5-.75,1.743,1.743,0,0,0-1.477.738A3.691,3.691,0,0,0,18.086-4.141Zm14.984,0a5.078,5.078,0,0,1-.879,3.133A2.863,2.863,0,0,1,29.773.156a2.758,2.758,0,0,1-2.312-1.07L27.367,0H25.648V-12h1.9v4.359a2.748,2.748,0,0,1,2.211-.969,2.9,2.9,0,0,1,2.43,1.148A5.162,5.162,0,0,1,33.07-4.25Zm-1.9-.164a3.589,3.589,0,0,0-.484-2.062,1.613,1.613,0,0,0-1.406-.687,1.763,1.763,0,0,0-1.734,1.078v3.484a1.781,1.781,0,0,0,1.75,1.1,1.6,1.6,0,0,0,1.375-.664,3.477,3.477,0,0,0,.5-2.008ZM39.711,0a2.93,2.93,0,0,1-.219-.789,2.955,2.955,0,0,1-2.219.945A2.982,2.982,0,0,1,35.2-.57a2.325,2.325,0,0,1-.8-1.8,2.4,2.4,0,0,1,1-2.074,4.865,4.865,0,0,1,2.871-.723H39.43v-.555a1.481,1.481,0,0,0-.367-1.051,1.456,1.456,0,0,0-1.117-.395,1.672,1.672,0,0,0-1.062.324,1,1,0,0,0-.414.824h-1.9a2.107,2.107,0,0,1,.461-1.3,3.071,3.071,0,0,1,1.254-.949,4.4,4.4,0,0,1,1.77-.344,3.547,3.547,0,0,1,2.367.746,2.661,2.661,0,0,1,.906,2.1v3.813a4.321,4.321,0,0,0,.32,1.82V0ZM37.625-1.367a2.16,2.16,0,0,0,1.059-.273,1.827,1.827,0,0,0,.746-.734V-3.969H38.406A2.8,2.8,0,0,0,36.82-3.6a1.189,1.189,0,0,0-.531,1.039,1.109,1.109,0,0,0,.363.871A1.407,1.407,0,0,0,37.625-1.367ZM50.734-4.141a5.078,5.078,0,0,1-.879,3.133A2.863,2.863,0,0,1,47.438.156a2.758,2.758,0,0,1-2.312-1.07L45.031,0H43.313V-12h1.9v4.359a2.748,2.748,0,0,1,2.211-.969,2.9,2.9,0,0,1,2.43,1.148,5.162,5.162,0,0,1,.883,3.211Zm-1.9-.164a3.589,3.589,0,0,0-.484-2.062,1.613,1.613,0,0,0-1.406-.687,1.763,1.763,0,0,0-1.734,1.078v3.484a1.781,1.781,0,0,0,1.75,1.1,1.6,1.6,0,0,0,1.375-.664,3.477,3.477,0,0,0,.5-2.008ZM54.344,0h-1.9V-8.453h1.9ZM52.328-10.648a1.008,1.008,0,0,1,.277-.727,1.048,1.048,0,0,1,.793-.289,1.061,1.061,0,0,1,.8.289,1,1,0,0,1,.281.727.977.977,0,0,1-.281.715,1.069,1.069,0,0,1-.8.285,1.056,1.056,0,0,1-.793-.285A.984.984,0,0,1,52.328-10.648ZM58.43,0h-1.9V-12h1.9Zm4.086,0h-1.9V-8.453h1.9ZM60.5-10.648a1.008,1.008,0,0,1,.277-.727,1.048,1.048,0,0,1,.793-.289,1.061,1.061,0,0,1,.8.289,1,1,0,0,1,.281.727.977.977,0,0,1-.281.715,1.069,1.069,0,0,1-.8.285,1.056,1.056,0,0,1-.793-.285A.984.984,0,0,1,60.5-10.648Zm3.727,6.359a5.026,5.026,0,0,1,.906-3.137,2.9,2.9,0,0,1,2.43-1.184,2.759,2.759,0,0,1,2.172.938V-12h1.9V0H69.914L69.82-.875A2.8,2.8,0,0,1,67.547.156a2.887,2.887,0,0,1-2.4-1.2A5.21,5.21,0,0,1,64.227-4.289Zm1.9.164a3.519,3.519,0,0,0,.5,2.012,1.61,1.61,0,0,0,1.41.723,1.793,1.793,0,0,0,1.7-1.039V-6.039a1.766,1.766,0,0,0-1.687-1.016,1.622,1.622,0,0,0-1.422.73A3.918,3.918,0,0,0,66.125-4.125ZM78.664,0a2.93,2.93,0,0,1-.219-.789,2.955,2.955,0,0,1-2.219.945A2.982,2.982,0,0,1,74.148-.57a2.325,2.325,0,0,1-.8-1.8,2.4,2.4,0,0,1,1-2.074,4.865,4.865,0,0,1,2.871-.723h1.164v-.555a1.481,1.481,0,0,0-.367-1.051A1.456,1.456,0,0,0,76.9-7.164a1.672,1.672,0,0,0-1.062.324,1,1,0,0,0-.414.824h-1.9a2.107,2.107,0,0,1,.461-1.3,3.071,3.071,0,0,1,1.254-.949,4.4,4.4,0,0,1,1.77-.344,3.547,3.547,0,0,1,2.367.746,2.661,2.661,0,0,1,.906,2.1v3.813a4.321,4.321,0,0,0,.32,1.82V0ZM76.578-1.367a2.159,2.159,0,0,0,1.059-.273,1.827,1.827,0,0,0,.746-.734V-3.969H77.359a2.8,2.8,0,0,0-1.586.367,1.189,1.189,0,0,0-.531,1.039,1.109,1.109,0,0,0,.363.871A1.407,1.407,0,0,0,76.578-1.367Zm5.336-2.922a5.026,5.026,0,0,1,.906-3.137,2.9,2.9,0,0,1,2.43-1.184,2.759,2.759,0,0,1,2.172.938V-12h1.9V0H87.6l-.094-.875A2.8,2.8,0,0,1,85.234.156a2.887,2.887,0,0,1-2.4-1.2A5.21,5.21,0,0,1,81.914-4.289Zm1.9.164a3.519,3.519,0,0,0,.5,2.012,1.61,1.61,0,0,0,1.41.723,1.793,1.793,0,0,0,1.7-1.039V-6.039a1.766,1.766,0,0,0-1.687-1.016,1.622,1.622,0,0,0-1.422.73A3.918,3.918,0,0,0,83.813-4.125Z" transform="translate(-6985 -4889)" fill="#fff"/>
  </g>
</svg>
