<svg xmlns="http://www.w3.org/2000/svg" xmlns:xlink="http://www.w3.org/1999/xlink" width="70" height="70" viewBox="0 0 70 70">
  <defs>
    <clipPath id="clip-path">
      <rect id="Rectángulo_379702" data-name="Rectángulo 379702" width="42" height="42" transform="translate(0 0)" fill="none"/>
    </clipPath>
  </defs>
  <g id="Grupo_1075332" data-name="Grupo 1075332" transform="translate(-920 -4529.26)">
    <g id="Grupo_1073525" data-name="Grupo 1073525" transform="translate(651 3571.26)">
      <circle id="Elipse_5614" data-name="Elipse 5614" cx="35" cy="35" r="35" transform="translate(269 958)" fill="#0c5e46"/>
    </g>
    <g id="Grupo_1075123" data-name="Grupo 1075123" transform="translate(-88 -86)">
      <g id="Grupo_1075122" data-name="Grupo 1075122" transform="translate(1022 4627)">
        <g id="Grupo_1075121" data-name="Grupo 1075121" transform="translate(0 0)" clip-path="url(#clip-path)">
          <path id="Trazado_614442" data-name="Trazado 614442" d="M36.249,21.97a26.161,26.161,0,0,0-5.631-2.284,7.442,7.442,0,0,0,1.819-4.878C32.438,7.058,27.061,0,21.156,0S9.873,7.058,9.873,14.809a7.445,7.445,0,0,0,1.819,4.878,26.156,26.156,0,0,0-5.633,2.286A8.634,8.634,0,0,0,2.367,26.16,31.191,31.191,0,0,0,0,38.081,2.824,2.824,0,0,0,2.821,40.9H9.9a2.73,2.73,0,0,0,2.372,1.41H30.037A2.73,2.73,0,0,0,32.41,40.9h7.08a2.824,2.824,0,0,0,2.821-2.821,31.189,31.189,0,0,0-2.369-11.924,8.64,8.64,0,0,0-3.692-4.186ZM21.156,1.41c5.075,0,9.873,6.511,9.873,13.4,0,3.631-3.2,5.864-5.984,7.121A13.409,13.409,0,0,0,28.463,16.3l.008-.018h0a12.323,12.323,0,0,0,.379-1.63,5.652,5.652,0,0,0-2.629-5.7,9.831,9.831,0,0,0-5.064-1.2,9.829,9.829,0,0,0-5.063,1.2,5.651,5.651,0,0,0-2.63,5.7,12.213,12.213,0,0,0,.379,1.63h0c0,.006.006.012.008.018a13.407,13.407,0,0,0,3.419,5.626c-2.783-1.257-5.984-3.49-5.984-7.121,0-6.888,4.8-13.4,9.873-13.4m0,17.63c-3.694,0-5.294-1.745-5.988-3.246a10.673,10.673,0,0,1-.308-1.343,2.8,2.8,0,0,0,1.36.358h1.41a2.817,2.817,0,0,0,2.807-2.686,2,2,0,0,1,1.437,0,2.817,2.817,0,0,0,2.807,2.688h1.41a2.8,2.8,0,0,0,1.36-.358,10.674,10.674,0,0,1-.308,1.343c-.694,1.5-2.294,3.246-5.988,3.246M26.092,13.4h-1.41a1.412,1.412,0,0,1-1.41-1.41v-.705a.706.706,0,0,1,.705-.705h2.082a4.183,4.183,0,0,1,1.281,2.03,1.4,1.4,0,0,1-1.247.791m-4.131-2.726a3.4,3.4,0,0,0-.805-.1,3.364,3.364,0,0,0-.805.1,2.117,2.117,0,0,0-1.169-1.327,10.923,10.923,0,0,1,3.948,0,2.115,2.115,0,0,0-1.168,1.326Zm-5.708-.1h2.082a.706.706,0,0,1,.705.705v.705a1.412,1.412,0,0,1-1.41,1.41h-1.41a1.4,1.4,0,0,1-1.247-.791,4.175,4.175,0,0,1,1.281-2.03m4.9,9.873a9.3,9.3,0,0,0,4-.807,14.636,14.636,0,0,1-4,3.527,14.636,14.636,0,0,1-4-3.527,9.3,9.3,0,0,0,4,.807M1.824,39.076a1.4,1.4,0,0,1-.414-1A29.759,29.759,0,0,1,3.668,26.705a7.217,7.217,0,0,1,3.077-3.5,24.938,24.938,0,0,1,6.084-2.358,15.786,15.786,0,0,0,3.934,2.425H11.185a2.723,2.723,0,0,0-2.714,2.941L9.533,39.49H2.821a1.4,1.4,0,0,1-1-.414m29.522.616A1.32,1.32,0,0,1,30.038,40.9H12.274a1.319,1.319,0,0,1-1.308-1.209L9.878,26.1a1.312,1.312,0,0,1,1.307-1.417H31.126A1.312,1.312,0,0,1,32.434,26.1Zm9.141-.616a1.4,1.4,0,0,1-1,.414H32.778L33.84,26.212a2.723,2.723,0,0,0-2.714-2.941H25.547a15.766,15.766,0,0,0,3.934-2.425A24.941,24.941,0,0,1,35.564,23.2a7.213,7.213,0,0,1,3.077,3.5A29.757,29.757,0,0,1,40.9,38.08a1.4,1.4,0,0,1-.414,1Z" transform="translate(0 0)" fill="#fff"/>
        </g>
      </g>
    </g>
  </g>
</svg>
