<svg xmlns="http://www.w3.org/2000/svg" width="70" height="70" viewBox="0 0 70 70">
  <g id="Grupo_1075330" data-name="Grupo 1075330" transform="translate(-300 -4529.26)">
    <g id="Grupo_1073523" data-name="Grupo 1073523" transform="translate(31 3571.26)">
      <circle id="Elipse_5614" data-name="Elipse 5614" cx="35" cy="35" r="35" transform="translate(269 958)" fill="#0c5e46"/>
    </g>
    <g id="Grupo_1075118" data-name="Grupo 1075118" transform="translate(23423.094 3717.344)">
      <g id="Grupo_1075111" data-name="Grupo 1075111" transform="translate(-23099.51 835.453)">
        <g id="Grupo_1075111-2" data-name="Grupo 1075111">
          <path id="Trazado_614434" data-name="Trazado 614434" d="M102.144,171.667a.843.843,0,1,0,0,1.192A.844.844,0,0,0,102.144,171.667Z" transform="translate(-100.705 -171.42)" fill="#fff"/>
        </g>
      </g>
      <g id="Grupo_1075112" data-name="Grupo 1075112" transform="translate(-23108 854.048)">
        <g id="Grupo_1075113" data-name="Grupo 1075113">
          <path id="Trazado_614435" data-name="Trazado 614435" d="M21.346,396.685a2.951,2.951,0,0,0-2.378-4.7H4.637a2.949,2.949,0,0,0-2.376,4.7A4.219,4.219,0,0,0,0,400.417v.843a.843.843,0,0,0,.843.843H22.762a.843.843,0,0,0,.843-.843v-.843A4.218,4.218,0,0,0,21.346,396.685Zm-17.6-2.642a1.256,1.256,0,0,1,.894-.37H18.968a1.265,1.265,0,1,1,0,2.529H4.637a1.265,1.265,0,0,1-.894-2.159Zm-2.056,6.374a2.532,2.532,0,0,1,2.529-2.529H19.39a2.532,2.532,0,0,1,2.529,2.529Z" transform="translate(0 -391.987)" fill="#fff"/>
        </g>
      </g>
      <g id="Grupo_1075113-2" data-name="Grupo 1075113" transform="translate(-23107.998 821.001)">
        <g id="Grupo_1075115" data-name="Grupo 1075115" transform="translate(0 0)">
          <path id="Trazado_614436" data-name="Trazado 614436" d="M42.4,35.42a5.309,5.309,0,0,0-1.015-1.166l-3.939-3.436a.849.849,0,0,0-.107-.131.841.841,0,0,0-.228-.162l-2.382-2.078L23.7,18.829a2.524,2.524,0,0,0-.74-4.027l1.02-1.02a3.374,3.374,0,0,0,3.255-.871,3.372,3.372,0,0,0,0-4.769L20.082.989a3.371,3.371,0,0,0-5.64,3.255L4.264,14.422a3.393,3.393,0,0,0-.873-.114,3.372,3.372,0,0,0-2.384,5.756L8.16,27.217A3.371,3.371,0,0,0,13.8,23.962l1.018-1.018a2.53,2.53,0,0,0,4.028.739L30.591,37.176a.847.847,0,0,0,.114.143c.015.015.031.029.047.042l3.5,4.021c.087.1.18.2.277.3a5.014,5.014,0,0,0,3.564,1.482,5.176,5.176,0,0,0,.71-.049,5.1,5.1,0,0,0,3.764-2.606A4.988,4.988,0,0,0,42.4,35.42ZM16.506,2.181a1.686,1.686,0,0,1,2.385,0l7.153,7.153a1.686,1.686,0,0,1-2.384,2.385L16.506,4.566h0A1.687,1.687,0,0,1,16.506,2.181ZM11.737,26.025a1.688,1.688,0,0,1-2.385,0L2.2,18.872a1.686,1.686,0,0,1,2.383-2.385l7.154,7.154A1.687,1.687,0,0,1,11.737,26.025Zm3.549-5.933-2.357,2.357L5.776,15.3l9.538-9.538,7.154,7.154-2.362,2.362-.023.022-4.766,4.767ZM18.3,21.85l0,0-.594.594a.843.843,0,0,1-1.2-1.182l4.789-4.789a.843.843,0,0,1,1.43.606.835.835,0,0,1-.247.6l-.59.59-.012.012Zm1.746.639,2.464-2.464,10.432,9.1-3.807,3.807Zm10.2,11.717,3.971-3.971,1.274,1.111-4.135,4.135Zm10.853,5.48a3.429,3.429,0,0,1-2.524,1.759,3.35,3.35,0,0,1-2.85-.955c-.065-.065-.127-.132-.185-.2l-.008-.01-3.067-3.524,4.3-4.3,3.52,3.07.008.007a3.629,3.629,0,0,1,.7.8A3.329,3.329,0,0,1,41.094,39.687Z" transform="translate(-0.021 -0.001)" fill="#fff"/>
        </g>
      </g>
      <g id="Grupo_1075114" data-name="Grupo 1075114" transform="translate(-23097.125 829.491)">
        <g id="Grupo_1075117" data-name="Grupo 1075117">
          <path id="Trazado_614437" data-name="Trazado 614437" d="M134,100.954a.843.843,0,0,0-1.192,0l-3.577,3.577a.843.843,0,0,0,1.192,1.192L134,102.146A.843.843,0,0,0,134,100.954Z" transform="translate(-128.985 -100.707)" fill="#fff"/>
        </g>
      </g>
    </g>
  </g>
</svg>
