<svg xmlns="http://www.w3.org/2000/svg" xmlns:xlink="http://www.w3.org/1999/xlink" width="70" height="70" viewBox="0 0 70 70">
  <defs>
    <clipPath id="clip-path">
      <rect id="Rectángulo_379701" data-name="Rectángulo 379701" width="41.858" height="41.883" fill="none"/>
    </clipPath>
  </defs>
  <g id="Grupo_1075331" data-name="Grupo 1075331" transform="translate(-610 -4529.26)">
    <g id="Grupo_1073524" data-name="Grupo 1073524" transform="translate(341 3571.26)">
      <path id="Trazado_609168" data-name="Trazado 609168" d="M35,0A35,35,0,1,1,0,35,35,35,0,0,1,35,0Z" transform="translate(269 958)" fill="#03386e"/>
    </g>
    <g id="Grupo_1075119" data-name="Grupo 1075119" transform="translate(113.143 141.318)">
      <g id="Grupo_1075120" data-name="Grupo 1075120" transform="translate(511 4402)">
        <g id="Grupo_1075119-2" data-name="Grupo 1075119" clip-path="url(#clip-path)">
          <path id="Trazado_614438" data-name="Trazado 614438" d="M34.312,129.332l-.54.405a3.383,3.383,0,0,1-2.047.652l-.068-.284,2.777-2.777a2.666,2.666,0,0,0,1.364.383,2.7,2.7,0,0,0,2.7-2.7,2.666,2.666,0,0,0-.383-1.364l2.211-2.211a.675.675,0,0,0,0-.955l-2.7-2.7a.675.675,0,0,0-.955,0l-1.828,1.828H32.421a.675.675,0,0,0-.478.2L29.751,122l-.846-3.6,1.855.828a.675.675,0,0,0,.892-.341.662.662,0,0,0,.027-.069l1.2-3.752a.675.675,0,0,0-.372-.824L27.4,112.005l-1.745-7.414a.675.675,0,0,0-.812-.5l-.015,0L19.6,105.455a.675.675,0,0,0-.488.811l.555,2.358-5.723-2.5a.675.675,0,0,0-.79.186l-13,15.544a.675.675,0,0,0,.034.9l2.746,2.824a.675.675,0,0,0,.484.2h.028a.675.675,0,0,0,.494-.246l1.292-1.569,1.112,4.728a4.863,4.863,0,0,0-4.458.634L.27,130.547l.811,1.081L2.7,130.412a3.467,3.467,0,0,1,4.053,0l.54.405a4.857,4.857,0,0,0,5.674,0l.54-.405a3.467,3.467,0,0,1,4.053,0l.54.405a4.857,4.857,0,0,0,5.674,0l.54-.405a3.467,3.467,0,0,1,4.053,0l.54.405a4.728,4.728,0,0,0,5.674,0l.54-.405a3.47,3.47,0,0,1,4.053,0l1.621,1.216.811-1.081-1.621-1.216A4.857,4.857,0,0,0,34.312,129.332ZM35.8,126.36a1.351,1.351,0,1,1,1.351-1.351A1.351,1.351,0,0,1,35.8,126.36m-3.1-5.4h2.422a.675.675,0,0,0,.478-.2l1.549-1.549,1.747,1.747-1.734,1.734a2.666,2.666,0,0,0-1.364-.383,2.7,2.7,0,0,0-2.7,2.7,2.666,2.666,0,0,0,.383,1.364l-2.185,2.185-1.18-5.015ZM20.578,106.6l3.921-1.022,1.354,5.755-4.64-2.031Zm-17.2,17.5-1.793-1.847,12.28-14.691,17.543,7.676-.784,2.453L15.03,110.721a.675.675,0,0,0-.8.187Zm11.249,4.415L13.591,124.1a4.029,4.029,0,0,1,2.374-4.654l2.312,9.828a4.832,4.832,0,0,0-3.649-.765Zm5.264,1.722-2.609-11.1a4.053,4.053,0,0,1,4.2,3.107l1.673,7.354-.19.143a3.472,3.472,0,0,1-3.073.494Zm9.289-.9a4.869,4.869,0,0,0-4.81-.49l-1.57-6.906a5.4,5.4,0,1,0-10.52,2.475l1.062,4.525a4.343,4.343,0,0,0-.642.4l-.541.4a3.467,3.467,0,0,1-4.053,0l-.152-.113-1.639-6.969,8.634-10.49L27.354,117.7l2.9,12.35a3.143,3.143,0,0,1-.539-.315Z" transform="translate(0 -95.283)" fill="#fff"/>
          <path id="Trazado_614439" data-name="Trazado 614439" d="M37.247,457.348l-.54.405a3.467,3.467,0,0,1-4.053,0l-.54-.405a4.857,4.857,0,0,0-5.674,0l-.54.405a3.467,3.467,0,0,1-4.053,0l-.54-.405a4.857,4.857,0,0,0-5.674,0l-.54.405a3.467,3.467,0,0,1-4.053,0l-.54-.405a4.854,4.854,0,0,0-5.674,0L3.2,458.564l.811,1.081,1.621-1.216a3.467,3.467,0,0,1,4.053,0l.54.405a4.857,4.857,0,0,0,5.674,0l.54-.405a3.467,3.467,0,0,1,4.053,0l.54.405a4.857,4.857,0,0,0,5.674,0l.54-.405a3.467,3.467,0,0,1,4.053,0l.54.405a4.728,4.728,0,0,0,5.674,0l.54-.405a3.47,3.47,0,0,1,4.053,0l1.621,1.216.811-1.081-1.621-1.216A4.857,4.857,0,0,0,37.247,457.348Z" transform="translate(-2.934 -417.897)" fill="#fff"/>
          <path id="Trazado_614440" data-name="Trazado 614440" d="M332.8,4.35a4.728,4.728,0,0,0-9.393-.284h-.048a3.377,3.377,0,1,0,1.418,6.441,4,4,0,0,0,5.268,0,3.372,3.372,0,0,0,2.806-6.134L332.8,4.35Zm-1.335,5.119a2.02,2.02,0,0,1-1.148-.358.675.675,0,0,0-.89.109,2.662,2.662,0,0,1-4.032,0,.675.675,0,0,0-.887-.109,2.038,2.038,0,1,1-.637-3.62.675.675,0,0,0,.846-.667l-.006-.083a3.377,3.377,0,1,1,6.754.005l0,.075a.675.675,0,0,0,.507.668,2.021,2.021,0,0,1-.5,3.98Z" transform="translate(-292.961 -0.007)" fill="#fff"/>
          <rect id="Rectángulo_379691" data-name="Rectángulo 379691" width="1.351" height="2.702" transform="translate(38.5 12.164)" fill="#fff"/>
          <rect id="Rectángulo_379692" data-name="Rectángulo 379692" width="1.351" height="2.702" transform="translate(35.799 14.866)" fill="#fff"/>
          <rect id="Rectángulo_379693" data-name="Rectángulo 379693" width="1.351" height="2.702" transform="translate(32.421 13.515)" fill="#fff"/>
          <rect id="Rectángulo_379694" data-name="Rectángulo 379694" width="1.351" height="2.702" transform="translate(29.044 12.164)" fill="#fff"/>
          <rect id="Rectángulo_379695" data-name="Rectángulo 379695" width="1.351" height="2.702" transform="translate(16.886 3.383)" fill="#fff"/>
          <rect id="Rectángulo_379696" data-name="Rectángulo 379696" width="1.351" height="2.702" transform="translate(20.264 1.357)" fill="#fff"/>
          <rect id="Rectángulo_379697" data-name="Rectángulo 379697" width="1.351" height="2.702" transform="translate(23.641 3.383)" fill="#fff"/>
          <path id="Trazado_614441" data-name="Trazado 614441" d="M10.561,10.5a3.377,3.377,0,1,0,1.418-6.441h-.048a4.728,4.728,0,0,0-9.393.284A3.373,3.373,0,0,0,5.292,10.5a4,4,0,0,0,5.268,0M5.4,8.985a.675.675,0,0,0-.383.119A2.022,2.022,0,1,1,3.372,5.483a.675.675,0,0,0,.507-.668l0-.08a3.377,3.377,0,0,1,6.754.008l0,.075a.675.675,0,0,0,.846.667,2.021,2.021,0,1,1-.639,3.62.675.675,0,0,0-.89.109,2.662,2.662,0,0,1-4.032,0A.675.675,0,0,0,5.4,8.985Z" transform="translate(-0.496 0)" fill="#fff"/>
          <rect id="Rectángulo_379698" data-name="Rectángulo 379698" width="1.351" height="2.702" transform="translate(2.027 12.164)" fill="#fff"/>
          <rect id="Rectángulo_379699" data-name="Rectángulo 379699" width="1.351" height="2.702" transform="translate(5.404 13.515)" fill="#fff"/>
          <rect id="Rectángulo_379700" data-name="Rectángulo 379700" width="1.351" height="2.702" transform="translate(39.851 16.892)" fill="#fff"/>
        </g>
      </g>
    </g>
  </g>
</svg>
