<svg xmlns="http://www.w3.org/2000/svg" width="141" height="141" viewBox="0 0 141 141">
  <g id="Grupo_1075343" data-name="Grupo 1075343" transform="translate(-1142 -15782)">
    <g id="Grupo_1075284" data-name="Grupo 1075284" transform="translate(1142.328 15782.327)">
      <circle id="Elipse_5614" data-name="Elipse 5614" cx="70.5" cy="70.5" r="70.5" transform="translate(-0.328 -0.327)" fill="#fff"/>
    </g>
    <g id="Grupo_1075283" data-name="Grupo 1075283" transform="translate(1163.257 15807.857)">
      <g id="Grupo_1075280" data-name="Grupo 1075280" transform="translate(0 0)">
        <path id="Trazado_614718" data-name="Trazado 614718" d="M983.1,371.123a1.469,1.469,0,0,0,1.427-1.646v-4.834a1.48,1.48,0,0,0-1.427-1.657H980.48a21.158,21.158,0,0,0-1.3-3.145L981.026,358a1.65,1.65,0,0,0,0-2.337l-3.42-3.417a1.653,1.653,0,0,0-2.337,0l-1.929,1.816a11.837,11.837,0,0,0-3.294-1.346v-2.537a1.48,1.48,0,0,0-1.426-1.658h-4.838a1.867,1.867,0,0,0-1.88,1.658v2.455a21.312,21.312,0,0,0-3.171,1.324l-1.655-1.711a1.619,1.619,0,0,0-2.308,0l-3.408,3.419a1.654,1.654,0,0,0,.01,2.336l1.666,1.659a12.019,12.019,0,0,0-1.4,3.328H949.3a1.867,1.867,0,0,0-1.879,1.657v4.834a1.857,1.857,0,0,0,1.879,1.646h2.31a12.213,12.213,0,0,0,1.4,3.358l-1.638,1.639a1.65,1.65,0,0,0,0,2.335l3.421,3.42a1.654,1.654,0,0,0,2.337,0l1.557-1.668a21.517,21.517,0,0,0,3.213,1.348v2.388a1.857,1.857,0,0,0,1.88,1.646h4.838a1.47,1.47,0,0,0,1.426-1.646v-2.47a12.1,12.1,0,0,0,3.335-1.37l1.831,1.772a1.688,1.688,0,0,0,2.365,0l3.436-3.418a1.665,1.665,0,0,0,.49-1.168,1.646,1.646,0,0,0-.479-1.168L979.2,374.3a21.185,21.185,0,0,0,1.3-3.176Zm-17.041,2.246a6.275,6.275,0,1,1,6.28-6.274A6.276,6.276,0,0,1,966.056,373.369Z" transform="translate(-888.093 -339.046)" fill="#fff" stroke="#132e4c" stroke-linejoin="round" stroke-width="3"/>
        <path id="Trazado_614719" data-name="Trazado 614719" d="M888.729,351.377a.674.674,0,0,0-.468-.882l-2.069-.8a.678.678,0,0,0-.945.336l-.432,1.12a9.748,9.748,0,0,0-1.56.036l-.484-1.093a.756.756,0,0,0-1-.386l-2.027.9a.758.758,0,0,0-.386,1l.458,1.125a5.444,5.444,0,0,0-1.121,1.186l-1.084-.419a.679.679,0,0,0-.945.337l-.8,2.069a.856.856,0,0,0,.4,1.078l1.051.406a9.786,9.786,0,0,0,.042,1.575l-1.005.426a.743.743,0,0,0-.382.987l.9,2.023a.758.758,0,0,0,1,.381l.984-.438a5.522,5.522,0,0,0,1.192,1.149l-.385,1a.858.858,0,0,0,.4,1.079l2.067.8a.852.852,0,0,0,1.014-.533l.383-.989a5.578,5.578,0,0,0,1.666-.042l.431.973a.757.757,0,0,0,1,.386l2.029-.9a.76.76,0,0,0,.387-1l-.456-.942a9.806,9.806,0,0,0,1.108-1.152l1.021.395a.85.85,0,0,0,1.014-.533l.8-2.069a.674.674,0,0,0-.469-.882L891,358.67a5.5,5.5,0,0,0-.036-1.652l1.062-.491a.774.774,0,0,0,.391-1.012l-.894-2.034a.757.757,0,0,0-1-.391l-1.081.478a9.743,9.743,0,0,0-1.145-1.08Zm-1.856,7.661a2.877,2.877,0,1,1-1.646-3.724A2.877,2.877,0,0,1,886.873,359.038Z" transform="translate(-865.564 -339.395)" fill="#1e4672" stroke="#132e4c" stroke-linejoin="round" stroke-width="3"/>
        <path id="Trazado_614720" data-name="Trazado 614720" d="M878.321,336.259l13.868,13.867a7.082,7.082,0,0,1,0,10.015l-5.884,5.885a7.084,7.084,0,0,1-10.017,0l-13.867-13.868A26.432,26.432,0,0,0,898.3,385.148L934.055,420.9a9.2,9.2,0,1,0,13.008-13.008L911.311,372.14a26.432,26.432,0,0,0-32.99-35.88ZM942.4,416.242a3.5,3.5,0,1,1,0-4.956A3.5,3.5,0,0,1,942.4,416.242Z" transform="translate(-860.861 -334.698)" fill="#4996d8" stroke="#132e4c" stroke-linejoin="round" stroke-width="3"/>
      </g>
    </g>
  </g>
</svg>
