<svg xmlns="http://www.w3.org/2000/svg" width="141" height="141" viewBox="0 0 141 141">
  <g id="Grupo_1075327" data-name="Grupo 1075327" transform="translate(-285 -15749.778)">
    <g id="Grupo_1075261" data-name="Grupo 1075261" transform="translate(285 15750)">
      <circle id="Elipse_5614" data-name="Elipse 5614" cx="70.5" cy="70.5" r="70.5" transform="translate(0 -0.222)" fill="#fff"/>
    </g>
    <g id="Grupo_1075281" data-name="Grupo 1075281" transform="translate(299.421 15782.276)">
      <g id="Grupo_1075275" data-name="Grupo 1075275" transform="translate(0 0)">
        <g id="Grupo_1075262" data-name="Grupo 1075262" transform="translate(0.605 4.902)">
          <path id="Trazado_614698" data-name="Trazado 614698" d="M377.258,382.879l8.495-4.8,9.289,4.8,6.99,4.481a11.719,11.719,0,0,1,5.4,9.867v6.3H369.514a4.642,4.642,0,0,1-4.642-4.641v-1.654a11.72,11.72,0,0,1,5.394-9.867Z" transform="translate(-364.872 -358.764)" fill="#eba325" stroke="#132e4c" stroke-linejoin="round" stroke-width="3"/>
          <path id="Trazado_614699" data-name="Trazado 614699" d="M388.909,382.923a5.578,5.578,0,0,0,11.156,0v-5.578H388.909Z" transform="translate(-373.566 -358.499)" fill="#fff" stroke="#132e4c" stroke-linejoin="round" stroke-width="3"/>
          <path id="Trazado_614700" data-name="Trazado 614700" d="M382.659,366.131c1.925,3.855,5.04,7.1,8.553,7.1,5.846,0,10.587-8.974,10.587-14.82a10.586,10.586,0,0,0-21.172,0,18.225,18.225,0,0,0,2.033,7.723" transform="translate(-370.57 -347.822)" fill="#fff" stroke="#132e4c" stroke-linejoin="round" stroke-width="3"/>
          <line id="Línea_920" data-name="Línea 920" y1="4.291" transform="translate(34.969 40.368)" fill="none" stroke="#000" stroke-linecap="round" stroke-linejoin="round" stroke-width="3"/>
          <line id="Línea_921" data-name="Línea 921" y1="4.291" transform="translate(7.586 40.368)" fill="none" stroke="#132e4c" stroke-linecap="round" stroke-linejoin="round" stroke-width="3"/>
        </g>
        <g id="Grupo_1075267" data-name="Grupo 1075267" transform="translate(0 55.873)">
          <g id="Grupo_1075264" data-name="Grupo 1075264">
            <g id="Grupo_1075263" data-name="Grupo 1075263">
              <path id="Trazado_614701" data-name="Trazado 614701" d="M375.269,439.814H363.924V427.673h3.83v8.311h7.515Z" transform="translate(-363.924 -427.673)" fill="#132e4c" stroke="#707070" stroke-width="3"/>
            </g>
          </g>
          <g id="Grupo_1075266" data-name="Grupo 1075266" transform="translate(11.025 6.772)">
            <g id="Grupo_1075265" data-name="Grupo 1075265">
              <path id="Trazado_614702" data-name="Trazado 614702" d="M381.2,445.269v-6.987l4.638,3.493Z" transform="translate(-381.197 -438.282)" fill="#132e4c" stroke="#707070" stroke-width="3"/>
            </g>
          </g>
        </g>
        <g id="Grupo_1075268" data-name="Grupo 1075268" transform="translate(68.22 4.902)">
          <path id="Trazado_614703" data-name="Trazado 614703" d="M500.968,382.879l-8.5-4.8-9.289,4.8-6.99,4.481a11.72,11.72,0,0,0-5.4,9.867v6.3h37.914a4.641,4.641,0,0,0,4.642-4.641v-1.654a11.72,11.72,0,0,0-5.4-9.867Z" transform="translate(-470.798 -358.764)" fill="#1e4672" stroke="#132e4c" stroke-linejoin="round" stroke-width="3"/>
          <path id="Trazado_614704" data-name="Trazado 614704" d="M507.108,382.923a5.578,5.578,0,0,1-11.156,0v-5.579h11.156Z" transform="translate(-479.896 -358.499)" fill="#fff" stroke="#132e4c" stroke-linejoin="round" stroke-width="3"/>
          <path id="Trazado_614705" data-name="Trazado 614705" d="M507.682,366.131c-1.926,3.855-5.04,7.1-8.554,7.1-5.846,0-10.587-8.974-10.587-14.82a10.586,10.586,0,0,1,21.172,0,18.224,18.224,0,0,1-2.032,7.723" transform="translate(-477.216 -347.822)" fill="#fff" stroke="#132e4c" stroke-linejoin="round" stroke-width="3"/>
          <line id="Línea_922" data-name="Línea 922" y1="4.291" transform="translate(7.586 40.368)" fill="none" stroke="#000" stroke-linecap="round" stroke-linejoin="round" stroke-width="3"/>
          <line id="Línea_923" data-name="Línea 923" y1="4.291" transform="translate(34.969 40.368)" fill="none" stroke="#132e4c" stroke-linecap="round" stroke-linejoin="round" stroke-width="3"/>
        </g>
        <g id="Grupo_1075269" data-name="Grupo 1075269" transform="translate(19.755 0)">
          <path id="Trazado_614706" data-name="Trazado 614706" d="M445.993,399.546,431.6,391.407l-15.74,8.139-11.845,7.593a19.859,19.859,0,0,0-9.141,16.718v6.025a4.642,4.642,0,0,0,4.642,4.641h62.824a4.641,4.641,0,0,0,4.641-4.641v-6.025a19.857,19.857,0,0,0-9.141-16.718Z" transform="translate(-394.872 -358.683)" fill="#4996d8" stroke="#132e4c" stroke-linejoin="round" stroke-width="3"/>
          <path id="Trazado_614707" data-name="Trazado 614707" d="M426.916,401.932l5.851,18,10.352-8.091-8.675-14.008Z" transform="translate(-406.462 -361.008)" fill="#fff" stroke="#132e4c" stroke-linejoin="round" stroke-width="3"/>
          <path id="Trazado_614708" data-name="Trazado 614708" d="M466.611,402.046l-5.851,18-10.352-8.091,9.886-13.807Z" transform="translate(-414.958 -361.123)" fill="#fff" stroke="#132e4c" stroke-linejoin="round" stroke-width="3"/>
          <path id="Trazado_614709" data-name="Trazado 614709" d="M456.4,399.619a9.451,9.451,0,1,1-18.9,0v-9.452h18.9Z" transform="translate(-410.288 -358.235)" fill="#fff" stroke="#132e4c" stroke-linejoin="round" stroke-width="3"/>
          <path id="Trazado_614710" data-name="Trazado 614710" d="M457.37,371.165c-3.263,6.533-8.539,12.026-14.493,12.026-9.906,0-17.937-15.206-17.937-25.112a17.938,17.938,0,0,1,35.875,0,30.869,30.869,0,0,1-3.444,13.086" transform="translate(-405.747 -340.142)" fill="#fff" stroke="#132e4c" stroke-linejoin="round" stroke-width="3"/>
          <path id="Trazado_614711" data-name="Trazado 614711" d="M442.877,340.142a17.938,17.938,0,0,0-17.937,17.937c0,9.906,23.83,9.223,27.337-5.327,0,0,8.538,9.279,8.538,5.327A17.938,17.938,0,0,0,442.877,340.142Z" transform="translate(-405.747 -340.142)" fill="#eba325" stroke="#132e4c" stroke-linejoin="round" stroke-width="3"/>
          <rect id="Rectángulo_379722" data-name="Rectángulo 379722" width="9.661" height="4.92" transform="translate(45.381 66.826)" fill="#1e4672" stroke="#132e4c" stroke-linejoin="round" stroke-width="3"/>
          <path id="Trazado_614712" data-name="Trazado 614712" d="M443.533,448.693l4.921-17.836,4.922,17.836Z" transform="translate(-412.472 -372.952)" fill="#eba325" stroke="#132e4c" stroke-linejoin="round" stroke-width="3"/>
          <rect id="Rectángulo_379723" data-name="Rectángulo 379723" width="6.961" height="6.961" transform="matrix(0.707, -0.707, 0.707, 0.707, 31.061, 55.866)" fill="#eba325" stroke="#132e4c" stroke-linejoin="round" stroke-width="3"/>
          <line id="Línea_924" data-name="Línea 924" y1="7.271" transform="translate(12.854 68.401)" fill="none" stroke="#132e4c" stroke-linecap="round" stroke-linejoin="round" stroke-width="3"/>
          <line id="Línea_925" data-name="Línea 925" y1="7.271" transform="translate(59.253 68.401)" fill="none" stroke="#132e4c" stroke-linecap="round" stroke-linejoin="round" stroke-width="3"/>
        </g>
        <g id="Grupo_1075274" data-name="Grupo 1075274" transform="translate(95.717 55.873)">
          <g id="Grupo_1075271" data-name="Grupo 1075271" transform="translate(4.319)">
            <g id="Grupo_1075270" data-name="Grupo 1075270">
              <path id="Trazado_614713" data-name="Trazado 614713" d="M531.986,439.814H520.64v-3.83h7.516v-8.311h3.83Z" transform="translate(-520.64 -427.673)" fill="#132e4c" stroke="#707070" stroke-width="3"/>
            </g>
          </g>
          <g id="Grupo_1075273" data-name="Grupo 1075273" transform="translate(0 6.772)">
            <g id="Grupo_1075272" data-name="Grupo 1075272">
              <path id="Trazado_614714" data-name="Trazado 614714" d="M518.513,445.269v-6.987l-4.639,3.493Z" transform="translate(-513.874 -438.282)" fill="#132e4c" stroke="#707070" stroke-width="3"/>
            </g>
          </g>
        </g>
      </g>
    </g>
  </g>
</svg>
