<svg xmlns="http://www.w3.org/2000/svg" width="294.627" height="355.007" viewBox="0 0 294.627 355.007">
  <g id="OBJECTS" transform="translate(-69.444 -55.86)">
    <g id="Grupo_1073355" data-name="Grupo 1073355" transform="translate(132.026 55.86)">
      <rect id="Rectángulo_379666" data-name="Rectángulo 379666" width="232.045" height="325.429" rx="12" transform="translate(0 25.468)" fill="#e75d74"/>
      <rect id="Rectángulo_379667" data-name="Rectángulo 379667" width="202.652" height="284.208" transform="translate(14.696 42.699)" fill="#e7e7e5"/>
      <rect id="Rectángulo_379668" data-name="Rectángulo 379668" width="202.652" height="284.208" transform="matrix(0.999, -0.049, 0.049, 0.999, 9.982, 48.021)" fill="#fff"/>
      <rect id="Rectángulo_379669" data-name="Rectángulo 379669" width="97.629" height="35.373" rx="12" transform="translate(72.16 18.394)" fill="#6debff"/>
      <path id="Trazado_612587" data-name="Trazado 612587" d="M264.042,55.86A25.468,25.468,0,1,0,289.51,81.328,25.469,25.469,0,0,0,264.042,55.86Zm0,40.317a14.85,14.85,0,1,1,14.849-14.85A14.849,14.849,0,0,1,264.042,96.177Z" transform="translate(-143.774 -55.86)" fill="#6debff"/>
      <g id="Grupo_1073348" data-name="Grupo 1073348" transform="translate(33.887 80.676)">
        <rect id="Rectángulo_379670" data-name="Rectángulo 379670" width="28.906" height="28.906" transform="translate(0 5.541)" fill="none" stroke="#d5e7f7" stroke-linecap="round" stroke-linejoin="round" stroke-width="5"/>
        <g id="Grupo_1073347" data-name="Grupo 1073347" transform="translate(44.185 2.627)">
          <rect id="Rectángulo_379671" data-name="Rectángulo 379671" width="117.186" height="5.07" fill="#d5e7f7"/>
          <rect id="Rectángulo_379672" data-name="Rectángulo 379672" width="117.186" height="5.07" transform="translate(0 14.057)" fill="#d5e7f7"/>
          <rect id="Rectángulo_379673" data-name="Rectángulo 379673" width="117.186" height="5.07" transform="translate(0 28.054)" fill="#d5e7f7"/>
        </g>
        <path id="Trazado_612588" data-name="Trazado 612588" d="M175.956,159.552,186.063,171.9a2.078,2.078,0,0,0,3.061.171l26.584-25.951a2.079,2.079,0,0,0,.018-2.957h0a2.079,2.079,0,0,0-2.8-.127l-22.258,18.549a2.079,2.079,0,0,1-3.044-.42l-5.074-7.381a2.079,2.079,0,0,0-3.182-.292l-3.271,3.27A2.079,2.079,0,0,0,175.956,159.552Z" transform="translate(-173.279 -142.558)" fill="#8fb928"/>
      </g>
      <g id="Grupo_1073350" data-name="Grupo 1073350" transform="translate(33.887 138.04)">
        <rect id="Rectángulo_379674" data-name="Rectángulo 379674" width="28.906" height="28.906" transform="translate(0 5.541)" fill="none" stroke="#d5e7f7" stroke-linecap="round" stroke-linejoin="round" stroke-width="5"/>
        <g id="Grupo_1073349" data-name="Grupo 1073349" transform="translate(44.185 2.627)">
          <rect id="Rectángulo_379675" data-name="Rectángulo 379675" width="117.186" height="5.07" fill="#d5e7f7"/>
          <rect id="Rectángulo_379676" data-name="Rectángulo 379676" width="117.186" height="5.07" transform="translate(0 14.057)" fill="#d5e7f7"/>
          <rect id="Rectángulo_379677" data-name="Rectángulo 379677" width="117.186" height="5.07" transform="translate(0 28.054)" fill="#d5e7f7"/>
        </g>
        <path id="Trazado_612589" data-name="Trazado 612589" d="M175.956,221.2l10.107,12.352a2.078,2.078,0,0,0,3.061.171l26.584-25.951a2.079,2.079,0,0,0,.018-2.957h0a2.079,2.079,0,0,0-2.8-.128l-22.258,18.549a2.079,2.079,0,0,1-3.044-.42l-5.074-7.381a2.079,2.079,0,0,0-3.182-.292l-3.271,3.27A2.079,2.079,0,0,0,175.956,221.2Z" transform="translate(-173.279 -204.204)" fill="#8fb928"/>
      </g>
      <g id="Grupo_1073352" data-name="Grupo 1073352" transform="translate(33.887 196.014)">
        <rect id="Rectángulo_379678" data-name="Rectángulo 379678" width="28.906" height="28.906" transform="translate(0 5.541)" fill="none" stroke="#d5e7f7" stroke-linecap="round" stroke-linejoin="round" stroke-width="5"/>
        <g id="Grupo_1073351" data-name="Grupo 1073351" transform="translate(44.185 2.627)">
          <rect id="Rectángulo_379679" data-name="Rectángulo 379679" width="117.186" height="5.07" fill="#d5e7f7"/>
          <rect id="Rectángulo_379680" data-name="Rectángulo 379680" width="117.186" height="5.07" transform="translate(0 14.057)" fill="#d5e7f7"/>
          <rect id="Rectángulo_379681" data-name="Rectángulo 379681" width="117.186" height="5.07" transform="translate(0 28.054)" fill="#d5e7f7"/>
        </g>
        <path id="Trazado_612590" data-name="Trazado 612590" d="M175.956,283.5l10.107,12.352a2.079,2.079,0,0,0,3.061.171l26.584-25.951a2.079,2.079,0,0,0,.018-2.957h0a2.079,2.079,0,0,0-2.8-.127l-22.258,18.549a2.079,2.079,0,0,1-3.044-.42l-5.074-7.381a2.078,2.078,0,0,0-3.182-.292l-3.271,3.27A2.079,2.079,0,0,0,175.956,283.5Z" transform="translate(-173.279 -266.506)" fill="#8fb928"/>
      </g>
      <g id="Grupo_1073354" data-name="Grupo 1073354" transform="translate(33.887 254.599)">
        <rect id="Rectángulo_379682" data-name="Rectángulo 379682" width="28.906" height="28.906" transform="translate(0 5.541)" fill="none" stroke="#d5e7f7" stroke-linecap="round" stroke-linejoin="round" stroke-width="5"/>
        <g id="Grupo_1073353" data-name="Grupo 1073353" transform="translate(44.185 2.627)">
          <rect id="Rectángulo_379683" data-name="Rectángulo 379683" width="117.186" height="5.07" fill="#d5e7f7"/>
          <rect id="Rectángulo_379684" data-name="Rectángulo 379684" width="117.186" height="5.07" transform="translate(0 14.057)" fill="#d5e7f7"/>
          <rect id="Rectángulo_379685" data-name="Rectángulo 379685" width="117.186" height="5.07" transform="translate(0 28.054)" fill="#d5e7f7"/>
        </g>
        <path id="Trazado_612591" data-name="Trazado 612591" d="M175.956,346.458l10.107,12.352a2.078,2.078,0,0,0,3.061.17l26.584-25.951a2.078,2.078,0,0,0,.018-2.956h0a2.078,2.078,0,0,0-2.8-.128l-22.258,18.548a2.079,2.079,0,0,1-3.044-.419l-5.074-7.381a2.078,2.078,0,0,0-3.182-.292l-3.271,3.27A2.079,2.079,0,0,0,175.956,346.458Z" transform="translate(-173.279 -329.463)" fill="#8fb928"/>
      </g>
    </g>
    <g id="Grupo_1073357" data-name="Grupo 1073357" transform="translate(69.444 153.532)">
      <path id="Trazado_612592" data-name="Trazado 612592" d="M177.938,224.542s2.856,4.155,1.3,6.492-4.934-.779-4.934-.779Z" transform="translate(-76.728 -165.249)" fill="#f3be5c"/>
      <path id="Trazado_612593" data-name="Trazado 612593" d="M108.2,235.928c11.185-.218,15.3,4.884,29.468,1.9,18.061-3.8,21.863-5.7,21.863-5.7l2.852,6.654s-25.928,16.66-39.925,14.259S88.995,236.3,108.2,235.928Z" transform="translate(-71.578 -165.776)" fill="#ec9396"/>
      <path id="Trazado_612594" data-name="Trazado 612594" d="M103.416,217.74l-5.438,9.949,11.945,3.636,3.595-10.932Z" transform="translate(-71.426 -164.776)" fill="#f3be5c"/>
      <path id="Trazado_612595" data-name="Trazado 612595" d="M120.658,312.941s8.119,52.516,8.119,60.507,1.353,44.524,1.353,44.524H119.305s-8.118-33.108-6.765-43.382S93.6,334.632,93.6,330.066,120.658,312.941,120.658,312.941Z" transform="translate(-71.122 -171.389)" fill="#2638b1"/>
      <g id="Grupo_1073356" data-name="Grupo 1073356" transform="translate(46.738)">
        <path id="Rectángulo_379686" data-name="Rectángulo 379686" d="M0,0H15.945a0,0,0,0,1,0,0V20.835a7.972,7.972,0,0,1-7.972,7.972h0A7.972,7.972,0,0,1,0,20.835V0A0,0,0,0,1,0,0Z" transform="translate(9.24 143.197) rotate(18.709)" fill="#d373b1"/>
        <rect id="Rectángulo_379687" data-name="Rectángulo 379687" width="15.945" height="133.436" transform="translate(48.934 25.988) rotate(18.709)" fill="#274ec2"/>
        <rect id="Rectángulo_379688" data-name="Rectángulo 379688" width="15.945" height="7.295" transform="translate(8.472 145.464) rotate(18.709)" fill="#f6c549"/>
        <path id="Trazado_612596" data-name="Trazado 612596" d="M189.385,160.823l-17.509,26.552,15.282,5.175Z" transform="translate(-123.297 -160.823)" fill="#f1d7b3"/>
        <path id="Trazado_612597" data-name="Trazado 612597" d="M189.53,171.252l.732-10.429-5.756,8.728Z" transform="translate(-124.174 -160.823)" fill="#2638b1"/>
      </g>
      <line id="Línea_888" data-name="Línea 888" x1="38.087" y2="111.145" transform="translate(59.618 31.751)" fill="none" stroke="#3f9fe8" stroke-miterlimit="10" stroke-width="3"/>
      <path id="Trazado_612598" data-name="Trazado 612598" d="M120.519,311.288l-19.007,62.791L78.433,414.036l-8.146-1.142s8.146-37.675,13.576-43.383,6.788-63.933,6.788-63.933Z" transform="translate(-69.503 -170.878)" fill="#2638b1"/>
      <path id="Trazado_612599" data-name="Trazado 612599" d="M137.17,292.068l5.72-2.272a13.861,13.861,0,0,1,4.324-4.7c2.772-1.744,1.725-3.476,2.772-1.744S146.7,288.4,146.7,288.4s7.448-4.708,8.667-3.5,2.095,4.506-4.141,8.341a12.224,12.224,0,0,1-6.416,1.58l-6.066,2.62Z" transform="translate(-74.148 -169.284)" fill="#f3be5c"/>
      <path id="Trazado_612600" data-name="Trazado 612600" d="M150.952,431.518l-20.3-5.433H121.27l.632,8.149S139.585,441.024,150.952,431.518Z" transform="translate(-73.044 -179.248)" fill="#6debff"/>
      <path id="Trazado_612601" data-name="Trazado 612601" d="M97.628,433.215l-10.656-3.552-8.852-7.921-7.2-2.584L69.444,428.2S81.752,440.229,97.628,433.215Z" transform="translate(-69.444 -178.767)" fill="#6debff"/>
      <path id="Trazado_612602" data-name="Trazado 612602" d="M102.229,205.3c3.954-1.3,5.024,3.636,5.024,3.636s1.41-8.529,4.59-9.4c5.051-1.381,8.406,2.947,9.878,8.177,1.425.231,3.713.89,3.37,2.731a5.1,5.1,0,0,1-2.524,3.034c.069,3.94-.954,7.418-3.161,8.409-7.005,3.143-8.175,1.181-13.052.09-2.336-.522-1.377-4.927-2.774-5.523C101.793,215.7,98.109,206.654,102.229,205.3Z" transform="translate(-71.591 -163.494)" fill="#f3be5c"/>
      <path id="Trazado_612603" data-name="Trazado 612603" d="M120.825,200.1c.548-9.9-11.916-9.55-18.988-7.4-5.339,1.626-10.228,13.792-7.9,18.967s3.1,10.794,8.258,8.979,12.229,5.084,11.006-2.078-2.247-10-.219-12.959C115.289,202.233,120.549,205.087,120.825,200.1Z" transform="translate(-71.104 -162.951)" fill="#2638b1"/>
      <path id="Trazado_612604" data-name="Trazado 612604" d="M97.32,228.432s13.5,1.558,15.581,5.713,10.388,15.582,10.388,23.892-4.156,7.79-4.156,14.542,3.734,25.381,2.078,35.317-25.139,8.426-29.6.519-3.636-49.34-.519-62.844S97.32,228.432,97.32,228.432Z" transform="translate(-70.768 -165.519)" fill="#ec9396"/>
      <path id="Trazado_612605" data-name="Trazado 612605" d="M99.692,238.786c-10.073,0-.828,42.227,15.732,50.507s24.84,4.968,24.84,4.968l-1.656-7.452s-15.732-1.656-20.7-22.356C115.581,254.759,110.455,238.786,99.692,238.786Z" transform="translate(-71.254 -166.238)" fill="#f4a6ac"/>
      <path id="Trazado_612606" data-name="Trazado 612606" d="M177.9,228.953s-4.675-3.116-7.271,3.636c-2.525,6.562,4.452,6.772,4.452,6.772S180.76,231.551,177.9,228.953Z" transform="translate(-76.434 -165.505)" fill="#f3be5c"/>
    </g>
  </g>
</svg>
