<svg xmlns="http://www.w3.org/2000/svg" width="295" height="212.323" viewBox="0 0 295 212.323">
  <g id="Grupo_1072141" data-name="Grupo 1072141" transform="translate(-325.365 -153.744)">
    <path id="Trazado_609219" data-name="Trazado 609219" d="M607.637,418.5c-18.608,0-270.187-.543-270.187-.573-.1-.244-31.937-39.26,8.147-80.052,19.861-20.212-18.239-46.4,0-68.88,31.243-38.512,62.156-16.823,87.909-27.654a41.383,41.383,0,0,0,13.687-9.712,50.885,50.885,0,0,1,8.411-6.983q.694-.463,1.4-.9a56.029,56.029,0,0,1,5.612-3.046q1.945-.917,3.963-1.7h0a64.825,64.825,0,0,1,6.569-2.139,74.3,74.3,0,0,1,9.8-1.922q2.185-.284,4.406-.449c28.775-2.163,61.159,10,77.87,27.789,3.364,3.581,18.664,22.111,6.6,47.58-7.615,16.08,24.285,31.438,35.62,49.8C636.269,386.344,607.9,417.888,607.637,418.5Z" transform="translate(0 -52.899)" fill="#ebf3fa"/>
    <g id="Grupo_1072125" data-name="Grupo 1072125" transform="translate(471.562 207.967)" opacity="0.8">
      <path id="Trazado_609220" data-name="Trazado 609220" d="M1560.587,634.645a36.849,36.849,0,0,1-2.807,5.99,36.589,36.589,0,0,1-68.073-16,35.933,35.933,0,0,1,.046-5.58,36.839,36.839,0,0,1,5.516-16.436c.015-.026.031-.049.047-.074a36.677,36.677,0,0,1,20.853-15.573c.893-.256,1.8-.478,2.711-.665a36.38,36.38,0,0,1,19.826,1.462q1.312.477,2.563,1.042a36.335,36.335,0,0,1,14.827,12.241h0a36.723,36.723,0,0,1,5.85,13.274q.336,1.535.542,3.1a36.411,36.411,0,0,1-1.9,17.217Z" transform="translate(-1489.621 -585.559)" fill="#d7e5ff"/>
      <g id="Grupo_1072124" data-name="Grupo 1072124" transform="translate(5.649 0.748)">
        <path id="Trazado_609221" data-name="Trazado 609221" d="M1559.463,607.725c-2.161,1.674-1.588,6.153-5.33,3.628s-6.091-3.9-7.15-1.694,2.255,3.41,1.383,5.81-2.648,2.654-4.52.683-1.927-3.869-4.959-3.806-4.326-1.184-4.178-3.46a3.2,3.2,0,0,0-.1-1.056c.015-.026.031-.049.047-.074a36.677,36.677,0,0,1,20.853-15.573c.893-.256,1.8-.478,2.711-.665a4.812,4.812,0,0,1,2.792,3.049c1.32,3.846,3.46,2.941,1.642,6.163s-1.07,4.012.915,4.6,4.272,1.423,3.96,2.993S1561.625,606.05,1559.463,607.725Z" transform="translate(-1534.61 -591.518)" fill="#aec3ff"/>
        <path id="Trazado_609222" data-name="Trazado 609222" d="M1875.215,836.075a36.833,36.833,0,0,1-2.807,5.99,36.375,36.375,0,0,1-10.22,11.216,4.175,4.175,0,0,1-2.722-1.073c-3.664-3.273,1.192-6.75,3.748-8.441s-2.19-2.252-4.584-5.549,3.21-7.764-.39-8-7.981-.474-8.714-4.333,3.055-3.063,2.392-6.314,2.47-3.858,5.822-2.931,3.764-1.544,7.919-.422,2.2,6.235,6.782,7.513,4.008,2.234,4.008,2.234a2.208,2.208,0,0,1,.86.534A36.642,36.642,0,0,1,1875.215,836.075Z" transform="translate(-1809.899 -787.738)" fill="#aec3ff"/>
        <path id="Trazado_609223" data-name="Trazado 609223" d="M1939.386,718.993c-4.363.456-4.068-4.991-7.773-4.668-3.735.325-2.137-2.33-3.986-5.074s-8.086-1.256-6.818-4.032,4.749-.6,6.38-2.6,5.082-.094,5.082-.094a2.633,2.633,0,0,1,.72.091s0,0,0,0a36.72,36.72,0,0,1,5.851,13.274Q1939.18,717.427,1939.386,718.993Z" transform="translate(-1872.166 -687.873)" fill="#aec3ff"/>
        <path id="Trazado_609224" data-name="Trazado 609224" d="M1790.877,625.861s2.963-2.1.177-4.047-3.122-.846-5.43-1.974-3.927.386-2.863,3.07,1.1,7.108,3.488,5.624S1788.889,625.365,1790.877,625.861Z" transform="translate(-1751.308 -615.954)" fill="#aec3ff"/>
      </g>
    </g>
    <path id="Trazado_609225" data-name="Trazado 609225" d="M483.355,1738.533h12.758c.684-.58-.473-1.9-1.682-1.985a7.445,7.445,0,0,0-1.947.23c-.176-2.332-1.178-12.814-4.957-12.393-4.248.472,0,4.616,1.2,7.07a58.347,58.347,0,0,1,2.257,5.654c-.345.075-.7.148-1.067.215-.563-1.729-2.658-7.545-5.323-7.206-3.128.4-1.871,2.729.346,4.113,1.627,1.018,3.624,2.464,4.574,3.163a13.564,13.564,0,0,1-2.5.2A5.377,5.377,0,0,0,483.355,1738.533Z" transform="translate(-137.597 -1373.403)" fill="#a8d29f"/>
    <path id="Trazado_609226" data-name="Trazado 609226" d="M2020.839,1745.549h-11.85c-.635-.539.439-1.762,1.562-1.844a6.926,6.926,0,0,1,1.809.214c.163-2.166,1.094-11.9,4.6-11.511,3.946.438,0,4.288-1.116,6.567a54.22,54.22,0,0,0-2.1,5.252c.32.07.652.137.991.2.523-1.606,2.469-7.008,4.944-6.693,2.906.368,1.738,2.534-.322,3.82-1.511.946-3.366,2.289-4.248,2.938a12.566,12.566,0,0,0,2.317.186A4.993,4.993,0,0,1,2020.839,1745.549Z" transform="translate(-1472.044 -1380.419)" fill="#a8d29f"/>
    <g id="Grupo_1072126" data-name="Grupo 1072126" transform="translate(545.738 268.692)">
      <path id="Trazado_609227" data-name="Trazado 609227" d="M2151.8,1199.677s.282-2.805-1.185-2.709-1.855.769-1.691,1.308a15.3,15.3,0,0,0,1.591,2.323Z" transform="translate(-2140.278 -1180.914)" fill="#ffb27d"/>
      <path id="Trazado_609228" data-name="Trazado 609228" d="M2182.508,1221.087a23.932,23.932,0,0,1-5.116,4.11c-.331.209-.677.42-1.042.631a38.736,38.736,0,0,1-4.784,2.354c-.2.083-.44.175-.707.271a34.465,34.465,0,0,1-8.33,1.923c-.208.008-.4.008-.588,0-3.632-.146-4.074-14.243-4.074-14.243a1.787,1.787,0,0,1,2.27-1.055s2.834,7.961,3.85,8.61c.9.577,6.086-7.282,10.549-7.832C2177.541,1215.487,2182.508,1221.087,2182.508,1221.087Z" transform="translate(-2148.132 -1196.703)" fill="#739af0"/>
      <path id="Trazado_609229" data-name="Trazado 609229" d="M2215.238,1802.378s.268,3.1-.388,3.426l-8.395-.017s0-.969,1.348-1.184,3.717-1,4.118-2.763S2215.238,1802.378,2215.238,1802.378Z" transform="translate(-2190.618 -1709.254)" fill="#1c3154"/>
      <path id="Trazado_609230" data-name="Trazado 609230" d="M2227.136,1443.97c.042,2.029.139,4.122.33,6,.906,8.925,1.226,19.71,1.356,21.789.225,3.609.939,9.375.939,9.375a4.609,4.609,0,0,0,4.17.7,93.878,93.878,0,0,0,2.794-17.049c.008-.143.016-.288.023-.432.059-1.156.121-2.478.185-3.9.42-9.548.876-23.731.876-23.731l-10.534-2.473S2227.033,1438.912,2227.136,1443.97Z" transform="translate(-2208.68 -1388.403)" fill="#2a4e96"/>
      <path id="Trazado_609231" data-name="Trazado 609231" d="M2227.136,1443.97c2.669,4.606,7.758,13.092,9.8,16.484.42-9.548.876-23.731.876-23.731l-10.534-2.473S2227.033,1438.912,2227.136,1443.97Z" transform="translate(-2208.68 -1388.403)" fill="#233862"/>
      <path id="Trazado_609232" data-name="Trazado 609232" d="M2203.328,1297.493a34.477,34.477,0,0,1-8.33,1.923c.365-.068,3.022-.595,4-1.781,1.055-1.275,2.832-4.739,4.246-3.326C2203.914,1294.976,2203.719,1296.291,2203.328,1297.493Z" transform="translate(-2180.6 -1265.744)" fill="#6385db"/>
      <path id="Trazado_609233" data-name="Trazado 609233" d="M2385.891,1498.614a16.344,16.344,0,0,1,.547,3.134,11.206,11.206,0,0,1-1.144,2.978c-.4.479-.414-2.081-.679-2.483s-.121.956-.333,1.067-.565-1.028-.723-1.432.565-1.81.633-2.819S2385.891,1498.614,2385.891,1498.614Z" transform="translate(-2345.462 -1444.547)" fill="#ffb27d"/>
      <path id="Trazado_609234" data-name="Trazado 609234" d="M2405.232,1778.159s1.494,1.364,1.2,2.332-1.64,1.615-1.822,2.8-.911,1.83-1.567,1.83h-3.127s-.483-.833.683-1.084,1.606-1.643,1.533-2.934a22.76,22.76,0,0,1,.109-3.014l2.478-.574Z" transform="translate(-2359.701 -1688.563)" fill="#1c3154"/>
      <path id="Trazado_609235" data-name="Trazado 609235" d="M2241.641,1433.344s9.861,21.1,15.108,30.356,6.887,11.841,6.887,11.841,3.006-1.184,3.28-1.992c0,0-2.007-17.872-5.521-22.229-1.986-2.462-4.319-9.849-4.428-12.433s-2.413-8.75-2.413-8.75Z" transform="translate(-2221.386 -1384.807)" fill="#2a4e96"/>
      <path id="Trazado_609236" data-name="Trazado 609236" d="M2226.9,1245.917a17.092,17.092,0,0,0,8.667,4.5c2.395.458,7.255.9,8.461-.8a3.053,3.053,0,0,0,.222-1.918c-.162-2.4-.767-7.054,1.964-16.4a15.959,15.959,0,0,0,.525-2.5c.6-4.78.531-8.388-3.615-10.316-6.214-2.889-8.765-.512-8.765-.512a10.407,10.407,0,0,0-4.815,6.045C2226.529,1233.018,2226.9,1245.917,2226.9,1245.917Z" transform="translate(-2208.486 -1198.478)" fill="#739af0"/>
      <path id="Trazado_609237" data-name="Trazado 609237" d="M2293.424,1178.877a4.612,4.612,0,0,1-4.642.3,5.314,5.314,0,0,1-.084-1.907c.034-.895.118-1.772.118-1.772l2.211-1.451,2.11-1.384C2292.884,1177.425,2293.9,1178.539,2293.424,1178.877Z" transform="translate(-2262.512 -1159.666)" fill="#ffb27d"/>
      <path id="Trazado_609238" data-name="Trazado 609238" d="M2292.931,1184.27a6.793,6.793,0,0,1-4.068,2.643c.033-.895.129-1.88.129-1.88l2.2-1.344Z" transform="translate(-2262.678 -1169.305)" fill="#ed985f"/>
      <path id="Trazado_609239" data-name="Trazado 609239" d="M2270.027,1130.439s5.349,2,6.54-1.3,2.682-5.258-.683-6.672-4.486-.394-5.156.609S2268.667,1129.835,2270.027,1130.439Z" transform="translate(-2245.704 -1115.163)" fill="#ffb27d"/>
      <path id="Trazado_609240" data-name="Trazado 609240" d="M2275.256,1107.714c.062-.047.186-.071.447-.034a1.063,1.063,0,0,0-.455-.231,1.32,1.32,0,0,0-.634-1.316.787.787,0,0,1,.264.631c-.569-.874-1.993-1.71-6.3-2.213-5.671-.662-4.536,3.276-3.9,3.845s2.689-.24,4.014.133,1.2,2.369,1.6,2.727.318-.15.991-.308.53.879.22,1.509.366,1.677.366,1.677l1.041-.755c1.041-.755,2.623-4.51,2.4-5.422C2275.3,1107.878,2275.276,1107.8,2275.256,1107.714Z" transform="translate(-2241.061 -1100.04)" fill="#2c3a64"/>
      <path id="Trazado_609241" data-name="Trazado 609241" d="M2342.1,1328.294c-.162-2.4-.767-7.055,1.964-16.4a15.935,15.935,0,0,0,.525-2.5h0c-2.03-.669-5.727.819-5.727.819S2337.991,1322.569,2342.1,1328.294Z" transform="translate(-2306.329 -1279.078)" fill="#6385db"/>
      <path id="Trazado_609242" data-name="Trazado 609242" d="M2303.084,1233.426s2.5.908,4.09,7.519c1.052,4.368,2.99,10.788,3.208,12.805s-2.215,13.829-2.215,13.829a1.584,1.584,0,0,1-1.184.082,1.955,1.955,0,0,1-1.179-.705s-.582-7.873-.432-11.59c.063-1.545-7.15-11.31-11.042-12.568C2292.8,1242.3,2303.084,1233.426,2303.084,1233.426Z" transform="translate(-2267.323 -1212.797)" fill="#739af0"/>
      <path id="Trazado_609243" data-name="Trazado 609243" d="M2086.991,1082.56a83.07,83.07,0,0,1,15.545,1.328l.87-2.193.954-2.4s-8.361-3.6-13.387-8.612Z" transform="translate(-2086.155 -1070.489)" fill="#aec3ff"/>
      <path id="Trazado_609244" data-name="Trazado 609244" d="M2085.266,1069.219l-4.143,12.231h0a1.1,1.1,0,0,1-.726-1.425l3.647-10.277a.909.909,0,0,1,1.222-.529Z" transform="translate(-2080.333 -1069.142)" fill="#f99746"/>
      <path id="Trazado_609245" data-name="Trazado 609245" d="M2142.754,1167.464h0a1.5,1.5,0,0,0,1.758-1.172l1.427-7.138a1.5,1.5,0,0,0-1.172-1.758h0a1.5,1.5,0,0,0-1.757,1.172l-1.427,7.138A1.5,1.5,0,0,0,2142.754,1167.464Z" transform="translate(-2133.865 -1146.289)" fill="#f99746"/>
      <path id="Trazado_609246" data-name="Trazado 609246" d="M2086.991,1155.5a83.07,83.07,0,0,1,15.545,1.328l.87-2.192C2095.581,1153.039,2086.991,1155.5,2086.991,1155.5Z" transform="translate(-2086.155 -1143.429)" fill="#739af0"/>
      <path id="Trazado_609247" data-name="Trazado 609247" d="M2192.449,1134.74l2.255.4a2.487,2.487,0,0,0,2.793-1.473,1.526,1.526,0,0,0,.134-.407c.542-2.352-.749-2.786-.749-2.786l-2.9-1.131-.923,3.263v.012Z" transform="translate(-2178.371 -1121.781)" fill="#f99746"/>
      <path id="Trazado_609248" data-name="Trazado 609248" d="M2192.449,1157.463l2.255.4a2.487,2.487,0,0,0,2.793-1.473c-1.276-.928-4.44-1.061-4.44-1.061v.012Z" transform="translate(-2178.371 -1144.504)" fill="#ed7d2b"/>
      <path id="Trazado_609249" data-name="Trazado 609249" d="M2145.812,1182.291s1.1.44.9.925-1.6,1.154-1.826.77S2145.117,1181.881,2145.812,1182.291Z" transform="translate(-2136.731 -1168.028)" fill="#ffb27d"/>
      <path id="Trazado_609250" data-name="Trazado 609250" d="M2169.951,1196.9a15.491,15.491,0,0,0,.221-1.647c.013-.518.074-.942-.048-.957s-.21.081-.26.248-.241,1.2-.241,1.2l.1,1Z" transform="translate(-2158.411 -1178.577)" fill="#ffb27d"/>
    </g>
    <g id="Grupo_1072128" data-name="Grupo 1072128" transform="translate(380.3 245.837)">
      <path id="Trazado_609251" data-name="Trazado 609251" d="M1259.43,1204.274l-6.25,74.314s-.655,4.5,2.7,4.513c5.509.013,27.422,0,27.422,0s-4.147-.938-4.1-3.048c.059-2.487,7.305-76.482,7.305-76.482Z" transform="translate(-1191.563 -1163.836)" fill="#7599ea"/>
      <path id="Trazado_609252" data-name="Trazado 609252" d="M1297.9,1272.392c-1.083,0-22.3.039-27.663-.03-2.338-.029-2.748-2.079-2.768-3.406a6.649,6.649,0,0,1,.071-1.106l.163-1.932.414-4.923.366-4.349.47-5.589.4-4.717,4.441-52.8,27.076-.7s-3.052,30.967-5.21,53.508c-.241,2.511-.47,4.92-.682,7.167q-.1,1.077-.2,2.1c-.2,2.133-.383,4.091-.542,5.82-.084.911-.161,1.758-.231,2.534-.275,3.04-.437,4.981-.439,5.35a3.147,3.147,0,0,0,.053.6C1294.062,1272.285,1297.5,1272.392,1297.9,1272.392Z" transform="translate(-1204.106 -1154.446)" fill="#90aff4"/>
      <path id="Trazado_609253" data-name="Trazado 609253" d="M779.653,887.135l15.224,61.151,2.084,8.375,7.091,28.482h131.73l-26.134-98.008Z" transform="translate(-777.543 -887.135)" fill="#aec3ff"/>
      <path id="Trazado_609254" data-name="Trazado 609254" d="M764.959,887.134l-2.11.7,23.7,99.432,2.805-2.127Z" transform="translate(-762.849 -887.134)" fill="#90aff4"/>
      <path id="Trazado_609255" data-name="Trazado 609255" d="M951.617,1669.761h130.919l3.615-2.127H954.422Z" transform="translate(-927.913 -1569.626)" fill="#7599ea"/>
      <rect id="Rect치ngulo_377631" data-name="Rect치ngulo 377631" width="28.346" height="1.347" transform="translate(98.025 119.293) rotate(180)" fill="#aec3ff"/>
      <path id="Trazado_609256" data-name="Trazado 609256" d="M1299.441,1684.568l-.146,1.03-26.658,5.385.366-4.35.174-2.066Z" transform="translate(-1208.622 -1584.434)" fill="#5888dd"/>
      <path id="Trazado_609257" data-name="Trazado 609257" d="M1297.909,1767.728c-1.083,0-22.3.039-27.663-.03-2.338-.029-2.748-2.079-2.768-3.406l26.532-4.992c-.276,3.04-.437,4.981-.439,5.35a3.127,3.127,0,0,0,.053.6C1294.068,1767.621,1297.5,1767.728,1297.909,1767.728Z" transform="translate(-1204.111 -1649.782)" fill="#5888dd" opacity="0.4"/>
      <path id="Trazado_609258" data-name="Trazado 609258" d="M779.651,887.134H909.645L930.737,965.9H799.26Z" transform="translate(-777.541 -887.134)" fill="#aec3ff"/>
      <path id="Trazado_609259" data-name="Trazado 609259" d="M962.1,991.871H840.386l-4.349-17.326-1.683-6.7-.686-2.734L829.2,947.3l-.232-.927-2.363-9.412-1.057-4.211-.9-3.592-2.114-8.421H942.49l2.322,8.421.99,3.592,1.161,4.211,7.648,27.744h0l.648,2.351.3,1.091,5.281,19.154Z" transform="translate(-815.036 -916.517)" fill="#739af0"/>
      <path id="Trazado_609260" data-name="Trazado 609260" d="M944.815,929.156H824.648l-2.114-8.422h119.96Z" transform="translate(-815.039 -916.515)" fill="#607cf4"/>
      <g id="Grupo_1072127" data-name="Grupo 1072127" transform="translate(12.425 6.972)">
        <path id="Trazado_609261" data-name="Trazado 609261" d="M861.828,943.713a.8.8,0,0,1,.79-1.053,1.438,1.438,0,0,1,1.315,1.053.8.8,0,0,1-.79,1.053A1.438,1.438,0,0,1,861.828,943.713Z" transform="translate(-861.795 -942.66)" fill="#e9f3fe"/>
        <path id="Trazado_609262" data-name="Trazado 609262" d="M889.686,943.713a.8.8,0,0,1,.79-1.053,1.438,1.438,0,0,1,1.315,1.053.8.8,0,0,1-.79,1.053A1.438,1.438,0,0,1,889.686,943.713Z" transform="translate(-886.155 -942.66)" fill="#e9f3fe"/>
        <path id="Trazado_609263" data-name="Trazado 609263" d="M919.683,943.713a.8.8,0,0,1,.79-1.053,1.438,1.438,0,0,1,1.315,1.053.8.8,0,0,1-.79,1.053A1.438,1.438,0,0,1,919.683,943.713Z" transform="translate(-912.385 -942.66)" fill="#e9f3fe"/>
      </g>
    </g>
    <path id="Trazado_609264" data-name="Trazado 609264" d="M1538.262,201.095c4.919-5.776,12.506-17.379,17.613-23.32a1.884,1.884,0,0,0-1.435-3.11h-9.294l8.766-19.822a.777.777,0,0,0-1.333-.779l-21.2,28.37a1.173,1.173,0,0,0,1.083,1.866l10.521-1.3-6.26,17.2A.9.9,0,0,0,1538.262,201.095Z" transform="translate(-1054.371)" fill="#f77d48"/>
    <path id="Trazado_609265" data-name="Trazado 609265" d="M1158.872,552.578c1.107-5.676,1.806-16.22,2.975-22.077a1.436,1.436,0,0,0-2.116-1.529l-6.173,3.476L1151.966,516a.592.592,0,0,0-1.177-.019l-3.466,26.771a.894.894,0,0,0,1.417.835l6.5-4.8,2.274,13.762A.688.688,0,0,0,1158.872,552.578Z" transform="translate(-718.737 -316.302)" fill="#aec3ff"/>
    <g id="Grupo_1072132" data-name="Grupo 1072132" transform="translate(411.413 206.347)">
      <path id="Trazado_609266" data-name="Trazado 609266" d="M1159.87,717.144l-105.76,8.91a10.586,10.586,0,0,1-10.554-14.868l44.807-100.278a10.587,10.587,0,0,1,18.472-1.556l60.953,91.367A10.587,10.587,0,0,1,1159.87,717.144Z" transform="translate(-1038.601 -600.624)" fill="#e6efff"/>
      <g id="Grupo_1072129" data-name="Grupo 1072129" transform="translate(0 0)">
        <path id="Trazado_609267" data-name="Trazado 609267" d="M1132.227,693.175l-105.76,8.91a14.6,14.6,0,0,1-14.557-20.506L1056.718,581.3a14.6,14.6,0,0,1,25.477-2.147l60.953,91.367a14.6,14.6,0,0,1-10.92,22.652ZM1069.5,580.71a6.488,6.488,0,0,0-5.449,3.868l-44.807,100.278a6.572,6.572,0,0,0,6.552,9.229l105.76-8.91a6.572,6.572,0,0,0,4.915-10.2l-60.953-91.367A6.488,6.488,0,0,0,1069.5,580.71Z" transform="translate(-1010.622 -572.655)" fill="#f77d48"/>
      </g>
      <g id="Grupo_1072131" data-name="Grupo 1072131" transform="translate(50.97 29.812)">
        <g id="Grupo_1072130" data-name="Grupo 1072130">
          <path id="Trazado_609268" data-name="Trazado 609268" d="M1421.954,881.432a9.675,9.675,0,0,1,.412-3.841,8.864,8.864,0,0,1,1.81-3.179,9.5,9.5,0,0,1,3.038-2.253,11.851,11.851,0,0,1,4.161-1.068,12.118,12.118,0,0,1,4.313.354,9.451,9.451,0,0,1,3.4,1.71,8.875,8.875,0,0,1,2.316,2.831,9.687,9.687,0,0,1,1.049,3.718,9.461,9.461,0,0,1-.414,3.81,8.929,8.929,0,0,1-1.812,3.148,9.418,9.418,0,0,1-3.07,2.255,12.119,12.119,0,0,1-4.193,1.071,11.85,11.85,0,0,1-4.281-.357,9.474,9.474,0,0,1-3.373-1.713,8.92,8.92,0,0,1-2.313-2.8A9.443,9.443,0,0,1,1421.954,881.432Zm16.351-19.133-15.234,1.283-6.544-51.87,19.55-1.647Z" transform="translate(-1416.528 -810.065)" fill="#f77d48"/>
        </g>
      </g>
    </g>
    <g id="Grupo_1072136" data-name="Grupo 1072136" transform="translate(368.698 269.011)">
      <path id="Trazado_609269" data-name="Trazado 609269" d="M936.749,1235.441s.332-.746.546-1.1,1.132-1.388,1.288-1.153.781,1.811.449,2.252.021,1.21-1.629,1.675Z" transform="translate(-903.31 -1212.878)" fill="#ffb27d"/>
      <path id="Trazado_609270" data-name="Trazado 609270" d="M790.676,1213.861s8.449,7.053,11.744,6.4c2.576-.51,6.649-1.8,6.649-1.8a2.6,2.6,0,0,1,.771,2.248s-5.189,4.882-8.886,4.914c-5.778.049-8.5-2.864-8.5-2.864Z" transform="translate(-775.58 -1196.008)" fill="#ed7d2b"/>
      <path id="Trazado_609271" data-name="Trazado 609271" d="M672.668,1797.443s.245,3.956,1.011,4.013c.1.007,3.883.007,3.883.007l4.826-.028a1.566,1.566,0,0,0-1.443-1.409c-1.411-.246-3.772-1.237-4.627-3.1C675.42,1794.964,672.668,1797.443,672.668,1797.443Z" transform="translate(-672.39 -1705.195)" fill="#113c68"/>
      <path id="Trazado_609272" data-name="Trazado 609272" d="M670.453,1468.33a10.058,10.058,0,0,0,2.613.491,9.588,9.588,0,0,0,2.439-.348,66.774,66.774,0,0,1,1.8-8.557c.8-3.085,1.935-7.051,3.554-11.98,4.477-13.622,5.838-21.59,5.962-22.345.007-.04.009-.06.009-.06l-.015-.007-13.763-6.043s1.7,18.774-.469,25.98a30.31,30.31,0,0,0-.788,3.452C670.421,1456.741,670.453,1468.33,670.453,1468.33Z" transform="translate(-670.453 -1375.808)" fill="#2a4e96"/>
      <path id="Trazado_609273" data-name="Trazado 609273" d="M692.019,1459.916c.8-3.085,1.935-7.051,3.554-11.98,4.477-13.622,5.838-21.59,5.962-22.345,0-.022,0-.044-.005-.066l-13.763-6.043s1.7,18.774-.469,25.98C686.994,1446.468,692.019,1459.916,692.019,1459.916Z" transform="translate(-685.171 -1375.808)" fill="#233862"/>
      <path id="Trazado_609274" data-name="Trazado 609274" d="M758.276,1797.443s.245,3.956,1.011,4.013c.1.007,3.883.007,3.883.007l4.826-.028a1.566,1.566,0,0,0-1.442-1.409c-1.411-.246-3.772-1.237-4.627-3.1C761.028,1794.964,758.276,1797.443,758.276,1797.443Z" transform="translate(-747.248 -1705.195)" fill="#15447c"/>
      <path id="Trazado_609275" data-name="Trazado 609275" d="M718.516,1423a195.943,195.943,0,0,1-1.926,27.1c-2.105,14.937-1.391,21.278-1.391,21.278a14.343,14.343,0,0,1-2.03.516,9.21,9.21,0,0,1-3.011-.349s-3.013-14.943-2.149-22.419-4.126-25.655-4.126-25.655Z" transform="translate(-699.685 -1378.889)" fill="#2a4e96"/>
      <path id="Trazado_609276" data-name="Trazado 609276" d="M742.7,1154.407l2.687,1.762,2.447-.692a5.845,5.845,0,0,0,.572-2.934,18.243,18.243,0,0,0-.1-1.954l-3.625-1.6-1.352-.6c0,.021.105,1.11.12,1.27A9.252,9.252,0,0,1,742.7,1154.407Z" transform="translate(-733.627 -1138.76)" fill="#ffb27d"/>
      <path id="Trazado_609277" data-name="Trazado 609277" d="M702.794,1221.029c-3.344,3.229-16,2.686-16.779-.872s.851-30.282,6.563-31.961c1.185-.348,7.522,1.7,7.522,1.7a40.182,40.182,0,0,1,1.646,5.913c.127.644.5,7.474.773,13.863.129,2.988.238,5.881.294,8A23.056,23.056,0,0,1,702.794,1221.029Z" transform="translate(-683.901 -1173.531)" fill="#f99746"/>
      <path id="Trazado_609278" data-name="Trazado 609278" d="M750.133,1153.86c.735,1.244,3.315,2.332,4.683,2.83a18.281,18.281,0,0,0-.1-1.954l-3.625-1.6C750.293,1153.125,749.8,1153.3,750.133,1153.86Z" transform="translate(-740.037 -1142.907)" fill="#fca56b"/>
      <path id="Trazado_609279" data-name="Trazado 609279" d="M741.547,1097.185s-5.84,1.822-6.919-1.833-2.559-5.88,1.124-7.2,4.823-.138,5.479.994S743.039,1096.617,741.547,1097.185Z" transform="translate(-725.498 -1085.578)" fill="#ffb27d"/>
      <path id="Trazado_609280" data-name="Trazado 609280" d="M723.309,1074.9s-.372,4.253-1.252,4.068-1.848-.579-1.719.7-.855,3.479-2.123,3.474c-2.72-.011-5.675-6.99-4.93-8.314C715.433,1071.014,726.414,1070.243,723.309,1074.9Z" transform="translate(-707.804 -1071.683)" fill="#163560"/>
      <path id="Trazado_609281" data-name="Trazado 609281" d="M745.515,1176.721c-.075-.032-4.348-1.948-4.847-1.783s-1.122,1.691-1.122,1.691l7.523,1.7A3.738,3.738,0,0,0,745.515,1176.721Z" transform="translate(-730.869 -1161.963)" fill="#ed7d2b"/>
      <g id="Grupo_1072134" data-name="Grupo 1072134" transform="translate(15.055 2.693)">
        <path id="Trazado_609282" data-name="Trazado 609282" d="M816.531,1338.085l-23.949,22.549c-.469.442-1.061.583-1.315.313l-.808-.859c-.254-.27-.078-.852.392-1.294l23.949-22.548c.469-.442,1.061-.583,1.315-.313l.808.859C817.177,1337.061,817,1337.643,816.531,1338.085Z" transform="translate(-790.342 -1305.323)" fill="#1f4d84"/>
        <path id="Trazado_609283" data-name="Trazado 609283" d="M803.091,1441.988l-10.509,9.895c-.469.442-1.061.583-1.315.313l-.808-.859c-.254-.27-.078-.852.392-1.294l10.509-9.895Z" transform="translate(-790.342 -1396.573)" fill="#739af0"/>
        <path id="Trazado_609284" data-name="Trazado 609284" d="M949.4,1117.379a18.771,18.771,0,1,0,31.113-18.864c-.1-.1-.195-.191-.295-.284a18.772,18.772,0,0,0-30.818,19.148Zm5.365-17.325a17.29,17.29,0,1,1,.745,24.44A17.269,17.269,0,0,1,954.764,1100.054Z" transform="translate(-928.714 -1093.131)" fill="#1f4d84"/>
        <g id="Grupo_1072133" data-name="Grupo 1072133" transform="translate(21.352 1.482)" opacity="0.5">
          <path id="Trazado_609285" data-name="Trazado 609285" d="M990.263,1134.068a17.29,17.29,0,1,1-.745-24.439A17.22,17.22,0,0,1,990.263,1134.068Z" transform="translate(-960.382 -1104.933)" fill="#b3cff9"/>
        </g>
      </g>
      <path id="Trazado_609286" data-name="Trazado 609286" d="M736.65,1270.342c-13.2-9.4-12.1-21.951-12.1-21.951,4.823,2.72,9.609,8.735,11.805,13.952C736.485,1265.332,736.594,1268.224,736.65,1270.342Z" transform="translate(-717.738 -1226.202)" fill="#ed7d2b"/>
      <g id="Grupo_1072135" data-name="Grupo 1072135" transform="translate(6.538 16.366)">
        <path id="Trazado_609287" data-name="Trazado 609287" d="M913.773,1381.848a3.6,3.6,0,0,0,1.685-1.041s.4.027-.065.874c-.039.071-.125.253-.189.381a.082.082,0,0,0,.069.118,8.784,8.784,0,0,1,2.111.044c.143.03.184.372.179.517a1.321,1.321,0,0,1-.278.9,4.619,4.619,0,0,1-1.667.873,5.047,5.047,0,0,1-2.58-.324l-.845-.391.262-1.57.212.044C913,1382.346,913.422,1381.935,913.773,1381.848Z" transform="translate(-888.375 -1358.357)" fill="#ffb27d"/>
        <path id="Trazado_609288" data-name="Trazado 609288" d="M726.886,1202.019s-11.857,2.258,3.489,19.428c2.454,2.746,15.714,6.322,15.714,6.322s1.345-1.144.667-2.071c0,0-9.13-6.63-11.138-7.684-.9-.474-3.507-10.582-4.981-13.016A6.641,6.641,0,0,0,726.886,1202.019Z" transform="translate(-722.516 -1202.019)" fill="#f99746"/>
      </g>
      <path id="Trazado_609289" data-name="Trazado 609289" d="M939.31,1232.9a6.036,6.036,0,0,0,.464-1.132,6.255,6.255,0,0,1,.765-1.732c.081-.081.346.023.378.369a2.013,2.013,0,0,1-.191.75,8.431,8.431,0,0,0-.251,1.49C940.291,1233.241,939.31,1232.9,939.31,1232.9Z" transform="translate(-905.549 -1210.127)" fill="#ffb27d"/>
    </g>
    <g id="Grupo_1072138" data-name="Grupo 1072138" transform="translate(388.666 206.153)">
      <g id="Grupo_1072137" data-name="Grupo 1072137">
        <path id="Trazado_609290" data-name="Trazado 609290" d="M975.6,974.069a.715.715,0,0,0-.128.765.006.006,0,0,0,0,0,4.753,4.753,0,0,0,1.5,1.648c.091.073.171.14.241.2l.054.048.042.038c.66.609.411.748,1.6,1.984,1.352,1.408,2.283,1.433,2.548,1.305.224-.109-.231-.856-.735-1.695l-.073-.122c-.067-.112-.134-.225-.2-.337-.591-1.01-.439-1.483-.3-2.986.114-1.221,1.9-6.821,1.9-6.821l-2.592-.447s-.782,4.46-1.643,5.146c-.46.366-.975.37-1.417.642l-.092.058A3.4,3.4,0,0,0,975.6,974.069Z" transform="translate(-957.093 -917.859)" fill="#ffb27d"/>
        <path id="Trazado_609291" data-name="Trazado 609291" d="M975.6,1014.776a.715.715,0,0,0-.128.765.006.006,0,0,0,0,0,5.505,5.505,0,0,0,1.5,1.643c.089.074.168.143.238.206l.054.048.042.038c.66.609.411.748,1.6,1.984,1.352,1.408,2.283,1.433,2.548,1.305.224-.109-.231-.856-.735-1.695a5.765,5.765,0,0,1-2.411-1.778c-.784-1-1.317-2.278-1.851-3.062l-.152-.029A3.4,3.4,0,0,0,975.6,1014.776Z" transform="translate(-957.093 -958.566)" fill="#233862"/>
        <path id="Trazado_609292" data-name="Trazado 609292" d="M1128.917,967.007c.16.8,1.3.667,2.575.356s.971.059,2.785-.141,2.363-.876,2.418-1.146c.05-.239-.846-.324-1.808-.435l-.364-.044a7.843,7.843,0,0,1-2.865-1.412,11.51,11.51,0,0,1-2.326-2.765l-2.487.2s1.3,1.983,1.809,2.845a3,3,0,0,1,.243,1.7A3.215,3.215,0,0,0,1128.917,967.007Z" transform="translate(-1089.505 -912.408)" fill="#ffb27d"/>
        <path id="Trazado_609293" data-name="Trazado 609293" d="M1145.651,996.756c1.275-.311.972.059,2.785-.141s2.363-.876,2.419-1.146c.05-.239-.846-.324-1.808-.435l-.009.018a5.113,5.113,0,0,1-2.6.806c-1.23.03-2.533-.323-3.383-.31a3.189,3.189,0,0,0,.019.851C1143.236,997.2,1144.377,997.067,1145.651,996.756Z" transform="translate(-1103.664 -941.801)" fill="#233862"/>
        <path id="Trazado_609294" data-name="Trazado 609294" d="M1008.036,851.47l-2.327,6.255-3.038,8.167a4.918,4.918,0,0,1-1.613-.148,6.986,6.986,0,0,1-1.559-.76s.846-8.771,2.42-13.8a8.963,8.963,0,0,1,1.354-2.926C1005.711,845.376,1008.036,851.47,1008.036,851.47Z" transform="translate(-978.149 -812.778)" fill="#233862"/>
        <path id="Trazado_609295" data-name="Trazado 609295" d="M892.072,791.362c-1.323-.427-4.776-.008-8.522.668a2.541,2.541,0,0,1-2.623-1.186h0l-9.426-.739s-3.113,6.9-1.411,11.292a1.653,1.653,0,0,0,1.647,1.063h0s5.7.01,7.518.011c4.688,0,9.922-3.219,10.6-3.354,1.108-.221,1.55,1.995,2.658,4.322s10.412,10.308,10.412,10.308a8.184,8.184,0,0,0,2.021-.207,1.991,1.991,0,0,0,.868-.548S895.507,792.471,892.072,791.362Z" transform="translate(-864.546 -762.605)" fill="#2a4e96"/>
        <path id="Trazado_609296" data-name="Trazado 609296" d="M845.128,571.668a3.344,3.344,0,0,0-1.8-.469,5.01,5.01,0,0,1-.869-.053c-3.6-.529-5.766,4.7-5.893,6.275-.234,2.9-1.768,3.34-3.927,5.155-4.329,3.638-3.061,7.869-.7,9.441,1.42.943,3.923,0,3.923,0,.035.025,6.846-3.8,10.2-5.651C851.1,585.653,847.149,572.872,845.128,571.668Z" transform="translate(-829.738 -571.108)" fill="#233862"/>
        <path id="Trazado_609297" data-name="Trazado 609297" d="M905.153,643.324a4.435,4.435,0,0,1-2.766.084,4.932,4.932,0,0,1-1.826-2.189c.477-.022,1-.439,1.4-3.174l.2.073,3.413,1.23s-.248,1.1-.408,2.138C905.039,642.361,904.967,643.2,905.153,643.324Z" transform="translate(-891.635 -629.64)" fill="#ffb27d"/>
        <path id="Trazado_609298" data-name="Trazado 609298" d="M916.778,639.855s-.137.591-.335,1.695a3.855,3.855,0,0,1-3.078-2.924Z" transform="translate(-902.831 -630.148)" fill="#ed975d"/>
        <path id="Trazado_609299" data-name="Trazado 609299" d="M914.907,599.862s-4.67-.629-4.234-3.531.127-4.938,3.128-4.66,3.412,1.473,3.5,2.477S916.133,599.951,914.907,599.862Z" transform="translate(-900.451 -589.067)" fill="#ffb27d"/>
        <path id="Trazado_609300" data-name="Trazado 609300" d="M907.805,590.772s-2.991,2.576-5.025,2.783a3.9,3.9,0,0,1-2.8-.446,7.942,7.942,0,0,0,1.921-2.6,1.43,1.43,0,0,1,1.179-.843C904.529,589.54,907.282,589.484,907.805,590.772Z" transform="translate(-891.124 -587.281)" fill="#233862"/>
        <path id="Trazado_609301" data-name="Trazado 609301" d="M947.434,593.173a7.37,7.37,0,0,1,1.315,1.685,5.656,5.656,0,0,1,.152,3.006s1.559-3.03.678-4.5A1.245,1.245,0,0,0,947.434,593.173Z" transform="translate(-932.622 -589.914)" fill="#233862"/>
        <path id="Trazado_609302" data-name="Trazado 609302" d="M881.152,671.539c-.145,9.455-.041,7.479-1.076,8.376a3.969,3.969,0,0,1-1.872.4c-2.9.192-8-.288-8.189-.824-.668-1.854-.2-2.43-.753-5.268-.058-.3-.13-.629-.214-.984-.464-1.949-.917-2.613.735-5.744a24.451,24.451,0,0,1,3.193-5.055c3.948,2.345,4.267.375,4.267.375S881.223,666.928,881.152,671.539Z" transform="translate(-863.703 -650.974)" fill="#f99746"/>
        <path id="Trazado_609303" data-name="Trazado 609303" d="M1005.709,883.48l-3.038,8.167a4.916,4.916,0,0,1-1.613-.148,6.983,6.983,0,0,1-1.559-.759s.846-8.771,2.42-13.8Z" transform="translate(-978.149 -838.532)" fill="#2a4e96"/>
        <path id="Trazado_609304" data-name="Trazado 609304" d="M937.3,665.444s4.063.69,4.539,2.44,2.043,12.368,2.043,12.368-1.146,1.118-2.1.164-3-9.935-3-9.935Z" transform="translate(-923.758 -653.598)" fill="#f99746"/>
        <path id="Trazado_609305" data-name="Trazado 609305" d="M882.69,734.974c-2.9.191-8-.288-8.189-.824-.668-1.854-.2-2.43-.753-5.268l1.4-3.937s-.233,4.385,1.06,5.538,5.293,2.228,5.922,3.192A3.529,3.529,0,0,1,882.69,734.974Z" transform="translate(-868.188 -705.628)" fill="#ed7d2b"/>
        <path id="Trazado_609306" data-name="Trazado 609306" d="M918.508,787.041s2.86-.636,3.322-.382a6.717,6.717,0,0,1,1.73,1.5c.141.322-1.027-.245-1.407-.346a3.383,3.383,0,0,0-1.215.266,4.037,4.037,0,0,1-2.177.218Z" transform="translate(-907.328 -759.539)" fill="#ffb27d"/>
        <path id="Trazado_609307" data-name="Trazado 609307" d="M838.744,662.444s-3.84.235-5.171,2.089c-1.872,2.609-5.589,13.732-3.461,15.216,2.4,1.672,10.9.441,10.9.441a3.456,3.456,0,0,0-.11-1.964c-.394-.64-6.8-1.677-7.091-1.972s3.7-5.761,3.7-6.647S838.744,662.444,838.744,662.444Z" transform="translate(-829.473 -650.975)" fill="#f99746"/>
        <path id="Trazado_609308" data-name="Trazado 609308" d="M946.061,793.416a5.541,5.541,0,0,0,.8.866.587.587,0,0,0,.323.069l-.4-.727Z" transform="translate(-931.421 -765.501)" fill="#ffb27d"/>
        <path id="Trazado_609309" data-name="Trazado 609309" d="M944.961,787.076l1.742.846a.311.311,0,0,1-.289.112,4.164,4.164,0,0,1-.755-.208Z" transform="translate(-930.459 -759.957)" fill="#ffb27d"/>
      </g>
      <path id="Trazado_609310" data-name="Trazado 609310" d="M936.7,802.913l-18.2-.006v.4l18.038.006Z" transform="translate(-907.323 -773.799)" fill="#233862"/>
      <path id="Trazado_609311" data-name="Trazado 609311" d="M952.394,734.333l13.782,0,4.15-10.309-13.761,0Z" transform="translate(-936.959 -704.822)" fill="#233862"/>
      <path id="Trazado_609312" data-name="Trazado 609312" d="M1025.135,760.522a.477.477,0,0,0-.468-.656.94.94,0,0,0-.845.656.477.477,0,0,0,.468.656A.94.94,0,0,0,1025.135,760.522Z" transform="translate(-999.394 -736.164)" fill="#fff"/>
    </g>
    <g id="Grupo_1072140" data-name="Grupo 1072140" transform="translate(491.503 274.305)">
      <path id="Trazado_609313" data-name="Trazado 609313" d="M1718,1114.082a3.957,3.957,0,0,0-3.142.162c-5.346.22-5.545,5.7-4.917,7.738.881,2.864-2.237,5.122,1.221,6.281,4.013,1.345,7.381-.25,7.151.442C1731.008,1129.706,1722.226,1115.485,1718,1114.082Z" transform="translate(-1701.824 -1113.845)" fill="#163560"/>
      <path id="Trazado_609314" data-name="Trazado 609314" d="M1678.128,1248.869a14,14,0,0,1-1.429,2.162c-1.11,1.391-6.939-1.911-6.437-2.162s3.431-8.689,4.128-9.749,3.075-1.611,3.075-1.611Z" transform="translate(-1667.493 -1221.981)" fill="#f99746"/>
      <path id="Trazado_609315" data-name="Trazado 609315" d="M1849.173,1776.342s1.609,1.468,1.295,2.511-1.766,1.739-1.962,3.013-.981,1.97-1.687,1.97h-3.367s-.52-.9.736-1.168,1.729-1.769,1.65-3.159a24.521,24.521,0,0,1,.118-3.245l2.668-.618Z" transform="translate(-1818.869 -1692.543)" fill="#1f447f"/>
      <path id="Trazado_609316" data-name="Trazado 609316" d="M1717.494,1786.147s.579,6.219-.127,6.567l-9.039-.018s0-1.044,1.452-1.275,4-1.082,4.434-2.975S1717.494,1786.147,1717.494,1786.147Z" transform="translate(-1700.806 -1701.726)" fill="#1c3154"/>
      <path id="Trazado_609317" data-name="Trazado 609317" d="M1722.976,1241.248a35.98,35.98,0,0,1,0,4.178c-.089,1.51-1.617,3.534-1.834,4.034-.544,1.255-1.158,1.459-1.158,1.459l-4.746,1.163-1.669.408-5.262-1.572s-2.4-6.69-1.434-10.455a28.941,28.941,0,0,1,2.433-6.381,37.553,37.553,0,0,1,9.885-.356Z" transform="translate(-1699.335 -1218.554)" fill="#f99746"/>
      <path id="Trazado_609318" data-name="Trazado 609318" d="M1777.3,1299.77c-.089,1.51-2.07,3.481-2.286,3.981-.544,1.255-1.157,1.46-1.157,1.46l-4.746,1.163-.857-2.456s6.934-1.822,5.819-8.239Z" transform="translate(-1753.206 -1272.845)" fill="#ed7d2b"/>
      <path id="Trazado_609319" data-name="Trazado 609319" d="M1703.209,1379.674s-2.606,8.111-2.773,10.873,4.981,39.231,5.188,40.5c.2,1.2,1.685,1.964,1.685,1.964a2.255,2.255,0,0,0,1.663.128,4.11,4.11,0,0,0,1.785-.842s2.028-26.01.774-35.3a147.151,147.151,0,0,1-1.271-17.326Z" transform="translate(-1693.901 -1346.294)" fill="#233862"/>
      <path id="Trazado_609320" data-name="Trazado 609320" d="M1739.563,1377.748s3.975,5.334,4.345,8.939.582,16.27,1.371,19.784,3.69,10.279,3.69,21.242a2.187,2.187,0,0,1-1.232.963,10.172,10.172,0,0,1-1.084.3,1.7,1.7,0,0,1-1.906-.9c-1.961-3.948-8.208-16.683-8.528-19.327-.227-1.871-2.2-14.252-6.5-21.517-1.033-1.744.634-8.68.634-8.68Z" transform="translate(-1719.214 -1344.609)" fill="#2a4e96"/>
      <path id="Trazado_609321" data-name="Trazado 609321" d="M1718.2,1369.7a5.464,5.464,0,0,0,3.124.87c2.483.05,8.634-.633,8.634-.633a5.082,5.082,0,0,1,.262,1.57s-7.513,1.895-11.865.277A2.751,2.751,0,0,1,1718.2,1369.7Z" transform="translate(-1709.312 -1337.574)" fill="#233862"/>
      <g id="Grupo_1072139" data-name="Grupo 1072139" transform="translate(10.288 32.573)">
        <path id="Trazado_609322" data-name="Trazado 609322" d="M1731.485,1375.806a1.292,1.292,0,1,1,1.133-1.282A1.216,1.216,0,0,1,1731.485,1375.806Zm0-2.189a.921.921,0,1,0,.757.907A.843.843,0,0,0,1731.485,1373.618Z" transform="translate(-1730.352 -1373.242)" fill="#fff"/>
      </g>
      <path id="Trazado_609323" data-name="Trazado 609323" d="M1665.273,1321.305l-11.291.106-5.556-13.058,11.291-.105Z" transform="translate(-1648.426 -1283.837)" fill="#b5453c"/>
      <path id="Trazado_609324" data-name="Trazado 609324" d="M1730.5,1350.851l-.828-1.017a2.913,2.913,0,0,0-.967-.584c-.406-.085-1.265-.58-1.348-.441s.659,1.135.659,1.135l.038.005c-.853.641-3,.075-3.27.337-.322.317.443,1,.854,1.387a3.013,3.013,0,0,0,2.5.741c.669-.208,1.722-.42,1.722-.42Z" transform="translate(-1715.126 -1319.283)" fill="#ffb27d"/>
      <path id="Trazado_609325" data-name="Trazado 609325" d="M1654.685,1323.729s.71-.806,1.161-.419-.118,2.29-.548,2.1S1654.438,1323.965,1654.685,1323.729Z" transform="translate(-1653.836 -1296.915)" fill="#ffb27d"/>
      <path id="Trazado_609326" data-name="Trazado 609326" d="M1766.632,1234.67s3.232.356,5.552,4.571c1.829,3.324,4.956,9.451,3.776,11.181-.518.76-5.484,3.464-15.061,1.918a2.9,2.9,0,0,1,.923-1.77s8.06-2.588,8.046-3.1c-.026-.974-1.089-1.815-5.591-6.319C1763.053,1239.925,1766.632,1234.67,1766.632,1234.67Z" transform="translate(-1746.776 -1219.498)" fill="#f99746"/>
      <path id="Trazado_609327" data-name="Trazado 609327" d="M1752.749,1201.614c.111-.149-.032-.624-.209-1.508a16.54,16.54,0,0,1-.428-3.434l-.238.04-4.006.674s.091,1.071.094,2.08c0,.008,0,.017,0,.025.005.876-.236,2.2.059,2.374C1749.538,1202.755,1752.321,1202.188,1752.749,1201.614Z" transform="translate(-1735.38 -1186.272)" fill="#ffb27d"/>
      <path id="Trazado_609328" data-name="Trazado 609328" d="M1747.867,1197.664s.08,1.51.083,2.519c2.242-.054,3.438-2.23,3.924-3.193Z" transform="translate(-1735.38 -1186.549)" fill="#e8945b"/>
      <path id="Trazado_609329" data-name="Trazado 609329" d="M1726.791,1152.2s5.252-.748,4.735-4.011-.186-5.558-3.561-5.218-3.828,1.688-3.921,2.819S1725.411,1152.311,1726.791,1152.2Z" transform="translate(-1714.546 -1139.284)" fill="#ffb27d"/>
      <path id="Trazado_609330" data-name="Trazado 609330" d="M1736.2,1139.293s2.044,3.6,4.335,3.815,3.152-.527,3.152-.527a6.311,6.311,0,0,1-2.625-3.357S1736.988,1137.3,1736.2,1139.293Z" transform="translate(-1725.174 -1135.307)" fill="#163560"/>
      <path id="Trazado_609331" data-name="Trazado 609331" d="M1722.756,1144.224a3.29,3.29,0,0,0-1.314,1.412,5.34,5.34,0,0,0-.231,3.108s-1.495-2.43-.515-4.095C1721.735,1142.884,1722.756,1144.224,1722.756,1144.224Z" transform="translate(-1711.33 -1139.984)" fill="#163560"/>
    </g>
    <rect id="Rect치ngulo_377632" data-name="Rect치ngulo 377632" width="291.845" height="0.938" rx="0.469" transform="translate(327.155 365.13)" fill="#233862"/>
  </g>
</svg>
