<svg xmlns="http://www.w3.org/2000/svg" xmlns:xlink="http://www.w3.org/1999/xlink" width="152.738" height="177.257" viewBox="0 0 152.738 177.257">
  <defs>
    <clipPath id="clip-path">
      <path id="Trazado_614608" data-name="Trazado 614608" d="M528.857,202.561c-5.792-15.566-40.234-23.268-48.3-27.978a44.889,44.889,0,0,1-22.544,5.891,45.441,45.441,0,0,1-19.969-4.512c-11.31,4.815-40.19,12.465-45.449,26.6a176.061,176.061,0,0,0-8.236,30.323H537.093A176.063,176.063,0,0,0,528.857,202.561Z" fill="none"/>
    </clipPath>
  </defs>
  <g id="Grupo_1075339" data-name="Grupo 1075339" transform="translate(-251 -9394.404)">
    <g id="Grupo_1075245" data-name="Grupo 1075245" transform="translate(-159.439 1895.934)">
      <g id="Grupo_1015374" data-name="Grupo 1015374" transform="translate(425.437 7498.471)">
        <g id="Grupo_1015448" data-name="Grupo 1015448" transform="translate(0 0)">
          <g id="Grupo_1014855" data-name="Grupo 1014855" transform="translate(0)">
            <path id="Unión_12" data-name="Unión 12" d="M62,0A62,62,0,1,1,0,62,62,62,0,0,1,62,0Z" fill="#dadddf"/>
          </g>
        </g>
      </g>
    </g>
    <g id="Grupo_1075218" data-name="Grupo 1075218" transform="translate(-133.355 9338.777)">
      <g id="Grupo_1075212" data-name="Grupo 1075212">
        <g id="Grupo_1075206" data-name="Grupo 1075206">
          <path id="Trazado_614605" data-name="Trazado 614605" d="M527.8,202.782c-5.946-15.98-42.314-23.612-48.682-28.243-8.176-5.946-5.575-25.642-5.575-25.642l-13.378.352-13.379-.352s2.6,19.7-5.574,25.642c-6.369,4.631-42.737,12.263-48.683,28.243a174.823,174.823,0,0,0-8.176,30.1H535.978A174.828,174.828,0,0,0,527.8,202.782Z" fill="#965450"/>
          <path id="Trazado_614606" data-name="Trazado 614606" d="M444.31,170.869c6.262-.64,12.558-1.91,18.011-4.96a61.483,61.483,0,0,0,10.876-7.8,60.743,60.743,0,0,1,.348-9.209l-13.378.352-13.379-.352S448.639,162.915,444.31,170.869Z" fill="#76413b"/>
        </g>
        <g id="Grupo_1075211" data-name="Grupo 1075211">
          <path id="Trazado_614607" data-name="Trazado 614607" d="M528.857,202.561c-5.792-15.566-40.234-23.268-48.3-27.978a44.889,44.889,0,0,1-22.544,5.891,45.441,45.441,0,0,1-19.969-4.512c-11.31,4.815-40.19,12.465-45.449,26.6a176.061,176.061,0,0,0-8.236,30.323H537.093A176.063,176.063,0,0,0,528.857,202.561Z" fill="#ffa65b"/>
          <g id="Grupo_1075210" data-name="Grupo 1075210">
            <g id="Grupo_1075209" data-name="Grupo 1075209">
              <g id="Grupo_1075208" data-name="Grupo 1075208" clip-path="url(#clip-path)">
                <g id="Grupo_1075207" data-name="Grupo 1075207">
                  <line id="Línea_892" data-name="Línea 892" y2="72.5" transform="translate(514.478 175.801)" fill="none" stroke="#765e69" stroke-miterlimit="10" stroke-width="1.413"/>
                  <line id="Línea_893" data-name="Línea 893" y2="72.5" transform="translate(505.085 175.801)" fill="none" stroke="#765e69" stroke-miterlimit="10" stroke-width="1.413"/>
                  <line id="Línea_894" data-name="Línea 894" y2="72.5" transform="translate(495.692 175.801)" fill="none" stroke="#765e69" stroke-miterlimit="10" stroke-width="1.413"/>
                  <line id="Línea_895" data-name="Línea 895" y2="72.5" transform="translate(486.3 175.801)" fill="none" stroke="#765e69" stroke-miterlimit="10" stroke-width="1.413"/>
                  <line id="Línea_896" data-name="Línea 896" y2="72.5" transform="translate(476.907 175.801)" fill="none" stroke="#765e69" stroke-miterlimit="10" stroke-width="1.413"/>
                  <line id="Línea_897" data-name="Línea 897" y2="72.5" transform="translate(467.514 175.801)" fill="none" stroke="#765e69" stroke-miterlimit="10" stroke-width="1.413"/>
                  <line id="Línea_898" data-name="Línea 898" y2="72.5" transform="translate(458.121 175.801)" fill="none" stroke="#765e69" stroke-miterlimit="10" stroke-width="1.413"/>
                  <line id="Línea_899" data-name="Línea 899" y2="72.5" transform="translate(448.728 175.801)" fill="none" stroke="#765e69" stroke-miterlimit="10" stroke-width="1.413"/>
                  <line id="Línea_900" data-name="Línea 900" y2="72.5" transform="translate(439.335 175.801)" fill="none" stroke="#765e69" stroke-miterlimit="10" stroke-width="1.413"/>
                  <line id="Línea_901" data-name="Línea 901" y2="72.5" transform="translate(429.942 175.801)" fill="none" stroke="#765e69" stroke-miterlimit="10" stroke-width="1.413"/>
                  <line id="Línea_902" data-name="Línea 902" y2="72.5" transform="translate(420.55 175.801)" fill="none" stroke="#765e69" stroke-miterlimit="10" stroke-width="1.413"/>
                  <line id="Línea_903" data-name="Línea 903" y2="72.5" transform="translate(411.157 175.801)" fill="none" stroke="#765e69" stroke-miterlimit="10" stroke-width="1.413"/>
                  <line id="Línea_904" data-name="Línea 904" y2="72.5" transform="translate(401.764 175.801)" fill="none" stroke="#765e69" stroke-miterlimit="10" stroke-width="1.413"/>
                  <line id="Línea_905" data-name="Línea 905" y2="72.5" transform="translate(392.371 175.801)" fill="none" stroke="#765e69" stroke-miterlimit="10" stroke-width="1.413"/>
                  <line id="Línea_906" data-name="Línea 906" y2="72.5" transform="translate(523.871 175.801)" fill="none" stroke="#765e69" stroke-miterlimit="10" stroke-width="1.413"/>
                  <line id="Línea_907" data-name="Línea 907" x2="158.989" transform="translate(379.371 197.196)" fill="none" stroke="#765e69" stroke-miterlimit="10" stroke-width="1"/>
                  <line id="Línea_908" data-name="Línea 908" x2="158.989" transform="translate(379.371 206.589)" fill="none" stroke="#765e69" stroke-miterlimit="10" stroke-width="1"/>
                  <line id="Línea_909" data-name="Línea 909" x2="158.989" transform="translate(379.371 215.982)" fill="none" stroke="#765e69" stroke-miterlimit="10" stroke-width="1"/>
                  <line id="Línea_910" data-name="Línea 910" x2="158.989" transform="translate(379.371 225.375)" fill="none" stroke="#765e69" stroke-miterlimit="10" stroke-width="1"/>
                  <line id="Línea_911" data-name="Línea 911" x2="158.989" transform="translate(379.371 187.803)" fill="none" stroke="#765e69" stroke-miterlimit="10" stroke-width="1"/>
                </g>
              </g>
            </g>
          </g>
        </g>
      </g>
      <g id="Grupo_1075217" data-name="Grupo 1075217">
        <g id="Grupo_1075213" data-name="Grupo 1075213">
          <path id="Trazado_614609" data-name="Trazado 614609" d="M437.7,118.191c-2.161-6.7-7.277-5.151-7.756-4.989-.5.059-5.791.844-4.877,7.827.919,7.025,4.995,10.833,8.817,9.714C437.819,130.12,439.876,124.935,437.7,118.191Z" fill="#76413b"/>
          <path id="Trazado_614610" data-name="Trazado 614610" d="M481.961,118.191c2.161-6.7,7.277-5.151,7.756-4.989.5.059,5.791.844,4.877,7.827-.919,7.025-4.995,10.833-8.817,9.714C481.844,130.12,479.787,124.935,481.961,118.191Z" fill="#76413b"/>
          <path id="Trazado_614611" data-name="Trazado 614611" d="M486.422,107.646C483.744,78.259,461.4,79.9,459.3,80.126c-2.107-.221-24.448-1.867-27.126,27.52-2.694,29.563,10.474,48.87,27.126,47.808C475.948,156.516,489.115,137.209,486.422,107.646Z" fill="#965450"/>
        </g>
        <g id="Grupo_1075215" data-name="Grupo 1075215">
          <path id="Trazado_614612" data-name="Trazado 614612" d="M460.779,132.517l3.374-3.2-1.664-11.641" fill="none" stroke="#76413b" stroke-miterlimit="10" stroke-width="1.115"/>
          <g id="Grupo_1075214" data-name="Grupo 1075214">
            <path id="Trazado_614613" data-name="Trazado 614613" d="M445.4,118.123c0,2.213.822,4.008,1.835,4.008s1.835-1.795,1.835-4.008-.822-4.008-1.835-4.008S445.4,115.909,445.4,118.123Z" fill="#352c38"/>
            <path id="Trazado_614614" data-name="Trazado 614614" d="M470.61,118.123c0,2.213.822,4.008,1.835,4.008s1.835-1.795,1.835-4.008-.822-4.008-1.835-4.008S470.61,115.909,470.61,118.123Z" fill="#352c38"/>
          </g>
          <path id="Trazado_614615" data-name="Trazado 614615" d="M440.892,111.565s6.392-7.813,12.785-.533" fill="none" stroke="#352c38" stroke-miterlimit="10" stroke-width="2.131"/>
          <path id="Trazado_614616" data-name="Trazado 614616" d="M466.284,111.565s6.392-7.813,12.784-.533" fill="none" stroke="#352c38" stroke-miterlimit="10" stroke-width="2.131"/>
          <path id="Trazado_614617" data-name="Trazado 614617" d="M448.11,136.8l24.763-.236S462.11,146.551,448.11,136.8Z" fill="#fff"/>
        </g>
        <g id="Grupo_1075216" data-name="Grupo 1075216">
          <path id="Trazado_614618" data-name="Trazado 614618" d="M430.61,90.8s-1.5,36.75,2.75,54c3.2,12.984,12.5,16.5,12.5,16.5s22,8.5,34.25-5.25c3.528-3.959,9-24.75,6.5-62l-9-3.75s1.5,18.25,6,20.5c0,0-1.323,32.616-7,36.5-4.75,3.25,3.25-15-6-14.75s-9.5.5-9.5.5-16.5-2.75-16.25,3.75,2,10.75-.25,10.75-10.5-5.25-9-39.5c0,0,4.75-1.75,4.75-13.75C440.36,78.52,430.61,90.8,430.61,90.8Z" fill="#352c38"/>
          <path id="Trazado_614619" data-name="Trazado 614619" d="M439.36,88.8s7.191,9.75,15.75,9.75c4.75,0,0-8.25,0-8.25s6.75,10.5,13.75,10.25,1-10.25,1-10.25,5.25,10.75,11.75,10.25,1-11,1-11,3,11.25,9.25,9.75-1.5-11.25-1.5-11.25,5.25,5,7.5,4.75,2.25-7-5.5-10.25c0,0,7.75-.25,8-4,.283-4.248-4.75-5.75-16.25-4.5,0,0,9.5-4,7.5-7.5s-10.5,1.5-10.5,1.5,8.5-4.75,3.5-8.5c-4.1-3.077-25.5-3-38.5,12.5,0,0,27-14.25,23.75-16.25-2.295-1.412-34.594,5.805-39.5,19.5-6,16.75-1.5,26.25.44,37.656Z" fill="#352c38"/>
        </g>
      </g>
    </g>
  </g>
</svg>
