<svg xmlns="http://www.w3.org/2000/svg" width="152.738" height="175.416" viewBox="0 0 152.738 175.416">
  <g id="Grupo_1075338" data-name="Grupo 1075338" transform="translate(-1196 -8953.629)">
    <g id="Grupo_1075337" data-name="Grupo 1075337">
      <g id="Grupo_1075244" data-name="Grupo 1075244" transform="translate(785.562 1461.587)">
        <g id="Grupo_1015374" data-name="Grupo 1015374" transform="translate(425.437 7498.471)">
          <g id="Grupo_1015448" data-name="Grupo 1015448" transform="translate(0 0)">
            <g id="Grupo_1014855" data-name="Grupo 1014855" transform="translate(0)">
              <path id="Unión_12" data-name="Unión 12" d="M62,0A62,62,0,1,1,0,62,62,62,0,0,1,62,0Z" fill="#03386e"/>
            </g>
          </g>
        </g>
      </g>
      <g id="Grupo_1075205" data-name="Grupo 1075205" transform="translate(640.197 8896.161)">
        <g id="Grupo_1075199" data-name="Grupo 1075199">
          <g id="Grupo_1075197" data-name="Grupo 1075197">
            <path id="Trazado_614589" data-name="Trazado 614589" d="M699.251,202.782c-5.946-15.98-42.315-23.612-48.683-28.243-8.176-5.946-5.575-25.642-5.575-25.642l-13.378.352-13.379-.352s2.6,19.7-5.574,25.642c-6.369,4.631-42.737,12.263-48.683,28.243a174.828,174.828,0,0,0-8.176,30.1H707.426A174.76,174.76,0,0,0,699.251,202.782Z" fill="#f19c7c"/>
            <path id="Trazado_614590" data-name="Trazado 614590" d="M615.758,170.869c6.262-.64,12.558-1.91,18.011-4.96a61.41,61.41,0,0,0,10.876-7.8,60.744,60.744,0,0,1,.348-9.209l-13.378.352-13.379-.352S620.088,162.915,615.758,170.869Z" fill="#d88971"/>
          </g>
          <g id="Grupo_1075198" data-name="Grupo 1075198">
            <path id="Trazado_614591" data-name="Trazado 614591" d="M700.3,202.561c-5.792-15.566-40.234-23.268-48.3-27.978a44.889,44.889,0,0,1-22.544,5.891,45.441,45.441,0,0,1-19.969-4.512c-11.31,4.815-40.19,12.465-45.449,26.6a176.063,176.063,0,0,0-8.236,30.323H708.541A176.063,176.063,0,0,0,700.3,202.561Z" fill="#5d8584"/>
            <path id="Trazado_614592" data-name="Trazado 614592" d="M609.488,175.962s4.872-3.161,5.983-8.049l32.222-1.556s1.111,6.444,5.556,8.889C653.249,175.246,629.728,188.679,609.488,175.962Z" fill="#7badaa"/>
          </g>
        </g>
        <g id="Grupo_1075204" data-name="Grupo 1075204">
          <g id="Grupo_1075200" data-name="Grupo 1075200">
            <path id="Trazado_614593" data-name="Trazado 614593" d="M609.15,118.191c-2.16-6.7-7.277-5.151-7.756-4.989-.5.059-5.791.844-4.877,7.827.919,7.025,4.995,10.833,8.817,9.714C609.268,130.12,611.324,124.935,609.15,118.191Z" fill="#d88971"/>
            <path id="Trazado_614594" data-name="Trazado 614594" d="M653.409,118.191c2.161-6.7,7.277-5.151,7.756-4.989.5.059,5.791.844,4.878,7.827-.92,7.025-5,10.833-8.818,9.714C653.292,130.12,651.235,124.935,653.409,118.191Z" fill="#d88971"/>
            <path id="Trazado_614595" data-name="Trazado 614595" d="M657.87,107.646c-2.678-29.387-25.019-27.741-27.126-27.52-2.107-.221-24.448-1.867-27.126,27.52-2.693,29.563,10.474,48.87,27.126,47.808C647.4,156.516,660.564,137.209,657.87,107.646Z" fill="#f19c7c"/>
          </g>
          <g id="Grupo_1075202" data-name="Grupo 1075202">
            <path id="Trazado_614596" data-name="Trazado 614596" d="M633.937,117.68l1.664,11.641-3.374,3.2" fill="none" stroke="#b26e59" stroke-miterlimit="10" stroke-width="1.115"/>
            <path id="Trazado_614597" data-name="Trazado 614597" d="M617.808,136.842l26.513-.277S633.719,147,617.808,136.842Z" fill="#fff"/>
            <path id="Trazado_614598" data-name="Trazado 614598" d="M624.607,142.167c5.68,2.69,12.091,2.479,17.137-1.948" fill="none" stroke="#b26e59" stroke-miterlimit="10" stroke-width="1.115"/>
            <g id="Grupo_1075201" data-name="Grupo 1075201">
              <path id="Trazado_614599" data-name="Trazado 614599" d="M616.844,118.123c0,2.213.822,4.008,1.835,4.008s1.835-1.795,1.835-4.008-.821-4.008-1.835-4.008S616.844,115.909,616.844,118.123Z" fill="#352c38"/>
              <path id="Trazado_614600" data-name="Trazado 614600" d="M642.058,118.123c0,2.213.822,4.008,1.835,4.008s1.835-1.795,1.835-4.008-.821-4.008-1.835-4.008S642.058,115.909,642.058,118.123Z" fill="#352c38"/>
            </g>
            <path id="Trazado_614601" data-name="Trazado 614601" d="M612.34,111.565s6.392-7.813,12.785-.533" fill="none" stroke="#352c38" stroke-miterlimit="10" stroke-width="2.131"/>
            <path id="Trazado_614602" data-name="Trazado 614602" d="M637.732,111.565s6.392-7.813,12.784-.533" fill="none" stroke="#352c38" stroke-miterlimit="10" stroke-width="2.131"/>
          </g>
          <g id="Grupo_1075203" data-name="Grupo 1075203">
            <path id="Trazado_614603" data-name="Trazado 614603" d="M658.027,123.8c7.666-19,4.333-41.666,4.333-41.666a29.145,29.145,0,0,0-.667-17.334c0,5.667-5,12.667-5,12.667,4.334-6.667.667-20,.667-20-2.667,5-14.333,13.667-14.333,13.667l5.666-8.334c-13.333-.666-21.666,6-21.666,6l6.333-7c-18,1.667-25.333,14-25.333,14-18.334,7.667-4.334,49.334-4.334,49.334h2V109.8s6.667-3.333,6.334-20.333a71.362,71.362,0,0,0,36.666,0s-2.333,17.333,7.334,19l-.334,15.667Z" fill="#fddec0"/>
            <path id="Trazado_614604" data-name="Trazado 614604" d="M628.062,91.792a60.123,60.123,0,0,1-10.422-5.683,23.383,23.383,0,0,1-8.764-11.515c-.567.745-.849,1.207-.849,1.207-18.334,7.667-4.334,49.334-4.334,49.334h2V109.8s6.667-3.333,6.334-20.333A64.53,64.53,0,0,0,628.062,91.792Z" fill="#352c38" opacity="0.1"/>
          </g>
        </g>
      </g>
    </g>
  </g>
</svg>
