<svg xmlns="http://www.w3.org/2000/svg" xmlns:xlink="http://www.w3.org/1999/xlink" width="152.738" height="200.291" viewBox="0 0 152.738 200.291">
  <defs>
    <clipPath id="clip-path">
      <path id="Trazado_614498" data-name="Trazado 614498" d="M356.866,414.05c-2.177-5.85-8.4-10.59-15.753-14.477-13.129,8.96-31.733,14.562-52.38,14.562s-39.249-5.6-52.378-14.56c-7.35,3.887-13.578,8.624-15.755,14.475a176.086,176.086,0,0,0-8.236,30.323H365.1A176.194,176.194,0,0,0,356.866,414.05Z" fill="none"/>
    </clipPath>
  </defs>
  <g id="Grupo_1075341" data-name="Grupo 1075341" transform="translate(-881 -9373.243)">
    <g id="Grupo_1075247" data-name="Grupo 1075247" transform="translate(470.562 1897.934)">
      <g id="Grupo_1015374" data-name="Grupo 1015374" transform="translate(425.437 7498.471)">
        <g id="Grupo_1015448" data-name="Grupo 1015448" transform="translate(0 0)">
          <g id="Grupo_1014855" data-name="Grupo 1014855" transform="translate(0)">
            <path id="Unión_12" data-name="Unión 12" d="M62,0A62,62,0,1,1,0,62,62,62,0,0,1,62,0Z" fill="#6debff"/>
          </g>
        </g>
      </g>
    </g>
    <g id="Grupo_1075249" data-name="Grupo 1075249" transform="translate(-14)">
      <g id="Grupo_1075176" data-name="Grupo 1075176" transform="translate(682.636 9129.161)">
        <g id="Grupo_1075168" data-name="Grupo 1075168">
          <g id="Grupo_1075163" data-name="Grupo 1075163">
            <path id="Trazado_614495" data-name="Trazado 614495" d="M355.811,414.272c-5.946-15.98-42.314-23.612-48.683-28.244-8.176-5.946-5.574-25.642-5.574-25.642l-13.379.352-13.378-.352s2.6,19.7-5.575,25.642c-6.368,4.632-42.737,12.264-48.683,28.244a174.766,174.766,0,0,0-8.175,30.1H363.987A174.829,174.829,0,0,0,355.811,414.272Z" fill="#965450"/>
            <path id="Trazado_614496" data-name="Trazado 614496" d="M272.318,382.358c6.263-.64,12.558-1.909,18.011-4.959a61.411,61.411,0,0,0,10.876-7.8,60.669,60.669,0,0,1,.349-9.21l-13.379.352-13.378-.352S276.648,374.4,272.318,382.358Z" fill="#76413b"/>
          </g>
          <g id="Grupo_1075167" data-name="Grupo 1075167">
            <path id="Trazado_614497" data-name="Trazado 614497" d="M356.866,414.05c-2.177-5.85-8.4-10.59-15.753-14.477-13.129,8.96-31.733,14.562-52.38,14.562s-39.249-5.6-52.378-14.56c-7.35,3.887-13.578,8.624-15.755,14.475a176.086,176.086,0,0,0-8.236,30.323H365.1A176.194,176.194,0,0,0,356.866,414.05Z" fill="#5d8584"/>
            <g id="Grupo_1075166" data-name="Grupo 1075166">
              <g id="Grupo_1075165" data-name="Grupo 1075165" clip-path="url(#clip-path)">
                <g id="Grupo_1075164" data-name="Grupo 1075164">
                  <line id="Línea_889" data-name="Línea 889" x2="147.333" transform="translate(214.36 408.469)" fill="none" stroke="#fff" stroke-miterlimit="10" stroke-width="0.885"/>
                  <line id="Línea_890" data-name="Línea 890" x2="151.333" transform="translate(214.36 439.135)" fill="none" stroke="#fff" stroke-miterlimit="10" stroke-width="0.885"/>
                  <line id="Línea_891" data-name="Línea 891" x2="163.333" transform="translate(207.693 424.267)" fill="none" stroke="#fff" stroke-miterlimit="10" stroke-width="0.885"/>
                </g>
              </g>
            </g>
          </g>
        </g>
        <g id="Grupo_1075175" data-name="Grupo 1075175">
          <g id="Grupo_1075169" data-name="Grupo 1075169">
            <path id="Trazado_614499" data-name="Trazado 614499" d="M265.711,329.681c-2.161-6.7-7.277-5.151-7.757-4.99-.5.059-5.79.844-4.877,7.828.919,7.025,4.995,10.832,8.818,9.714C265.828,341.609,267.884,336.424,265.711,329.681Z" fill="#76413b"/>
            <path id="Trazado_614500" data-name="Trazado 614500" d="M309.969,329.681c2.161-6.7,7.278-5.151,7.757-4.99.5.059,5.791.844,4.877,7.828-.919,7.025-4.995,10.832-8.818,9.714C309.852,341.609,307.8,336.424,309.969,329.681Z" fill="#76413b"/>
            <path id="Trazado_614501" data-name="Trazado 614501" d="M314.43,319.136c-2.677-29.388-25.019-27.742-27.126-27.52-2.107-.222-24.448-1.868-27.125,27.52-2.694,29.562,10.474,48.869,27.125,47.807C303.956,368.005,317.124,348.7,314.43,319.136Z" fill="#965450"/>
          </g>
          <g id="Grupo_1075171" data-name="Grupo 1075171">
            <path id="Trazado_614502" data-name="Trazado 614502" d="M290.5,329.169l1.664,11.641-3.374,3.2" fill="none" stroke="#76413b" stroke-miterlimit="10" stroke-width="1.115"/>
            <path id="Trazado_614503" data-name="Trazado 614503" d="M274.369,348.332l26.513-.278S290.279,358.488,274.369,348.332Z" fill="#fff"/>
            <path id="Trazado_614504" data-name="Trazado 614504" d="M281.168,353.657c5.679,2.689,12.09,2.479,17.137-1.949" fill="none" stroke="#76413b" stroke-miterlimit="10" stroke-width="1.115"/>
            <g id="Grupo_1075170" data-name="Grupo 1075170">
              <path id="Trazado_614505" data-name="Trazado 614505" d="M273.4,329.612c0,2.214.821,4.008,1.835,4.008s1.835-1.794,1.835-4.008-.822-4.008-1.835-4.008S273.4,327.4,273.4,329.612Z" fill="#352c38"/>
              <path id="Trazado_614506" data-name="Trazado 614506" d="M298.619,329.612c0,2.214.821,4.008,1.835,4.008s1.834-1.794,1.834-4.008-.821-4.008-1.834-4.008S298.619,327.4,298.619,329.612Z" fill="#352c38"/>
            </g>
            <path id="Trazado_614507" data-name="Trazado 614507" d="M268.9,323.054s6.392-7.812,12.784-.532" fill="none" stroke="#352c38" stroke-miterlimit="10" stroke-width="2.131"/>
            <path id="Trazado_614508" data-name="Trazado 614508" d="M294.292,323.054s6.392-7.812,12.785-.532" fill="none" stroke="#352c38" stroke-miterlimit="10" stroke-width="2.131"/>
          </g>
          <g id="Grupo_1075174" data-name="Grupo 1075174">
            <g id="Grupo_1075172" data-name="Grupo 1075172">
              <path id="Trazado_614509" data-name="Trazado 614509" d="M274.365,286.267s-16.325-5.6-13.527-13.061,15.393,2.8,15.393,2.8-20.99-18.191-10.728-23.322,21.923,20.057,21.923,20.057-20.524-25.188-1.866-28.453,5.131,33.584,5.131,33.584,6.53-26.121,17.259-22.39c14.221,4.947-11.661,25.655-11.661,25.655s15.859-13.527,19.124-10.728-4.531,9.857-13.061,15.859C289.758,295.13,289.758,294.663,274.365,286.267Z" fill="#352c38"/>
              <ellipse id="Elipse_6027" data-name="Elipse 6027" cx="13" cy="8.5" rx="13" ry="8.5" transform="translate(274.36 280.301)" fill="#ffa65b"/>
            </g>
            <g id="Grupo_1075173" data-name="Grupo 1075173">
              <path id="Trazado_614510" data-name="Trazado 614510" d="M286.739,300.7s.121,12.1-24.379,19.1c0,0,1.5,18.5-2,17.5s-19.277-53.284,26.763-51.67Z" fill="#352c38"/>
              <path id="Trazado_614511" data-name="Trazado 614511" d="M286.739,300.7s.4,12.1,24.9,19.1c0,0-1.5,18.5,2,17.5s18.827-52.438-26.521-51.67Z" fill="#352c38"/>
              <path id="Trazado_614512" data-name="Trazado 614512" d="M294.273,311.643c-7.585-9.031-8.662-15.185-5.517-25.187a5.836,5.836,0,0,1-.916-.22c-3.388,8.356-6.1,22.353,8.246,31.022C296.086,317.258,303.511,322.642,294.273,311.643Z" fill="#352c38"/>
              <path id="Trazado_614513" data-name="Trazado 614513" d="M287.86,310.8c-3.631-8.942-2.919-14.006,2.049-21a4.944,4.944,0,0,1-.658-.4c-4.743,5.652-10.38,15.868-1.394,26.232C287.857,315.63,292.282,321.693,287.86,310.8Z" fill="#352c38"/>
            </g>
          </g>
        </g>
      </g>
    </g>
  </g>
</svg>
